<?xml version="1.0" encoding="utf-8"?>
<!-- Generator: Adobe Illustrator 16.0.3, SVG Export Plug-In . SVG Version: 6.00 Build 0)  -->
<!DOCTYPE svg PUBLIC "-//W3C//DTD SVG 1.1//EN" "http://www.w3.org/Graphics/SVG/1.1/DTD/svg11.dtd">
<svg version="1.1" id="Layer_1" xmlns="http://www.w3.org/2000/svg" xmlns:xlink="http://www.w3.org/1999/xlink" x="0px" y="0px"
	 width="24.365px" height="31.289px" viewBox="0 0 24.365 31.289" enable-background="new 0 0 24.365 31.289" xml:space="preserve">
<g>
	<path fill="#0D0D0D" d="M24.356,13.357c-0.044,1.353-0.195,2.694-0.453,4.024c-0.26,1.331-0.645,2.524-1.154,3.581
		c-0.512,1.058-1.163,1.914-1.953,2.568c-0.792,0.655-1.741,0.981-2.85,0.981c-0.733,0-1.398-0.183-1.995-0.55
		s-1.068-0.896-1.413-1.587c-0.461,0.648-0.997,1.159-1.608,1.532c-0.611,0.375-1.277,0.562-1.996,0.562
		c-0.863,0-1.619-0.194-2.266-0.582c-0.647-0.389-1.172-0.946-1.575-1.672c-0.403-0.728-0.68-1.602-0.831-2.623
		s-0.169-2.157-0.054-3.409c0.158-1.468,0.442-2.791,0.852-3.971c0.41-1.18,0.938-2.189,1.586-3.031
		c0.647-0.841,1.41-1.489,2.287-1.941c0.877-0.454,1.863-0.681,2.957-0.681c1.122,0,2.039,0.166,2.751,0.496
		c0.712,0.331,1.291,0.712,1.736,1.144L17.45,19.572c-0.029,0.416-0.018,0.74,0.033,0.971c0.05,0.229,0.129,0.402,0.237,0.518
		c0.107,0.115,0.233,0.187,0.377,0.215c0.144,0.03,0.288,0.044,0.432,0.044c0.374,0,0.716-0.194,1.025-0.583
		c0.31-0.388,0.579-0.927,0.81-1.618c0.229-0.69,0.406-1.514,0.528-2.471c0.122-0.956,0.184-2.003,0.184-3.14
		c0.058-1.755-0.069-3.275-0.378-4.563c-0.31-1.288-0.795-2.349-1.457-3.184c-0.661-0.833-1.488-1.452-2.48-1.854
		c-0.993-0.403-2.137-0.604-3.432-0.604c-1.467,0-2.787,0.327-3.959,0.981c-1.173,0.654-2.172,1.564-3,2.729
		c-0.828,1.166-1.478,2.551-1.953,4.154c-0.475,1.604-0.741,3.362-0.799,5.275c-0.072,1.929,0.061,3.611,0.399,5.05
		s0.863,2.637,1.575,3.594c0.712,0.955,1.611,1.672,2.698,2.146c1.085,0.475,2.333,0.712,3.744,0.712
		c0.446,0,0.906-0.028,1.381-0.086c0.475-0.058,0.939-0.142,1.392-0.249s0.885-0.233,1.295-0.377s0.779-0.302,1.11-0.475l0.69,2.913
		c-0.373,0.273-0.802,0.511-1.283,0.712c-0.482,0.202-0.989,0.37-1.521,0.507s-1.064,0.237-1.597,0.302
		c-0.532,0.064-1.043,0.098-1.532,0.098c-2.101,0-3.913-0.346-5.438-1.036c-1.524-0.689-2.783-1.676-3.776-2.956
		c-0.992-1.28-1.715-2.838-2.168-4.672s-0.645-3.896-0.572-6.183c0.072-2.272,0.45-4.408,1.133-6.408
		C1.831,8.035,2.766,6.29,3.953,4.802C5.14,3.313,6.545,2.141,8.172,1.283C9.797,0.428,11.588,0,13.544,0
		c1.697,0,3.229,0.32,4.597,0.961c1.365,0.639,2.521,1.546,3.463,2.718c0.942,1.174,1.65,2.579,2.126,4.219
		C24.205,9.537,24.413,11.357,24.356,13.357z M9.941,16.184c-0.086,1.654,0.046,2.898,0.399,3.733s0.881,1.251,1.586,1.251
		c0.345,0,0.698-0.089,1.058-0.27c0.359-0.179,0.704-0.527,1.035-1.046c0-0.043,0.003-0.09,0.011-0.141
		c0.008-0.05,0.012-0.097,0.012-0.14l0.819-9.646c-0.216-0.043-0.438-0.064-0.669-0.064c-1.251,0-2.219,0.539-2.902,1.619
		C10.606,12.559,10.157,14.126,9.941,16.184z"/>
</g>
</svg>
