<?xml version="1.0" encoding="utf-8"?>
<!-- Generator: Adobe Illustrator 16.0.3, SVG Export Plug-In . SVG Version: 6.00 Build 0)  -->
<!DOCTYPE svg PUBLIC "-//W3C//DTD SVG 1.1//EN" "http://www.w3.org/Graphics/SVG/1.1/DTD/svg11.dtd">
<svg version="1.1" id="Layer_1" xmlns="http://www.w3.org/2000/svg" xmlns:xlink="http://www.w3.org/1999/xlink" x="0px" y="0px"
	 width="68.031px" height="68.031px" viewBox="0 0 68.031 68.031" enable-background="new 0 0 68.031 68.031" xml:space="preserve">
<path fill="#C1C1C1" d="M58.099,29.041c-0.447,6.903-4.28,11.782-10.877,13.634c-1.479,0.414-3.002,0.676-4.738,1.062
	c2.181,2.601,2.193,5.601,2.154,8.614c-0.025,2.041-0.045,4.084-0.062,6.125c-0.007,0.785,0.05,1.697,0.179,2.154
	c-4.881,0-13.107,0-18.025,0c0.102-0.197,0.182-0.423,0.213-0.711c0.231-2.16,0.059-4.361,0.059-6.563
	c-1.271,0.099-2.219,0.192-3.17,0.241c-4.236,0.218-7.398-1.146-9.148-5.406c-0.687-1.666-2.364-2.924-3.588-4.369
	c-0.391-0.463-0.769-0.938-1.235-1.51c1.928-1.021,3.479-0.521,4.759,0.521c1.095,0.892,1.991,2.063,2.84,3.208
	c2.097,2.838,5.312,3.865,8.605,2.607c0.414-0.156,0.927-0.44,1.09-0.803c0.619-1.373,1.117-2.805,1.658-4.211
	c-1.192-0.248-2.379-0.451-3.541-0.742c-10.805-2.703-15.578-15.871-9.116-25.001c0.405-0.574,0.438-1.472,0.481-2.229
	c0.133-2.191,0.135-4.392,0.282-6.58c0.101-1.505,1.122-1.981,2.4-1.497c2.23,0.842,4.376,1.906,6.598,2.773
	c0.769,0.302,1.71,0.548,2.484,0.39c4.831-0.989,9.659-1.127,14.464-0.002c1.312,0.307,2.236-0.007,3.351-0.589
	c1.9-0.991,3.905-1.799,5.918-2.548c1.428-0.531,2.555-0.057,2.668,1.611c0.146,2.132,0.119,4.275,0.188,6.414
	c0.02,0.622-0.125,1.432,0.2,1.836C57.96,20.896,58.372,24.855,58.099,29.041z"/>
<g>
	<path fill="#00FFFF" d="M49.212-153.313c-0.867,2.949-2.524,3.918-5.465,3.825c-7.546-0.237-15.104-0.079-22.656-0.079
		c-0.761,0-1.521,0-2.421,0c0,9.123,0,18.104,0,27.209c16.239,0,32.435,0,48.804,0c0-8.95,0-17.921,0-27.135
		c-2.638,0-5.314,0-8.088,0c1.357-3.242,2.415-3.991,5.401-3.992c1.049,0,2.097-0.008,3.147,0.002
		c2.64,0.025,3.484,0.847,3.489,3.547c0.018,10.421,0.016,20.842,0.001,31.262c-0.003,2.273-0.723,3.063-2.993,3.066
		c-16.924,0.023-33.85,0.024-50.772-0.004c-2.161-0.004-2.902-0.808-2.906-2.939c-0.016-10.49-0.018-20.981,0.001-31.471
		c0.004-2.411,0.856-3.44,2.947-3.447c10.211-0.029,20.421-0.011,30.632-0.001C48.593-153.468,48.852-153.378,49.212-153.313z"/>
	<path fill="#00FFFF" d="M39.02-134.767c5.672-8.055,11.075-15.766,16.539-23.436c0.71-0.997,1.588-2.094,2.645-2.561
		c1.01-0.445,2.642-0.563,3.47-0.019c0.807,0.53,1.203,2.064,1.279,3.192c0.059,0.852-0.471,1.938-1.08,2.612
		c-6.694,7.395-13.454,14.729-20.352,22.252C40.651-133.435,39.835-134.101,39.02-134.767z"/>
	<path fill="#00FFFF" d="M48.465-113.635c0.977,2.061,1.829,3.861,2.713,5.729c-5.242,0-10.806,0-16.148,0
		c0.826-1.775,1.689-3.631,2.667-5.729C41.163-113.635,45.027-113.635,48.465-113.635z"/>
	<path fill="#00FFFF" d="M29.863-127.836c2.457,0.006,3.719-1.273,4.321-3.504c0.386-1.429,1.357-2.802,2.909-2.398
		c1.412,0.365,2.93,1.31,3.817,2.451c0.971,1.25-0.121,2.334-1.435,2.83C36.366-127.28,33.179-126.929,29.863-127.836z"/>
</g>
<g>
	<path fill-rule="evenodd" clip-rule="evenodd" fill="#C1C1C1" d="M-201.94,15.105c4.256-4.279,8.217-8.261,12.277-12.341
		c6.907,6.956,13.853,13.95,20.865,21.008c2.822-2.827,5.482-5.487,8.141-8.148c3.037-3.036,6.061-6.082,9.113-9.101
		c1.807-1.788,3.975-2.455,6.42-1.641c2.355,0.787,3.781,2.481,4.254,4.94c0.357,1.861-0.219,3.482-1.336,4.938
		c-0.348,0.452-0.779,0.84-1.182,1.244c-14.637,14.641-29.267,29.289-43.941,43.891c-0.759,0.753-1.849,1.3-2.884,1.625
		c-2.542,0.794-5.141,1.403-7.716,2.086c-1.572,0.417-2.308-0.278-1.908-1.806c0.723-2.764,1.405-5.538,2.208-8.277
		c0.228-0.775,0.692-1.57,1.261-2.147c5.092-5.158,10.232-10.269,15.385-15.418C-187.997,28.978-194.974,22.036-201.94,15.105z
		 M-189.85,58.573c14.773-14.771,29.468-29.464,44.058-44.053c-1.623-1.625-3.32-3.324-4.871-4.878
		c-14.633,14.63-29.356,29.347-44.047,44.034C-193.139,55.259-191.468,56.943-189.85,58.573z M-197.988,14.641
		c6.389,6.395,12.746,12.757,18.977,18.995c2.132-2.131,4.349-4.345,6.613-6.606c-0.393-0.431-0.864-0.947-1.387-1.523
		c0.509-0.555,0.986-1.073,1.357-1.479c-0.622-0.728-1.219-1.43-2.05-2.405c-0.956,1.129-1.784,2.105-2.588,3.057
		c-0.673-0.654-1.237-1.2-2.087-2.026c1.054-0.87,2.071-1.707,2.954-2.435c-0.771-0.828-1.37-1.474-1.975-2.124
		c-0.536,0.491-1.053,0.963-1.414,1.294c-0.676-0.612-1.259-1.139-1.864-1.688c0.492-0.541,0.958-1.054,1.211-1.333
		c-0.629-0.764-1.195-1.451-2.112-2.565c-0.859,1.16-1.645,2.222-2.379,3.214c-0.808-0.71-1.372-1.208-2.138-1.882
		c1.103-0.967,2.092-1.835,3.003-2.633c-0.759-0.88-1.338-1.554-1.931-2.242c-0.612,0.563-1.131,1.04-1.611,1.481
		c-0.629-0.61-1.192-1.156-1.796-1.741c0.496-0.544,0.97-1.063,1.418-1.557c-0.674-0.73-1.315-1.426-1.922-2.085
		C-192.561,9.211-195.322,11.973-197.988,14.641z"/>
	<path fill-rule="evenodd" clip-rule="evenodd" fill="#C1C1C1" d="M-151.15,62.148c3.01-3.006,5.738-5.734,8.631-8.622
		c-1.32-1.242-1.656,0.625-2.584,0.753c-0.484-0.502-1.041-1.08-1.658-1.719c0.508-0.534,0.986-1.038,1.5-1.577
		c-0.717-0.611-1.395-1.188-2.148-1.83c-0.688,0.785-1.557,1.779-2.523,2.884c-0.816-0.825-1.408-1.424-2.1-2.122
		c1.027-0.962,1.967-1.842,2.912-2.726c-0.699-0.646-1.342-1.244-2.096-1.941c-0.352,0.329-0.859,0.806-1.434,1.344
		c-0.555-0.621-1.104-1.241-1.697-1.909c0.377-0.404,0.855-0.911,1.275-1.354c-0.662-0.706-1.271-1.356-2.027-2.165
		c-0.838,0.955-1.713,1.952-2.648,3.022c-0.656-0.762-1.182-1.371-1.795-2.084c0.883-0.772,1.875-1.641,2.906-2.543
		c-0.869-0.815-1.512-1.421-2.232-2.098c-0.449,0.409-0.965,0.883-1.615,1.479c-0.531-0.642-1.07-1.287-1.607-1.934
		c1.01-1.034,2.07-2.123,3.051-3.127c6.609,6.654,13.174,13.262,19.619,19.751c-3.742,3.741-7.732,7.729-11.646,11.638
		c-6.402-6.377-12.982-12.932-19.649-19.571c0.504-0.423,1.108-0.927,1.819-1.523C-163.075,50.068-157.126,56.095-151.15,62.148z"/>
</g>
</svg>
