<?xml version="1.0" encoding="utf-8"?>
<!-- Generator: Adobe Illustrator 16.0.3, SVG Export Plug-In . SVG Version: 6.00 Build 0)  -->
<!DOCTYPE svg PUBLIC "-//W3C//DTD SVG 1.1//EN" "http://www.w3.org/Graphics/SVG/1.1/DTD/svg11.dtd">
<svg version="1.1" id="Layer_1" xmlns="http://www.w3.org/2000/svg" xmlns:xlink="http://www.w3.org/1999/xlink" x="0px" y="0px"
	 width="68.031px" height="68.031px" viewBox="0.984 0.137 68.031 68.031" enable-background="new 0.984 0.137 68.031 68.031"
	 xml:space="preserve">
<path fill="#00FFFF" d="M158.419,29.177c-0.448,6.902-4.281,11.781-10.877,13.633c-1.479,0.415-3.002,0.677-4.739,1.062
	c2.181,2.601,2.194,5.601,2.155,8.614c-0.026,2.042-0.045,4.085-0.062,6.126c-0.007,0.785,0.05,1.696,0.179,2.153
	c-4.881,0-13.107,0-18.025,0c0.101-0.196,0.181-0.422,0.212-0.711c0.232-2.159,0.059-4.36,0.059-6.563
	c-1.27,0.099-2.219,0.192-3.17,0.241c-4.236,0.218-7.398-1.145-9.148-5.406c-0.687-1.666-2.365-2.923-3.588-4.369
	c-0.391-0.463-0.769-0.938-1.236-1.51c1.928-1.021,3.479-0.521,4.759,0.521c1.095,0.891,1.991,2.062,2.84,3.208
	c2.097,2.837,5.312,3.865,8.606,2.607c0.414-0.156,0.926-0.44,1.089-0.803c0.62-1.373,1.118-2.804,1.659-4.211
	c-1.193-0.248-2.379-0.451-3.541-0.742c-10.805-2.703-15.579-15.87-9.117-25c0.406-0.574,0.438-1.472,0.482-2.229
	c0.133-2.191,0.135-4.392,0.282-6.58c0.101-1.505,1.122-1.981,2.4-1.497c2.231,0.842,4.376,1.906,6.598,2.773
	c0.769,0.302,1.71,0.548,2.484,0.39c4.832-0.989,9.66-1.127,14.464-0.002c1.312,0.307,2.237-0.007,3.351-0.589
	c1.9-0.991,3.905-1.799,5.918-2.548c1.428-0.531,2.555-0.057,2.668,1.611c0.146,2.132,0.119,4.275,0.188,6.414
	c0.02,0.622-0.125,1.432,0.201,1.836C158.279,21.032,158.691,24.991,158.419,29.177z"/>
<g>
	<path fill-rule="evenodd" clip-rule="evenodd" fill="#00FFFF" d="M41.123,15.365c-0.867,2.949-2.525,3.918-5.465,3.825
		c-7.546-0.237-15.104-0.079-22.656-0.079c-0.761,0-1.522,0-2.421,0c0,9.123,0,18.104,0,27.21c16.239,0,32.434,0,48.804,0
		c0-8.951,0-17.922,0-27.136c-2.638,0-5.315,0-8.088,0c1.357-3.242,2.415-3.991,5.401-3.992c1.049,0,2.097-0.008,3.147,0.002
		c2.64,0.025,3.485,0.847,3.49,3.547c0.017,10.421,0.015,20.842,0.001,31.262c-0.003,2.273-0.723,3.063-2.993,3.066
		c-16.924,0.024-33.85,0.025-50.773-0.003c-2.161-0.004-2.902-0.808-2.906-2.94c-0.016-10.49-0.018-20.981,0.001-31.471
		c0.004-2.411,0.856-3.44,2.947-3.447c10.211-0.029,20.421-0.011,30.632-0.001C40.504,15.21,40.763,15.3,41.123,15.365z"/>
	<path fill-rule="evenodd" clip-rule="evenodd" fill="#00FFFF" d="M30.931,33.911c5.672-8.055,11.076-15.766,16.539-23.436
		c0.71-0.997,1.588-2.094,2.645-2.561c1.01-0.445,2.642-0.563,3.47-0.019c0.806,0.53,1.203,2.064,1.279,3.192
		c0.059,0.852-0.471,1.938-1.08,2.612C47.09,21.094,40.33,28.428,33.432,35.951C32.562,35.243,31.746,34.577,30.931,33.911z"/>
	<path fill-rule="evenodd" clip-rule="evenodd" fill="#00FFFF" d="M40.376,55.043c0.976,2.06,1.829,3.861,2.713,5.729
		c-5.243,0-10.806,0-16.149,0c0.826-1.776,1.69-3.632,2.667-5.729C33.074,55.043,36.938,55.043,40.376,55.043z"/>
	<path fill-rule="evenodd" clip-rule="evenodd" fill="#00FFFF" d="M21.774,40.842c2.457,0.005,3.719-1.274,4.321-3.504
		c0.386-1.429,1.358-2.802,2.91-2.399c1.412,0.365,2.929,1.31,3.817,2.452c0.971,1.249-0.121,2.333-1.435,2.83
		C28.277,41.398,25.091,41.749,21.774,40.842z"/>
</g>
</svg>
