<?xml version="1.0" encoding="utf-8"?>
<!-- Generator: Adobe Illustrator 16.0.3, SVG Export Plug-In . SVG Version: 6.00 Build 0)  -->
<!DOCTYPE svg PUBLIC "-//W3C//DTD SVG 1.1//EN" "http://www.w3.org/Graphics/SVG/1.1/DTD/svg11.dtd">
<svg version="1.1" id="Layer_1" xmlns="http://www.w3.org/2000/svg" xmlns:xlink="http://www.w3.org/1999/xlink" x="0px" y="0px"
	 width="80.082px" height="72.592px" viewBox="0 0 80.082 72.592" enable-background="new 0 0 80.082 72.592" xml:space="preserve">
<g>
	<path fill-rule="evenodd" clip-rule="evenodd" fill="#FFFFFF" d="M19.977,68.495c0.021-0.292,0.029-0.43,0.041-0.567
		c0.253-2.966,0.266-2.979-1.764-5.049c-0.251-0.257-0.713-0.388-1.091-0.422c-0.959-0.086-1.939-0.007-2.886-0.155
		c-0.409-0.064-0.933-0.45-1.096-0.824c-0.48-1.101-0.798-2.272-1.196-3.41c-0.211-0.604-0.087-1.074,0.452-1.434
		c0.2-0.133,0.382-0.294,0.57-0.444c2.39-1.889,2.403-1.889,2.414-4.878c0-0.335-0.192-0.73-0.417-0.995
		c-0.646-0.762-1.414-1.425-2.006-2.223c-0.245-0.331-0.345-0.975-0.196-1.354c0.424-1.087,1.03-2.102,1.521-3.166
		c0.286-0.622,0.688-0.881,1.382-0.784c0.921,0.128,1.853,0.264,2.776,0.25c0.491-0.007,1.013-0.26,1.458-0.512
		c1.873-1.06,2.433-2.741,2.152-4.783c-0.157-1.142,0.385-1.701,1.463-1.962c0.935-0.226,1.85-0.553,2.747-0.904
		c0.705-0.276,1.194-0.104,1.59,0.503c0.111,0.173,0.256,0.325,0.386,0.485c1.802,2.214,1.8,2.236,4.685,2.371
		c0.424,0.02,0.938-0.184,1.278-0.453c0.752-0.598,1.374-1.367,2.146-1.934c0.332-0.245,0.978-0.344,1.355-0.193
		c1.115,0.444,2.203,0.991,3.229,1.617c0.352,0.215,0.526,0.767,0.702,1.198c0.081,0.196-0.029,0.473-0.061,0.712
		c-0.397,3.062-0.409,3.074,1.748,5.242c0.255,0.257,0.711,0.402,1.088,0.435c0.96,0.084,1.94-0.003,2.888,0.142
		c0.41,0.063,0.938,0.451,1.102,0.826c0.477,1.102,0.861,2.257,1.146,3.423c0.098,0.398-0.146,0.921-0.346,1.333
		c-0.122,0.254-0.437,0.441-0.701,0.595c-1.658,0.964-2.468,2.323-2.326,4.308c0.052,0.73,0.145,1.28,0.654,1.84
		c2.842,3.124,2.653,1.73,0.821,5.584c-0.839,1.765-0.864,1.753-2.815,1.5c-0.034-0.004-0.071-0.004-0.103-0.016
		c-2.204-0.804-3.521,0.664-4.889,1.946c-0.19,0.178-0.238,0.558-0.265,0.852c-0.063,0.72-0.073,1.446-0.108,2.169
		c-0.085,1.69-0.086,1.69-1.643,2.213c-0.522,0.176-1.044,0.353-1.566,0.527c-2.234,0.746-1.745,0.766-3.157-0.879
		c-0.045-0.053-0.1-0.102-0.127-0.163c-0.972-2.121-2.934-1.94-4.761-2.008c-0.285-0.011-0.615,0.257-0.869,0.463
		c-0.955,0.775-1.818,2.089-2.848,2.228c-1.035,0.139-2.212-0.914-3.353-1.382C20.242,69.978,19.597,69.482,19.977,68.495z
		 M24.497,53.905c-0.001,3.408,2.779,6.212,6.167,6.218c3.389,0.006,6.173-2.772,6.204-6.192c0.032-3.375-2.787-6.203-6.18-6.201
		C27.265,47.732,24.497,50.492,24.497,53.905z"/>
	<path fill-rule="evenodd" clip-rule="evenodd" fill="#FFFFFF" d="M13.201,6.733c0.502,0.078,0.755,0.077,0.977,0.159
		c1.949,0.724,3.554,0.139,4.889-1.325c0.271-0.297,0.462-0.759,0.5-1.163c0.309-3.266,0.295-3.267,3.463-4.142
		c1.61-0.444,1.609-0.444,2.596,0.938c0.04,0.056,0.096,0.106,0.12,0.168c0.781,1.991,2.562,2.043,4.272,2.13
		c0.372,0.019,0.807-0.316,1.142-0.58c3.028-2.375,1.688-2.291,5.128-0.44c1.533,0.825,1.518,0.854,1.277,2.629
		c-0.014,0.103,0,0.217-0.041,0.307c-0.896,1.972,0.513,3.175,1.587,4.4c0.322,0.368,1.137,0.366,1.736,0.423
		c2.932,0.277,2.392-0.266,3.207,2.707c0.726,2.65,1.104,2.148-1.291,3.575c-1.777,1.059-1.566,2.671-1.76,4.195
		c-0.052,0.407,0.52,0.921,0.854,1.345c1.978,2.503,1.998,1.579,0.421,4.361c-1.296,2.288-0.758,2.242-3.28,1.594
		c-2.022-0.519-3.093,0.678-4.329,1.679c-0.313,0.252-0.329,0.944-0.373,1.443c-0.249,2.834-0.233,2.85-2.952,3.567
		c-2.428,0.64-2.004,0.92-3.263-1.217c-1.05-1.78-2.614-1.763-4.214-1.896c-0.365-0.03-0.812,0.324-1.143,0.597
		c-2.349,1.942-2.343,1.95-5.035,0.457c-0.15-0.084-0.296-0.183-0.456-0.243c-0.942-0.347-1.25-0.996-0.959-1.95
		c0.041-0.13,0.013-0.285,0.065-0.407c0.841-1.945-0.153-3.349-1.392-4.665c-0.192-0.204-0.504-0.339-0.785-0.407
		c-0.398-0.097-0.818-0.111-1.231-0.147c-2.805-0.244-2.262,0.256-3.051-2.621c-0.746-2.726-1.091-2.208,1.321-3.678
		c1.76-1.073,1.604-2.684,1.68-4.213c0.028-0.558-0.745-1.174-1.19-1.732c-1.339-1.677-1.346-1.671-0.295-3.519
		c0.323-0.57,0.606-1.17,0.993-1.693C12.622,7.058,13.021,6.869,13.201,6.733z M27.075,12.115c-3.131-0.021-5.691,2.461-5.743,5.565
		c-0.054,3.198,2.527,5.836,5.708,5.834c3.12-0.002,5.726-2.625,5.704-5.743C32.723,14.669,30.183,12.135,27.075,12.115z"/>
	<path fill-rule="evenodd" clip-rule="evenodd" fill="#FFFFFF" d="M67.837,22.438c-0.37,0.818-0.682,1.507-0.993,2.195
		c-0.605,1.336,0.22,3.396,1.565,3.908c2.341,0.89,2.341,0.89,2.344,3.351c0.004,2.072,0.106,1.789-1.56,2.207
		c-1.675,0.419-2.161,1.626-2.606,2.963c-0.095,0.283,0.021,0.674,0.136,0.98c0.217,0.579,0.463,1.155,0.769,1.69
		c0.36,0.627,0.247,1.103-0.299,1.524c-0.054,0.042-0.095,0.099-0.144,0.148c-2.028,2.048-2.028,2.048-4.688,0.949
		c-0.938-0.388-3.098,0.522-3.473,1.465c-1.041,2.607-1.041,2.57-3.813,2.621c-0.972,0.018-1.556-0.224-1.778-1.236
		c-0.292-1.33-0.916-2.322-2.393-2.766c-0.823-0.248-1.42-0.177-2.137,0.143c-2.377,1.062-1.674,1.247-3.529-0.583
		c-1.682-1.658-1.507-1.183-0.566-3.293c0.837-1.877,0.104-3.647-1.807-4.404c-2.261-0.895-1.952-0.276-1.949-2.803
		c0.004-2.431-0.374-1.915,1.952-2.798c1.893-0.718,2.646-2.552,1.808-4.409c-0.994-2.2-1.088-1.644,0.626-3.366
		c1.755-1.763,1.155-1.539,3.274-0.621c1.957,0.847,3.731,0.139,4.479-1.814c0.831-2.174,0.279-1.932,2.824-1.927
		c2.412,0.005,1.878-0.319,2.743,1.898c0.772,1.98,2.528,2.721,4.462,1.855c2.157-0.966,1.55-1.083,3.282,0.594
		C66.874,21.4,67.349,21.929,67.837,22.438z M60.635,31.694c-0.026-2.661-2.163-4.796-4.798-4.794
		c-2.672,0.002-4.85,2.217-4.808,4.892c0.042,2.622,2.264,4.796,4.858,4.752C58.53,36.5,60.66,34.324,60.635,31.694z"/>
</g>
<g>
	<path fill-rule="evenodd" clip-rule="evenodd" fill="#6D6E71" d="M-65.177,6.294c1.357-1.506,2.582-2.863,3.96-4.392
		c3.314,3.249,6.205,6.51,7.353,10.881c1.297,4.94-0.795,8.893-5.705,12.231c-5.98,4.067-11.802,8.369-17.835,12.671
		c6.949,5.537,13.612,10.845,20.723,16.511c-3.676,1.223-7.669,0.926-8.229,5.786c-2.032-3.441-3.462-6.687-5.637-9.315
		c-2.154-2.603-5.061-4.583-7.975-6.547c3.576,5.742,6.369,11.59,6.432,18.568c-1.197-0.33-2.257-0.623-3.491-0.963
		c-0.788,1.592-1.58,3.188-2.685,5.42c-1.011-8.21-1.815-15.867-7.668-21.89c-0.718,0.602-1.461,1.156-2.125,1.793
		c-7.464,7.173-14.953,14.32-22.354,21.558c-3.964,3.877-8.789,4.758-13.746,2.246c-8.932-4.526-12.453-18.824-6.381-26.745
		c1.488-1.94,3.765-3.334,5.824-4.77c13.734-9.569,27.265-19.378,38.402-32.049c1.36-1.548,2.67-3.205,3.648-5.005
		c0.923-1.697,2.118-2.04,3.864-1.945C-73.633,0.62-69.369,2.92-65.177,6.294z M-110.241,42.433
		c7.174-2.595,13.092-7.606,19.914-12.897c-3.12-1.423-5.558-2.696-8.122-3.608c-0.808-0.287-2.16,0.12-2.921,0.677
		c-3.787,2.774-7.445,5.723-11.179,8.571c-2.001,1.526-4.063,2.973-6.188,4.522c4.225,3.206,6.002,7.414,6.326,12.305
		c0.236,3.551-1.063,6.593-3.627,8.994c-3.105,2.907-7.158,2.199-9.219-1.527c-0.495-0.896-0.8-1.9-1.15-2.869
		c-0.479-1.324-0.246-2.32,0.994-3.268c2.02-1.543,3.927-3.256,5.729-5.051c0.755-0.751,2.564-1.135,1.512-2.946
		c-1.161-1.998-3.319-3.218-5.12-2.629c-0.811,0.265-1.596,0.741-2.265,1.28c-4.213,3.396-5.07,7.994-4.111,12.943
		c0.979,5.057,3.407,9.323,8.521,11.296c3.496,1.349,7.064,0.042,8.768-3.302c1.026-2.014,1.919-4.309,2.044-6.525
		C-110.04,53.193-110.241,47.959-110.241,42.433z M-77.75,33.417c6.01-4.266,12.217-8.53,18.253-13.024
		c2.487-1.852,3.053-4.666,1.839-7.522c-0.846-1.989-2.117-3.797-3.227-5.736c-6.855,6.599-13.381,12.88-19.891,19.147
		C-79.771,28.65-78.765,31.023-77.75,33.417z M-106.486,59.248c6.408-5.916,12.612-11.608,18.75-17.373
		c0.526-0.494,0.957-1.542,0.82-2.207c-0.441-2.138-1.17-4.217-1.796-6.346c-6.083,4.132-11.899,8.084-17.774,12.077
		C-106.486,49.768-106.486,54.416-106.486,59.248z M-67.396,8.507c-3.169-1.53-5.803-2.911-8.527-4.082
		c-2.107-0.906-3.79-0.613-5.059,1.769c-1.024,1.925-2.587,3.627-4.15,5.188c-2.166,2.163-4.557,4.101-6.755,6.05
		c3.467,2.004,6.225,3.598,9.375,5.419C-77.911,18.485-72.929,13.759-67.396,8.507z M-116.238,50.192
		c-1.933,1.685-3.498,3.251-5.269,4.534c-1.705,1.235-1.147,2.373-0.204,3.59c1.183,1.527,2.416,0.893,3.42-0.169
		C-116.315,56.059-115.537,53.563-116.238,50.192z"/>
</g>
<g>
	<path fill-rule="evenodd" clip-rule="evenodd" fill="#6D6E71" d="M210.078,13.53c-3.774,3.849-7.565,7.684-11.322,11.55
		c-5.938,6.11-11.856,12.241-17.777,18.37c-0.343,0.354-0.629,0.765-0.974,1.189c-1.31-1.364-2.471-2.573-3.703-3.857
		c-0.427,0.392-0.761,0.666-1.061,0.975c-5.515,5.694-11.063,11.356-16.502,17.121c-0.985,1.045-1.473,2.546-2.271,3.783
		c-0.414,0.639-0.922,1.284-1.534,1.716c-2.619,1.842-5.293,3.606-7.946,5.398c-0.1,0-0.198,0-0.297,0
		c-1.335-1.061-1.282-2.139-0.258-3.455c0.906-1.166,1.673-2.464,2.34-3.784c1.315-2.601,3.071-4.684,5.895-5.707
		c0.313-0.114,0.615-0.336,0.851-0.578c5.894-6.084,11.775-12.177,17.789-18.402c-1.214-1.269-2.393-2.5-3.655-3.819
		c1.859-1.929,3.636-3.778,5.42-5.621c7.962-8.225,15.928-16.446,23.886-24.675c0.266-0.275,0.471-0.61,0.705-0.917
		c0.1,0,0.198,0,0.298,0c3.372,3.472,6.745,6.944,10.118,10.416C210.078,13.331,210.078,13.431,210.078,13.53z"/>
	<path fill-rule="evenodd" clip-rule="evenodd" fill="#6D6E71" d="M143.119,17.398c0.164-0.554,0.329-1.107,0.544-1.826
		c0.336,0.277,0.635,0.48,0.881,0.734c2.138,2.207,4.235,4.456,6.431,6.606c0.384,0.376,1.214,0.579,1.753,0.463
		c1.979-0.425,3.94-0.965,5.868-1.585c0.495-0.159,1.068-0.701,1.221-1.188c0.647-2.073,1.217-4.179,1.663-6.304
		c0.112-0.54-0.16-1.353-0.546-1.773c-2.305-2.509-4.693-4.939-7.214-7.563c4.91-1.079,9.173-0.234,12.8,2.932
		c4.067,3.55,5.781,8.124,4.89,13.46c-0.284,1.699,0.262,2.695,1.563,3.63c-2.366,2.53-4.665,4.988-7.081,7.571
		c1.197,1.264,2.372,2.504,3.636,3.838c-0.821,0.73-1.585,1.408-2.301,2.044c-1.479-1.425-3.009-2.962-4.623-4.403
		c-0.392-0.35-1.113-0.627-1.602-0.53c-8.777,1.741-16.141-3.243-17.656-12.005c-0.031-0.185-0.148-0.354-0.226-0.529
		C143.119,19.779,143.119,18.589,143.119,17.398z"/>
	<path fill-rule="evenodd" clip-rule="evenodd" fill="#6D6E71" d="M199.365,69.775c-2.358-0.427-4.017-1.889-5.613-3.573
		c-4.802-5.065-9.682-10.058-14.445-14.99c3.174-3.281,6.289-6.502,9.042-9.348c2.776,2.555,5.563,5,8.212,7.585
		c2.622,2.559,5.074,5.291,7.659,7.889c2.108,2.119,2.916,4.578,2.066,7.448c-0.841,2.843-2.841,4.427-5.766,4.854
		c-0.094,0.014-0.176,0.089-0.264,0.135C199.96,69.775,199.662,69.775,199.365,69.775z"/>
</g>
</svg>
