<?xml version="1.0" encoding="utf-8"?>
<!-- Generator: Adobe Illustrator 16.0.3, SVG Export Plug-In . SVG Version: 6.00 Build 0)  -->
<!DOCTYPE svg PUBLIC "-//W3C//DTD SVG 1.1//EN" "http://www.w3.org/Graphics/SVG/1.1/DTD/svg11.dtd">
<svg version="1.1" id="Layer_1" xmlns="http://www.w3.org/2000/svg" xmlns:xlink="http://www.w3.org/1999/xlink" x="0px" y="0px"
	 width="68.031px" height="68.032px" viewBox="0 0 68.031 68.032" enable-background="new 0 0 68.031 68.032" xml:space="preserve">
<g>
	<path fill="#C1C1C1" d="M16.837,20.822v1.474c0.451,2.416,1.979,3.625,4.581,3.625c2.123,0,3.583-1.208,4.381-3.625v-0.241
		c0-2.496-1.54-3.957-4.62-4.38C19.292,17.675,17.847,18.724,16.837,20.822z"/>
	<path fill="#C1C1C1" d="M17.315,29.544v22.542c0.052,0.317,0.212,0.479,0.477,0.479h6.771c0.318,0,0.478-0.16,0.478-0.479V30.021
		l-0.478-0.956h-6.771C17.475,29.119,17.315,29.279,17.315,29.544z"/>
	<path fill="#C1C1C1" d="M37.667,31.496H37.15v-2.43h-7.728v23.021c0.053,0.318,0.212,0.479,0.479,0.479h6.771
		c0.317,0,0.479-0.159,0.479-0.479V39.741c0.396-3.398,1.777-5.099,4.143-5.099c2.736,0,4.104,1.7,4.104,5.099v12.346
		c0.053,0.318,0.213,0.479,0.479,0.479h7.289V37.311c0-2.736-1.303-5.244-3.903-7.528c-1.967-0.797-3.175-1.195-3.623-1.195h-2.433
		C41.317,28.668,39.474,29.637,37.667,31.496z"/>
</g>
<path fill="#00FFFF" d="M266.281,0h1.641c7.36,0,14.709,2.837,22.047,8.511c5.445,5.469,8.771,10.391,9.979,14.766
	c0.819,1.822,1.367,3.902,1.643,6.237c0.271,2.336,0.41,3.856,0.41,4.563v1.845v1.471c-0.548,5.036-1.652,9.264-3.313,12.682
	c-3.67,7.428-9.274,13.032-16.817,16.815c-5.398,2.233-10.253,3.351-14.562,3.351h-0.41c-8.703,0-16.668-3.191-23.893-9.57
	c-4.533-4.717-7.371-8.877-8.51-12.477c-1.254-2.803-2.086-6.336-2.495-10.596v-4.375c0-7.154,2.976-14.424,8.921-21.807
	C248.714,3.806,257.167,0,266.281,0z M252.986,22.422v1.265c0.387,2.073,1.697,3.11,3.931,3.11c1.821,0,3.075-1.037,3.76-3.11V23.48
	c0-2.141-1.32-3.395-3.966-3.759C255.093,19.722,253.852,20.622,252.986,22.422z M253.396,29.907v19.345
	c0.045,0.272,0.182,0.41,0.408,0.41h5.812c0.274,0,0.409-0.138,0.409-0.41V30.317l-0.409-0.82h-5.812
	C253.533,29.543,253.396,29.68,253.396,29.907z M270.861,31.582h-0.443v-2.085h-6.631v19.755c0.045,0.272,0.182,0.41,0.41,0.41
	h5.811c0.271,0,0.41-0.138,0.41-0.41V38.657c0.341-2.916,1.525-4.375,3.556-4.375c2.348,0,3.521,1.458,3.521,4.375v10.596
	c0.046,0.273,0.183,0.41,0.411,0.41h6.255v-13.09c0-2.348-1.117-4.5-3.351-6.461c-1.688-0.684-2.725-1.025-3.109-1.025h-2.086
	C273.994,29.155,272.411,29.987,270.861,31.582z"/>
</svg>
