<?xml version="1.0" encoding="utf-8"?>
<!-- Generator: Adobe Illustrator 16.0.3, SVG Export Plug-In . SVG Version: 6.00 Build 0)  -->
<!DOCTYPE svg PUBLIC "-//W3C//DTD SVG 1.1//EN" "http://www.w3.org/Graphics/SVG/1.1/DTD/svg11.dtd">
<svg version="1.1" id="Layer_1" xmlns="http://www.w3.org/2000/svg" xmlns:xlink="http://www.w3.org/1999/xlink" x="0px" y="0px"
	 width="68.031px" height="68.031px" viewBox="0 0 68.031 68.031" enable-background="new 0 0 68.031 68.031" xml:space="preserve">
<path fill="#00FFFF" d="M51.989,30.303c-0.334,5.15-3.195,8.792-8.118,10.173c-1.103,0.31-2.239,0.505-3.535,0.792
	c1.627,1.94,1.637,4.18,1.607,6.429c-0.019,1.523-0.033,3.048-0.045,4.571c-0.006,0.586,0.037,1.267,0.133,1.607
	c-3.643,0-9.781,0-13.451,0c0.075-0.147,0.135-0.315,0.158-0.531c0.173-1.611,0.044-3.254,0.044-4.897
	c-0.948,0.073-1.656,0.144-2.365,0.18c-3.163,0.163-5.521-0.854-6.828-4.034c-0.512-1.243-1.765-2.182-2.678-3.261
	c-0.29-0.345-0.573-0.699-0.922-1.126c1.438-0.763,2.595-0.389,3.551,0.388c0.817,0.666,1.486,1.54,2.12,2.395
	c1.564,2.118,3.964,2.884,6.423,1.945c0.308-0.116,0.69-0.328,0.812-0.599c0.463-1.024,0.834-2.093,1.238-3.143
	c-0.89-0.185-1.774-0.337-2.643-0.554c-8.063-2.018-11.626-11.843-6.804-18.656c0.303-0.428,0.327-1.098,0.36-1.664
	c0.098-1.635,0.101-3.277,0.211-4.91c0.074-1.124,0.837-1.479,1.791-1.117c1.665,0.628,3.266,1.422,4.924,2.069
	c0.573,0.226,1.275,0.409,1.854,0.291c3.605-0.738,7.208-0.841,10.794-0.001c0.979,0.229,1.669-0.005,2.501-0.439
	c1.418-0.74,2.913-1.342,4.416-1.901c1.065-0.396,1.906-0.043,1.99,1.202c0.109,1.591,0.09,3.19,0.141,4.787
	c0.016,0.464-0.093,1.068,0.15,1.37C51.885,24.225,52.192,27.179,51.989,30.303z"/>
</svg>
