<?xml version="1.0" encoding="utf-8"?>
<!-- Generator: Adobe Illustrator 16.0.3, SVG Export Plug-In . SVG Version: 6.00 Build 0)  -->
<!DOCTYPE svg PUBLIC "-//W3C//DTD SVG 1.1//EN" "http://www.w3.org/Graphics/SVG/1.1/DTD/svg11.dtd">
<svg version="1.1" id="Layer_1" xmlns="http://www.w3.org/2000/svg" xmlns:xlink="http://www.w3.org/1999/xlink" x="0px" y="0px"
	 width="58.188px" height="63.17px" viewBox="0 0 58.188 63.17" enable-background="new 0 0 58.188 63.17" xml:space="preserve">
<g>
	<path fill="#C1C1C1" d="M12.707,0.007c1.26-0.067,1.836,0.338,2.271,1.078c4.182,7.177,8.385,14.338,12.564,21.515
		c1.105,1.899,1.071,1.909,3.178,1.397c4.839-1.188,9.683-2.386,14.537-3.531c0.896-0.214,0.938-0.451,0.407-1.15
		c-1.73-2.279-3.412-4.598-5.11-6.899c-0.82-1.113-0.727-1.39,0.604-1.624c2.665-0.479,5.342-0.919,8-1.423
		c0.754-0.143,1.306,0.096,1.753,0.625c2.298,2.71,4.605,5.426,6.866,8.168c0.671,0.813,0.521,1.179-0.515,1.457
		c-2.199,0.592-4.407,1.165-6.627,1.691c-0.868,0.204-0.965,0.444-0.406,1.167c2.111,2.724,4.173,5.488,6.233,8.246
		c0.968,1.292,0.873,1.583-0.625,2.126c-6.22,2.25-12.437,4.512-18.659,6.752c-2.04,0.731-2.417,0.621-3.479-1.226
		c-1.85-3.222-3.688-6.449-5.443-9.722c-0.552-1.027-1.101-1.318-2.266-0.989c-3.609,1.013-7.258,1.904-10.896,2.824
		c-1.7,0.431-2.266,0.176-2.955-1.362C8.238,20.404,4.337,11.68,0.447,2.945C-0.319,1.23-0.213,1.059,1.646,0.903
		C5.463,0.585,9.281,0.287,12.707,0.007z M12.138,1.648C9.355,1.896,6.699,2.17,4.041,2.35c-0.995,0.065-1.096,0.362-0.685,1.2
		c1.461,2.982,2.886,5.984,4.31,8.984c2.247,4.751,4.485,9.508,6.717,14.263c0.234,0.488,0.452,0.899,1.104,0.748
		c3.354-0.777,6.7-1.559,10.057-2.313c0.582-0.13,0.563-0.352,0.315-0.789C21.703,17.077,17.551,9.708,13.42,2.332
		C13.077,1.723,12.668,1.487,12.138,1.648z M47.389,22.179c-0.156,0.024-0.234,0.024-0.311,0.049
		c-5.484,1.414-10.976,2.837-16.458,4.249c-0.586,0.147-0.602,0.397-0.313,0.886c1.763,2.953,3.504,5.921,5.239,8.893
		c0.284,0.489,0.578,0.593,1.128,0.404c5.51-1.894,11.021-3.771,16.548-5.607c0.815-0.271,0.724-0.537,0.294-1.104
		c-1.815-2.405-3.604-4.832-5.386-7.267C47.906,22.379,47.727,22.121,47.389,22.179z M48.834,19.604
		c1.87-0.471,4.049-0.996,6.211-1.571c0.524-0.138,0.211-0.464,0.025-0.694c-1.554-1.878-3.113-3.738-4.648-5.631
		c-0.397-0.488-0.853-0.597-1.43-0.492c-1.899,0.332-3.802,0.657-5.702,0.977c-0.846,0.138-0.421,0.512-0.168,0.849
		c1.523,2.025,3.051,4.049,4.572,6.078C47.906,19.394,48.104,19.696,48.834,19.604z"/>
	<path fill="#C1C1C1" d="M20.871,58.647c0,0.694-0.016,1.393,0,2.09c0.014,0.519-0.131,1.123,0.683,1.234
		c0.352,0.049,0.319,0.394,0.292,0.658c-0.032,0.322-0.256,0.464-0.554,0.489c-0.552,0.053-1.172,0.088-1.478-0.438
		c-0.416-0.73-0.781-0.438-1.271-0.138c-0.777,0.483-1.647,0.666-2.56,0.577c-1.252-0.124-2.206-1.008-2.39-2.172
		c-0.209-1.367,0.404-2.456,1.702-2.947c0.949-0.363,1.97-0.363,2.96-0.523c0.547-0.088,1.101-0.162,1.13-0.899
		c0.03-0.713-0.271-1.163-0.962-1.39c-1.28-0.422-2.204-0.119-2.882,1.096c-0.326,0.588-0.802,0.418-1.201,0.33
		c-0.524-0.11-0.248-0.559-0.18-0.861c0.161-0.684,0.584-1.165,1.225-1.454c1.418-0.653,2.85-0.612,4.278-0.03
		c0.805,0.33,1.175,0.979,1.188,1.828c0.023,0.851,0.01,1.699,0.01,2.551C20.866,58.647,20.866,58.647,20.871,58.647z M19.38,59.417
		c-0.28-0.182,0.37-0.948-0.36-0.884c-1.023,0.087-2.098,0.128-3.057,0.593c-0.68,0.333-0.912,0.934-0.783,1.654
		c0.11,0.643,0.559,0.998,1.179,1.126C17.896,62.219,19.336,61.079,19.38,59.417z"/>
	<path fill="#C1C1C1" d="M35.678,58.651c0,0.701-0.007,1.396,0.004,2.097c0.01,0.517-0.135,1.119,0.685,1.226
		c0.354,0.047,0.294,0.401,0.278,0.664c-0.016,0.272-0.202,0.424-0.443,0.459c-0.547,0.082-1.195,0.166-1.498-0.348
		c-0.435-0.729-0.809-0.555-1.358-0.195c-0.737,0.463-1.576,0.646-2.444,0.579c-1.314-0.102-2.323-0.987-2.486-2.196
		c-0.193-1.4,0.399-2.436,1.716-2.937c0.949-0.362,1.97-0.362,2.957-0.521c0.557-0.086,1.092-0.174,1.131-0.906
		c0.039-0.729-0.301-1.16-0.981-1.387c-1.28-0.422-2.258-0.111-2.895,1.088c-0.326,0.604-0.798,0.42-1.188,0.342
		c-0.51-0.11-0.257-0.564-0.179-0.87c0.177-0.724,0.657-1.207,1.332-1.505c0.834-0.375,1.715-0.469,2.613-0.385
		c2.093,0.203,2.762,0.943,2.762,3.055C35.68,57.492,35.678,58.075,35.678,58.651z M34.202,59.399
		c-0.181-0.244,0.331-0.955-0.402-0.879c-0.985,0.104-2.001,0.155-2.938,0.545c-0.694,0.289-0.956,0.857-0.885,1.591
		c0.067,0.706,0.501,1.103,1.165,1.245C32.704,62.239,34.168,61.063,34.202,59.399z"/>
	<path fill="#C1C1C1" d="M50.604,58.974c-0.77,0-1.544,0.021-2.314-0.004c-0.647-0.021-0.802,0.271-0.682,0.861
		c0.218,1.021,0.661,1.848,1.771,2.05c1.078,0.204,1.992-0.104,2.59-1.097c0.076-0.128,0.126-0.284,0.211-0.411
		c0.341-0.491,0.89-0.379,1.262-0.228c0.57,0.239,0.099,0.67-0.046,0.957c-0.94,1.858-3.382,2.607-5.301,1.646
		c-1.654-0.827-2.458-2.663-2.174-4.965c0.246-2.015,1.416-3.427,3.166-3.843c2.73-0.645,5.28,1.777,4.813,4.535
		c-0.092,0.521-0.394,0.491-0.738,0.491C52.306,58.974,51.458,58.974,50.604,58.974z M49.948,57.772c0.536,0,1.076-0.03,1.611,0.006
		c0.634,0.035,0.8-0.188,0.639-0.813c-0.278-1.085-0.859-1.792-2.018-1.905c-1.084-0.105-2.026,0.51-2.426,1.567
		c-0.29,0.771-0.21,1.271,0.809,1.149C49.021,57.729,49.484,57.772,49.948,57.772z"/>
	<path fill="#C1C1C1" d="M41.247,60.755c0.625-1.855,1.252-3.709,1.887-5.563c0.097-0.291,0.16-0.621,0.342-0.855
		c0.368-0.484,0.963-0.35,1.381-0.188c0.487,0.185,0.053,0.605-0.05,0.877c-0.842,2.322-1.735,4.629-2.583,6.949
		c-0.212,0.592-0.43,0.967-1.19,0.955c-0.729-0.017-0.9-0.385-1.103-0.925c-0.813-2.291-1.675-4.563-2.475-6.856
		c-0.11-0.31-0.683-0.838,0.007-1.022c0.561-0.155,1.298-0.313,1.576,0.644c0.462,1.593,1.004,3.166,1.521,4.74
		c0.133,0.401,0.282,0.797,0.427,1.194C41.072,60.722,41.16,60.737,41.247,60.755z"/>
	<path fill="#C1C1C1" d="M57.161,56.874c0,1.746-0.021,3.488,0.014,5.229c0.009,0.6-0.159,0.818-0.784,0.813
		c-0.604-0.005-0.795-0.2-0.79-0.808c0.025-3.487,0.023-6.973,0.003-10.459c-0.003-0.594,0.167-0.822,0.783-0.83
		c0.627-0.006,0.797,0.231,0.783,0.824C57.145,53.39,57.161,55.128,57.161,56.874z"/>
	<path fill="#C1C1C1" d="M11.827,56.813c0,1.746-0.011,3.482,0.01,5.226c0.007,0.521-0.005,0.876-0.706,0.876
		c-0.673,0-0.843-0.23-0.838-0.871c0.025-3.445,0.023-6.889,0.002-10.331c-0.007-0.625,0.143-0.901,0.832-0.896
		c0.696,0.009,0.714,0.377,0.71,0.896C11.818,53.414,11.827,55.114,11.827,56.813z"/>
	<path fill="#C1C1C1" d="M23.298,58.51c0-1.198-0.01-2.397,0.004-3.594c0.003-0.326-0.135-0.776,0.389-0.815
		c0.352-0.023,0.85-0.228,1.011,0.271c0.2,0.63,0.446,0.336,0.724,0.112c0.399-0.316,0.829-0.567,1.347-0.625
		c0.409-0.045,0.813-0.055,0.778,0.543c-0.021,0.4,0.11,0.797-0.564,0.906c-1.65,0.275-2.192,0.996-2.216,2.688
		c-0.011,1.116,0.076,2.247-0.034,3.356c-0.053,0.527,0.623,1.504-0.669,1.545c-1.318,0.041-0.689-0.955-0.739-1.491
		C23.229,60.449,23.298,59.476,23.298,58.51z"/>
</g>
<g>
	<path fill="#6D6E71" d="M136.454,59.808c0.007-8.141,0-16.281,0.039-24.422c0.005-0.846-0.556-2.066,1.126-2.191
		c1.44-0.111,2.419,0.162,2.39,1.861c0,0.166,0.145,0.328,0.267,0.586c1.408-1.658,3.145-2.561,5.289-2.697
		c3.906-0.243,6.86,1.777,7.922,5.522c0.611,2.177,0.662,4.409,0.232,6.597c-1.048,5.356-5.687,8.414-11.539,7.521
		c-1.604-0.239-1.969,0.046-1.965,1.647c0,1.854,0.568,3.795-0.427,5.576C138.676,59.808,137.566,59.808,136.454,59.808z
		 M140.271,44.351c0,1.407,0.014,2.574-0.005,3.746c-0.007,0.598,0.081,1.039,0.756,1.289c3.766,1.391,7.911-0.732,8.729-4.515
		c0.356-1.649,0.341-3.318-0.022-4.961c-0.549-2.521-2.107-3.812-4.504-3.802c-2.396,0.02-4.188,1.488-4.747,3.863
		C140.119,41.502,140.347,43.047,140.271,44.351z"/>
	<path fill="#6D6E71" d="M169.801,59.808c0.009-2.026-0.061-4.066,0.055-6.1c0.073-1.273-0.402-1.445-1.482-1.223
		c-2.033,0.423-4.064,0.216-6.045-0.324c-3.407-0.928-5.551-3.514-5.896-7.02c-0.776-7.805,3.707-12.52,11.553-12.164
		c5.606,0.258,5.606,0.258,5.606,5.857c0,6.303,0,12.596,0,18.896c0,0.723,0.132,1.479-0.454,2.074
		C172.022,59.808,170.912,59.808,169.801,59.808z M169.828,42.688c0-1.787-0.005-3.566,0.002-5.354
		c0.002-0.583,0.002-1.147-0.785-1.188c-1.776-0.098-3.564-0.313-5.258,0.516c-2.823,1.371-4.262,5.277-3.271,8.982
		c0.761,2.862,3.113,4.273,6.61,3.953c0.427-0.039,0.854-0.145,1.282-0.146c1.078-0.01,1.498-0.473,1.44-1.596
		C169.764,46.135,169.83,44.411,169.828,42.688z"/>
	<path fill="#6D6E71" d="M98.289,27.576c0.956,0.959,1.892,1.938,2.877,2.861c0.807,0.764,0.766,1.407-0.014,2.182
		c-3.761,3.728-7.481,7.5-11.256,11.218c-1.11,1.094-9.06,0.795-10.211-0.279c-2.101-1.968-3.925-4.22-6.225-5.979
		c0-0.492,0-0.988,0-1.479c1.204-0.455,1.848-1.555,2.686-2.396c0.896-0.902,1.554-0.953,2.443-0.016
		c1.782,1.873,3.646,3.664,5.475,5.498c0.446,0.445,0.795,0.914,1.479,0.217c3.858-3.965,7.753-7.889,11.634-11.825
		C97.55,27.576,97.922,27.576,98.289,27.576z"/>
	<path fill="#6D6E71" d="M239.457,52.399c-1.592,0.061-3.159,0.49-4.779,0.188c-3.04-0.564-4.418-2.055-4.467-5.143
		c-0.051-3.084-0.066-6.168,0.012-9.246c0.032-1.258-0.122-2.021-1.646-1.773c-0.411,0.068-1.07,0.314-1.307-0.275
		c-0.219-0.562,0.374-0.858,0.689-1.198c1.854-2.026,3.738-4.027,5.969-6.431c0,1.585,0.056,2.665-0.018,3.733
		c-0.063,0.948,0.213,1.37,1.222,1.264c0.733-0.074,1.479,0.021,2.22-0.021c1.012-0.061,1.758-0.023,1.753,1.384
		c0,1.369-0.556,1.613-1.767,1.603c-3.41-0.034-3.414,0.017-3.41,3.457c0.005,2.158-0.05,4.317,0.037,6.475
		c0.117,2.842,1.089,3.669,3.851,3.219c0.761-0.124,1.227-0.029,1.641,0.553C239.457,50.918,239.457,51.658,239.457,52.399z"/>
	<path fill="#6D6E71" d="M209.966,44.843c0,1.905-0.032,3.824,0.019,5.73c0.021,0.82-0.214,1.264-1.059,1.402
		c-2.928,0.479-5.839,0.949-8.823,0.459c-3.206-0.521-5.058-2.258-5.379-5.176c-0.309-2.771,1.286-5.234,4.136-6.285
		c1.941-0.719,3.981-0.926,6.015-0.631c1.289,0.188,1.452-0.279,1.328-1.384c-0.195-1.653-1.112-2.567-2.679-2.853
		c-1.785-0.318-3.577-0.23-5.313,0.283c-1.155,0.342-1.564-0.188-1.743-1.197c-0.173-0.947-0.159-1.59,1.098-1.805
		c2.394-0.408,4.754-0.709,7.167-0.272c3.154,0.569,4.933,2.421,5.128,5.618c0.127,2.025,0.023,4.068,0.023,6.105
		C209.909,44.843,209.938,44.843,209.966,44.843z M206.253,46.435c0-3.4,0-3.422-3.416-3.275c-0.729,0.029-1.476,0.156-2.169,0.386
		c-1.563,0.498-2.22,1.663-2.128,3.269c0.097,1.685,1.041,2.551,3.056,2.838C205.41,50.188,206.253,49.601,206.253,46.435z"/>
	<path fill="#6D6E71" d="M115.961,42.876c-0.021-6.865,4.202-10.684,10.822-9.788c4.609,0.616,7.486,4.495,7.392,9.961
		c-0.122,6.892-4.88,10.771-11.521,9.386C118.401,51.553,115.977,48.09,115.961,42.876z M130.14,42.854
		c0.095-1.25-0.104-2.467-0.498-3.637c-0.747-2.199-2.266-3.261-4.594-3.27c-2.357-0.008-3.807,0.988-4.561,3.265
		c-0.792,2.41-0.792,4.854,0.007,7.256c0.754,2.275,2.238,3.313,4.545,3.31c2.266,0,3.828-1.104,4.589-3.299
		C130.032,45.313,130.229,44.099,130.14,42.854z"/>
	<path fill="#6D6E71" d="M192.368,42.536c0,2.527-0.063,5.061,0.023,7.583c0.039,1.116-0.282,1.665-1.404,1.87
		c-2.798,0.505-5.579,0.873-8.441,0.464c-3.468-0.494-5.588-2.403-6.124-5.897c-0.629-4.104-0.197-8.246-0.264-12.373
		c-0.027-1.576,1.316-0.895,2.091-0.992c0.853-0.107,1.737-0.135,1.709,1.24c-0.071,2.711-0.027,5.428-0.02,8.139
		c0.004,0.801,0.018,1.604,0.105,2.398c0.374,3.368,1.631,4.498,5.032,4.569c3.545,0.075,3.545,0.075,3.545-3.448
		c0-3.818,0.069-7.646-0.034-11.466c-0.042-1.581,0.87-1.478,1.882-1.46c0.972,0.018,1.994-0.197,1.925,1.419
		C192.29,37.233,192.368,39.885,192.368,42.536z"/>
	<path fill="#6D6E71" d="M216.985,52.735c-0.854-0.131-2.192-0.336-3.531-0.549c-0.931-0.151-1.705-0.347-1.17-1.643
		c0.382-0.914,0.396-1.921,1.907-1.396c1.696,0.59,3.49,0.797,5.28,0.291c1.323-0.377,2.452-1.014,2.534-2.558
		c0.076-1.498-0.994-2.146-2.203-2.624c-1.539-0.615-3.116-1.156-4.625-1.838c-1.811-0.816-2.744-2.279-2.643-4.277
		c0.101-2,1.021-3.549,2.902-4.381c2.989-1.32,6.033-0.938,9.064-0.158c1.16,0.297,0.526,1.201,0.409,1.834
		c-0.122,0.67-0.373,1.301-1.354,1.004c-1.657-0.506-3.337-0.877-5.094-0.426c-1,0.254-1.938,0.531-2.046,1.776
		c-0.105,1.245,0.594,1.974,1.653,2.383c1.318,0.511,2.665,0.949,3.997,1.427c2.151,0.772,3.576,2.131,3.711,4.556
		c0.145,2.583-1.021,4.375-3.271,5.515C220.934,52.474,219.222,52.674,216.985,52.735z"/>
	<path fill="#6D6E71" d="M98.735,45.617c-3.987,4.01-7.982,8.017-11.962,12.04c-0.685,0.695-1.271,0.824-2.015,0.076
		c-4.1-4.159-3.806-2.78-0.263-6.431c2.955-3.036,5.99-6.007,9.014-8.979c0.405-0.402,0.676-1.107,1.469-0.901
		C96.061,42.974,97.798,43.938,98.735,45.617z"/>
	<path fill="#6D6E71" d="M98.735,45.617c-0.938-1.681-2.675-2.646-3.757-4.193c2.521-0.026,5.041-0.046,7.562-0.101
		c0.627-0.018,1.021,0.262,1.427,0.671c1.861,1.884,3.713,3.772,5.625,5.603c0.859,0.826,0.866,1.497,0.018,2.315
		c-3.883,3.733-2.566,3.516-6.057,0.239C101.942,48.64,100.601,46.849,98.735,45.617z"/>
</g>
<text transform="matrix(1 0 0 1 111.8645 21.9805)" fill="#6D6E71" font-family="'MyriadPro-Regular'" font-size="18.4567">Certification</text>
<path fill="#C1C1C1" d="M-144.626,60.668c0-18.821,0-37.645,0-56.458c18.82,0,37.638,0,56.459,0c0,18.813,0,37.635,0,56.458
	C-106.988,60.668-125.804,60.668-144.626,60.668z M-110.997,50.819c0.044,0.098,0.075,0.168,0.106,0.229
	c0.789,1.459,1.874,2.646,3.275,3.543c1.667,1.055,3.514,1.544,5.467,1.646c0.827,0.051,1.652,0.035,2.479-0.073
	c1.15-0.146,2.26-0.427,3.298-0.955c2.396-1.228,3.677-3.185,3.838-5.873c0.046-0.671,0-1.338-0.099-2.002
	c-0.134-0.856-0.398-1.661-0.841-2.414c-0.564-0.956-1.343-1.717-2.238-2.354c-0.998-0.717-2.096-1.271-3.211-1.773
	c-0.882-0.396-1.771-0.759-2.648-1.15c-0.55-0.248-1.087-0.523-1.57-0.884c-0.683-0.51-1.017-1.186-1.008-2.04
	c0.005-0.894,0.517-1.671,1.342-2.018c0.493-0.202,1.008-0.253,1.526-0.215c0.64,0.043,1.226,0.236,1.738,0.627
	c0.457,0.351,0.798,0.797,1.099,1.277c0.07,0.11,0.145,0.228,0.229,0.358c1.39-0.89,2.765-1.771,4.148-2.665
	c-0.271-0.469-0.55-0.893-0.86-1.301c-1.208-1.544-2.778-2.481-4.716-2.802c-1.063-0.181-2.137-0.216-3.215-0.091
	c-1.14,0.134-2.226,0.442-3.213,1.041c-2.167,1.303-3.261,3.239-3.337,5.76c-0.018,0.513,0.014,1.018,0.09,1.526
	c0.125,0.863,0.38,1.69,0.803,2.449c0.527,0.942,1.26,1.709,2.117,2.349c0.953,0.709,2.004,1.245,3.088,1.719
	c1.044,0.461,2.099,0.925,3.138,1.394c0.473,0.212,0.921,0.476,1.328,0.798c0.563,0.447,0.902,1.012,0.973,1.741
	c0.072,0.812-0.196,1.478-0.812,2.006c-0.438,0.377-0.948,0.603-1.508,0.724c-0.652,0.143-1.309,0.168-1.977,0.099
	c-1.063-0.115-2.006-0.489-2.829-1.172c-0.616-0.515-1.104-1.136-1.534-1.8c-0.042-0.068-0.087-0.129-0.14-0.209
	C-108.118,49.151-109.545,49.983-110.997,50.819z M-129.753,51.386c0.029,0.078,0.051,0.143,0.08,0.202
	c0.132,0.243,0.259,0.496,0.4,0.729c0.781,1.271,1.813,2.283,3.145,2.972c1.021,0.535,2.105,0.827,3.255,0.924
	c1.282,0.11,2.556,0.048,3.805-0.278c1.118-0.293,2.127-0.795,2.979-1.584c0.984-0.912,1.58-2.056,1.914-3.338
	c0.244-0.939,0.323-1.896,0.323-2.865c0-5.894,0-11.803,0-17.695c0-0.05,0.004-0.096,0-0.137c-0.003-0.064-0.017-0.12-0.021-0.174
	c-1.772,0-3.531,0-5.318,0c0,0.128,0,0.236,0,0.345c0,5.805,0,11.609-0.005,17.414c0,0.263,0.005,0.522-0.008,0.787
	c-0.026,0.502-0.11,1-0.31,1.473c-0.236,0.544-0.616,0.947-1.183,1.14c-0.687,0.231-1.39,0.265-2.097,0.112
	c-0.708-0.161-1.251-0.579-1.674-1.151c-0.301-0.403-0.551-0.839-0.823-1.266c-0.043-0.069-0.083-0.138-0.14-0.224
	C-126.879,49.647-128.311,50.515-129.753,51.386z"/>
</svg>
