<?xml version="1.0" encoding="utf-8"?>
<!-- Generator: Adobe Illustrator 16.0.3, SVG Export Plug-In . SVG Version: 6.00 Build 0)  -->
<!DOCTYPE svg PUBLIC "-//W3C//DTD SVG 1.1//EN" "http://www.w3.org/Graphics/SVG/1.1/DTD/svg11.dtd">
<svg version="1.1" id="Layer_1" xmlns="http://www.w3.org/2000/svg" xmlns:xlink="http://www.w3.org/1999/xlink" x="0px" y="0px"
	 width="57.171px" height="69.835px" viewBox="0 0 57.171 69.835" enable-background="new 0 0 57.171 69.835" xml:space="preserve">
<g>
	<g>
		<g>
			<path fill="#C1C1C1" d="M44.464,1.003c3.625,0,7.257,0,11.057,0c-0.714,1.251-1.363,2.408-2.029,3.558
				c-8.17,14.114-16.336,28.227-24.506,42.347c-0.812,1.393-0.82,1.401-1.62,0.018C18.654,31.874,9.948,16.82,1.245,1.766
				c-0.129-0.218-0.35-0.404-0.271-0.757c3.614,0,7.238,0,10.859,0c0.068,0.148,0.135,0.298,0.216,0.438
				c4.524,7.828,9.048,15.652,13.577,23.479c0.815,1.401,1.638,2.81,2.447,4.201c0.386-0.137,0.44-0.42,0.563-0.634
				c4.058-6.996,8.121-13.994,12.162-21.002C42.033,5.337,43.375,3.242,44.464,1.003z"/>
			<path fill="#C1C1C1" d="M28.169,48.912c-0.758,0-1.107-0.599-1.633-1.508C17.827,32.352,9.117,17.3,0.418,2.245
				c-0.202-0.29-0.524-0.749-0.384-1.434l0.158-0.758h12.23l0.455,0.921l15.291,26.419l1.482-2.554
				c3.441-5.939,6.891-11.878,10.316-17.825c0.357-0.618,0.722-1.236,1.087-1.852c0.88-1.484,1.792-3.021,2.553-4.579l0.265-0.539
				h13.301L55.61,2.781c-0.44,0.771-0.858,1.518-1.291,2.26L29.814,47.382C29.279,48.304,28.925,48.912,28.169,48.912z M2.465,1.965
				c8.57,14.82,17.137,29.631,25.704,44.437l24.495-42.32c0.403-0.7,0.801-1.399,1.213-2.123h-8.817
				C44.33,3.4,43.5,4.792,42.703,6.139c-0.361,0.609-0.721,1.217-1.072,1.833c-3.435,5.949-6.875,11.887-10.321,17.828l-1.841,3.178
				c-0.151,0.313-0.396,0.814-1.07,1.055l-0.751,0.268L11.242,1.965H2.465z"/>
		</g>
		<path fill="#C1C1C1" d="M27.644,30.298L11.22,1.926c-0.069-0.122-0.127-0.238-0.185-0.358L10.399,0.21l1.427-0.157l2.798-0.012
			C16.835,0.034,19.041,0.029,21.253,0c1.131,0,1.576,0.772,1.793,1.147l5.119,8.851c1.728-2.96,3.448-5.928,5.155-8.899
			C33.591,0.626,34.072,0,35.121,0c2.354,0.026,4.686,0.03,7.014,0.037l3.857,0.012L45.324,1.42
			c-0.793,1.632-1.724,3.203-2.623,4.718c-0.361,0.609-0.726,1.217-1.074,1.833c-3.438,5.951-6.883,11.903-10.33,17.847
			l-1.832,3.158c-0.149,0.313-0.395,0.814-1.068,1.055L27.644,30.298z M13.45,1.961l14.719,25.432l1.469-2.536
			c3.447-5.944,6.896-11.888,10.328-17.843c0.357-0.618,0.722-1.236,1.087-1.852c0.62-1.044,1.254-2.119,1.845-3.207L42.13,1.953
			c-2.334-0.007-4.672-0.011-7.006-0.038L34.98,2.049c-1.794,3.127-3.602,6.244-5.42,9.354c-0.209,0.447-0.475,1.027-1.213,1.251
			l-0.729,0.225L21.387,2.102c-0.027-0.046-0.11-0.189-0.147-0.229c-2.181,0.07-4.393,0.077-6.605,0.082L13.45,1.961z"/>
	</g>
	<g>
		<path fill="#C1C1C1" d="M13.009,65.869c-0.498-0.006-0.882-0.305-1.029-0.84c-0.641-2.305-1.422-4.561-2.077-6.857
			c-0.437-1.534-0.972-3.043-1.403-4.578c-0.131-0.453-0.01-0.688,0.45-0.84c0.503-0.162,0.848-0.026,0.977,0.402
			c0.335,1.141,0.647,2.299,0.992,3.443c0.515,1.714,1.068,3.414,1.567,5.131c0.133,0.459,0.25,0.928,0.393,1.389
			c0.037,0.104,0.023,0.254,0.195,0.235c0.113-0.017,0.122-0.133,0.149-0.228c0.324-1.151,0.644-2.301,0.983-3.449
			c0.52-1.76,1.066-3.516,1.595-5.279c0.117-0.4,0.19-0.805,0.347-1.191c0.188-0.475,0.389-0.604,0.862-0.478
			c0.515,0.14,0.7,0.427,0.558,0.924c-0.184,0.638-0.401,1.265-0.597,1.897c-0.621,2.029-1.216,4.066-1.856,6.09
			c-0.366,1.135-0.722,2.266-1.053,3.414C13.905,65.587,13.52,65.873,13.009,65.869z"/>
		<path fill="#C1C1C1" d="M31.017,61.919c-0.669,0-1.338,0.006-2.006-0.004c-0.278-0.006-0.375,0.094-0.384,0.377
			c-0.035,1.14,0.606,1.938,1.708,2.246c0.908,0.254,1.69,0.063,2.467-0.392c0.447-0.269,0.83-0.216,1.016,0.101
			c0.206,0.354,0.102,0.666-0.334,0.963c-1.711,1.166-4.466,0.807-5.702-0.77c-0.375-0.479-0.611-1.023-0.616-1.643
			c-0.009-0.857-0.029-1.709-0.002-2.561c0.034-1.086,0.618-1.885,1.491-2.455c1.642-1.076,4.007-0.701,4.99,1.004
			c0.464,0.801,0.72,1.65,0.287,2.562c-0.173,0.372-0.472,0.552-0.861,0.558c-0.685,0.014-1.372,0.004-2.054,0.004
			C31.017,61.912,31.017,61.916,31.017,61.919z M30.492,60.966v-0.004c0.453,0,0.9,0.009,1.35-0.004
			c0.849-0.026,1.029-0.274,0.824-1.104c-0.269-1.104-1.33-1.693-2.578-1.443c-0.942,0.188-1.637,1.262-1.487,2.279
			c0.042,0.264,0.195,0.271,0.389,0.271C29.488,60.966,29.992,60.966,30.492,60.966z"/>
		<path fill="#C1C1C1" d="M25.394,60.333c0,0.717,0,1.438,0,2.16c-0.009,1.469-1.024,2.666-2.364,3.186
			c-1.649,0.642-3.587-0.217-4.4-1.768c-0.225-0.434-0.352-0.935-0.358-1.44c0-1.47,0-2.94,0-4.411c0-0.538,0.265-0.74,0.915-0.734
			c0.34,0.002,0.625,0.336,0.627,0.748c0.007,1.508-0.025,3.01,0.014,4.514c0.046,1.492,1.634,2.441,2.909,1.75
			c0.763-0.412,1.186-1.08,1.179-1.985c-0.009-1.403-0.002-2.808-0.002-4.21c0-0.721,0.478-1.051,1.15-0.781
			c0.267,0.11,0.336,0.35,0.331,0.618C25.385,58.763,25.394,59.548,25.394,60.333z"/>
		<path fill="#C1C1C1" d="M44.998,65.873c-0.871-0.023-1.709-0.191-2.459-0.683c-0.228-0.155-0.414-0.333-0.414-0.638
			c0-0.245,0.058-0.44,0.293-0.59c0.229-0.153,0.392-0.029,0.537,0.082c0.742,0.555,1.566,0.752,2.483,0.649
			c0.851-0.103,1.33-0.634,1.196-1.383c-0.092-0.501-0.449-0.78-0.877-0.942c-0.646-0.252-1.313-0.453-1.965-0.688
			c-0.924-0.323-1.467-1.021-1.496-1.896c-0.029-1.072,0.442-1.865,1.377-2.267c1.264-0.542,2.5-0.411,3.72,0.151
			c0.412,0.192,0.384,0.521,0.251,0.84c-0.135,0.318-0.396,0.438-0.736,0.27c-0.594-0.3-1.219-0.451-1.883-0.4
			c-0.302,0.018-0.582,0.078-0.841,0.261c-0.407,0.292-0.606,0.649-0.524,1.147c0.071,0.467,0.428,0.662,0.803,0.797
			c0.666,0.248,1.348,0.451,2.021,0.683c1.654,0.567,1.921,2.603,1.083,3.646c-0.511,0.635-1.255,0.828-2.021,0.953
			C45.373,65.9,45.179,65.873,44.998,65.873z"/>
		<path fill="#C1C1C1" d="M40.509,62.486c-0.045,1.488,0.104,3.268-0.131,5.027c-0.183,1.41-1.106,2.371-2.373,2.32
			c-0.396-0.016-0.734-0.119-0.778-0.592c-0.039-0.389,0.231-0.691,0.703-0.727c0.55-0.047,0.817-0.352,0.938-0.854
			c0.113-0.475,0.115-0.957,0.115-1.438c0.003-2.727,0.005-5.45-0.002-8.172c-0.003-0.396,0.078-0.688,0.533-0.725
			c0.697-0.055,0.887,0.06,0.962,0.619c0.039,0.282,0.028,0.564,0.028,0.854C40.513,59.937,40.509,61.078,40.509,62.486z"/>
		<path fill="#C1C1C1" d="M37.231,64.912c-0.005,0.616-0.423,0.891-0.894,0.944c-0.412,0.044-0.949-0.503-0.967-0.917
			c-0.021-0.469,0.461-0.934,0.967-0.938C36.882,63.996,37.231,64.353,37.231,64.912z"/>
	</g>
</g>
<g>
	<path fill="#6D6E71" d="M85.138,1.056c1.26-0.067,1.836,0.338,2.271,1.078c4.18,7.177,8.385,14.338,12.563,21.515
		c1.106,1.899,1.071,1.909,3.178,1.397c4.841-1.188,9.685-2.386,14.537-3.531c0.896-0.214,0.938-0.451,0.407-1.15
		c-1.729-2.279-3.412-4.598-5.11-6.899c-0.819-1.113-0.728-1.39,0.604-1.624c2.666-0.479,5.343-0.919,8-1.423
		c0.754-0.143,1.307,0.096,1.754,0.625c2.298,2.71,4.607,5.426,6.867,8.168c0.67,0.813,0.521,1.179-0.516,1.457
		c-2.197,0.592-4.406,1.165-6.627,1.691c-0.867,0.204-0.965,0.444-0.404,1.167c2.109,2.724,4.172,5.488,6.231,8.246
		c0.968,1.292,0.873,1.583-0.625,2.127c-6.222,2.25-12.437,4.512-18.659,6.752c-2.04,0.732-2.417,0.62-3.479-1.225
		c-1.848-3.223-3.688-6.449-5.442-9.722c-0.552-1.027-1.101-1.318-2.267-0.989c-3.608,1.013-7.256,1.904-10.896,2.824
		c-1.699,0.431-2.266,0.176-2.954-1.362c-3.905-8.725-7.809-17.449-11.696-26.184c-0.768-1.715-0.66-1.886,1.199-2.042
		C77.894,1.633,81.712,1.335,85.138,1.056z M84.568,2.696c-2.781,0.248-5.438,0.522-8.097,0.702
		c-0.995,0.065-1.095,0.362-0.683,1.201c1.461,2.982,2.883,5.984,4.308,8.984c2.247,4.751,4.487,9.508,6.717,14.263
		c0.233,0.488,0.452,0.899,1.104,0.748c3.353-0.777,6.699-1.559,10.055-2.313c0.582-0.13,0.563-0.352,0.316-0.789
		C94.132,18.127,89.98,10.758,85.85,3.381C85.507,2.771,85.099,2.535,84.568,2.696z M119.819,23.227
		c-0.155,0.024-0.233,0.024-0.312,0.049c-5.483,1.414-10.973,2.837-16.457,4.249c-0.586,0.147-0.6,0.397-0.313,0.886
		c1.763,2.953,3.505,5.921,5.239,8.893c0.283,0.488,0.578,0.593,1.128,0.404c5.51-1.896,11.021-3.771,16.548-5.607
		c0.814-0.272,0.725-0.537,0.294-1.104c-1.817-2.405-3.604-4.832-5.386-7.267C120.337,23.427,120.158,23.169,119.819,23.227z
		 M121.265,20.652c1.869-0.471,4.049-0.996,6.211-1.571c0.525-0.138,0.211-0.464,0.027-0.694c-1.555-1.878-3.115-3.738-4.65-5.631
		c-0.396-0.488-0.852-0.597-1.43-0.492c-1.899,0.332-3.801,0.657-5.702,0.977c-0.845,0.138-0.421,0.512-0.168,0.849
		c1.524,2.025,3.051,4.049,4.573,6.078C120.337,20.442,120.535,20.745,121.265,20.652z"/>
	<path fill="#6D6E71" d="M93.302,59.696c0,0.696-0.014,1.394,0,2.091c0.014,0.52-0.131,1.123,0.683,1.234
		c0.353,0.048,0.319,0.393,0.292,0.659c-0.031,0.321-0.256,0.464-0.554,0.489c-0.552,0.053-1.173,0.088-1.476-0.438
		c-0.416-0.731-0.783-0.438-1.272-0.14c-0.776,0.484-1.647,0.666-2.558,0.578c-1.252-0.125-2.207-1.008-2.392-2.172
		c-0.209-1.367,0.404-2.457,1.702-2.947c0.949-0.362,1.971-0.362,2.96-0.523c0.547-0.087,1.103-0.16,1.13-0.898
		c0.03-0.713-0.271-1.164-0.962-1.389c-1.278-0.424-2.204-0.119-2.882,1.094c-0.326,0.588-0.803,0.418-1.201,0.33
		c-0.523-0.109-0.248-0.559-0.18-0.861c0.16-0.682,0.584-1.164,1.225-1.453c1.418-0.655,2.852-0.614,4.278-0.032
		c0.805,0.331,1.175,0.979,1.188,1.829c0.023,0.85,0.01,1.7,0.01,2.55C93.296,59.696,93.296,59.696,93.302,59.696z M91.811,60.464
		c-0.28-0.18,0.37-0.947-0.36-0.883c-1.025,0.086-2.098,0.127-3.057,0.592c-0.68,0.334-0.912,0.934-0.783,1.654
		c0.11,0.644,0.559,1,1.18,1.127C90.326,63.267,91.767,62.126,91.811,60.464z"/>
	<path fill="#6D6E71" d="M108.108,59.701c0,0.701-0.007,1.397,0.004,2.096c0.011,0.519-0.135,1.119,0.683,1.227
		c0.354,0.048,0.295,0.4,0.281,0.664c-0.017,0.271-0.203,0.425-0.445,0.459c-0.545,0.083-1.194,0.166-1.498-0.348
		c-0.434-0.729-0.807-0.555-1.357-0.194c-0.736,0.462-1.574,0.646-2.443,0.579c-1.315-0.104-2.324-0.988-2.488-2.196
		c-0.192-1.401,0.402-2.437,1.717-2.938c0.949-0.361,1.97-0.361,2.957-0.52c0.557-0.087,1.092-0.175,1.131-0.906
		c0.039-0.729-0.301-1.16-0.98-1.387c-1.283-0.423-2.258-0.111-2.896,1.088c-0.326,0.605-0.798,0.42-1.188,0.342
		c-0.51-0.109-0.256-0.563-0.179-0.871c0.177-0.724,0.657-1.207,1.332-1.504c0.834-0.375,1.716-0.47,2.613-0.385
		c2.093,0.202,2.762,0.944,2.762,3.055C108.11,58.541,108.108,59.125,108.108,59.701z M106.632,60.449
		c-0.178-0.244,0.332-0.955-0.401-0.879c-0.985,0.104-2.001,0.156-2.938,0.545c-0.694,0.289-0.955,0.858-0.885,1.59
		c0.067,0.707,0.502,1.104,1.166,1.246C105.134,63.289,106.599,62.111,106.632,60.449z"/>
	<path fill="#6D6E71" d="M123.035,60.022c-0.771,0-1.545,0.019-2.316-0.004c-0.646-0.022-0.801,0.271-0.68,0.86
		c0.215,1.021,0.66,1.849,1.77,2.051c1.076,0.203,1.99-0.104,2.59-1.098c0.076-0.127,0.126-0.283,0.211-0.41
		c0.342-0.491,0.891-0.379,1.264-0.229c0.568,0.241,0.096,0.673-0.047,0.958c-0.941,1.857-3.383,2.607-5.302,1.646
		c-1.653-0.826-2.458-2.662-2.174-4.965c0.246-2.014,1.416-3.426,3.166-3.842c2.731-0.645,5.278,1.777,4.813,4.534
		c-0.093,0.521-0.395,0.492-0.74,0.492C124.736,60.022,123.889,60.022,123.035,60.022z M122.378,58.821
		c0.539,0,1.078-0.03,1.613,0.007c0.635,0.034,0.801-0.187,0.637-0.813c-0.277-1.085-0.858-1.792-2.017-1.907
		c-1.084-0.104-2.024,0.511-2.426,1.569c-0.29,0.77-0.21,1.271,0.81,1.15C121.451,58.777,121.916,58.821,122.378,58.821z"/>
	<path fill="#6D6E71" d="M113.678,61.802c0.625-1.855,1.252-3.709,1.887-5.563c0.097-0.289,0.16-0.621,0.343-0.855
		c0.367-0.483,0.963-0.348,1.381-0.188c0.486,0.187,0.051,0.606-0.051,0.88c-0.842,2.319-1.734,4.627-2.583,6.946
		c-0.212,0.595-0.43,0.97-1.192,0.956c-0.727-0.018-0.898-0.385-1.101-0.924c-0.815-2.291-1.675-4.563-2.475-6.858
		c-0.11-0.308-0.681-0.837,0.007-1.021c0.561-0.156,1.298-0.313,1.576,0.644c0.462,1.593,1.004,3.166,1.521,4.74
		c0.133,0.401,0.28,0.797,0.426,1.194C113.503,61.769,113.591,61.787,113.678,61.802z"/>
	<path fill="#6D6E71" d="M129.591,57.921c0,1.746-0.021,3.488,0.015,5.229c0.009,0.6-0.159,0.816-0.784,0.813
		c-0.605-0.004-0.795-0.199-0.789-0.807c0.024-3.488,0.022-6.973,0.002-10.46c-0.002-0.593,0.168-0.821,0.783-0.829
		c0.627-0.006,0.797,0.231,0.783,0.824C129.576,54.437,129.591,56.175,129.591,57.921z"/>
	<path fill="#6D6E71" d="M84.257,57.863c0,1.746-0.008,3.483,0.011,5.225c0.007,0.521-0.005,0.877-0.706,0.877
		c-0.673,0-0.844-0.229-0.838-0.871c0.027-3.445,0.025-6.889,0.002-10.33c-0.008-0.625,0.143-0.902,0.832-0.896
		c0.695,0.008,0.714,0.377,0.71,0.896C84.25,54.462,84.257,56.164,84.257,57.863z"/>
	<path fill="#6D6E71" d="M95.729,59.558c0-1.199-0.011-2.398,0.004-3.594c0.003-0.326-0.135-0.776,0.39-0.815
		c0.351-0.024,0.849-0.228,1.008,0.269c0.203,0.631,0.449,0.336,0.726,0.113c0.397-0.316,0.829-0.568,1.349-0.625
		c0.407-0.044,0.811-0.054,0.776,0.545c-0.021,0.399,0.108,0.795-0.563,0.904c-1.651,0.275-2.193,0.997-2.215,2.688
		c-0.013,1.117,0.074,2.248-0.035,3.357c-0.054,0.527,0.623,1.505-0.668,1.546c-1.32,0.041-0.691-0.956-0.742-1.493
		C95.66,61.498,95.729,60.523,95.729,59.558z"/>
</g>
<g>
	<path fill="#6D6E71" d="M208.884,60.856c0.008-8.142,0-16.28,0.039-24.422c0.006-0.847-0.553-2.066,1.127-2.191
		c1.441-0.113,2.418,0.161,2.39,1.86c0,0.166,0.146,0.329,0.267,0.586c1.408-1.657,3.145-2.56,5.289-2.696
		c3.906-0.245,6.86,1.777,7.922,5.522c0.611,2.177,0.662,4.408,0.232,6.597c-1.048,5.356-5.688,8.414-11.539,7.519
		c-1.604-0.237-1.969,0.047-1.965,1.649c0,1.853,0.568,3.794-0.428,5.576C211.106,60.856,209.998,60.856,208.884,60.856z
		 M212.701,45.398c0,1.408,0.012,2.575-0.005,3.747c-0.007,0.599,0.081,1.039,0.757,1.289c3.764,1.39,7.91-0.733,8.728-4.515
		c0.356-1.65,0.341-3.318-0.021-4.961c-0.551-2.521-2.109-3.813-4.506-3.801c-2.396,0.018-4.188,1.485-4.746,3.86
		C212.55,42.55,212.777,44.095,212.701,45.398z"/>
	<path fill="#6D6E71" d="M242.231,60.856c0.009-2.028-0.062-4.067,0.056-6.101c0.072-1.272-0.404-1.444-1.483-1.223
		c-2.033,0.424-4.063,0.217-6.046-0.324c-3.406-0.929-5.549-3.514-5.896-7.021c-0.774-7.804,3.707-12.518,11.554-12.164
		c5.605,0.258,5.605,0.258,5.605,5.858c0,6.302,0,12.595,0,18.896c0,0.721,0.132,1.479-0.454,2.073
		C244.453,60.856,243.343,60.856,242.231,60.856z M242.259,43.737c0-1.786-0.006-3.565,0.002-5.354
		c0.002-0.582,0.002-1.146-0.785-1.188c-1.775-0.097-3.564-0.313-5.258,0.516c-2.823,1.371-4.26,5.279-3.271,8.982
		c0.762,2.863,3.113,4.273,6.61,3.954c0.427-0.039,0.854-0.146,1.282-0.147c1.08-0.008,1.498-0.473,1.44-1.596
		C242.194,47.183,242.261,45.458,242.259,43.737z"/>
	<path fill="#6D6E71" d="M170.72,28.625c0.955,0.959,1.892,1.938,2.877,2.861c0.807,0.764,0.766,1.407-0.012,2.182
		c-3.762,3.728-7.483,7.5-11.256,11.218c-1.113,1.094-9.062,0.795-10.211-0.28c-2.103-1.967-3.927-4.219-6.227-5.979
		c0-0.492,0-0.986,0-1.479c1.204-0.455,1.85-1.555,2.688-2.396c0.895-0.902,1.551-0.953,2.441-0.015
		c1.782,1.873,3.646,3.665,5.477,5.499c0.444,0.445,0.795,0.914,1.478,0.217c3.86-3.965,7.753-7.891,11.634-11.827
		C169.98,28.625,170.353,28.625,170.72,28.625z"/>
	<path fill="#6D6E71" d="M311.888,53.449c-1.592,0.061-3.16,0.489-4.779,0.188c-3.039-0.565-4.418-2.056-4.467-5.144
		c-0.051-3.084-0.066-6.168,0.012-9.246c0.031-1.258-0.121-2.021-1.646-1.772c-0.41,0.067-1.068,0.313-1.305-0.274
		c-0.219-0.563,0.375-0.859,0.689-1.199c1.855-2.026,3.738-4.027,5.969-6.433c0,1.585,0.057,2.665-0.018,3.733
		c-0.063,0.948,0.213,1.37,1.223,1.263c0.732-0.075,1.479,0.021,2.219-0.022c1.012-0.06,1.758-0.023,1.754,1.382
		c0,1.369-0.557,1.613-1.768,1.604c-3.41-0.033-3.414,0.018-3.41,3.458c0.006,2.157-0.051,4.315,0.037,6.474
		c0.117,2.842,1.09,3.67,3.852,3.219c0.758-0.123,1.225-0.029,1.639,0.553C311.888,51.966,311.888,52.707,311.888,53.449z"/>
	<path fill="#6D6E71" d="M282.396,45.891c0,1.905-0.032,3.823,0.02,5.729c0.02,0.819-0.215,1.264-1.06,1.401
		c-2.929,0.479-5.839,0.951-8.823,0.459c-3.205-0.521-5.058-2.256-5.379-5.174c-0.309-2.772,1.286-5.236,4.137-6.287
		c1.94-0.718,3.98-0.924,6.014-0.629c1.287,0.187,1.451-0.28,1.326-1.386c-0.193-1.652-1.11-2.566-2.676-2.852
		c-1.785-0.318-3.578-0.23-5.313,0.283c-1.155,0.342-1.563-0.188-1.743-1.197c-0.173-0.948-0.157-1.59,1.099-1.804
		c2.393-0.409,4.754-0.71,7.168-0.274c3.152,0.57,4.93,2.421,5.127,5.619c0.127,2.026,0.022,4.069,0.022,6.106
		C282.339,45.891,282.369,45.891,282.396,45.891z M278.684,47.482c0-3.4,0-3.422-3.416-3.275c-0.728,0.03-1.474,0.158-2.169,0.385
		c-1.563,0.498-2.221,1.664-2.128,3.269c0.097,1.687,1.041,2.552,3.056,2.839C277.841,51.236,278.684,50.648,278.684,47.482z"/>
	<path fill="#6D6E71" d="M188.392,43.923c-0.02-6.864,4.201-10.682,10.822-9.789c4.611,0.616,7.488,4.496,7.392,9.961
		c-0.122,6.891-4.88,10.771-11.521,9.386C190.832,52.601,188.408,49.138,188.392,43.923z M202.57,43.902
		c0.096-1.25-0.104-2.466-0.498-3.635c-0.746-2.201-2.266-3.262-4.594-3.27c-2.357-0.008-3.807,0.988-4.559,3.265
		c-0.793,2.409-0.793,4.853,0.004,7.256c0.755,2.274,2.24,3.312,4.545,3.31c2.267,0,3.828-1.104,4.59-3.3
		C202.462,46.363,202.66,45.147,202.57,43.902z"/>
	<path fill="#6D6E71" d="M264.798,43.583c0,2.526-0.063,5.061,0.025,7.584c0.038,1.115-0.281,1.664-1.404,1.869
		c-2.797,0.506-5.58,0.873-8.442,0.465c-3.468-0.494-5.588-2.403-6.124-5.898c-0.629-4.104-0.197-8.246-0.264-12.372
		c-0.027-1.576,1.318-0.895,2.091-0.993c0.853-0.108,1.739-0.135,1.709,1.24c-0.071,2.712-0.027,5.428-0.019,8.139
		c0.004,0.801,0.017,1.604,0.104,2.399c0.374,3.368,1.631,4.498,5.03,4.569c3.547,0.076,3.547,0.076,3.547-3.448
		c0-3.819,0.07-7.647-0.034-11.466c-0.042-1.583,0.87-1.479,1.882-1.46c0.973,0.018,1.994-0.197,1.926,1.419
		C264.721,38.283,264.798,40.933,264.798,43.583z"/>
	<path fill="#6D6E71" d="M289.416,53.785c-0.854-0.132-2.192-0.336-3.533-0.55c-0.928-0.151-1.703-0.345-1.17-1.642
		c0.384-0.913,0.397-1.92,1.91-1.395c1.695,0.59,3.489,0.797,5.279,0.291c1.323-0.378,2.452-1.015,2.534-2.559
		c0.075-1.498-0.994-2.146-2.203-2.624c-1.539-0.616-3.116-1.156-4.625-1.839c-1.812-0.815-2.744-2.278-2.644-4.277
		c0.102-1.999,1.021-3.548,2.904-4.38c2.988-1.32,6.032-0.939,9.063-0.158c1.159,0.296,0.526,1.201,0.407,1.833
		c-0.121,0.672-0.373,1.303-1.354,1.006c-1.656-0.507-3.337-0.877-5.094-0.427c-1,0.253-1.936,0.531-2.047,1.774
		c-0.104,1.246,0.595,1.976,1.656,2.385c1.316,0.51,2.664,0.947,3.996,1.427c2.15,0.771,3.576,2.132,3.711,4.556
		c0.143,2.582-1.021,4.375-3.272,5.515C293.365,53.522,291.652,53.722,289.416,53.785z"/>
	<path fill="#6D6E71" d="M171.166,46.666c-3.987,4.01-7.982,8.019-11.961,12.041c-0.686,0.695-1.272,0.824-2.016,0.076
		c-4.1-4.16-3.807-2.781-0.264-6.43c2.955-3.038,5.992-6.007,9.015-8.979c0.405-0.402,0.677-1.107,1.47-0.901
		C168.492,44.021,170.229,44.986,171.166,46.666z"/>
	<path fill="#6D6E71" d="M171.166,46.666c-0.938-1.68-2.674-2.645-3.756-4.191c2.521-0.027,5.041-0.047,7.56-0.102
		c0.628-0.018,1.022,0.262,1.428,0.67c1.86,1.885,3.713,3.772,5.625,5.604c0.858,0.827,0.866,1.498,0.019,2.314
		c-3.883,3.733-2.567,3.518-6.058,0.24C174.373,49.687,173.031,47.897,171.166,46.666z"/>
</g>
<text transform="matrix(1 0 0 1 184.2944 23.0288)" fill="#6D6E71" font-family="'MyriadPro-Regular'" font-size="18.4567">Certification</text>
<path fill="#C1C1C1" d="M-208.626,63.667c0-18.82,0-37.645,0-56.458c18.82,0,37.637,0,56.459,0c0,18.813,0,37.635,0,56.458
	C-170.989,63.667-189.805,63.667-208.626,63.667z M-174.997,53.82c0.043,0.098,0.074,0.168,0.105,0.229
	c0.789,1.459,1.875,2.646,3.275,3.543c1.668,1.055,3.514,1.543,5.467,1.646c0.828,0.051,1.652,0.035,2.479-0.074
	c1.15-0.145,2.26-0.426,3.299-0.955c2.395-1.227,3.676-3.184,3.838-5.873c0.045-0.67,0-1.338-0.1-2.002
	c-0.133-0.855-0.398-1.66-0.84-2.414c-0.564-0.955-1.344-1.717-2.238-2.354c-0.998-0.717-2.096-1.271-3.211-1.773
	c-0.883-0.396-1.771-0.76-2.648-1.15c-0.551-0.248-1.088-0.523-1.57-0.885c-0.684-0.51-1.018-1.186-1.008-2.039
	c0.004-0.895,0.516-1.672,1.342-2.018c0.492-0.203,1.008-0.254,1.525-0.215c0.641,0.043,1.227,0.236,1.738,0.627
	c0.457,0.35,0.799,0.797,1.1,1.277c0.07,0.109,0.145,0.227,0.229,0.357c1.391-0.889,2.766-1.77,4.148-2.664
	c-0.27-0.469-0.549-0.893-0.859-1.301c-1.209-1.545-2.779-2.482-4.717-2.803c-1.063-0.181-2.137-0.216-3.215-0.091
	c-1.139,0.134-2.225,0.442-3.213,1.041c-2.166,1.304-3.26,3.239-3.336,5.761c-0.018,0.512,0.014,1.018,0.09,1.525
	c0.125,0.863,0.379,1.691,0.803,2.449c0.527,0.943,1.26,1.709,2.117,2.35c0.953,0.709,2.004,1.244,3.088,1.719
	c1.043,0.461,2.098,0.924,3.137,1.393c0.473,0.213,0.922,0.477,1.328,0.799c0.563,0.447,0.902,1.012,0.973,1.74
	c0.072,0.813-0.195,1.479-0.811,2.006c-0.438,0.377-0.949,0.604-1.508,0.725c-0.652,0.143-1.309,0.168-1.977,0.098
	c-1.063-0.115-2.006-0.488-2.83-1.172c-0.615-0.514-1.104-1.135-1.533-1.799c-0.043-0.068-0.088-0.129-0.141-0.209
	C-172.118,52.152-173.545,52.984-174.997,53.82z M-193.753,54.386c0.029,0.078,0.051,0.143,0.08,0.201
	c0.132,0.244,0.259,0.496,0.4,0.73c0.781,1.271,1.813,2.283,3.145,2.971c1.021,0.535,2.105,0.828,3.255,0.924
	c1.282,0.111,2.556,0.049,3.805-0.277c1.118-0.293,2.127-0.795,2.979-1.584c0.985-0.912,1.581-2.057,1.915-3.338
	c0.244-0.939,0.322-1.896,0.322-2.865c0-5.895,0-11.803,0-17.696c0-0.05,0.004-0.096,0-0.137c-0.002-0.064-0.016-0.12-0.02-0.174
	c-1.773,0-3.532,0-5.319,0c0,0.128,0,0.236,0,0.345c0,5.805,0,11.609-0.005,17.414c0,0.262,0.005,0.521-0.008,0.787
	c-0.026,0.502-0.11,1-0.31,1.473c-0.236,0.543-0.616,0.947-1.183,1.139c-0.687,0.232-1.39,0.266-2.097,0.113
	c-0.708-0.162-1.251-0.58-1.674-1.152c-0.301-0.402-0.551-0.838-0.823-1.266c-0.043-0.068-0.083-0.137-0.14-0.223
	C-190.879,52.648-192.312,53.515-193.753,54.386z"/>
</svg>
