<?xml version="1.0" encoding="utf-8"?>
<!-- Generator: Adobe Illustrator 16.0.3, SVG Export Plug-In . SVG Version: 6.00 Build 0)  -->
<!DOCTYPE svg PUBLIC "-//W3C//DTD SVG 1.1//EN" "http://www.w3.org/Graphics/SVG/1.1/DTD/svg11.dtd">
<svg version="1.1" id="Layer_1" xmlns="http://www.w3.org/2000/svg" xmlns:xlink="http://www.w3.org/1999/xlink" x="0px" y="0px"
	 width="165.994px" height="51.141px" viewBox="0 0 165.994 51.141" enable-background="new 0 0 165.994 51.141"
	 xml:space="preserve">
<g>
	<g>
		<path fill="#C1C1C1" d="M62.991,51.14c0.007-8.142,0-16.281,0.039-24.423c0.005-0.846-0.554-2.065,1.126-2.19
			c1.442-0.112,2.419,0.161,2.39,1.86c0,0.165,0.145,0.328,0.267,0.586c1.408-1.657,3.143-2.561,5.289-2.696
			c3.906-0.244,6.86,1.777,7.922,5.521c0.611,2.178,0.662,4.409,0.232,6.598c-1.048,5.355-5.687,8.414-11.539,7.52
			c-1.604-0.239-1.969,0.046-1.965,1.648c0,1.854,0.568,3.794-0.427,5.576C65.213,51.14,64.104,51.14,62.991,51.14z M66.808,35.682
			c0,1.407,0.012,2.574-0.005,3.747c-0.007,0.598,0.081,1.038,0.756,1.288c3.764,1.391,7.911-0.732,8.727-4.515
			c0.358-1.65,0.341-3.318-0.022-4.961c-0.549-2.521-2.109-3.813-4.504-3.802c-2.398,0.02-4.188,1.486-4.747,3.861
			C66.656,32.834,66.884,34.379,66.808,35.682z"/>
		<path fill="#C1C1C1" d="M96.338,51.14c0.009-2.028-0.062-4.067,0.056-6.101c0.072-1.272-0.403-1.445-1.483-1.224
			c-2.033,0.424-4.063,0.217-6.045-0.323c-3.407-0.929-5.549-3.514-5.896-7.021c-0.778-7.803,3.706-12.518,11.554-12.163
			c5.604,0.258,5.604,0.258,5.604,5.858c0,6.301,0,12.595,0,18.896c0,0.723,0.132,1.479-0.454,2.074
			C98.56,51.14,97.449,51.14,96.338,51.14z M96.365,34.021c0-1.786-0.005-3.565,0.002-5.354c0.002-0.583,0.002-1.147-0.785-1.188
			c-1.776-0.098-3.563-0.313-5.258,0.516c-2.823,1.371-4.261,5.278-3.271,8.982c0.76,2.862,3.111,4.273,6.608,3.954
			c0.427-0.039,0.854-0.146,1.28-0.147c1.08-0.009,1.498-0.473,1.443-1.596C96.301,37.467,96.367,35.743,96.365,34.021z"/>
		<path fill="#C1C1C1" d="M24.826,18.908c0.956,0.959,1.892,1.938,2.877,2.86c0.807,0.765,0.766,1.406-0.012,2.183
			c-3.761,3.729-7.483,7.5-11.256,11.218c-1.112,1.095-9.06,0.795-10.211-0.279C4.124,32.922,2.3,30.67,0,28.91
			c0-0.492,0-0.988,0-1.479c1.204-0.455,1.848-1.555,2.686-2.396c0.895-0.902,1.552-0.953,2.443-0.016
			c1.782,1.873,3.648,3.665,5.475,5.499c0.446,0.444,0.795,0.914,1.478,0.216c3.86-3.964,7.753-7.891,11.634-11.825
			C24.087,18.908,24.459,18.908,24.826,18.908z"/>
		<path fill="#C1C1C1" d="M165.994,43.732c-1.593,0.061-3.159,0.489-4.779,0.188c-3.04-0.564-4.418-2.055-4.467-5.144
			c-0.052-3.084-0.065-6.167,0.012-9.246c0.032-1.257-0.122-2.021-1.646-1.772c-0.411,0.068-1.07,0.313-1.305-0.275
			c-0.221-0.562,0.373-0.858,0.688-1.198c1.855-2.026,3.736-4.027,5.969-6.432c0,1.585,0.057,2.665-0.018,3.732
			c-0.063,0.948,0.213,1.37,1.222,1.264c0.731-0.075,1.479,0.021,2.222-0.021c1.01-0.061,1.758-0.023,1.752,1.384
			c0,1.369-0.557,1.613-1.768,1.603c-3.41-0.035-3.414,0.017-3.41,3.458c0.006,2.156-0.05,4.316,0.037,6.474
			c0.117,2.842,1.089,3.669,3.852,3.219c0.76-0.124,1.226-0.029,1.64,0.553C165.994,42.25,165.994,42.99,165.994,43.732z"/>
		<path fill="#C1C1C1" d="M136.503,36.175c0,1.905-0.031,3.824,0.02,5.73c0.02,0.819-0.215,1.264-1.06,1.401
			c-2.928,0.479-5.839,0.95-8.823,0.459c-3.205-0.521-5.058-2.257-5.379-5.175c-0.309-2.772,1.286-5.235,4.137-6.286
			c1.94-0.718,3.98-0.925,6.014-0.63c1.289,0.187,1.451-0.279,1.326-1.384c-0.193-1.653-1.11-2.567-2.676-2.853
			c-1.785-0.318-3.578-0.23-5.313,0.283c-1.154,0.342-1.563-0.188-1.743-1.197c-0.173-0.947-0.157-1.59,1.099-1.804
			c2.393-0.409,4.754-0.71,7.168-0.273c3.152,0.569,4.931,2.421,5.127,5.618c0.127,2.025,0.022,4.068,0.022,6.105
			C136.446,36.175,136.476,36.175,136.503,36.175z M132.79,37.766c0-3.4,0-3.423-3.416-3.275c-0.727,0.03-1.475,0.157-2.169,0.386
			c-1.563,0.498-2.22,1.663-2.128,3.268c0.097,1.686,1.041,2.551,3.056,2.838C131.946,41.52,132.79,40.932,132.79,37.766z"/>
		<path fill="#C1C1C1" d="M42.498,34.208C42.479,27.343,46.7,23.525,53.32,24.42c4.611,0.616,7.488,4.495,7.392,9.961
			c-0.122,6.892-4.88,10.771-11.521,9.387C44.938,42.885,42.514,39.422,42.498,34.208z M56.677,34.186
			c0.095-1.25-0.104-2.467-0.498-3.636c-0.747-2.2-2.266-3.261-4.594-3.27c-2.357-0.008-3.807,0.989-4.559,3.265
			c-0.792,2.41-0.792,4.854,0.005,7.256c0.754,2.275,2.24,3.313,4.545,3.31c2.266,0,3.828-1.104,4.589-3.299
			C56.569,36.646,56.767,35.431,56.677,34.186z"/>
		<path fill="#C1C1C1" d="M118.905,33.868c0,2.526-0.063,5.06,0.025,7.583c0.039,1.115-0.283,1.665-1.404,1.869
			c-2.799,0.506-5.582,0.873-8.443,0.465c-3.468-0.494-5.588-2.403-6.124-5.897c-0.629-4.104-0.196-8.246-0.265-12.372
			c-0.026-1.576,1.318-0.896,2.092-0.993c0.854-0.107,1.738-0.135,1.709,1.24c-0.071,2.712-0.027,5.428-0.018,8.139
			c0.004,0.801,0.016,1.604,0.104,2.398c0.374,3.368,1.631,4.498,5.031,4.569c3.546,0.075,3.546,0.075,3.546-3.448
			c0-3.818,0.069-7.646-0.034-11.466c-0.042-1.581,0.87-1.479,1.882-1.46c0.974,0.019,1.994-0.197,1.927,1.419
			C118.827,28.565,118.905,31.217,118.905,33.868z"/>
		<path fill="#C1C1C1" d="M143.522,44.067c-0.856-0.131-2.194-0.335-3.533-0.549c-0.93-0.15-1.705-0.346-1.17-1.642
			c0.382-0.914,0.396-1.921,1.908-1.396c1.695,0.59,3.489,0.797,5.279,0.291c1.323-0.376,2.452-1.014,2.534-2.558
			c0.076-1.498-0.994-2.146-2.203-2.624c-1.539-0.615-3.114-1.155-4.625-1.838c-1.812-0.815-2.744-2.278-2.644-4.277
			c0.102-1.999,1.021-3.549,2.904-4.381c2.988-1.319,6.032-0.938,9.063-0.157c1.159,0.296,0.528,1.201,0.409,1.833
			c-0.122,0.671-0.373,1.301-1.354,1.004c-1.657-0.505-3.337-0.877-5.094-0.425c-1,0.253-1.937,0.53-2.046,1.775
			c-0.105,1.245,0.594,1.975,1.654,2.383c1.317,0.511,2.666,0.949,3.998,1.428c2.149,0.771,3.576,2.13,3.711,4.554
			c0.143,2.583-1.022,4.375-3.273,5.516C147.472,43.806,145.759,44.006,143.522,44.067z"/>
		<path fill="#C1C1C1" d="M25.272,36.949c-3.989,4.01-7.984,8.017-11.962,12.04c-0.685,0.695-1.273,0.824-2.015,0.075
			c-4.1-4.158-3.806-2.779-0.263-6.43c2.955-3.037,5.992-6.007,9.014-8.979c0.405-0.402,0.676-1.107,1.469-0.901
			C22.598,34.305,24.335,35.27,25.272,36.949z"/>
		<path fill="#C1C1C1" d="M25.272,36.949c-0.938-1.681-2.675-2.646-3.757-4.193c2.521-0.026,5.041-0.046,7.56-0.101
			c0.627-0.018,1.022,0.262,1.427,0.671c1.861,1.884,3.713,3.771,5.625,5.602c0.859,0.827,0.866,1.498,0.018,2.316
			c-3.883,3.732-2.568,3.516-6.057,0.238C28.479,39.971,27.138,38.181,25.272,36.949z"/>
	</g>
	<g>
		<path fill="#C1C1C1" d="M48.501,12.906c-0.591,0.296-1.772,0.608-3.287,0.608c-3.508,0-6.147-2.233-6.147-6.313
			c0-3.896,2.64-6.537,6.499-6.537c1.551,0,2.529,0.333,2.954,0.554l-0.388,1.313c-0.609-0.297-1.478-0.518-2.512-0.518
			c-2.917,0-4.855,1.864-4.855,5.133c0,3.047,1.754,5.004,4.782,5.004c0.979,0,1.976-0.202,2.621-0.518L48.501,12.906z"/>
		<path fill="#C1C1C1" d="M51.156,9.14c0.036,2.196,1.439,3.103,3.064,3.103c1.163,0,1.865-0.203,2.474-0.461l0.277,1.162
			c-0.572,0.26-1.551,0.572-2.973,0.572c-2.751,0-4.395-1.828-4.395-4.522c0-2.695,1.588-4.819,4.191-4.819
			c2.917,0,3.692,2.566,3.692,4.21c0,0.332-0.036,0.592-0.055,0.758L51.156,9.14L51.156,9.14z M55.919,7.977
			c0.019-1.034-0.424-2.641-2.252-2.641c-1.644,0-2.363,1.515-2.493,2.641H55.919z"/>
		<path fill="#C1C1C1" d="M59.497,7.164c0-1.053-0.019-1.957-0.073-2.788h1.421L60.9,6.13h0.074
			c0.406-1.198,1.385-1.957,2.474-1.957c0.185,0,0.313,0.02,0.462,0.056V5.76c-0.166-0.035-0.333-0.055-0.554-0.055
			c-1.146,0-1.958,0.867-2.179,2.086c-0.037,0.223-0.074,0.479-0.074,0.757v4.765h-1.606V7.164z"/>
		<path fill="#C1C1C1" d="M67.933,2.234v2.143h2.326v1.236h-2.326v4.819c0,1.106,0.314,1.734,1.219,1.734
			c0.443,0,0.701-0.037,0.941-0.11l0.074,1.219c-0.314,0.131-0.813,0.24-1.44,0.24c-0.757,0-1.366-0.26-1.754-0.701
			c-0.462-0.479-0.628-1.273-0.628-2.327V5.613H64.96V4.376h1.385V2.732L67.933,2.234z"/>
		<path fill="#C1C1C1" d="M73.895,1.865c0.019,0.554-0.388,0.996-1.034,0.996c-0.572,0-0.979-0.442-0.979-0.996
			c0-0.572,0.425-1.016,1.016-1.016C73.507,0.85,73.895,1.292,73.895,1.865z M72.085,13.313V4.376h1.625v8.938L72.085,13.313
			L72.085,13.313z"/>
		<path fill="#C1C1C1" d="M76.569,13.313v-7.7h-1.255V4.376h1.255v-0.48C76.569,1.533,77.954,0,80.466,0
			c0.83,0,1.809,0.259,2.271,0.591l-0.462,1.237c-0.388-0.277-1.089-0.518-1.883-0.518c-1.717,0-2.216,1.199-2.216,2.622v0.442
			h5.188v8.938h-1.606v-7.7h-3.582v7.699L76.569,13.313L76.569,13.313z"/>
		<path fill="#C1C1C1" d="M92.426,12.98c-0.425,0.223-1.366,0.535-2.565,0.535c-2.694,0-4.449-1.848-4.449-4.579
			c0-2.751,1.884-4.745,4.801-4.745c0.96,0,1.811,0.24,2.253,0.462l-0.368,1.257c-0.39-0.223-0.996-0.426-1.885-0.426
			c-2.05,0-3.156,1.515-3.156,3.379c0,2.067,1.328,3.343,3.102,3.343c0.925,0,1.533-0.24,1.994-0.442L92.426,12.98z"/>
		<path fill="#C1C1C1" d="M100.603,11.171c0,0.774,0.037,1.532,0.147,2.143h-1.478l-0.129-1.126h-0.058
			c-0.498,0.701-1.459,1.329-2.731,1.329c-1.811,0-2.731-1.273-2.731-2.565c0-2.16,1.92-3.343,5.372-3.323V7.441
			c0-0.737-0.203-2.067-2.03-2.067c-0.831,0-1.698,0.259-2.325,0.665l-0.371-1.071c0.739-0.479,1.812-0.794,2.938-0.794
			c2.731,0,3.396,1.865,3.396,3.656V11.171L100.603,11.171z M99.032,8.752c-1.772-0.037-3.785,0.276-3.785,2.014
			c0,1.053,0.702,1.551,1.533,1.551c1.162,0,1.9-0.737,2.16-1.494c0.055-0.167,0.092-0.354,0.092-0.52V8.752z"/>
		<path fill="#C1C1C1" d="M105.104,2.234v2.143h2.326v1.236h-2.326v4.819c0,1.106,0.313,1.734,1.219,1.734
			c0.443,0,0.701-0.037,0.941-0.11l0.072,1.219c-0.313,0.131-0.813,0.24-1.439,0.24c-0.756,0-1.365-0.26-1.754-0.701
			c-0.461-0.479-0.627-1.273-0.627-2.327V5.613h-1.387V4.376h1.387V2.732L105.104,2.234z"/>
		<path fill="#C1C1C1" d="M111.065,1.865c0.019,0.554-0.39,0.996-1.034,0.996c-0.572,0-0.979-0.442-0.979-0.996
			c0-0.572,0.426-1.016,1.016-1.016C110.679,0.85,111.065,1.292,111.065,1.865z M109.256,13.313V4.376h1.625v8.938L109.256,13.313
			L109.256,13.313z"/>
		<path fill="#C1C1C1" d="M121.661,8.771c0,3.306-2.289,4.745-4.449,4.745c-2.419,0-4.283-1.771-4.283-4.599
			c0-2.991,1.956-4.745,4.432-4.745C119.926,4.173,121.661,6.038,121.661,8.771z M114.571,8.863c0,1.957,1.125,3.435,2.714,3.435
			c1.551,0,2.715-1.458,2.715-3.471c0-1.516-0.758-3.436-2.679-3.436C115.401,5.391,114.571,7.164,114.571,8.863z"/>
		<path fill="#C1C1C1" d="M123.707,6.795c0-0.923-0.019-1.68-0.073-2.419h1.439l0.093,1.479h0.037
			c0.442-0.851,1.478-1.682,2.954-1.682c1.236,0,3.156,0.739,3.156,3.805v5.336h-1.625V8.161c0-1.439-0.535-2.641-2.067-2.641
			c-1.07,0-1.901,0.757-2.179,1.661c-0.073,0.202-0.11,0.479-0.11,0.757v5.373h-1.625V6.795L123.707,6.795z"/>
	</g>
</g>
<path fill="#C1C1C1" d="M287.113,54.668c0-18.821,0-37.645,0-56.458c18.82,0,37.638,0,56.459,0c0,18.813,0,37.635,0,56.458
	C324.751,54.668,305.935,54.668,287.113,54.668z M320.742,44.82c0.044,0.098,0.075,0.168,0.106,0.229
	c0.789,1.459,1.874,2.646,3.275,3.543c1.667,1.055,3.514,1.544,5.467,1.646c0.827,0.051,1.652,0.035,2.479-0.073
	c1.15-0.146,2.26-0.427,3.298-0.955c2.396-1.228,3.677-3.185,3.838-5.873c0.046-0.671,0-1.338-0.099-2.002
	c-0.134-0.856-0.398-1.661-0.841-2.414c-0.564-0.956-1.343-1.717-2.238-2.354c-0.998-0.717-2.096-1.271-3.211-1.773
	c-0.882-0.396-1.771-0.759-2.648-1.15c-0.55-0.248-1.087-0.523-1.57-0.884c-0.683-0.51-1.017-1.186-1.008-2.04
	c0.005-0.894,0.517-1.671,1.342-2.018c0.493-0.202,1.008-0.253,1.526-0.215c0.64,0.043,1.226,0.236,1.738,0.627
	c0.457,0.351,0.798,0.797,1.099,1.277c0.07,0.11,0.145,0.228,0.229,0.358c1.39-0.89,2.765-1.771,4.148-2.665
	c-0.271-0.469-0.55-0.893-0.86-1.301c-1.208-1.544-2.778-2.481-4.716-2.802c-1.063-0.181-2.137-0.216-3.215-0.091
	c-1.14,0.134-2.226,0.442-3.213,1.041c-2.167,1.304-3.261,3.239-3.337,5.76c-0.018,0.513,0.014,1.018,0.09,1.526
	c0.125,0.863,0.38,1.69,0.803,2.449c0.527,0.942,1.26,1.709,2.117,2.349c0.953,0.709,2.004,1.245,3.088,1.719
	c1.044,0.461,2.099,0.925,3.138,1.394c0.473,0.212,0.921,0.476,1.328,0.798c0.563,0.447,0.902,1.012,0.973,1.741
	c0.072,0.812-0.196,1.478-0.812,2.006c-0.438,0.377-0.948,0.603-1.508,0.724c-0.652,0.143-1.309,0.168-1.977,0.099
	c-1.063-0.115-2.006-0.489-2.829-1.172c-0.616-0.515-1.104-1.136-1.534-1.8c-0.042-0.068-0.087-0.129-0.14-0.209
	C323.621,43.152,322.194,43.984,320.742,44.82z M301.986,45.386c0.029,0.078,0.051,0.143,0.08,0.202
	c0.132,0.243,0.259,0.496,0.4,0.729c0.781,1.271,1.813,2.283,3.145,2.972c1.021,0.535,2.105,0.827,3.255,0.924
	c1.282,0.11,2.556,0.048,3.805-0.278c1.118-0.293,2.127-0.795,2.979-1.584c0.984-0.912,1.58-2.056,1.914-3.338
	c0.244-0.939,0.323-1.896,0.323-2.865c0-5.894,0-11.803,0-17.695c0-0.05,0.004-0.096,0-0.137c-0.003-0.064-0.017-0.12-0.021-0.174
	c-1.772,0-3.531,0-5.318,0c0,0.128,0,0.236,0,0.345c0,5.805,0,11.609-0.005,17.414c0,0.263,0.005,0.522-0.008,0.787
	c-0.026,0.502-0.11,1-0.31,1.473c-0.236,0.544-0.616,0.947-1.183,1.14c-0.687,0.231-1.39,0.265-2.097,0.112
	c-0.708-0.161-1.251-0.579-1.674-1.151c-0.301-0.403-0.551-0.839-0.823-1.266c-0.043-0.069-0.083-0.138-0.14-0.224
	C304.86,43.648,303.428,44.515,301.986,45.386z"/>
</svg>
