<?xml version="1.0" encoding="utf-8"?>
<!-- Generator: Adobe Illustrator 16.0.3, SVG Export Plug-In . SVG Version: 6.00 Build 0)  -->
<!DOCTYPE svg PUBLIC "-//W3C//DTD SVG 1.1//EN" "http://www.w3.org/Graphics/SVG/1.1/DTD/svg11.dtd">
<svg version="1.1" id="Layer_1" xmlns="http://www.w3.org/2000/svg" xmlns:xlink="http://www.w3.org/1999/xlink" x="0px" y="0px"
	 width="51.41px" height="72.714px" viewBox="0 0 51.41 72.714" enable-background="new 0 0 51.41 72.714" xml:space="preserve">
<g>
	<path fill="#C1C1C1" d="M25.724,14.399c8.283,0,16.568,0.014,24.85-0.012c0.734-0.007,0.889,0.197,0.822,0.902
		c-0.873,9.503-1.724,19.006-2.572,28.507c-0.646,7.25-1.285,14.488-1.922,21.74c-0.121,1.387-0.103,1.387-1.437,1.758
		c-6.383,1.769-12.766,3.537-19.143,5.314c-0.41,0.115-0.793,0.146-1.206,0.032c-6.603-1.839-13.205-3.679-19.816-5.491
		c-0.524-0.138-0.678-0.369-0.722-0.88c-0.425-4.959-0.875-9.915-1.32-14.876C2.609,44.1,1.953,36.807,1.306,29.511
		c-0.426-4.777-0.84-9.557-1.295-14.335c-0.069-0.702,0.178-0.787,0.79-0.782C9.11,14.404,17.418,14.399,25.724,14.399z
		 M25.74,16.535c-7.56,0-15.119,0.005-22.676-0.01c-0.539,0-0.779,0.065-0.712,0.707c0.393,4.133,0.749,8.27,1.119,12.409
		c0.598,6.729,1.205,13.457,1.804,20.185c0.44,4.906,0.883,9.816,1.301,14.721c0.048,0.582,0.279,0.822,0.832,0.975
		c5.89,1.604,11.775,3.234,17.661,4.871c0.411,0.12,0.782,0.12,1.201,0c5.834-1.624,11.664-3.251,17.514-4.82
		c0.805-0.216,1.035-0.586,1.098-1.347c0.604-7.011,1.234-14.022,1.861-21.042c0.766-8.601,1.525-17.204,2.316-25.81
		c0.067-0.7-0.107-0.854-0.793-0.852C40.755,16.542,33.251,16.535,25.74,16.535z"/>
	<path fill="#C1C1C1" d="M33.8,5.362c-0.687,1.044-1.372,2.092-2.104,3.204c-0.744-1.146-1.432-2.194-2.121-3.25
		c-0.053,0.004-0.104,0.01-0.156,0.017c0,1.08,0,2.162,0,3.242c0,1.348,0,1.348-1.332,1.348c-1.885,0-1.885,0-1.885-1.879
		c0-2.393,0.02-4.789-0.017-7.184c-0.012-0.63,0.186-0.805,0.787-0.763c0.865,0.059,1.9-0.235,2.574,0.143
		c0.668,0.377,0.982,1.392,1.451,2.131c0.229,0.358,0.451,0.731,0.732,1.188c0.643-1.046,1.242-2.001,1.809-2.971
		c0.207-0.357,0.439-0.509,0.857-0.491c0.771,0.032,1.549,0.029,2.317,0.004c0.399-0.016,0.545,0.119,0.545,0.527
		c-0.014,2.934-0.008,5.874-0.004,8.813c0.004,0.365-0.14,0.495-0.504,0.486c-0.72-0.017-1.438-0.031-2.166,0.005
		c-0.47,0.02-0.627-0.137-0.617-0.614c0.025-1.306,0.011-2.612,0.011-3.92C33.917,5.384,33.857,5.375,33.8,5.362z"/>
	<path fill="#C1C1C1" d="M14.287,5c0,1.414-0.024,2.835,0.014,4.251c0.013,0.556-0.178,0.715-0.711,0.684
		c-0.666-0.041-1.339-0.033-2.008-0.002c-0.448,0.02-0.581-0.156-0.563-0.587c0.026-0.719-0.013-1.44,0.014-2.162
		c0.013-0.396-0.117-0.556-0.528-0.541c-0.643,0.026-1.285,0.022-1.933,0C8.164,6.627,8.041,6.792,8.05,7.186
		c0.022,0.75-0.004,1.498,0.013,2.249c0.009,0.362-0.121,0.503-0.488,0.494c-0.772-0.017-1.547-0.017-2.322,0
		C4.873,9.937,4.77,9.776,4.77,9.425c0.011-2.937,0.011-5.879,0-8.817c0-0.351,0.095-0.517,0.482-0.506
		c0.774,0.024,1.546,0.024,2.318,0C7.964,0.09,8.045,0.275,8.041,0.62C8.026,1.366,8.05,2.113,8.033,2.864
		c-0.014,0.365,0.114,0.5,0.483,0.488c0.673-0.022,1.342-0.029,2.011,0c0.435,0.021,0.513-0.174,0.501-0.55
		c-0.018-0.723,0.012-1.44-0.009-2.17c-0.013-0.392,0.124-0.577,0.531-0.526c0.029,0,0.055,0,0.079,0
		c0.847,0.041,1.929-0.337,2.47,0.135c0.568,0.493,0.142,1.606,0.181,2.437C14.315,3.451,14.287,4.225,14.287,5z"/>
	<path fill="#C1C1C1" d="M20.294,0.105c1.287,0,2.575,0.021,3.864-0.008c0.454-0.012,0.654,0.104,0.625,0.596
		c-0.036,0.725-0.029,1.446,0,2.168c0.017,0.414-0.141,0.534-0.532,0.524c-0.594-0.031-1.188,0.017-1.777-0.019
		c-0.48-0.024-0.621,0.159-0.616,0.625c0.021,1.749-0.014,3.504,0.017,5.255c0.014,0.546-0.159,0.724-0.695,0.688
		c-0.643-0.046-1.294-0.038-1.932-0.002c-0.505,0.026-0.659-0.14-0.65-0.657c0.03-1.725-0.016-3.451,0.021-5.178
		c0.013-0.572-0.141-0.787-0.73-0.734c-0.534,0.051-1.082-0.009-1.624,0.022c-0.395,0.017-0.546-0.11-0.534-0.521
		c0.029-0.75,0.024-1.498,0.002-2.239c-0.014-0.414,0.143-0.532,0.541-0.525C17.615,0.124,18.955,0.105,20.294,0.105z"/>
	<path fill="#C1C1C1" d="M38.869,5.039c0-1.42,0.021-2.841-0.014-4.26c-0.021-0.549,0.162-0.714,0.697-0.681
		c0.67,0.042,1.342,0.031,2.014,0.002c0.442-0.021,0.574,0.14,0.57,0.576c-0.023,1.755,0.02,3.513-0.023,5.265
		c-0.018,0.627,0.191,0.786,0.785,0.764c1.106-0.047,2.219-0.002,3.328-0.022c0.387-0.007,0.555,0.105,0.537,0.523
		c-0.025,0.719-0.021,1.448,0,2.165c0.014,0.38-0.084,0.565-0.511,0.561c-2.295-0.013-4.592-0.013-6.892,0
		c-0.424,0.004-0.504-0.183-0.504-0.561C38.876,7.924,38.869,6.479,38.869,5.039z"/>
	<path fill="#C1C1C1" d="M25.702,25.143c5.131,0,10.269,0.017,15.396-0.013c0.646-0.005,0.772,0.188,0.709,0.779
		c-0.189,1.664-0.345,3.336-0.463,5.012c-0.039,0.527-0.224,0.687-0.748,0.682c-2.478-0.024-4.953-0.009-7.431-0.009
		c-5.235,0-10.474,0.009-15.708-0.016c-0.64-0.004-0.849,0.128-0.77,0.806c0.202,1.665,0.356,3.334,0.453,5.007
		c0.041,0.632,0.227,0.802,0.861,0.8c7.22-0.023,14.444-0.018,21.667-0.018c0.992,0,1.002,0,0.918,0.969
		c-0.529,6.04-1.074,12.07-1.598,18.109c-0.049,0.547-0.248,0.775-0.793,0.924c-3.979,1.078-7.943,2.191-11.914,3.307
		c-0.411,0.117-0.792,0.117-1.207,0c-3.962-1.119-7.93-2.24-11.911-3.32c-0.517-0.142-0.695-0.381-0.735-0.887
		c-0.246-2.932-0.505-5.859-0.792-8.781c-0.053-0.539,0.135-0.652,0.623-0.644c1.731,0.022,3.459,0.026,5.188-0.002
		c0.5-0.013,0.664,0.146,0.69,0.649c0.075,1.28,0.233,2.563,0.313,3.852c0.026,0.49,0.216,0.707,0.697,0.831
		c2.023,0.511,4.036,1.058,6.049,1.608c0.365,0.096,0.697,0.092,1.061-0.002c2.011-0.554,4.031-1.094,6.045-1.621
		c0.38-0.097,0.634-0.211,0.665-0.688c0.184-2.363,0.393-4.729,0.639-7.086c0.059-0.621-0.104-0.773-0.728-0.771
		c-6.883,0.018-13.771-0.002-20.66,0.012c-0.63,0-0.926-0.077-0.99-0.834c-0.453-5.442-0.967-10.892-1.46-16.335
		c-0.05-0.536-0.064-1.084-0.158-1.611c-0.114-0.613,0.125-0.72,0.69-0.717C15.436,25.152,20.564,25.143,25.702,25.143z"/>
</g>
<g>
	<path fill="#6D6E71" d="M94.591,14.307c8.312,0,16.625,0.013,24.941-0.02c0.87,0,1.1,0.217,1.016,1.086
		c-0.687,7.059-1.344,14.127-1.998,21.189c-0.594,6.384-1.161,12.77-1.743,19.152c-0.32,3.531-0.652,7.063-0.97,10.599
		c-0.049,0.573-0.209,0.929-0.858,1.095c-6.58,1.738-13.152,3.506-19.724,5.286c-0.473,0.127-0.894,0.122-1.36-0.005
		c-6.574-1.775-13.146-3.543-19.728-5.291c-0.571-0.148-0.787-0.425-0.84-1.002c-0.438-4.99-0.902-9.98-1.359-14.973
		c-0.532-5.762-1.069-11.529-1.604-17.291c-0.461-5.018-0.92-10.041-1.387-15.061c-0.107-1.181-0.224-2.357-0.334-3.529
		c-0.119-1.236-0.115-1.239,1.094-1.239C78.021,14.307,86.305,14.307,94.591,14.307z M94.898,31.331
		c0.01,0.051,0.022,0.102,0.037,0.154c-0.217,0.09-0.433,0.183-0.644,0.274c-4.584,1.932-9.16,3.877-13.752,5.784
		c-0.687,0.287-1.024,0.597-0.935,1.408c0.177,1.486,0.279,2.981,0.302,4.469c0.01,0.854,0.332,1.002,1.104,0.998
		c6.85-0.026,13.703-0.008,20.551-0.033c0.683-0.004,0.935,0.146,0.873,0.88c-0.178,2.261-0.311,4.528-0.43,6.799
		c-0.025,0.511-0.193,0.771-0.697,0.919c-2.033,0.59-4.053,1.211-6.074,1.826c-0.34,0.105-0.661,0.124-1.006,0.027
		c-2.063-0.576-4.131-1.153-6.205-1.701c-0.504-0.129-0.694-0.361-0.719-0.891c-0.046-1.183-0.174-2.363-0.244-3.539
		c-0.035-0.557-0.213-0.805-0.84-0.785c-1.59,0.049-3.182,0.072-4.766-0.008c-0.854-0.039-0.957,0.287-0.889,1.014
		c0.272,2.752,0.52,5.518,0.711,8.275c0.045,0.598,0.354,0.709,0.785,0.834c3.971,1.146,7.94,2.297,11.91,3.463
		c0.336,0.092,0.645,0.156,1,0.055c4.157-1.163,8.321-2.323,12.487-3.465c0.39-0.104,0.552-0.278,0.586-0.691
		c0.494-6.172,0.99-12.35,1.531-18.518c0.065-0.791-0.193-0.928-0.897-0.922c-4.297,0.026-8.593,0.015-12.888,0.004
		c-0.291,0-0.608,0.121-0.95-0.133c0.264-0.115,0.475-0.209,0.692-0.305c4.664-1.973,9.332-3.952,13.993-5.932
		c0.328-0.141,0.724-0.172,0.753-0.692c0.106-1.773,0.233-3.539,0.383-5.31c0.043-0.513-0.101-0.695-0.646-0.693
		c-10.431,0.036-20.863,0.053-31.295,0.06c-0.564,0.003-0.685,0.184-0.597,0.701c0.248,1.534,0.556,3.068,0.66,4.612
		c0.069,1.034,0.51,1.152,1.392,1.143c4.604-0.064,9.217-0.064,13.821-0.082C94.302,31.331,94.6,31.331,94.898,31.331z"/>
	<path fill="#6D6E71" d="M95.566,3.374c0.768,0.794,1.377,1.551,2.106,2.16C98.466,6.195,98.73,6.94,98.68,7.96
		c-0.084,1.7-0.023,1.703-1.726,1.703c-1.863,0-3.729-0.019-5.593,0.015c-0.563,0.011-0.741-0.143-0.756-0.729
		c-0.047-2.428-0.065-2.428,2.375-2.446c0.181,0,0.362,0,0.722-0.219c-0.718-0.654-1.396-1.352-2.147-1.953
		c-0.746-0.603-0.986-1.302-0.955-2.254c0.071-2.138,0.024-2.14,2.139-2.14c1.707,0,3.42,0.02,5.131-0.014
		c0.58-0.005,0.848,0.126,0.797,0.769c-0.064,0.833,0.254,1.896-0.15,2.447c-0.447,0.594-1.565,0.126-2.389,0.205
		C95.979,3.359,95.832,3.359,95.566,3.374z"/>
	<path fill="#6D6E71" d="M107.009,3.513c0.625,0.621,1.21,1.306,1.896,1.862c0.895,0.724,1.256,1.56,1.174,2.732
		c-0.115,1.551-0.031,1.556-1.605,1.556c-1.902,0-3.803-0.014-5.699,0.013c-0.539,0.009-0.758-0.104-0.772-0.708
		c-0.053-2.448-0.074-2.448,2.371-2.464c0.187,0,0.371,0,0.683,0c-0.646-0.883-1.373-1.539-2.104-2.166
		c-0.725-0.625-0.988-1.304-0.955-2.263c0.07-2.136,0.023-2.138,2.146-2.138c1.715,0,3.428,0.026,5.137-0.018
		c0.628-0.009,0.83,0.191,0.775,0.801c-0.076,0.831,0.334,1.876-0.158,2.442c-0.467,0.542-1.527,0.117-2.32,0.19
		C107.4,3.363,107.199,3.255,107.009,3.513z"/>
	<path fill="#6D6E71" d="M79.117,4.792c0-1.366,0.018-2.738-0.014-4.104c-0.015-0.537,0.104-0.772,0.709-0.767
		c2.207,0.034,4.416,0.034,6.623,0c0.602-0.005,0.709,0.228,0.723,0.764c0.055,2.661,0.07,2.661-2.545,2.661
		c-2.025,0-1.965,0.005-2.053,2.035c-0.047,0.988,0.28,1.219,1.184,1.137c0.896-0.082,1.803,0.011,2.705-0.026
		c0.506-0.017,0.693,0.123,0.713,0.671c0.088,2.502,0.104,2.499-2.418,2.499c-1.646,0-3.295-0.016-4.939,0.013
		c-0.527,0.009-0.715-0.149-0.701-0.686C79.134,7.592,79.117,6.194,79.117,4.792z"/>
</g>
<path fill="#6D6E71" d="M131.968,64.585c0-18.821,0-37.646,0-56.458c18.822,0,37.638,0,56.459,0c0,18.813,0,37.635,0,56.458
	C169.605,64.585,150.791,64.585,131.968,64.585z M165.598,54.74c0.043,0.096,0.073,0.166,0.106,0.229
	c0.789,1.459,1.875,2.646,3.274,3.544c1.668,1.053,3.515,1.544,5.467,1.646c0.828,0.049,1.652,0.033,2.478-0.074
	c1.152-0.146,2.261-0.428,3.3-0.955c2.396-1.229,3.676-3.186,3.838-5.873c0.045-0.672,0-1.338-0.101-2.002
	c-0.131-0.855-0.397-1.662-0.838-2.414c-0.565-0.957-1.345-1.717-2.24-2.354c-0.998-0.717-2.094-1.271-3.211-1.773
	c-0.881-0.396-1.771-0.76-2.647-1.151c-0.551-0.248-1.088-0.524-1.57-0.884c-0.684-0.51-1.018-1.186-1.008-2.039
	c0.006-0.895,0.516-1.672,1.342-2.018c0.492-0.203,1.006-0.254,1.525-0.216c0.641,0.046,1.227,0.237,1.737,0.63
	c0.457,0.348,0.8,0.795,1.101,1.275c0.07,0.109,0.143,0.227,0.229,0.357c1.391-0.891,2.766-1.771,4.15-2.666
	c-0.271-0.469-0.551-0.892-0.861-1.299c-1.209-1.544-2.777-2.481-4.715-2.802c-1.063-0.181-2.137-0.216-3.215-0.091
	c-1.141,0.134-2.227,0.442-3.213,1.041c-2.168,1.304-3.262,3.237-3.338,5.76c-0.019,0.515,0.016,1.019,0.09,1.527
	c0.125,0.862,0.381,1.69,0.805,2.448c0.525,0.945,1.258,1.709,2.115,2.35c0.953,0.708,2.006,1.246,3.09,1.719
	c1.043,0.461,2.096,0.926,3.135,1.395c0.475,0.211,0.922,0.476,1.328,0.797c0.564,0.447,0.904,1.012,0.975,1.742
	c0.07,0.812-0.197,1.478-0.811,2.006c-0.438,0.377-0.951,0.603-1.51,0.724c-0.652,0.142-1.309,0.168-1.977,0.097
	c-1.062-0.115-2.007-0.488-2.828-1.172c-0.617-0.513-1.104-1.135-1.535-1.799c-0.041-0.068-0.086-0.129-0.14-0.209
	C168.477,53.071,167.048,53.902,165.598,54.74z M146.839,55.304c0.031,0.078,0.052,0.142,0.08,0.201
	c0.133,0.244,0.261,0.496,0.401,0.729c0.781,1.271,1.812,2.283,3.144,2.972c1.021,0.535,2.106,0.828,3.257,0.924
	c1.28,0.111,2.555,0.049,3.805-0.277c1.117-0.294,2.127-0.795,2.979-1.585c0.984-0.912,1.58-2.056,1.914-3.337
	c0.246-0.941,0.324-1.896,0.324-2.865c0-5.895,0-11.803,0-17.697c0-0.05,0.004-0.096,0-0.137c-0.004-0.064-0.018-0.12-0.021-0.174
	c-1.771,0-3.531,0-5.318,0c0,0.128,0,0.236,0,0.345c0,5.806,0,11.609-0.004,17.413c0,0.262,0.004,0.523-0.008,0.786
	c-0.026,0.503-0.111,1.001-0.309,1.474c-0.238,0.543-0.619,0.947-1.184,1.139c-0.688,0.231-1.392,0.266-2.099,0.113
	c-0.707-0.162-1.25-0.58-1.674-1.152c-0.299-0.402-0.549-0.838-0.821-1.266c-0.043-0.068-0.084-0.138-0.14-0.223
	C149.714,53.567,148.283,54.433,146.839,55.304z"/>
<g>
	<path fill="#6D6E71" d="M293.927,26.766c-2.538-2.854-5.651-4.968-9.045-6.672c-9.407-4.74-19.521-6.604-29.938-6.843
		c-4.586-0.105-9.211,0.214-13.778,0.673c-6.401,0.637-12.603,2.239-18.524,4.803c-4.613,2.004-8.88,4.515-12.224,8.36
		c-2.002,2.302-3.392,4.909-3.69,8.005c-0.388,4.049,1.116,7.445,3.696,10.427c3.425,3.943,7.818,6.518,12.565,8.512
		c9.354,3.928,19.191,5.301,30.285,5.444c1.496-0.087,4.013-0.197,6.521-0.386c7.207-0.541,14.217-1.994,20.939-4.688
		c4.867-1.952,9.391-4.471,13.002-8.368C299.318,40.019,299.386,32.899,293.927,26.766z M234.542,43.031
		c-2.183,0.077-4.362,0.055-6.539,0.018c-0.705-0.014-1.028-0.811-1.142-0.008c-0.301,2.154-0.727,5.584-1.116,5.584
		c-1.797,0-3.582,0-5.468,0c0.349,0,0.683-2.777,1.035-4.6c1.222-6.348,2.459-12.241,3.648-18.597
		c0.127-0.658,0.352-0.624,1.016-0.618c3.424,0.043,6.853,0.099,10.273,0.181c1.104,0.026,2.236,0.306,3.289,0.642
		c2.847,0.918,4.521,3.278,4.566,6.282c0.043,2.761-0.695,5.297-2.398,7.508C239.896,41.792,237.453,42.919,234.542,43.031z
		 M261.791,43.625c-1.771,0-3.533,0-5.424,0c0.295-2,0.566-3.271,0.854-4.717c0.442-2.256,0.922-4.656,1.346-6.917
		c0.358-1.912-0.361-2.941-2.312-3.035c-1.646-0.079-3.295-0.053-5.028-0.053c-0.377,1.853-0.757,3.656-1.111,5.478
		c-0.523,2.648-1.021,5.297-1.564,7.948c-0.055,0.277-0.395,0.696-0.609,0.701c-1.612,0.063-3.229,1.152-4.973,1.152
		c1.635-8.273,3.25-19.556,4.873-23.556c1.82,0,3.58,0,5.443,0c-0.424,0-0.83,3.237-1.275,5.56c0.473,0,0.854-0.587,1.238-0.563
		c2.354,0.129,4.723-0.133,7.063,0.141c0.931,0.109,1.883,0.513,2.662,1.082c1.43,1.049,1.57,2.599,1.279,4.17
		c-0.715,3.916-1.535,8.072-2.318,11.973C261.912,43.103,261.852,41.625,261.791,43.625z M283.968,39.869
		c-1.772,2.074-4.077,3.027-6.721,3.154c-2.207,0.1-4.42,0.055-6.631,0.025c-0.699-0.016-1.035-0.826-1.146-0.031
		c-0.3,2.158-0.728,5.607-1.122,5.607c-1.826,0-3.586,0-5.465,0c0.273,0,0.533-1.992,0.807-3.416
		c1.295-6.74,2.605-13.018,3.875-19.77c0.123-0.654,0.338-0.637,1.013-0.629c3.426,0.041,6.854,0.07,10.274,0.179
		c1.279,0.041,2.613,0.385,3.805,0.854c2.517,0.989,3.886,3.009,4.035,5.695C286.865,34.625,286.02,37.466,283.968,39.869z"/>
	<path fill="#6D6E71" d="M278.193,29.07c-1.187-0.201-2.41-0.183-3.619-0.202c-2.088-0.026-2.105-0.007-2.52,2.032
		c-0.55,2.733-1.072,5.48-1.628,8.329c1.791,0,3.449,0.104,5.082-0.026c3.113-0.263,4.521-1.591,5.188-4.663
		c0.136-0.606,0.207-1.227,0.255-1.843C281.098,30.585,280.264,29.413,278.193,29.07z"/>
	<path fill="#6D6E71" d="M235.578,29.081c-1.746-0.236-3.537-0.167-5.309-0.195c-0.17-0.005-0.465,0.229-0.496,0.392
		c-0.662,3.285-1.289,6.58-1.92,9.849c1.91,0,3.77,0.072,5.619-0.021c2.348-0.114,3.739-1.517,4.393-3.684
		c0.236-0.798,0.363-1.637,0.475-2.465C238.632,30.77,237.73,29.377,235.578,29.081z"/>
</g>
<g>
	<path fill="#6D6E71" d="M315.519,11.822c0.603-1.483,1.923-1.998,3.296-2.369c2.979-0.801,6.045-1.208,9.108-1.54
		c3.74-0.416,7.49-0.637,11.252-0.522c5.474,0.164,10.904,0.662,16.242,1.944c0.941,0.226,1.844,0.561,2.697,1.027
		c0.67,0.363,1.004,0.904,0.998,1.671c-0.006,4.006,0.006,8.007,0,12.007c0,0.798-0.478,1.351-1.047,1.817
		c-1.021,0.835-2.229,1.307-3.461,1.698c-2.847,0.902-5.773,1.337-8.726,1.626c-3.334,0.332-6.676,0.474-10.02,0.399
		c-4.558-0.104-9.09-0.401-13.55-1.41c-1.5-0.334-2.971-0.766-4.354-1.449c-1.064-0.529-2.01-1.19-2.439-2.379
		C315.519,20.171,315.519,15.996,315.519,11.822z M336.085,14.19c4.746,0.007,9.188-0.131,13.613-0.617
		c1.896-0.214,3.799-0.469,5.639-1.026c0.461-0.14,0.918-0.301,1.32-0.576c0.541-0.375,0.533-0.779-0.025-1.128
		c-0.242-0.161-0.514-0.286-0.787-0.389c-0.864-0.344-1.776-0.541-2.69-0.705c-4.396-0.776-8.834-0.987-13.279-1.095
		c-3.293-0.088-6.584,0-9.875,0.181c-2.861,0.154-5.707,0.399-8.527,0.926c-1.147,0.219-2.307,0.44-3.342,1.025
		c-0.676,0.38-0.682,0.842-0.021,1.236c0.293,0.169,0.612,0.301,0.94,0.419c1.205,0.432,2.463,0.642,3.722,0.834
		C327.283,13.959,331.828,14.11,336.085,14.19z M318.289,19.825c0.396,0.003,0.672-0.288,0.66-0.694
		c-0.004-0.427-0.271-0.616-0.652-0.652c-0.348-0.036-0.713,0.349-0.678,0.699C317.66,19.566,317.886,19.796,318.289,19.825z"/>
	<path fill="#6D6E71" d="M315.519,47.634c0.203-0.448,0.388-0.916,0.808-1.229c0.139-0.105,0.229-0.152,0.396-0.031
		c1.757,1.285,3.814,1.824,5.884,2.277c3.563,0.791,7.186,1.105,10.823,1.27c3.377,0.154,6.761,0.121,10.131-0.116
		c3.892-0.278,7.759-0.716,11.48-1.97c1.051-0.354,2.066-0.785,2.938-1.486c0.186-0.148,0.311-0.148,0.487,0
		c0.365,0.297,0.604,0.664,0.625,1.143c0.019,0.445,0.021,0.896,0.021,1.342c0.008,3.483-0.029,6.973,0.022,10.455
		c0.017,1.274-0.596,2.076-1.574,2.701c-1.672,1.063-3.551,1.567-5.459,1.99c-3.389,0.754-6.836,1.087-10.305,1.252
		c-3.205,0.148-6.412,0.168-9.615-0.029c-4.186-0.252-8.35-0.672-12.366-1.968c-1.07-0.344-2.095-0.79-3.017-1.448
		c-0.59-0.426-0.973-0.99-1.281-1.635C315.519,55.979,315.519,51.806,315.519,47.634z M318.896,54.421
		c-0.337,0.041-0.58,0.238-0.597,0.656c-0.014,0.389,0.299,0.717,0.678,0.686c0.388-0.039,0.642-0.256,0.664-0.664
		C319.666,54.732,319.33,54.414,318.896,54.421z"/>
	<path fill="#6D6E71" d="M315.519,29.415c0.15-0.114,0.117-0.313,0.188-0.467c0.354-0.779,0.555-0.835,1.236-0.366
		c1.623,1.121,3.487,1.625,5.368,2.057c3.232,0.754,6.521,1.082,9.828,1.272c2.961,0.17,5.927,0.207,8.888,0.077
		c4.467-0.204,8.909-0.567,13.223-1.843c1.426-0.425,2.822-0.928,3.963-1.942c0.162-0.138,0.25-0.09,0.383,0.024
		c0.301,0.269,0.459,0.605,0.492,0.997c0.025,0.308,0.025,0.615,0.025,0.929c0.006,3.672-0.015,7.345,0.014,11.019
		c0.01,0.957-0.367,1.654-1.078,2.223c-1.092,0.865-2.358,1.355-3.666,1.749c-3.164,0.965-6.426,1.39-9.709,1.659
		c-3.871,0.335-7.748,0.404-11.629,0.203c-4.424-0.229-8.824-0.631-13.09-1.963c-0.773-0.244-1.525-0.547-2.24-0.931
		c-0.977-0.524-1.824-1.17-2.195-2.274C315.519,37.699,315.519,33.556,315.519,29.415z M319.642,37.653
		c0.011-0.432-0.315-0.776-0.682-0.751c-0.395,0.029-0.637,0.245-0.66,0.654c-0.02,0.387,0.287,0.699,0.676,0.686
		C319.382,38.223,319.597,37.99,319.642,37.653z"/>
	<path fill="#6D6E71" d="M383.316,43.19c0-2.847,0-5.692,0-8.537c0-1.438,0.141-2.848,0.598-4.227
		c0.928-2.782,2.869-4.43,5.709-5.028c1.602-0.34,3.221-0.349,4.83-0.039c3.449,0.671,5.604,2.853,6.254,6.304
		c0.191,0.989,0.279,1.979,0.279,2.982c0,5.754,0.008,11.517-0.011,17.271c-0.01,2.059-0.325,4.058-1.325,5.894
		c-0.189,0.354-0.677,0.683-0.535,1.034c0.125,0.299,0.621,0.449,0.957,0.664c0.565,0.363,1.125,0.729,1.703,1.072
		c0.229,0.135,0.256,0.252,0.114,0.481c-0.688,1.194-1.373,2.39-2.037,3.595c-0.174,0.318-0.313,0.305-0.59,0.123
		c-1.647-1.099-3.311-2.177-4.965-3.271c-0.26-0.178-0.496-0.217-0.813-0.16c-2.927,0.521-5.603,0.02-7.785-2.139
		c-1.313-1.295-1.887-2.971-2.185-4.756c-0.147-0.918-0.205-1.848-0.198-2.775C383.318,48.847,383.316,46.016,383.316,43.19z
		 M390.417,43.25c0,2.83,0.004,5.656,0,8.479c-0.002,0.728,0.064,1.452,0.273,2.146c0.235,0.766,0.729,1.123,1.483,1.104
		c0.729-0.016,1.164-0.389,1.353-1.178c0.133-0.59,0.229-1.186,0.229-1.791c0.004-5.911,0.004-11.821,0-17.733
		c0-0.536-0.096-1.06-0.277-1.565c-0.239-0.646-0.635-0.952-1.313-0.972c-0.615-0.014-1.098,0.24-1.381,0.815
		c-0.295,0.608-0.365,1.251-0.365,1.907C390.421,37.391,390.417,40.328,390.417,43.25z"/>
	<path fill="#6D6E71" d="M377.587,35.733c-1.047,0-2.104-0.017-3.154,0.012c-0.395,0.009-0.491-0.115-0.485-0.493
		c0.016-0.688-0.021-1.376-0.043-2.066c-0.035-0.89-0.558-1.417-1.422-1.452c-0.941-0.041-1.607,0.486-1.699,1.368
		c-0.109,1.021,0.26,1.9,0.854,2.696c0.881,1.185,2.037,2.099,3.078,3.127c1.295,1.287,2.66,2.504,3.873,3.875
		c1.9,2.15,2.82,4.654,2.859,7.509c0.024,2.146-0.125,4.271-0.82,6.323c-0.934,2.752-2.787,4.402-5.709,4.793
		c-1.939,0.263-3.854,0.16-5.732-0.387c-2.711-0.789-4.172-2.715-4.811-5.371c-0.268-1.129-0.414-2.272-0.43-3.428
		c-0.017-1.314,0.006-2.619-0.021-3.936c-0.008-0.372,0.111-0.461,0.467-0.457c2.056,0.011,4.104,0.011,6.156,0
		c0.33,0,0.439,0.085,0.437,0.43c-0.021,1.436-0.009,2.867-0.006,4.297c0,0.537,0.075,1.063,0.317,1.561
		c0.32,0.65,0.879,0.922,1.67,0.834c0.715-0.084,1.138-0.418,1.26-1.157c0.386-2.347,0.08-4.569-1.604-6.371
		c-1.676-1.79-3.438-3.495-5.168-5.224c-1.805-1.797-3.146-3.854-3.439-6.435c-0.25-2.237-0.053-4.444,0.902-6.522
		c1.057-2.28,2.896-3.554,5.332-3.952c1.877-0.299,3.748-0.202,5.582,0.327c2.256,0.651,3.748,2.116,4.543,4.303
		c0.641,1.753,0.844,3.579,0.865,5.433c0.006,0.318-0.123,0.367-0.394,0.364c-1.084-0.01-2.174-0.008-3.262-0.008
		C377.587,35.73,377.587,35.73,377.587,35.733z"/>
	<path fill="#6D6E71" d="M404.388,43.317c0-5.741,0.009-11.485-0.014-17.231c-0.004-0.521,0.148-0.618,0.631-0.611
		c1.984,0.027,3.969,0.034,5.951,0c0.522-0.01,0.604,0.149,0.604,0.631c-0.014,9.436-0.014,18.871-0.01,28.304
		c0,0.889-0.088,0.739,0.732,0.746c2.035,0.008,4.067,0.012,6.104-0.003c0.386-0.007,0.541,0.069,0.533,0.496
		c-0.023,1.69-0.023,3.388,0,5.073c0.004,0.428-0.137,0.506-0.529,0.506c-4.481-0.016-8.963-0.016-13.45,0.005
		c-0.472,0.002-0.568-0.138-0.564-0.581c0.016-5.779,0.008-11.556,0.008-17.334C404.384,43.317,404.386,43.317,404.388,43.317z"/>
</g>
<g>
	<g>
		<g>
			<path fill="#6D6E71" d="M471.322,3.005c2.321,0,4.639,0,6.957,0c0.086,0.263,0.321,0.215,0.518,0.246
				c0.797,0.139,1.596,0.242,2.387,0.411c12.879,2.723,22.64,13.236,24.422,26.286c0.031,0.229-0.053,0.516,0.263,0.64
				c0,2.322,0,4.638,0,6.96c-0.267,0.082-0.217,0.316-0.25,0.515c-0.14,0.813-0.246,1.636-0.422,2.446
				c-2.82,12.947-13.236,22.584-26.332,24.369c-0.22,0.029-0.48-0.035-0.582,0.25c-2.318,0-4.636,0-6.957,0
				c-0.086-0.262-0.322-0.211-0.517-0.246c-0.813-0.139-1.637-0.25-2.446-0.424c-12.947-2.822-22.578-13.234-24.369-26.334
				c-0.027-0.213,0.037-0.473-0.254-0.576c0-2.322,0-4.638,0-6.96c0.264-0.086,0.221-0.321,0.25-0.515
				c0.135-0.796,0.244-1.6,0.408-2.388c2.727-12.878,13.231-22.638,26.284-24.423C470.914,3.233,471.203,3.313,471.322,3.005z
				 M493.406,13.401c-0.066-0.292-0.269-0.385-0.422-0.513c-4.746-4.031-10.22-6.358-16.445-6.66
				C466.513,5.742,458.453,9.6,452.32,17.527c-0.254,0.332-0.769,0.725-0.595,1.068c0.179,0.348,0.796,0.158,1.226,0.158
				c2.504,0,5.008-0.169,7.506-0.332c0.928-0.064,1.404,0.311,1.447,1.051c0.039,0.748-0.379,1.172-1.289,1.27
				c-0.678,0.07-1.357,0.119-2.041,0.167c-0.83,0.058-0.861,0.099-0.604,0.873c3.191,9.502,6.386,18.995,9.576,28.486
				c0.074,0.207,0.088,0.453,0.305,0.591c0.228-0.105,0.232-0.333,0.296-0.52c1.885-5.631,3.76-11.27,5.646-16.9
				c0.123-0.377,0.119-0.713-0.014-1.082c-1.324-3.594-2.646-7.19-3.939-10.792c-0.151-0.438-0.393-0.621-0.846-0.651
				c-0.803-0.051-1.609-0.117-2.41-0.238c-0.633-0.094-0.979-0.58-0.928-1.186c0.053-0.638,0.489-1.056,1.141-1.075
				c0.314-0.009,0.625,0.021,0.935,0.041c2.991,0.192,5.987,0.421,8.995,0.228c1.611-0.099,3.224-0.196,4.839-0.269
				c0.784-0.035,1.245,0.354,1.313,1.017c0.064,0.692-0.338,1.179-1.129,1.282c-0.699,0.092-1.4,0.143-2.104,0.187
				c-0.948,0.063-0.979,0.095-0.686,0.976c3.17,9.419,6.34,18.837,9.506,28.253c0.063,0.187,0.07,0.408,0.31,0.559
				c0.053-0.113,0.118-0.214,0.151-0.324c1.375-4.576,2.767-9.154,4.105-13.746c0.594-2.021,0.801-4.086,0.438-6.195
				c-0.412-2.382-1.479-4.465-2.74-6.478c-0.661-1.054-1.299-2.121-1.709-3.302c-0.405-1.157-0.586-2.338-0.231-3.538
				C489.449,14.822,490.976,13.577,493.406,13.401z M475.31,36.635c-0.141,0.332-0.215,0.476-0.268,0.627
				c-2.633,7.649-5.264,15.298-7.914,22.944c-0.188,0.545-0.029,0.709,0.479,0.846c5.309,1.379,10.565,1.238,15.795-0.409
				c0.479-0.151,0.588-0.326,0.403-0.831c-2.646-7.206-5.272-14.421-7.903-21.628C475.728,37.722,475.554,37.267,475.31,36.635z
				 M449.363,22.93c-0.054,0.005-0.105,0.014-0.158,0.019c-0.09,0.207-0.187,0.411-0.273,0.618c-1.93,4.797-2.563,9.766-1.69,14.862
				c1.561,9.136,6.502,15.904,14.612,20.371c0.166,0.088,0.363,0.311,0.55,0.134c0.145-0.134-0.039-0.343-0.08-0.521
				c-0.021-0.074-0.058-0.15-0.082-0.23c-4.045-11.073-8.084-22.157-12.133-33.233C449.857,24.275,449.613,23.601,449.363,22.93z
				 M499.613,21.22c-0.054,0.011-0.107,0.021-0.162,0.026c-0.017,0.041-0.039,0.081-0.039,0.118c0,0.124,0,0.249,0.006,0.372
				c0.332,3.596-0.34,7.042-1.51,10.421c-2.92,8.377-5.832,16.762-8.744,25.147c-0.066,0.199-0.217,0.402-0.064,0.746
				c6.033-3.727,10.228-8.879,12.332-15.625C503.71,35.12,503.003,28.036,499.613,21.22z"/>
		</g>
		<g>
			<g>
				<g>
					<path fill="#6D6E71" d="M562.419,2.438c3.625,0,7.256,0,11.055,0c-0.713,1.251-1.362,2.408-2.028,3.558
						c-8.168,14.114-16.334,28.227-24.506,42.345c-0.812,1.394-0.818,1.402-1.619,0.02c-8.711-15.052-17.416-30.105-26.119-45.16
						c-0.129-0.218-0.353-0.404-0.271-0.757c3.613,0,7.238,0,10.859,0c0.066,0.148,0.135,0.298,0.215,0.438
						c4.525,7.828,9.049,15.652,13.578,23.481c0.814,1.401,1.637,2.81,2.447,4.201c0.385-0.137,0.438-0.42,0.563-0.634
						c4.06-6.996,8.121-13.994,12.162-21.002C559.988,6.772,561.33,4.676,562.419,2.438z"/>
					<path fill="#6D6E71" d="M546.123,50.345c-0.758,0-1.107-0.598-1.633-1.508c-8.709-15.051-17.418-30.104-26.117-45.158
						c-0.203-0.29-0.525-0.749-0.385-1.434l0.158-0.758h12.229l0.455,0.921l15.291,26.419l1.481-2.554
						c3.438-5.939,6.89-11.878,10.313-17.826c0.359-0.618,0.723-1.236,1.088-1.852c0.879-1.484,1.791-3.021,2.553-4.579l0.265-0.539
						h13.303l-1.561,2.738c-0.441,0.772-0.859,1.518-1.291,2.26l-24.507,42.341C547.234,49.74,546.878,50.345,546.123,50.345z
						 M520.419,3.4c8.57,14.82,17.137,29.631,25.703,44.438l24.494-42.319c0.403-0.7,0.803-1.399,1.213-2.123h-8.818
						c-0.729,1.441-1.559,2.833-2.354,4.18c-0.361,0.609-0.721,1.217-1.074,1.833c-3.432,5.949-6.875,11.887-10.32,17.828
						l-1.842,3.178c-0.149,0.313-0.395,0.814-1.07,1.055l-0.75,0.268L529.197,3.4H520.419z"/>
				</g>
				<path fill="#6D6E71" d="M545.597,31.733L529.173,3.361c-0.067-0.122-0.127-0.238-0.184-0.358l-0.638-1.358l1.429-0.157
					l2.797-0.012c2.211-0.007,4.418-0.012,6.629-0.041c1.131,0,1.576,0.772,1.793,1.147l5.119,8.851
					c1.729-2.96,3.449-5.928,5.156-8.899c0.27-0.473,0.752-1.099,1.799-1.099c2.354,0.026,4.686,0.03,7.016,0.037l3.857,0.012
					l-0.668,1.372c-0.793,1.632-1.726,3.203-2.625,4.718c-0.361,0.609-0.726,1.217-1.072,1.833
					c-3.439,5.951-6.885,11.903-10.33,17.847l-1.832,3.158c-0.152,0.313-0.396,0.814-1.07,1.055L545.597,31.733z M531.404,3.396
					l14.719,25.432l1.469-2.536c3.449-5.944,6.898-11.888,10.328-17.843c0.359-0.618,0.723-1.236,1.088-1.852
					c0.619-1.044,1.254-2.119,1.844-3.207l-0.768-0.002c-2.334-0.007-4.67-0.011-7.006-0.038l-0.144,0.134
					c-1.795,3.127-3.6,6.244-5.42,9.354c-0.209,0.447-0.473,1.027-1.213,1.251l-0.729,0.225l-6.234-10.777
					c-0.026-0.046-0.108-0.189-0.146-0.229c-2.183,0.07-4.394,0.077-6.605,0.082L531.404,3.396z"/>
			</g>
			<g>
				<path fill="#6D6E71" d="M530.962,67.302c-0.498-0.006-0.881-0.305-1.029-0.84c-0.641-2.305-1.422-4.562-2.075-6.857
					c-0.438-1.535-0.974-3.042-1.402-4.577c-0.131-0.454-0.01-0.688,0.449-0.841c0.504-0.161,0.848-0.027,0.977,0.402
					c0.336,1.142,0.648,2.3,0.992,3.443c0.516,1.715,1.068,3.413,1.568,5.131c0.133,0.459,0.25,0.928,0.393,1.389
					c0.037,0.105,0.023,0.255,0.195,0.236c0.11-0.018,0.121-0.133,0.147-0.229c0.324-1.149,0.646-2.302,0.982-3.449
					c0.52-1.76,1.065-3.515,1.596-5.278c0.117-0.399,0.189-0.806,0.346-1.191c0.189-0.475,0.392-0.604,0.863-0.477
					c0.514,0.139,0.699,0.426,0.558,0.924c-0.185,0.637-0.4,1.264-0.597,1.896c-0.621,2.028-1.217,4.064-1.854,6.09
					c-0.367,1.135-0.724,2.266-1.056,3.413C531.859,67.022,531.474,67.307,530.962,67.302z"/>
				<path fill="#6D6E71" d="M548.97,63.355c-0.668,0-1.338,0.005-2.006-0.005c-0.276-0.005-0.375,0.095-0.383,0.377
					c-0.035,1.14,0.604,1.938,1.709,2.247c0.906,0.253,1.69,0.064,2.465-0.391c0.447-0.269,0.832-0.217,1.019,0.099
					c0.205,0.356,0.1,0.667-0.334,0.963c-1.714,1.167-4.468,0.808-5.703-0.769c-0.375-0.479-0.611-1.023-0.615-1.642
					c-0.01-0.858-0.029-1.709-0.002-2.563c0.033-1.084,0.617-1.883,1.49-2.453c1.641-1.076,4.008-0.7,4.989,1.005
					c0.464,0.8,0.722,1.649,0.287,2.562c-0.172,0.371-0.471,0.551-0.86,0.557c-0.687,0.014-1.371,0.004-2.056,0.004
					C548.97,63.345,548.97,63.35,548.97,63.355z M548.447,62.401v-0.004c0.453,0,0.897,0.009,1.348-0.003
					c0.848-0.027,1.029-0.275,0.826-1.104c-0.271-1.104-1.33-1.694-2.578-1.444c-0.945,0.188-1.639,1.262-1.49,2.28
					c0.043,0.264,0.195,0.272,0.392,0.272C547.443,62.401,547.945,62.401,548.447,62.401z"/>
				<path fill="#6D6E71" d="M543.347,61.769c0,0.717,0,1.438,0,2.16c-0.008,1.469-1.022,2.664-2.362,3.186
					c-1.648,0.641-3.586-0.217-4.4-1.768c-0.225-0.434-0.352-0.934-0.357-1.441c0-1.47,0-2.939,0-4.41
					c0-0.539,0.267-0.74,0.914-0.736c0.343,0.004,0.625,0.338,0.627,0.75c0.009,1.509-0.022,3.011,0.017,4.514
					c0.045,1.493,1.633,2.441,2.908,1.751c0.764-0.413,1.186-1.08,1.18-1.985c-0.01-1.404-0.002-2.808-0.002-4.211
					c0-0.72,0.477-1.051,1.147-0.781c0.269,0.111,0.336,0.349,0.332,0.619C543.339,60.199,543.347,60.984,543.347,61.769z"/>
				<path fill="#6D6E71" d="M562.951,67.307c-0.869-0.024-1.709-0.192-2.457-0.683c-0.229-0.156-0.414-0.334-0.414-0.639
					c0-0.244,0.055-0.439,0.291-0.59c0.229-0.152,0.391-0.029,0.539,0.082c0.742,0.555,1.563,0.752,2.481,0.648
					c0.853-0.101,1.33-0.633,1.197-1.383c-0.092-0.5-0.451-0.781-0.879-0.943c-0.645-0.252-1.311-0.452-1.963-0.686
					c-0.924-0.324-1.467-1.021-1.496-1.896c-0.031-1.071,0.443-1.864,1.375-2.266c1.264-0.543,2.5-0.412,3.721,0.151
					c0.412,0.192,0.384,0.521,0.25,0.839c-0.133,0.319-0.396,0.438-0.735,0.27c-0.595-0.299-1.22-0.449-1.883-0.399
					c-0.302,0.019-0.582,0.078-0.841,0.261c-0.407,0.293-0.606,0.649-0.522,1.148c0.069,0.466,0.428,0.66,0.801,0.797
					c0.668,0.248,1.348,0.449,2.02,0.682c1.654,0.568,1.923,2.602,1.084,3.646c-0.512,0.636-1.256,0.827-2.021,0.952
					C563.326,67.333,563.132,67.307,562.951,67.307z"/>
				<path fill="#6D6E71" d="M558.464,63.919c-0.047,1.488,0.104,3.268-0.131,5.026c-0.182,1.41-1.107,2.371-2.373,2.32
					c-0.396-0.015-0.736-0.119-0.779-0.593c-0.039-0.387,0.232-0.689,0.703-0.725c0.549-0.047,0.818-0.351,0.938-0.854
					c0.115-0.475,0.117-0.956,0.117-1.438c0.004-2.727,0.006-5.451-0.002-8.173c-0.005-0.397,0.077-0.688,0.532-0.724
					c0.697-0.057,0.888,0.058,0.961,0.617c0.039,0.283,0.031,0.564,0.031,0.854C558.466,61.373,558.464,62.511,558.464,63.919z"/>
				<path fill="#6D6E71" d="M555.185,66.346c-0.004,0.616-0.422,0.89-0.893,0.944c-0.412,0.043-0.949-0.504-0.967-0.918
					c-0.021-0.47,0.461-0.934,0.967-0.938C554.835,65.429,555.185,65.789,555.185,66.346z"/>
			</g>
		</g>
		<g>
			<path fill="#6D6E71" d="M603.091,2.49c1.26-0.067,1.836,0.338,2.273,1.078c4.18,7.177,8.385,14.338,12.563,21.515
				c1.107,1.899,1.072,1.909,3.179,1.397c4.84-1.188,9.684-2.386,14.536-3.531c0.896-0.214,0.939-0.451,0.408-1.15
				c-1.729-2.279-3.412-4.598-5.11-6.899c-0.818-1.113-0.728-1.39,0.604-1.624c2.664-0.479,5.342-0.919,8-1.423
				c0.754-0.143,1.305,0.096,1.752,0.625c2.299,2.71,4.607,5.426,6.869,8.168c0.668,0.813,0.52,1.179-0.516,1.457
				c-2.199,0.592-4.406,1.165-6.628,1.691c-0.866,0.204-0.965,0.444-0.405,1.167c2.11,2.724,4.174,5.488,6.231,8.246
				c0.97,1.292,0.873,1.583-0.625,2.127c-6.219,2.25-12.434,4.512-18.658,6.751c-2.041,0.731-2.418,0.621-3.479-1.226
				c-1.848-3.222-3.689-6.449-5.443-9.722c-0.553-1.027-1.102-1.318-2.266-0.989c-3.609,1.013-7.256,1.904-10.896,2.824
				c-1.698,0.431-2.266,0.176-2.954-1.362c-3.906-8.725-7.81-17.449-11.697-26.184c-0.767-1.715-0.66-1.886,1.199-2.042
				C595.847,3.068,599.666,2.77,603.091,2.49z M602.521,4.131c-2.781,0.248-5.438,0.522-8.097,0.702
				c-0.996,0.065-1.094,0.362-0.684,1.201c1.461,2.982,2.885,5.984,4.309,8.984c2.246,4.751,4.486,9.508,6.717,14.263
				c0.234,0.488,0.451,0.899,1.104,0.748c3.354-0.777,6.701-1.559,10.055-2.313c0.582-0.13,0.564-0.352,0.318-0.789
				c-4.156-7.365-8.312-14.734-12.439-22.111C603.462,4.206,603.052,3.97,602.521,4.131z M637.773,24.662
				c-0.156,0.024-0.234,0.024-0.312,0.049c-5.483,1.414-10.975,2.837-16.459,4.249c-0.586,0.147-0.6,0.397-0.313,0.886
				c1.764,2.953,3.504,5.921,5.237,8.894c0.285,0.488,0.578,0.592,1.129,0.403c5.511-1.894,11.021-3.771,16.55-5.607
				c0.813-0.272,0.723-0.537,0.293-1.104c-1.816-2.405-3.604-4.832-5.388-7.267C638.291,24.862,638.111,24.604,637.773,24.662z
				 M639.218,22.086c1.871-0.471,4.049-0.996,6.211-1.571c0.527-0.138,0.211-0.464,0.027-0.694c-1.553-1.878-3.115-3.738-4.65-5.631
				c-0.396-0.488-0.85-0.597-1.43-0.492c-1.898,0.332-3.799,0.657-5.701,0.977c-0.844,0.138-0.422,0.512-0.168,0.849
				c1.525,2.025,3.051,4.049,4.574,6.078C638.291,21.876,638.488,22.179,639.218,22.086z"/>
			<path fill="#6D6E71" d="M611.255,61.13c0,0.695-0.014,1.393,0,2.091c0.014,0.519-0.131,1.122,0.685,1.233
				c0.352,0.049,0.317,0.394,0.291,0.66c-0.031,0.32-0.257,0.463-0.554,0.487c-0.553,0.054-1.172,0.088-1.477-0.438
				c-0.416-0.73-0.783-0.438-1.271-0.138c-0.776,0.483-1.646,0.666-2.559,0.577c-1.252-0.124-2.205-1.007-2.391-2.172
				c-0.209-1.367,0.403-2.456,1.702-2.947c0.949-0.363,1.972-0.363,2.959-0.523c0.55-0.088,1.103-0.162,1.132-0.899
				c0.028-0.713-0.273-1.163-0.964-1.39c-1.278-0.422-2.202-0.119-2.881,1.096c-0.326,0.588-0.803,0.418-1.201,0.33
				c-0.522-0.11-0.247-0.559-0.18-0.861c0.16-0.684,0.584-1.165,1.226-1.453c1.418-0.654,2.85-0.613,4.276-0.031
				c0.808,0.33,1.176,0.979,1.191,1.828c0.021,0.851,0.008,1.701,0.008,2.551C611.251,61.13,611.251,61.13,611.255,61.13z
				 M609.765,61.9c-0.278-0.182,0.369-0.947-0.358-0.884c-1.025,0.087-2.101,0.128-3.06,0.593c-0.68,0.333-0.912,0.934-0.78,1.654
				c0.108,0.643,0.559,0.999,1.178,1.126C608.281,64.703,609.72,63.562,609.765,61.9z"/>
			<path fill="#6D6E71" d="M626.063,61.134c0,0.701-0.007,1.398,0.006,2.097c0.01,0.517-0.138,1.119,0.682,1.226
				c0.354,0.047,0.295,0.401,0.281,0.664c-0.019,0.272-0.203,0.424-0.445,0.459c-0.545,0.082-1.195,0.166-1.498-0.348
				c-0.434-0.729-0.807-0.555-1.356-0.195c-0.738,0.463-1.576,0.646-2.445,0.58c-1.316-0.103-2.324-0.988-2.488-2.197
				c-0.19-1.4,0.402-2.436,1.717-2.937c0.949-0.362,1.972-0.362,2.957-0.521c0.558-0.086,1.093-0.174,1.131-0.906
				c0.039-0.729-0.301-1.16-0.979-1.387c-1.283-0.422-2.258-0.111-2.896,1.088c-0.323,0.604-0.797,0.42-1.188,0.342
				c-0.51-0.109-0.256-0.564-0.178-0.87c0.176-0.724,0.655-1.207,1.332-1.505c0.834-0.375,1.715-0.469,2.61-0.385
				c2.095,0.203,2.765,0.945,2.765,3.055C626.064,59.975,626.063,60.558,626.063,61.134z M624.587,61.882
				c-0.18-0.244,0.33-0.955-0.402-0.879c-0.983,0.104-2.002,0.156-2.938,0.545c-0.697,0.289-0.957,0.859-0.885,1.591
				c0.065,0.707,0.5,1.103,1.164,1.245C623.089,64.722,624.552,63.544,624.587,61.882z"/>
			<path fill="#6D6E71" d="M640.988,61.457c-0.771,0-1.543,0.021-2.316-0.004c-0.646-0.021-0.799,0.271-0.68,0.861
				c0.217,1.021,0.662,1.848,1.77,2.051c1.078,0.203,1.992-0.105,2.59-1.098c0.076-0.128,0.125-0.284,0.212-0.411
				c0.342-0.491,0.891-0.379,1.262-0.228c0.57,0.24,0.098,0.67-0.045,0.957c-0.943,1.858-3.383,2.607-5.303,1.646
				c-1.652-0.825-2.457-2.663-2.175-4.965c0.246-2.015,1.416-3.427,3.166-3.843c2.732-0.645,5.281,1.777,4.814,4.535
				c-0.092,0.521-0.396,0.492-0.74,0.492C642.691,61.457,641.843,61.457,640.988,61.457z M640.333,60.255
				c0.537,0,1.078-0.03,1.613,0.007c0.633,0.034,0.799-0.187,0.637-0.813c-0.279-1.084-0.859-1.791-2.016-1.906
				c-1.084-0.104-2.027,0.51-2.429,1.568c-0.289,0.77-0.209,1.271,0.812,1.151C639.406,60.21,639.869,60.255,640.333,60.255z"/>
			<path fill="#6D6E71" d="M631.632,63.238c0.625-1.855,1.252-3.709,1.888-5.563c0.098-0.291,0.159-0.621,0.342-0.855
				c0.367-0.484,0.963-0.349,1.381-0.188c0.486,0.185,0.051,0.607-0.049,0.877c-0.845,2.322-1.736,4.629-2.584,6.949
				c-0.211,0.592-0.431,0.967-1.191,0.955c-0.727-0.017-0.9-0.383-1.102-0.924c-0.814-2.291-1.677-4.564-2.476-6.857
				c-0.108-0.309-0.682-0.838,0.006-1.022c0.563-0.155,1.3-0.313,1.576,0.644c0.463,1.594,1.004,3.166,1.521,4.74
				c0.133,0.401,0.28,0.797,0.428,1.194C631.457,63.205,631.544,63.221,631.632,63.238z"/>
			<path fill="#6D6E71" d="M647.546,59.357c0,1.746-0.021,3.488,0.014,5.229c0.011,0.6-0.157,0.818-0.782,0.813
				c-0.607-0.005-0.795-0.198-0.791-0.808c0.024-3.487,0.022-6.973,0.004-10.459c-0.004-0.594,0.166-0.822,0.783-0.83
				c0.627-0.006,0.797,0.232,0.78,0.824C647.529,55.873,647.546,57.611,647.546,59.357z"/>
			<path fill="#6D6E71" d="M602.212,59.296c0,1.746-0.01,3.484,0.01,5.226c0.006,0.521-0.006,0.876-0.707,0.876
				c-0.672,0-0.842-0.23-0.838-0.871c0.027-3.445,0.025-6.889,0.002-10.331c-0.006-0.625,0.146-0.901,0.832-0.896
				c0.697,0.009,0.715,0.377,0.711,0.896C602.203,55.897,602.212,57.597,602.212,59.296z"/>
			<path fill="#6D6E71" d="M613.683,60.994c0-1.199-0.01-2.397,0.005-3.595c0.004-0.325-0.136-0.776,0.389-0.815
				c0.35-0.023,0.848-0.228,1.01,0.271c0.201,0.63,0.447,0.336,0.723,0.112c0.4-0.316,0.83-0.567,1.349-0.625
				c0.408-0.045,0.811-0.055,0.776,0.543c-0.02,0.4,0.111,0.797-0.563,0.906c-1.652,0.275-2.195,0.996-2.217,2.688
				c-0.013,1.117,0.076,2.247-0.033,3.356c-0.053,0.527,0.623,1.504-0.67,1.545c-1.32,0.041-0.691-0.955-0.74-1.491
				C613.613,62.932,613.683,61.958,613.683,60.994z"/>
		</g>
	</g>
	<g>
		<path fill="#6D6E71" d="M726.839,62.291c0.006-8.141,0-16.281,0.039-24.422c0.004-0.846-0.555-2.066,1.125-2.191
			c1.443-0.113,2.42,0.161,2.391,1.861c0,0.166,0.146,0.328,0.269,0.586c1.408-1.658,3.143-2.561,5.289-2.697
			c3.906-0.245,6.858,1.777,7.922,5.523c0.611,2.176,0.662,4.408,0.229,6.596c-1.047,5.356-5.686,8.414-11.536,7.521
			c-1.605-0.237-1.972,0.046-1.968,1.647c0,1.854,0.568,3.795-0.426,5.576C729.06,62.291,727.951,62.291,726.839,62.291z
			 M730.656,46.833c0,1.408,0.012,2.574-0.006,3.746c-0.009,0.598,0.082,1.039,0.756,1.289c3.764,1.391,7.912-0.732,8.727-4.516
			c0.359-1.648,0.342-3.316-0.021-4.961c-0.55-2.521-2.109-3.813-4.504-3.803c-2.398,0.021-4.188,1.488-4.746,3.863
			C730.503,43.985,730.732,45.531,730.656,46.833z"/>
		<path fill="#6D6E71" d="M760.185,62.291c0.011-2.026-0.061-4.066,0.058-6.1c0.072-1.273-0.404-1.445-1.484-1.223
			c-2.033,0.423-4.063,0.216-6.045-0.324c-3.408-0.928-5.549-3.514-5.896-7.02c-0.775-7.805,3.707-12.52,11.553-12.166
			c5.604,0.258,5.604,0.258,5.604,5.859c0,6.303,0,12.596,0,18.896c0,0.723,0.134,1.479-0.453,2.074
			C762.408,62.291,761.296,62.291,760.185,62.291z M760.212,45.171c0-1.787-0.004-3.566,0.002-5.354
			c0.002-0.583,0.002-1.147-0.785-1.188c-1.774-0.098-3.563-0.313-5.258,0.516c-2.822,1.371-4.26,5.277-3.27,8.982
			c0.76,2.863,3.11,4.273,6.608,3.953c0.428-0.039,0.854-0.145,1.281-0.146c1.08-0.01,1.498-0.473,1.443-1.596
			C760.148,48.619,760.214,46.894,760.212,45.171z"/>
		<path fill="#6D6E71" d="M688.673,30.059c0.957,0.959,1.894,1.938,2.877,2.861c0.81,0.764,0.769,1.407-0.012,2.182
			c-3.76,3.728-7.482,7.5-11.256,11.218c-1.111,1.094-9.062,0.795-10.211-0.279c-2.103-1.967-3.925-4.22-6.226-5.979
			c0-0.492,0-0.986,0-1.479c1.203-0.455,1.849-1.555,2.687-2.396c0.895-0.902,1.553-0.953,2.442-0.015
			c1.781,1.875,3.648,3.666,5.476,5.5c0.444,0.445,0.795,0.914,1.479,0.217c3.859-3.965,7.752-7.89,11.633-11.826
			C687.935,30.059,688.306,30.059,688.673,30.059z"/>
		<path fill="#6D6E71" d="M829.841,54.882c-1.592,0.061-3.158,0.49-4.778,0.188c-3.039-0.564-4.419-2.055-4.468-5.143
			c-0.051-3.084-0.063-6.168,0.015-9.246c0.03-1.258-0.123-2.021-1.646-1.773c-0.412,0.068-1.07,0.314-1.305-0.275
			c-0.219-0.562,0.373-0.858,0.688-1.198c1.857-2.026,3.738-4.027,5.972-6.431c0,1.585,0.055,2.665-0.021,3.733
			c-0.063,0.948,0.213,1.37,1.223,1.263c0.732-0.075,1.48,0.021,2.222-0.022c1.01-0.06,1.758-0.023,1.752,1.384
			c0,1.369-0.558,1.613-1.769,1.604c-3.407-0.035-3.414,0.016-3.407,3.457c0.004,2.158-0.052,4.316,0.034,6.474
			c0.117,2.842,1.091,3.669,3.853,3.22c0.76-0.125,1.225-0.031,1.639,0.551C829.841,53.401,829.841,54.141,829.841,54.882z"/>
		<path fill="#6D6E71" d="M800.351,47.326c0,1.905-0.03,3.824,0.021,5.73c0.018,0.82-0.215,1.264-1.061,1.402
			c-2.929,0.479-5.839,0.951-8.822,0.459c-3.205-0.521-5.06-2.256-5.379-5.174c-0.31-2.773,1.284-5.236,4.137-6.287
			c1.939-0.717,3.979-0.924,6.012-0.629c1.289,0.186,1.453-0.281,1.328-1.386c-0.195-1.653-1.111-2.567-2.676-2.853
			c-1.785-0.318-3.578-0.23-5.314,0.283c-1.153,0.342-1.563-0.188-1.742-1.197c-0.174-0.947-0.157-1.589,1.099-1.803
			c2.393-0.409,4.754-0.71,7.168-0.274c3.152,0.57,4.93,2.421,5.127,5.618c0.127,2.025,0.023,4.068,0.023,6.105
			C800.294,47.326,800.324,47.326,800.351,47.326z M796.638,48.917c0-3.401,0-3.422-3.416-3.276c-0.727,0.03-1.475,0.157-2.17,0.386
			c-1.563,0.498-2.219,1.663-2.127,3.268c0.097,1.686,1.041,2.552,3.058,2.838C795.794,52.669,796.638,52.083,796.638,48.917z"/>
		<path fill="#6D6E71" d="M706.345,45.359c-0.018-6.865,4.203-10.683,10.822-9.788c4.611,0.616,7.488,4.495,7.393,9.962
			c-0.12,6.891-4.881,10.77-11.521,9.385C708.787,54.037,706.361,50.574,706.345,45.359z M720.525,45.335
			c0.094-1.25-0.105-2.465-0.498-3.635c-0.748-2.201-2.269-3.262-4.597-3.271c-2.354-0.009-3.807,0.989-4.559,3.265
			c-0.791,2.41-0.791,4.854,0.006,7.258c0.754,2.273,2.24,3.312,4.545,3.309c2.267,0,3.828-1.104,4.588-3.299
			C720.417,47.796,720.615,46.582,720.525,45.335z"/>
		<path fill="#6D6E71" d="M782.753,45.019c0,2.527-0.063,5.061,0.025,7.583c0.039,1.116-0.283,1.665-1.404,1.87
			c-2.799,0.505-5.582,0.873-8.443,0.464c-3.469-0.494-5.588-2.403-6.125-5.897c-0.629-4.104-0.194-8.246-0.264-12.373
			c-0.027-1.576,1.318-0.895,2.092-0.993c0.854-0.108,1.738-0.135,1.709,1.241c-0.069,2.711-0.026,5.428-0.018,8.139
			c0.004,0.801,0.016,1.605,0.104,2.398c0.375,3.368,1.631,4.498,5.033,4.569c3.545,0.076,3.545,0.076,3.545-3.448
			c0-3.818,0.07-7.646-0.035-11.466c-0.041-1.581,0.871-1.478,1.884-1.46c0.973,0.018,1.993-0.197,1.926,1.419
			C782.675,39.716,782.753,42.369,782.753,45.019z"/>
		<path fill="#6D6E71" d="M807.371,55.218c-0.857-0.131-2.195-0.336-3.533-0.549c-0.93-0.151-1.705-0.346-1.17-1.643
			c0.381-0.912,0.396-1.921,1.908-1.396c1.695,0.591,3.49,0.797,5.281,0.291c1.321-0.377,2.45-1.014,2.532-2.557
			c0.076-1.498-0.993-2.146-2.202-2.625c-1.539-0.615-3.115-1.156-4.625-1.838c-1.812-0.816-2.744-2.279-2.644-4.277
			c0.1-2,1.021-3.549,2.904-4.379c2.987-1.32,6.033-0.939,9.063-0.158c1.16,0.296,0.529,1.202,0.41,1.833
			c-0.123,0.67-0.373,1.302-1.354,1.004c-1.658-0.506-3.339-0.877-5.097-0.426c-1,0.254-1.936,0.531-2.045,1.776
			c-0.104,1.245,0.594,1.974,1.654,2.384c1.318,0.51,2.666,0.948,3.998,1.426c2.149,0.772,3.576,2.131,3.711,4.556
			c0.143,2.583-1.023,4.375-3.273,5.517C811.318,54.957,809.607,55.158,807.371,55.218z"/>
		<path fill="#6D6E71" d="M689.121,48.1c-3.99,4.01-7.984,8.017-11.963,12.04c-0.687,0.695-1.273,0.824-2.017,0.076
			c-4.1-4.159-3.805-2.78-0.262-6.43c2.955-3.037,5.992-6.006,9.014-8.979c0.404-0.401,0.677-1.106,1.47-0.899
			C686.445,45.457,688.183,46.419,689.121,48.1z"/>
		<path fill="#6D6E71" d="M689.121,48.1c-0.939-1.681-2.676-2.646-3.758-4.192c2.521-0.027,5.041-0.047,7.561-0.102
			c0.627-0.018,1.021,0.262,1.426,0.671c1.861,1.884,3.713,3.772,5.625,5.603c0.859,0.826,0.867,1.498,0.021,2.315
			c-3.883,3.733-2.568,3.517-6.06,0.239C692.328,51.123,690.986,49.332,689.121,48.1z"/>
	</g>
	<text transform="matrix(1 0 0 1 702.25 24.4653)" fill="#6D6E71" font-family="'MyriadPro-Regular'" font-size="18.4567">Certification</text>
</g>
<path fill="#C1C1C1" d="M-172.626,64.667c0-18.82,0-37.645,0-56.458c18.82,0,37.638,0,56.459,0c0,18.813,0,37.635,0,56.458
	C-134.988,64.667-153.805,64.667-172.626,64.667z M-138.997,54.82c0.044,0.098,0.075,0.168,0.106,0.229
	c0.789,1.459,1.874,2.646,3.275,3.543c1.667,1.055,3.514,1.543,5.467,1.646c0.827,0.051,1.652,0.035,2.479-0.074
	c1.15-0.145,2.26-0.426,3.298-0.955c2.396-1.227,3.677-3.184,3.838-5.873c0.046-0.67,0-1.338-0.099-2.002
	c-0.134-0.855-0.398-1.66-0.841-2.414c-0.564-0.955-1.343-1.717-2.238-2.354c-0.998-0.717-2.096-1.271-3.211-1.773
	c-0.882-0.396-1.771-0.76-2.648-1.15c-0.55-0.248-1.087-0.523-1.57-0.885c-0.683-0.51-1.017-1.186-1.008-2.039
	c0.005-0.895,0.517-1.672,1.342-2.018c0.493-0.203,1.008-0.254,1.526-0.215c0.64,0.043,1.226,0.236,1.738,0.627
	c0.457,0.35,0.798,0.797,1.099,1.277c0.07,0.109,0.145,0.227,0.229,0.357c1.39-0.889,2.765-1.77,4.148-2.664
	c-0.271-0.469-0.55-0.893-0.86-1.301c-1.208-1.544-2.778-2.481-4.716-2.802c-1.063-0.181-2.137-0.216-3.215-0.091
	c-1.14,0.134-2.226,0.442-3.213,1.041c-2.167,1.304-3.261,3.239-3.337,5.761c-0.018,0.512,0.014,1.018,0.09,1.525
	c0.125,0.863,0.38,1.691,0.803,2.449c0.527,0.943,1.26,1.709,2.117,2.35c0.953,0.709,2.004,1.244,3.088,1.719
	c1.044,0.461,2.099,0.924,3.138,1.393c0.473,0.213,0.921,0.477,1.328,0.799c0.563,0.447,0.902,1.012,0.973,1.74
	c0.072,0.813-0.196,1.479-0.812,2.006c-0.438,0.377-0.948,0.604-1.508,0.725c-0.652,0.143-1.309,0.168-1.977,0.098
	c-1.063-0.115-2.006-0.488-2.829-1.172c-0.616-0.514-1.104-1.135-1.534-1.799c-0.042-0.068-0.087-0.129-0.14-0.209
	C-136.118,53.152-137.545,53.984-138.997,54.82z M-157.753,55.386c0.029,0.078,0.051,0.143,0.08,0.201
	c0.132,0.244,0.259,0.496,0.4,0.73c0.781,1.271,1.813,2.283,3.145,2.971c1.021,0.535,2.105,0.828,3.255,0.924
	c1.282,0.111,2.556,0.049,3.805-0.277c1.118-0.293,2.127-0.795,2.979-1.584c0.984-0.912,1.58-2.057,1.914-3.338
	c0.244-0.939,0.323-1.896,0.323-2.865c0-5.895,0-11.803,0-17.696c0-0.05,0.004-0.096,0-0.137c-0.003-0.064-0.017-0.12-0.021-0.174
	c-1.772,0-3.531,0-5.318,0c0,0.128,0,0.236,0,0.345c0,5.805,0,11.609-0.005,17.414c0,0.262,0.005,0.521-0.008,0.787
	c-0.026,0.502-0.11,1-0.31,1.473c-0.236,0.543-0.616,0.947-1.183,1.139c-0.687,0.232-1.39,0.266-2.097,0.113
	c-0.708-0.162-1.251-0.58-1.674-1.152c-0.301-0.402-0.551-0.838-0.823-1.266c-0.043-0.068-0.083-0.137-0.14-0.223
	C-154.879,53.648-156.312,54.515-157.753,55.386z"/>
</svg>
