<?xml version="1.0" encoding="utf-8"?>
<!-- Generator: Adobe Illustrator 16.0.3, SVG Export Plug-In . SVG Version: 6.00 Build 0)  -->
<!DOCTYPE svg PUBLIC "-//W3C//DTD SVG 1.1//EN" "http://www.w3.org/Graphics/SVG/1.1/DTD/svg11.dtd">
<svg version="1.1" id="Layer_1" xmlns="http://www.w3.org/2000/svg" xmlns:xlink="http://www.w3.org/1999/xlink" x="0px" y="0px"
	 width="58.188px" height="63.17px" viewBox="0 0 58.188 63.17" enable-background="new 0 0 58.188 63.17" xml:space="preserve">
<g>
	<path fill-rule="evenodd" clip-rule="evenodd" fill="#6D6E71" d="M12.707,0.007c1.26-0.067,1.836,0.338,2.272,1.078
		c4.18,7.177,8.385,14.338,12.564,21.515c1.107,1.899,1.072,1.909,3.178,1.397c4.839-1.188,9.683-2.386,14.537-3.531
		c0.896-0.214,0.939-0.451,0.407-1.15c-1.73-2.279-3.412-4.598-5.11-6.899c-0.82-1.113-0.727-1.39,0.604-1.624
		c2.665-0.479,5.342-0.919,8-1.423c0.754-0.143,1.306,0.096,1.753,0.625c2.298,2.71,4.607,5.426,6.868,8.168
		c0.669,0.813,0.521,1.179-0.515,1.457c-2.199,0.592-4.407,1.165-6.627,1.691c-0.868,0.204-0.965,0.444-0.406,1.167
		c2.111,2.724,4.173,5.488,6.233,8.246c0.968,1.292,0.873,1.583-0.625,2.127c-6.22,2.25-12.435,4.512-18.659,6.752
		c-2.04,0.732-2.417,0.62-3.479-1.225c-1.848-3.222-3.688-6.449-5.443-9.722c-0.552-1.027-1.101-1.318-2.266-0.989
		c-3.609,1.013-7.256,1.904-10.896,2.824c-1.7,0.431-2.266,0.176-2.955-1.362C8.238,20.404,4.337,11.68,0.447,2.945
		c-0.766-1.715-0.66-1.886,1.199-2.042C5.463,0.585,9.281,0.287,12.707,0.007z M12.138,1.648C9.355,1.896,6.699,2.17,4.041,2.35
		C3.046,2.415,2.947,2.712,3.358,3.55c1.461,2.982,2.884,5.984,4.308,8.984c2.247,4.751,4.487,9.508,6.717,14.263
		c0.234,0.488,0.452,0.899,1.104,0.748c3.353-0.777,6.7-1.559,10.055-2.313c0.582-0.13,0.563-0.352,0.317-0.789
		C21.703,17.077,17.551,9.708,13.42,2.332C13.077,1.723,12.668,1.487,12.138,1.648z M47.389,22.179
		c-0.156,0.024-0.234,0.024-0.311,0.049c-5.484,1.414-10.974,2.837-16.458,4.249c-0.586,0.147-0.6,0.397-0.313,0.886
		c1.763,2.953,3.504,5.921,5.239,8.893c0.284,0.489,0.578,0.593,1.128,0.404c5.51-1.894,11.021-3.771,16.548-5.607
		c0.815-0.272,0.724-0.537,0.294-1.104c-1.817-2.405-3.604-4.832-5.386-7.267C47.906,22.379,47.727,22.121,47.389,22.179z
		 M48.834,19.604c1.87-0.471,4.049-0.996,6.211-1.571c0.526-0.138,0.211-0.464,0.027-0.694c-1.554-1.878-3.115-3.738-4.65-5.631
		c-0.397-0.488-0.851-0.597-1.43-0.492c-1.899,0.332-3.8,0.657-5.702,0.977c-0.844,0.138-0.421,0.512-0.168,0.849
		c1.525,2.025,3.051,4.049,4.574,6.078C47.906,19.394,48.104,19.696,48.834,19.604z"/>
	<path fill-rule="evenodd" clip-rule="evenodd" fill="#6D6E71" d="M20.871,58.647c0,0.696-0.014,1.393,0,2.091
		c0.014,0.518-0.131,1.122,0.683,1.234c0.352,0.048,0.319,0.393,0.292,0.659c-0.032,0.322-0.256,0.464-0.554,0.489
		c-0.552,0.053-1.172,0.088-1.476-0.437c-0.416-0.732-0.783-0.438-1.272-0.138c-0.777,0.484-1.647,0.666-2.558,0.577
		c-1.252-0.124-2.206-1.007-2.39-2.172c-0.209-1.367,0.404-2.456,1.702-2.947c0.949-0.363,1.97-0.363,2.96-0.524
		c0.547-0.087,1.101-0.161,1.13-0.9c0.03-0.713-0.273-1.163-0.962-1.388c-1.28-0.423-2.204-0.12-2.882,1.094
		c-0.326,0.588-0.802,0.418-1.201,0.33c-0.524-0.11-0.248-0.558-0.18-0.861c0.161-0.683,0.584-1.165,1.225-1.454
		c1.418-0.655,2.85-0.614,4.278-0.032c0.805,0.331,1.175,0.98,1.19,1.829c0.023,0.85,0.009,1.7,0.009,2.55
		C20.866,58.647,20.866,58.647,20.871,58.647z M19.38,59.417c-0.28-0.181,0.37-0.948-0.36-0.884
		c-1.025,0.087-2.098,0.128-3.057,0.593c-0.68,0.333-0.912,0.933-0.783,1.654c0.11,0.643,0.559,0.999,1.179,1.126
		C17.896,62.219,19.336,61.079,19.38,59.417z"/>
	<path fill-rule="evenodd" clip-rule="evenodd" fill="#6D6E71" d="M35.678,58.652c0,0.701-0.007,1.397,0.004,2.096
		c0.01,0.517-0.135,1.119,0.683,1.225c0.354,0.048,0.294,0.402,0.28,0.664c-0.016,0.273-0.202,0.425-0.445,0.459
		c-0.545,0.083-1.195,0.166-1.498-0.347c-0.433-0.729-0.807-0.554-1.358-0.195c-0.737,0.462-1.576,0.644-2.444,0.579
		c-1.316-0.102-2.325-0.988-2.488-2.196c-0.193-1.402,0.401-2.436,1.716-2.937c0.949-0.363,1.97-0.363,2.957-0.52
		c0.557-0.087,1.092-0.175,1.131-0.907c0.039-0.729-0.301-1.16-0.981-1.386c-1.282-0.423-2.258-0.112-2.895,1.087
		c-0.326,0.606-0.798,0.42-1.188,0.342c-0.51-0.11-0.257-0.564-0.179-0.87c0.177-0.724,0.657-1.207,1.332-1.505
		c0.834-0.375,1.715-0.469,2.613-0.384c2.093,0.202,2.762,0.944,2.762,3.054C35.68,57.492,35.678,58.075,35.678,58.652z
		 M34.202,59.399c-0.179-0.244,0.331-0.954-0.402-0.878c-0.985,0.104-2.001,0.156-2.938,0.544c-0.696,0.29-0.956,0.859-0.885,1.591
		c0.067,0.707,0.501,1.103,1.165,1.245C32.704,62.239,34.168,61.063,34.202,59.399z"/>
	<path fill-rule="evenodd" clip-rule="evenodd" fill="#6D6E71" d="M50.604,58.974c-0.77,0-1.544,0.019-2.316-0.004
		c-0.647-0.023-0.8,0.271-0.68,0.861c0.216,1.021,0.661,1.848,1.769,2.05c1.078,0.204,1.992-0.104,2.59-1.097
		c0.076-0.128,0.126-0.284,0.211-0.411c0.341-0.491,0.89-0.379,1.262-0.228c0.57,0.241,0.097,0.671-0.046,0.958
		c-0.942,1.859-3.382,2.608-5.301,1.646c-1.654-0.827-2.458-2.663-2.174-4.965c0.246-2.013,1.416-3.426,3.166-3.842
		c2.732-0.644,5.28,1.778,4.814,4.535c-0.092,0.52-0.394,0.492-0.74,0.492C52.306,58.974,51.458,58.974,50.604,58.974z
		 M49.948,57.772c0.538,0,1.078-0.03,1.613,0.007c0.634,0.034,0.8-0.187,0.637-0.813c-0.278-1.085-0.859-1.792-2.016-1.907
		c-1.084-0.105-2.026,0.51-2.426,1.569c-0.29,0.77-0.21,1.271,0.809,1.151C49.021,57.729,49.484,57.772,49.948,57.772z"/>
	<path fill-rule="evenodd" clip-rule="evenodd" fill="#6D6E71" d="M41.247,60.755c0.625-1.856,1.252-3.709,1.887-5.563
		c0.097-0.29,0.16-0.621,0.342-0.855c0.368-0.484,0.963-0.349,1.381-0.188c0.487,0.185,0.051,0.607-0.05,0.878
		c-0.842,2.321-1.735,4.628-2.583,6.948c-0.212,0.593-0.43,0.968-1.192,0.956c-0.727-0.016-0.9-0.384-1.101-0.924
		c-0.815-2.291-1.675-4.563-2.475-6.858c-0.11-0.308-0.681-0.837,0.007-1.022c0.561-0.156,1.298-0.313,1.576,0.644
		c0.462,1.592,1.004,3.166,1.521,4.74c0.133,0.401,0.282,0.797,0.427,1.194C41.072,60.721,41.16,60.738,41.247,60.755z"/>
	<path fill-rule="evenodd" clip-rule="evenodd" fill="#6D6E71" d="M57.161,56.874c0,1.746-0.021,3.488,0.014,5.229
		c0.009,0.598-0.159,0.818-0.784,0.812c-0.606-0.005-0.795-0.2-0.79-0.807c0.025-3.488,0.023-6.972,0.003-10.459
		c-0.003-0.593,0.167-0.823,0.783-0.83c0.627-0.005,0.797,0.232,0.783,0.825C57.145,53.389,57.161,55.128,57.161,56.874z"/>
	<path fill-rule="evenodd" clip-rule="evenodd" fill="#6D6E71" d="M11.827,56.814c0,1.746-0.009,3.483,0.01,5.225
		c0.007,0.52-0.005,0.876-0.706,0.876c-0.673,0-0.843-0.23-0.838-0.871c0.027-3.446,0.025-6.889,0.002-10.331
		c-0.007-0.625,0.143-0.902,0.832-0.896c0.696,0.009,0.714,0.377,0.71,0.896C11.818,53.414,11.827,55.114,11.827,56.814z"/>
	<path fill-rule="evenodd" clip-rule="evenodd" fill="#6D6E71" d="M23.298,58.51c0-1.199-0.01-2.398,0.004-3.594
		c0.003-0.326-0.135-0.776,0.389-0.815c0.35-0.025,0.848-0.228,1.009,0.269c0.202,0.63,0.448,0.336,0.724,0.113
		c0.399-0.317,0.829-0.568,1.347-0.625c0.409-0.044,0.811-0.054,0.778,0.544c-0.021,0.4,0.11,0.795-0.564,0.905
		c-1.652,0.276-2.194,0.997-2.216,2.688c-0.011,1.117,0.076,2.247-0.034,3.357c-0.053,0.528,0.623,1.505-0.669,1.546
		c-1.32,0.041-0.691-0.956-0.741-1.493C23.229,60.449,23.298,59.475,23.298,58.51z"/>
</g>
<g>
	<path fill-rule="evenodd" clip-rule="evenodd" fill="#6D6E71" d="M136.454,59.808c0.007-8.141,0-16.281,0.039-24.422
		c0.005-0.846-0.554-2.066,1.126-2.191c1.442-0.113,2.419,0.161,2.39,1.86c0,0.166,0.145,0.329,0.267,0.586
		c1.408-1.657,3.143-2.56,5.289-2.696c3.906-0.245,6.86,1.777,7.922,5.522c0.611,2.177,0.662,4.409,0.232,6.597
		c-1.048,5.356-5.687,8.414-11.539,7.519c-1.604-0.239-1.969,0.046-1.965,1.649c0,1.853,0.568,3.794-0.427,5.576
		C138.676,59.808,137.566,59.808,136.454,59.808z M140.271,44.35c0,1.408,0.012,2.575-0.005,3.747
		c-0.007,0.598,0.081,1.039,0.756,1.289c3.764,1.39,7.911-0.733,8.727-4.515c0.358-1.65,0.341-3.318-0.022-4.961
		c-0.549-2.521-2.109-3.812-4.504-3.801c-2.398,0.019-4.188,1.487-4.747,3.862C140.119,41.502,140.347,43.047,140.271,44.35z"/>
	<path fill-rule="evenodd" clip-rule="evenodd" fill="#6D6E71" d="M169.801,59.808c0.009-2.028-0.061-4.068,0.055-6.1
		c0.073-1.273-0.404-1.445-1.484-1.223c-2.033,0.423-4.064,0.216-6.045-0.324c-3.407-0.928-5.549-3.513-5.896-7.02
		c-0.776-7.803,3.707-12.518,11.553-12.164c5.606,0.258,5.606,0.258,5.606,5.859c0,6.301,0,12.594,0,18.896
		c0,0.722,0.132,1.479-0.454,2.074C172.022,59.808,170.912,59.808,169.801,59.808z M169.828,42.688c0-1.786-0.005-3.566,0.002-5.354
		c0.002-0.583,0.002-1.148-0.785-1.189c-1.776-0.097-3.564-0.313-5.258,0.515c-2.823,1.371-4.26,5.279-3.271,8.983
		c0.761,2.863,3.113,4.274,6.61,3.954c0.427-0.039,0.854-0.145,1.282-0.148c1.08-0.008,1.498-0.472,1.442-1.595
		C169.764,46.135,169.83,44.411,169.828,42.688z"/>
	<path fill-rule="evenodd" clip-rule="evenodd" fill="#6D6E71" d="M98.289,27.576c0.956,0.959,1.892,1.938,2.877,2.861
		c0.807,0.764,0.766,1.407-0.012,2.182c-3.761,3.728-7.483,7.5-11.256,11.218c-1.112,1.094-9.06,0.795-10.211-0.28
		c-2.101-1.967-3.925-4.219-6.225-5.979c0-0.492,0-0.988,0-1.479c1.204-0.455,1.848-1.554,2.686-2.396
		c0.895-0.902,1.552-0.953,2.443-0.015c1.782,1.873,3.648,3.665,5.475,5.499c0.446,0.445,0.795,0.914,1.478,0.216
		c3.86-3.964,7.753-7.89,11.634-11.826C97.55,27.576,97.922,27.576,98.289,27.576z"/>
	<path fill-rule="evenodd" clip-rule="evenodd" fill="#6D6E71" d="M239.457,52.4c-1.592,0.06-3.159,0.489-4.779,0.187
		c-3.04-0.565-4.418-2.055-4.467-5.143c-0.051-3.084-0.066-6.167,0.012-9.246c0.032-1.257-0.122-2.021-1.646-1.773
		c-0.411,0.068-1.07,0.314-1.305-0.276c-0.219-0.561,0.374-0.859,0.689-1.199c1.856-2.026,3.738-4.027,5.969-6.431
		c0,1.585,0.056,2.665-0.018,3.733c-0.063,0.948,0.213,1.37,1.222,1.263c0.733-0.075,1.48,0.021,2.22-0.022
		c1.011-0.06,1.758-0.023,1.753,1.384c0,1.369-0.556,1.613-1.767,1.602c-3.41-0.035-3.414,0.016-3.41,3.458
		c0.005,2.157-0.05,4.317,0.037,6.473c0.117,2.842,1.089,3.669,3.851,3.219c0.759-0.124,1.225-0.03,1.639,0.552
		C239.457,50.918,239.457,51.658,239.457,52.4z"/>
	<path fill-rule="evenodd" clip-rule="evenodd" fill="#6D6E71" d="M209.966,44.843c0,1.905-0.032,3.824,0.019,5.73
		c0.019,0.82-0.214,1.264-1.059,1.402c-2.928,0.479-5.839,0.951-8.823,0.459c-3.206-0.521-5.058-2.256-5.379-5.174
		c-0.309-2.773,1.286-5.236,4.136-6.287c1.941-0.717,3.981-0.924,6.013-0.629c1.289,0.186,1.452-0.28,1.328-1.384
		c-0.195-1.654-1.112-2.568-2.677-2.852c-1.785-0.319-3.577-0.231-5.313,0.283c-1.155,0.342-1.564-0.187-1.743-1.197
		c-0.173-0.948-0.159-1.59,1.098-1.804c2.392-0.409,4.754-0.71,7.167-0.274c3.154,0.57,4.931,2.421,5.128,5.619
		c0.127,2.026,0.023,4.069,0.023,6.106C209.909,44.843,209.938,44.843,209.966,44.843z M206.253,46.434c0-3.401,0-3.422-3.416-3.276
		c-0.727,0.031-1.474,0.158-2.169,0.386c-1.563,0.498-2.22,1.663-2.128,3.267c0.097,1.685,1.041,2.551,3.056,2.838
		C205.41,50.188,206.253,49.6,206.253,46.434z"/>
	<path fill-rule="evenodd" clip-rule="evenodd" fill="#6D6E71" d="M115.961,42.876c-0.019-6.865,4.202-10.683,10.822-9.788
		c4.611,0.616,7.488,4.495,7.392,9.961c-0.122,6.891-4.88,10.77-11.521,9.386C118.401,51.553,115.977,48.09,115.961,42.876z
		 M130.14,42.854c0.095-1.25-0.104-2.466-0.498-3.635c-0.747-2.201-2.266-3.261-4.594-3.27c-2.357-0.007-3.807,0.99-4.559,3.265
		c-0.792,2.41-0.792,4.853,0.005,7.256c0.754,2.275,2.24,3.312,4.545,3.309c2.266,0,3.828-1.104,4.589-3.299
		C130.032,45.314,130.229,44.099,130.14,42.854z"/>
	<path fill-rule="evenodd" clip-rule="evenodd" fill="#6D6E71" d="M192.368,42.536c0,2.527-0.062,5.06,0.025,7.583
		c0.039,1.116-0.282,1.665-1.404,1.87c-2.798,0.505-5.581,0.873-8.443,0.464c-3.468-0.494-5.588-2.403-6.124-5.898
		c-0.629-4.104-0.197-8.246-0.264-12.372c-0.027-1.576,1.318-0.895,2.091-0.993c0.853-0.108,1.739-0.135,1.709,1.24
		c-0.071,2.712-0.027,5.428-0.018,8.139c0.004,0.8,0.016,1.604,0.105,2.399c0.374,3.368,1.631,4.498,5.032,4.569
		c3.545,0.076,3.545,0.076,3.545-3.448c0-3.819,0.071-7.647-0.034-11.466c-0.042-1.581,0.87-1.478,1.882-1.46
		c0.972,0.018,1.994-0.197,1.925,1.419C192.29,37.233,192.368,39.885,192.368,42.536z"/>
	<path fill-rule="evenodd" clip-rule="evenodd" fill="#6D6E71" d="M216.985,52.735c-0.856-0.131-2.194-0.335-3.533-0.549
		c-0.929-0.151-1.705-0.345-1.17-1.641c0.382-0.914,0.397-1.921,1.909-1.396c1.696,0.59,3.49,0.797,5.28,0.291
		c1.323-0.376,2.452-1.013,2.534-2.557c0.076-1.498-0.994-2.146-2.203-2.624c-1.539-0.616-3.116-1.156-4.625-1.838
		c-1.811-0.816-2.744-2.279-2.643-4.278c0.101-1.999,1.021-3.548,2.904-4.38c2.989-1.32,6.033-0.939,9.064-0.158
		c1.16,0.296,0.528,1.201,0.409,1.833c-0.122,0.671-0.373,1.301-1.354,1.004c-1.657-0.505-3.337-0.877-5.094-0.425
		c-1,0.253-1.936,0.531-2.046,1.776c-0.105,1.245,0.594,1.974,1.655,2.383c1.318,0.51,2.665,0.949,3.997,1.427
		c2.151,0.772,3.576,2.13,3.711,4.554c0.143,2.583-1.022,4.375-3.273,5.515C220.934,52.474,219.222,52.674,216.985,52.735z"/>
	<path fill-rule="evenodd" clip-rule="evenodd" fill="#6D6E71" d="M98.735,45.617c-3.989,4.01-7.984,8.017-11.962,12.04
		c-0.685,0.696-1.273,0.825-2.015,0.076c-4.1-4.159-3.806-2.78-0.263-6.429c2.955-3.038,5.992-6.007,9.014-8.979
		c0.405-0.402,0.676-1.107,1.469-0.901C96.061,42.973,97.798,43.938,98.735,45.617z"/>
	<path fill-rule="evenodd" clip-rule="evenodd" fill="#6D6E71" d="M98.735,45.617c-0.938-1.68-2.675-2.645-3.757-4.193
		c2.521-0.027,5.041-0.046,7.56-0.101c0.627-0.017,1.022,0.262,1.427,0.671c1.861,1.884,3.713,3.772,5.625,5.602
		c0.859,0.827,0.866,1.498,0.018,2.316c-3.883,3.733-2.568,3.516-6.057,0.239C101.942,48.639,100.601,46.849,98.735,45.617z"/>
</g>
<text transform="matrix(1 0 0 1 111.8643 21.9805)" fill="#6D6E71" font-family="'MyriadPro-Regular'" font-size="18.4567">Certification</text>
</svg>
