<?xml version="1.0" encoding="utf-8"?>
<!-- Generator: Adobe Illustrator 16.0.3, SVG Export Plug-In . SVG Version: 6.00 Build 0)  -->
<!DOCTYPE svg PUBLIC "-//W3C//DTD SVG 1.1//EN" "http://www.w3.org/Graphics/SVG/1.1/DTD/svg11.dtd">
<svg version="1.1" id="Layer_1" xmlns="http://www.w3.org/2000/svg" xmlns:xlink="http://www.w3.org/1999/xlink" x="0px" y="0px"
	 width="57.171px" height="69.835px" viewBox="0 0 57.171 69.835" enable-background="new 0 0 57.171 69.835" xml:space="preserve">
<g>
	<g>
		<g>
			<path fill="#00FFFF" d="M44.464,1.003c3.625,0,7.257,0,11.057,0c-0.714,1.251-1.363,2.408-2.029,3.558
				c-8.17,14.114-16.336,28.227-24.506,42.347c-0.812,1.393-0.82,1.401-1.62,0.018C18.654,31.874,9.948,16.82,1.245,1.766
				c-0.129-0.218-0.35-0.404-0.271-0.757c3.614,0,7.238,0,10.859,0c0.068,0.148,0.135,0.298,0.216,0.438
				c4.524,7.828,9.048,15.652,13.577,23.48c0.815,1.401,1.638,2.81,2.447,4.201c0.386-0.137,0.44-0.42,0.563-0.634
				c4.058-6.996,8.121-13.994,12.162-21.002C42.033,5.337,43.375,3.242,44.464,1.003z"/>
			<path fill="#00FFFF" d="M28.169,48.912c-0.758,0-1.107-0.599-1.633-1.508C17.827,32.352,9.117,17.3,0.418,2.245
				c-0.202-0.29-0.524-0.749-0.384-1.434l0.158-0.758h12.23l0.455,0.921l15.291,26.419l1.482-2.554
				c3.441-5.939,6.891-11.878,10.316-17.825c0.357-0.618,0.722-1.236,1.087-1.852c0.88-1.484,1.792-3.021,2.553-4.579l0.265-0.539
				h13.301L55.61,2.781c-0.44,0.771-0.858,1.518-1.291,2.26L29.814,47.382C29.279,48.304,28.925,48.912,28.169,48.912z M2.465,1.965
				c8.57,14.82,17.137,29.631,25.704,44.437l24.495-42.32c0.403-0.7,0.801-1.399,1.213-2.123h-8.818
				c-0.73,1.441-1.559,2.833-2.357,4.18c-0.361,0.609-0.72,1.217-1.072,1.833c-3.434,5.949-6.875,11.887-10.321,17.828l-1.841,3.178
				c-0.151,0.313-0.396,0.814-1.07,1.055l-0.751,0.268L11.242,1.965H2.465z"/>
		</g>
		<path fill="#00FFFF" d="M27.644,30.298L11.22,1.926c-0.069-0.122-0.127-0.238-0.185-0.358L10.399,0.21l1.427-0.157l2.798-0.012
			C16.835,0.034,19.041,0.029,21.253,0c1.131,0,1.576,0.772,1.793,1.147l5.119,8.851c1.728-2.96,3.448-5.928,5.155-8.899
			C33.591,0.626,34.072,0,35.121,0c2.354,0.026,4.685,0.03,7.014,0.037l3.857,0.012L45.324,1.42
			c-0.793,1.632-1.724,3.203-2.623,4.718c-0.361,0.609-0.726,1.217-1.074,1.833c-3.438,5.951-6.883,11.903-10.33,17.847
			l-1.832,3.158c-0.15,0.313-0.395,0.814-1.069,1.055L27.644,30.298z M13.45,1.961l14.719,25.432l1.469-2.536
			c3.447-5.944,6.896-11.888,10.328-17.843c0.357-0.618,0.722-1.236,1.087-1.852c0.62-1.044,1.254-2.119,1.845-3.207L42.13,1.953
			c-2.334-0.007-4.672-0.011-7.006-0.038l-0.144,0.134c-1.794,3.127-3.601,6.244-5.42,9.354c-0.209,0.447-0.474,1.027-1.213,1.251
			l-0.729,0.225L21.387,2.102c-0.027-0.046-0.11-0.189-0.147-0.229c-2.181,0.07-4.393,0.077-6.605,0.082L13.45,1.961z"/>
	</g>
	<g>
		<path fill="#00FFFF" d="M13.009,65.869c-0.498-0.006-0.882-0.305-1.029-0.84c-0.641-2.305-1.422-4.561-2.077-6.857
			c-0.437-1.535-0.972-3.043-1.403-4.578c-0.131-0.454-0.01-0.688,0.45-0.84c0.503-0.162,0.848-0.027,0.977,0.402
			c0.335,1.141,0.647,2.299,0.992,3.443c0.515,1.714,1.068,3.414,1.567,5.131c0.133,0.459,0.25,0.928,0.393,1.389
			c0.037,0.104,0.023,0.254,0.195,0.235c0.113-0.017,0.122-0.133,0.149-0.228c0.324-1.151,0.644-2.301,0.983-3.449
			c0.52-1.76,1.066-3.516,1.595-5.279c0.117-0.4,0.19-0.805,0.347-1.191c0.188-0.475,0.389-0.604,0.862-0.478
			c0.515,0.14,0.7,0.426,0.558,0.924c-0.184,0.638-0.401,1.265-0.597,1.897c-0.621,2.029-1.216,4.066-1.856,6.09
			c-0.366,1.135-0.722,2.266-1.053,3.414C13.905,65.587,13.52,65.873,13.009,65.869z"/>
		<path fill="#00FFFF" d="M31.017,61.919c-0.669,0-1.338,0.006-2.006-0.004c-0.278-0.006-0.375,0.094-0.384,0.377
			c-0.035,1.14,0.606,1.938,1.708,2.246c0.908,0.254,1.691,0.064,2.467-0.391c0.447-0.268,0.83-0.216,1.016,0.1
			c0.206,0.355,0.102,0.666-0.334,0.963c-1.711,1.166-4.466,0.807-5.702-0.769c-0.375-0.478-0.611-1.024-0.616-1.642
			c-0.009-0.858-0.029-1.709-0.002-2.561c0.034-1.086,0.618-1.885,1.491-2.455c1.642-1.076,4.007-0.701,4.99,1.004
			c0.464,0.801,0.72,1.65,0.287,2.561c-0.173,0.372-0.472,0.552-0.861,0.557c-0.685,0.014-1.372,0.004-2.054,0.004
			C31.017,61.912,31.017,61.916,31.017,61.919z M30.492,60.966v-0.004c0.453,0,0.9,0.009,1.35-0.004
			c0.848-0.026,1.029-0.274,0.824-1.103c-0.269-1.103-1.33-1.694-2.578-1.444c-0.943,0.188-1.638,1.262-1.488,2.28
			c0.042,0.263,0.195,0.272,0.389,0.272C29.488,60.966,29.992,60.966,30.492,60.966z"/>
		<path fill="#00FFFF" d="M25.394,60.333c0,0.717,0,1.438,0,2.16c-0.009,1.469-1.024,2.666-2.364,3.186
			c-1.649,0.642-3.587-0.217-4.4-1.768c-0.225-0.433-0.352-0.934-0.358-1.44c0-1.47,0-2.94,0-4.411c0-0.538,0.265-0.74,0.915-0.734
			c0.34,0.002,0.625,0.336,0.627,0.748c0.007,1.508-0.025,3.01,0.014,4.514c0.046,1.492,1.634,2.441,2.909,1.75
			c0.763-0.412,1.186-1.08,1.179-1.986c-0.009-1.404-0.002-2.807-0.002-4.21c0-0.72,0.478-1.05,1.15-0.781
			c0.267,0.11,0.336,0.349,0.331,0.618C25.385,58.763,25.394,59.548,25.394,60.333z"/>
		<path fill="#00FFFF" d="M44.998,65.873c-0.871-0.024-1.709-0.192-2.459-0.683c-0.228-0.155-0.414-0.333-0.414-0.638
			c0-0.245,0.057-0.44,0.293-0.59c0.229-0.153,0.391-0.029,0.537,0.082c0.742,0.555,1.566,0.752,2.483,0.65
			c0.851-0.102,1.33-0.634,1.196-1.383c-0.092-0.501-0.449-0.781-0.877-0.943c-0.646-0.252-1.313-0.453-1.965-0.687
			c-0.924-0.323-1.467-1.021-1.496-1.896c-0.029-1.072,0.443-1.865,1.377-2.267c1.264-0.542,2.5-0.411,3.72,0.151
			c0.412,0.193,0.384,0.521,0.251,0.84c-0.135,0.318-0.396,0.438-0.736,0.27c-0.594-0.3-1.219-0.451-1.883-0.4
			c-0.302,0.017-0.582,0.078-0.841,0.26c-0.407,0.292-0.606,0.65-0.524,1.148c0.071,0.467,0.428,0.662,0.803,0.797
			c0.666,0.248,1.347,0.451,2.02,0.682c1.654,0.568,1.921,2.602,1.083,3.646c-0.511,0.635-1.255,0.828-2.021,0.953
			C45.373,65.9,45.179,65.873,44.998,65.873z"/>
		<path fill="#00FFFF" d="M40.509,62.486c-0.045,1.488,0.104,3.268-0.131,5.027c-0.182,1.41-1.106,2.371-2.373,2.32
			c-0.396-0.015-0.734-0.119-0.778-0.592c-0.039-0.388,0.231-0.691,0.703-0.726c0.55-0.046,0.817-0.351,0.938-0.853
			c0.114-0.475,0.116-0.957,0.116-1.438c0.003-2.726,0.005-5.45-0.002-8.171c-0.003-0.398,0.078-0.689,0.533-0.725
			c0.698-0.055,0.887,0.059,0.962,0.619c0.039,0.282,0.029,0.564,0.029,0.854C40.513,59.937,40.509,61.078,40.509,62.486z"/>
		<path fill="#00FFFF" d="M37.231,64.912c-0.005,0.616-0.423,0.891-0.894,0.944c-0.412,0.044-0.949-0.503-0.967-0.917
			c-0.021-0.469,0.461-0.934,0.967-0.938C36.882,63.996,37.231,64.353,37.231,64.912z"/>
	</g>
</g>
<g>
	<path fill="#6D6E71" d="M85.138,1.056c1.26-0.067,1.836,0.338,2.271,1.078c4.18,7.177,8.385,14.338,12.564,21.515
		c1.107,1.899,1.072,1.909,3.178,1.397c4.84-1.188,9.684-2.386,14.537-3.531c0.896-0.214,0.939-0.451,0.407-1.15
		c-1.729-2.279-3.412-4.598-5.11-6.899c-0.82-1.113-0.727-1.39,0.604-1.624c2.666-0.479,5.343-0.919,8-1.423
		c0.754-0.143,1.307,0.096,1.754,0.625c2.298,2.71,4.607,5.426,6.867,8.168c0.67,0.813,0.521,1.179-0.515,1.457
		c-2.198,0.592-4.407,1.165-6.627,1.691c-0.868,0.204-0.965,0.444-0.405,1.167c2.11,2.724,4.172,5.488,6.232,8.246
		c0.968,1.292,0.873,1.583-0.625,2.127c-6.221,2.25-12.436,4.512-18.659,6.752c-2.04,0.732-2.417,0.62-3.479-1.225
		c-1.848-3.223-3.688-6.449-5.442-9.722c-0.552-1.027-1.101-1.318-2.267-0.989c-3.608,1.013-7.256,1.904-10.896,2.824
		c-1.7,0.431-2.266,0.176-2.954-1.362c-3.906-8.725-7.809-17.449-11.697-26.184c-0.767-1.715-0.66-1.886,1.199-2.042
		C77.894,1.633,81.712,1.335,85.138,1.056z M84.568,2.696c-2.781,0.248-5.438,0.522-8.097,0.702
		c-0.995,0.065-1.095,0.362-0.683,1.201c1.461,2.982,2.883,5.984,4.308,8.984c2.247,4.751,4.487,9.508,6.717,14.263
		c0.233,0.488,0.452,0.899,1.104,0.748c3.353-0.777,6.699-1.559,10.055-2.313c0.582-0.13,0.563-0.352,0.316-0.789
		C94.132,18.127,89.98,10.758,85.85,3.381C85.507,2.771,85.099,2.535,84.568,2.696z M119.819,23.227
		c-0.155,0.024-0.233,0.024-0.312,0.049c-5.483,1.414-10.973,2.837-16.457,4.249c-0.586,0.147-0.6,0.397-0.313,0.886
		c1.763,2.953,3.505,5.921,5.239,8.893c0.283,0.488,0.578,0.593,1.128,0.404c5.51-1.895,11.021-3.771,16.548-5.607
		c0.814-0.272,0.725-0.537,0.294-1.104c-1.817-2.405-3.604-4.832-5.386-7.267C120.337,23.427,120.158,23.169,119.819,23.227z
		 M121.265,20.652c1.869-0.471,4.049-0.996,6.211-1.571c0.525-0.138,0.211-0.464,0.027-0.694c-1.555-1.878-3.115-3.738-4.65-5.631
		c-0.396-0.488-0.852-0.597-1.43-0.492c-1.899,0.332-3.801,0.657-5.702,0.977c-0.845,0.138-0.421,0.512-0.168,0.849
		c1.524,2.025,3.051,4.049,4.573,6.078C120.337,20.442,120.535,20.745,121.265,20.652z"/>
	<path fill="#6D6E71" d="M93.302,59.696c0,0.696-0.014,1.394,0,2.091c0.014,0.519-0.131,1.123,0.683,1.234
		c0.353,0.048,0.319,0.393,0.292,0.659c-0.031,0.321-0.256,0.464-0.554,0.489c-0.552,0.053-1.173,0.088-1.476-0.438
		c-0.416-0.732-0.783-0.438-1.272-0.139c-0.776,0.484-1.647,0.666-2.558,0.578c-1.252-0.125-2.207-1.008-2.391-2.172
		c-0.209-1.367,0.404-2.457,1.702-2.947c0.949-0.363,1.97-0.363,2.96-0.524c0.547-0.087,1.102-0.161,1.13-0.899
		c0.03-0.713-0.272-1.164-0.962-1.389c-1.279-0.423-2.204-0.119-2.882,1.094c-0.326,0.588-0.802,0.418-1.201,0.33
		c-0.524-0.109-0.248-0.558-0.18-0.861c0.161-0.682,0.584-1.164,1.225-1.453c1.418-0.655,2.851-0.614,4.278-0.032
		c0.805,0.331,1.175,0.979,1.189,1.829c0.023,0.85,0.01,1.7,0.01,2.55C93.296,59.696,93.296,59.696,93.302,59.696z M91.811,60.464
		c-0.28-0.18,0.37-0.947-0.36-0.883c-1.025,0.086-2.098,0.127-3.057,0.592c-0.68,0.334-0.912,0.934-0.783,1.654
		c0.11,0.644,0.559,1,1.18,1.127C90.326,63.267,91.767,62.126,91.811,60.464z"/>
	<path fill="#6D6E71" d="M108.108,59.701c0,0.701-0.007,1.397,0.004,2.096c0.011,0.518-0.135,1.119,0.683,1.226
		c0.354,0.048,0.295,0.401,0.281,0.664c-0.017,0.272-0.203,0.425-0.445,0.459c-0.545,0.083-1.195,0.166-1.498-0.347
		c-0.434-0.729-0.807-0.555-1.358-0.195c-0.737,0.462-1.575,0.645-2.444,0.579c-1.315-0.103-2.324-0.988-2.488-2.196
		c-0.192-1.402,0.402-2.436,1.717-2.938c0.949-0.362,1.97-0.362,2.957-0.52c0.557-0.087,1.092-0.175,1.131-0.906
		c0.039-0.729-0.301-1.16-0.98-1.387c-1.283-0.423-2.258-0.111-2.896,1.088c-0.326,0.605-0.798,0.42-1.188,0.342
		c-0.51-0.11-0.256-0.564-0.179-0.871c0.177-0.724,0.657-1.207,1.332-1.504c0.834-0.375,1.716-0.47,2.613-0.385
		c2.093,0.202,2.762,0.944,2.762,3.055C108.11,58.541,108.108,59.125,108.108,59.701z M106.632,60.449
		c-0.178-0.244,0.332-0.955-0.401-0.879c-0.985,0.104-2.001,0.156-2.938,0.545c-0.695,0.289-0.955,0.858-0.885,1.59
		c0.067,0.707,0.502,1.104,1.166,1.246C105.134,63.289,106.599,62.111,106.632,60.449z"/>
	<path fill="#6D6E71" d="M123.035,60.022c-0.771,0-1.545,0.019-2.316-0.004c-0.647-0.022-0.801,0.271-0.68,0.86
		c0.215,1.021,0.66,1.849,1.769,2.051c1.077,0.203,1.991-0.104,2.59-1.098c0.076-0.127,0.126-0.283,0.211-0.41
		c0.341-0.491,0.89-0.379,1.263-0.229c0.569,0.241,0.096,0.672-0.047,0.958c-0.941,1.858-3.382,2.608-5.301,1.646
		c-1.654-0.826-2.458-2.662-2.174-4.965c0.246-2.013,1.416-3.426,3.166-3.842c2.732-0.644,5.279,1.778,4.814,4.535
		c-0.093,0.52-0.395,0.492-0.74,0.492C124.736,60.022,123.889,60.022,123.035,60.022z M122.378,58.821
		c0.539,0,1.078-0.03,1.613,0.007c0.635,0.034,0.801-0.187,0.637-0.813c-0.277-1.085-0.858-1.792-2.016-1.907
		c-1.084-0.104-2.025,0.511-2.426,1.569c-0.29,0.77-0.21,1.271,0.809,1.15C121.451,58.777,121.916,58.821,122.378,58.821z"/>
	<path fill="#6D6E71" d="M113.678,61.802c0.625-1.855,1.252-3.709,1.887-5.563c0.097-0.289,0.16-0.621,0.343-0.855
		c0.367-0.483,0.963-0.348,1.381-0.188c0.486,0.186,0.051,0.607-0.051,0.879c-0.842,2.32-1.734,4.627-2.583,6.947
		c-0.212,0.594-0.43,0.969-1.192,0.956c-0.727-0.017-0.899-0.384-1.101-0.924c-0.815-2.291-1.675-4.563-2.475-6.858
		c-0.11-0.308-0.681-0.837,0.007-1.021c0.561-0.156,1.298-0.313,1.576,0.644c0.462,1.593,1.004,3.166,1.521,4.74
		c0.133,0.401,0.281,0.797,0.426,1.194C113.503,61.769,113.591,61.787,113.678,61.802z"/>
	<path fill="#6D6E71" d="M129.591,57.921c0,1.746-0.021,3.488,0.015,5.229c0.009,0.599-0.159,0.817-0.784,0.812
		c-0.605-0.004-0.795-0.199-0.789-0.807c0.024-3.488,0.022-6.972,0.002-10.459c-0.002-0.593,0.168-0.822,0.783-0.83
		c0.627-0.005,0.797,0.232,0.783,0.825C129.576,54.437,129.591,56.175,129.591,57.921z"/>
	<path fill="#6D6E71" d="M84.257,57.863c0,1.746-0.008,3.483,0.011,5.225c0.007,0.521-0.005,0.877-0.706,0.877
		c-0.673,0-0.844-0.23-0.838-0.871c0.027-3.446,0.025-6.889,0.002-10.331c-0.008-0.625,0.143-0.902,0.832-0.896
		c0.695,0.008,0.714,0.377,0.71,0.896C84.25,54.462,84.257,56.164,84.257,57.863z"/>
	<path fill="#6D6E71" d="M95.729,59.558c0-1.199-0.011-2.398,0.004-3.594c0.003-0.326-0.135-0.776,0.39-0.815
		c0.35-0.024,0.848-0.228,1.008,0.269c0.203,0.631,0.449,0.336,0.725,0.113c0.398-0.316,0.829-0.568,1.348-0.625
		c0.408-0.044,0.811-0.054,0.777,0.545c-0.021,0.399,0.109,0.795-0.564,0.904c-1.651,0.275-2.193,0.997-2.215,2.688
		c-0.012,1.117,0.075,2.248-0.035,3.357c-0.053,0.527,0.623,1.505-0.668,1.546c-1.32,0.041-0.691-0.956-0.742-1.493
		C95.66,61.498,95.729,60.523,95.729,59.558z"/>
</g>
<g>
	<path fill="#6D6E71" d="M208.884,60.856c0.008-8.142,0-16.28,0.039-24.422c0.006-0.847-0.553-2.066,1.127-2.191
		c1.441-0.113,2.418,0.161,2.39,1.86c0,0.166,0.146,0.329,0.267,0.586c1.408-1.657,3.144-2.56,5.289-2.696
		c3.906-0.245,6.86,1.777,7.922,5.522c0.611,2.177,0.662,4.408,0.232,6.597c-1.048,5.356-5.688,8.414-11.539,7.519
		c-1.604-0.238-1.969,0.047-1.965,1.649c0,1.853,0.568,3.794-0.428,5.576C211.106,60.856,209.998,60.856,208.884,60.856z
		 M212.701,45.398c0,1.408,0.012,2.575-0.005,3.747c-0.007,0.599,0.081,1.039,0.757,1.289c3.764,1.39,7.91-0.733,8.727-4.515
		c0.357-1.65,0.341-3.318-0.021-4.961c-0.55-2.521-2.109-3.813-4.505-3.801c-2.397,0.018-4.188,1.486-4.747,3.861
		C212.55,42.55,212.777,44.095,212.701,45.398z"/>
	<path fill="#6D6E71" d="M242.231,60.856c0.009-2.028-0.062-4.067,0.056-6.101c0.072-1.272-0.404-1.444-1.484-1.223
		c-2.033,0.424-4.064,0.217-6.045-0.324c-3.407-0.928-5.549-3.513-5.896-7.02c-0.775-7.803,3.707-12.518,11.553-12.164
		c5.606,0.258,5.606,0.258,5.606,5.859c0,6.301,0,12.594,0,18.896c0,0.721,0.132,1.479-0.454,2.073
		C244.453,60.856,243.343,60.856,242.231,60.856z M242.259,43.737c0-1.786-0.006-3.565,0.002-5.354
		c0.002-0.582,0.002-1.147-0.785-1.188c-1.775-0.097-3.564-0.313-5.258,0.515c-2.823,1.371-4.26,5.279-3.271,8.983
		c0.762,2.863,3.113,4.274,6.61,3.954c0.427-0.039,0.854-0.145,1.282-0.148c1.08-0.008,1.498-0.472,1.441-1.595
		C242.194,47.183,242.261,45.458,242.259,43.737z"/>
	<path fill="#6D6E71" d="M170.72,28.625c0.955,0.959,1.892,1.938,2.877,2.861c0.807,0.764,0.766,1.407-0.012,2.182
		c-3.762,3.728-7.483,7.5-11.256,11.218c-1.113,1.094-9.061,0.795-10.211-0.28c-2.102-1.967-3.926-4.219-6.226-5.979
		c0-0.492,0-0.987,0-1.479c1.204-0.455,1.849-1.555,2.687-2.396c0.895-0.902,1.551-0.953,2.442-0.015
		c1.782,1.873,3.647,3.665,5.476,5.499c0.445,0.445,0.795,0.914,1.478,0.217c3.86-3.965,7.753-7.891,11.634-11.827
		C169.98,28.625,170.353,28.625,170.72,28.625z"/>
	<path fill="#6D6E71" d="M311.888,53.449c-1.592,0.061-3.159,0.489-4.779,0.188c-3.04-0.565-4.418-2.055-4.467-5.143
		c-0.051-3.084-0.066-6.168,0.012-9.246c0.032-1.258-0.121-2.021-1.646-1.773c-0.41,0.068-1.069,0.314-1.305-0.275
		c-0.219-0.562,0.375-0.859,0.689-1.199c1.855-2.026,3.738-4.027,5.969-6.432c0,1.585,0.057,2.665-0.018,3.733
		c-0.063,0.948,0.213,1.37,1.222,1.263c0.733-0.075,1.479,0.021,2.22-0.022c1.012-0.06,1.758-0.023,1.754,1.383
		c0,1.369-0.557,1.613-1.768,1.603c-3.41-0.034-3.414,0.017-3.41,3.458c0.006,2.157-0.05,4.316,0.037,6.473
		c0.117,2.842,1.089,3.67,3.852,3.219c0.758-0.123,1.225-0.029,1.639,0.553C311.888,51.966,311.888,52.707,311.888,53.449z"/>
	<path fill="#6D6E71" d="M282.396,45.891c0,1.905-0.032,3.823,0.02,5.729c0.019,0.82-0.215,1.264-1.06,1.402
		c-2.928,0.479-5.839,0.951-8.823,0.459c-3.205-0.521-5.058-2.256-5.379-5.174c-0.309-2.773,1.286-5.236,4.137-6.287
		c1.94-0.717,3.98-0.924,6.013-0.629c1.288,0.186,1.452-0.28,1.327-1.385c-0.194-1.653-1.111-2.567-2.676-2.852
		c-1.785-0.318-3.578-0.23-5.313,0.283c-1.155,0.342-1.563-0.188-1.743-1.197c-0.173-0.948-0.158-1.59,1.098-1.804
		c2.393-0.409,4.754-0.71,7.168-0.274c3.153,0.57,4.93,2.421,5.127,5.619c0.127,2.026,0.023,4.069,0.023,6.106
		C282.339,45.891,282.369,45.891,282.396,45.891z M278.684,47.482c0-3.4,0-3.422-3.416-3.275c-0.728,0.03-1.474,0.158-2.169,0.385
		c-1.563,0.498-2.221,1.664-2.128,3.268c0.097,1.686,1.041,2.551,3.056,2.838C277.841,51.236,278.684,50.648,278.684,47.482z"/>
	<path fill="#6D6E71" d="M188.392,43.923c-0.02-6.864,4.201-10.682,10.822-9.788c4.611,0.616,7.488,4.495,7.392,9.961
		c-0.122,6.891-4.88,10.77-11.521,9.386C190.832,52.601,188.408,49.138,188.392,43.923z M202.57,43.902
		c0.096-1.25-0.104-2.466-0.498-3.635c-0.746-2.201-2.266-3.262-4.594-3.27c-2.357-0.008-3.807,0.989-4.559,3.265
		c-0.793,2.409-0.793,4.853,0.004,7.256c0.755,2.274,2.24,3.312,4.545,3.31c2.267,0,3.828-1.104,4.59-3.3
		C202.462,46.363,202.66,45.147,202.57,43.902z"/>
	<path fill="#6D6E71" d="M264.798,43.583c0,2.527-0.062,5.061,0.025,7.584c0.039,1.115-0.281,1.664-1.404,1.869
		c-2.797,0.506-5.58,0.873-8.442,0.465c-3.468-0.494-5.588-2.403-6.124-5.898c-0.629-4.104-0.197-8.246-0.264-12.372
		c-0.027-1.576,1.318-0.895,2.091-0.993c0.853-0.108,1.739-0.135,1.709,1.24c-0.071,2.712-0.027,5.428-0.019,8.139
		c0.004,0.801,0.017,1.604,0.105,2.399c0.374,3.368,1.631,4.498,5.031,4.569c3.546,0.076,3.546,0.076,3.546-3.448
		c0-3.819,0.071-7.647-0.034-11.466c-0.042-1.582,0.87-1.479,1.882-1.46c0.972,0.018,1.994-0.197,1.925,1.419
		C264.721,38.283,264.798,40.933,264.798,43.583z"/>
	<path fill="#6D6E71" d="M289.416,53.785c-0.855-0.132-2.193-0.336-3.533-0.55c-0.928-0.151-1.704-0.345-1.17-1.642
		c0.383-0.913,0.397-1.92,1.91-1.395c1.695,0.59,3.489,0.797,5.279,0.291c1.323-0.377,2.452-1.014,2.534-2.558
		c0.075-1.498-0.994-2.146-2.203-2.624c-1.539-0.616-3.116-1.156-4.625-1.838c-1.812-0.816-2.744-2.279-2.644-4.278
		c0.102-1.999,1.021-3.548,2.904-4.38c2.989-1.32,6.033-0.939,9.064-0.158c1.16,0.296,0.527,1.201,0.408,1.833
		c-0.121,0.671-0.373,1.302-1.354,1.005c-1.656-0.506-3.337-0.877-5.094-0.426c-1,0.253-1.936,0.531-2.046,1.775
		c-0.104,1.246,0.594,1.975,1.655,2.384c1.317,0.51,2.664,0.948,3.996,1.427c2.151,0.771,3.576,2.131,3.711,4.555
		c0.144,2.582-1.021,4.375-3.272,5.515C293.365,53.522,291.652,53.722,289.416,53.785z"/>
	<path fill="#6D6E71" d="M171.166,46.666c-3.988,4.01-7.983,8.018-11.961,12.041c-0.686,0.695-1.273,0.824-2.016,0.076
		c-4.1-4.16-3.807-2.781-0.264-6.43c2.955-3.038,5.992-6.007,9.015-8.979c0.405-0.402,0.677-1.107,1.47-0.901
		C168.492,44.021,170.229,44.986,171.166,46.666z"/>
	<path fill="#6D6E71" d="M171.166,46.666c-0.938-1.68-2.674-2.645-3.756-4.192c2.521-0.027,5.041-0.046,7.559-0.101
		c0.628-0.018,1.023,0.262,1.428,0.67c1.861,1.885,3.713,3.772,5.625,5.603c0.859,0.827,0.866,1.498,0.018,2.315
		c-3.883,3.733-2.567,3.517-6.057,0.24C174.373,49.687,173.031,47.897,171.166,46.666z"/>
</g>
<text transform="matrix(1 0 0 1 184.2944 23.0288)" fill="#6D6E71" font-family="'MyriadPro-Regular'" font-size="18.4567">Certification</text>
</svg>
