<?xml version="1.0" encoding="utf-8"?>
<!-- Generator: Adobe Illustrator 16.0.3, SVG Export Plug-In . SVG Version: 6.00 Build 0)  -->
<!DOCTYPE svg PUBLIC "-//W3C//DTD SVG 1.1//EN" "http://www.w3.org/Graphics/SVG/1.1/DTD/svg11.dtd">
<svg version="1.1" id="Layer_1" xmlns="http://www.w3.org/2000/svg" xmlns:xlink="http://www.w3.org/1999/xlink" x="0px" y="0px"
	 width="56.459px" height="56.458px" viewBox="0 0 56.459 56.458" enable-background="new 0 0 56.459 56.458" xml:space="preserve">
<path fill="#00FFFF" d="M0,56.458C0,37.635,0,18.813,0,0c18.822,0,37.638,0,56.459,0c0,18.813,0,37.635,0,56.458
	C37.638,56.458,18.822,56.458,0,56.458z M33.629,46.61c0.044,0.098,0.075,0.167,0.108,0.229c0.789,1.459,1.873,2.646,3.275,3.543
	c1.666,1.054,3.514,1.545,5.467,1.646c0.826,0.051,1.651,0.034,2.477-0.074c1.152-0.146,2.26-0.427,3.298-0.955
	c2.397-1.228,3.677-3.185,3.838-5.873c0.046-0.67,0-1.338-0.099-2.002c-0.133-0.855-0.398-1.66-0.84-2.414
	c-0.565-0.955-1.342-1.717-2.239-2.354c-0.998-0.717-2.095-1.271-3.211-1.775c-0.88-0.396-1.771-0.758-2.647-1.15
	c-0.551-0.248-1.088-0.523-1.57-0.883c-0.684-0.51-1.018-1.187-1.008-2.041c0.004-0.894,0.515-1.67,1.342-2.018
	c0.492-0.201,1.006-0.253,1.525-0.214c0.641,0.044,1.227,0.237,1.738,0.628c0.457,0.35,0.798,0.795,1.1,1.277
	c0.069,0.109,0.143,0.227,0.229,0.357c1.39-0.89,2.765-1.771,4.15-2.664c-0.271-0.47-0.551-0.893-0.862-1.301
	c-1.208-1.544-2.778-2.481-4.714-2.802c-1.064-0.181-2.137-0.216-3.215-0.091c-1.141,0.134-2.227,0.442-3.213,1.041
	c-2.168,1.304-3.262,3.24-3.338,5.76c-0.018,0.513,0.014,1.019,0.09,1.528c0.125,0.863,0.381,1.689,0.803,2.449
	c0.527,0.943,1.259,1.709,2.117,2.348c0.953,0.708,2.004,1.246,3.088,1.719c1.045,0.46,2.098,0.924,3.137,1.393
	c0.473,0.213,0.921,0.477,1.328,0.799c0.564,0.447,0.904,1.011,0.973,1.74c0.072,0.813-0.195,1.479-0.811,2.006
	c-0.438,0.377-0.949,0.604-1.508,0.725c-0.653,0.141-1.309,0.168-1.977,0.098c-1.061-0.115-2.006-0.49-2.829-1.173
	c-0.616-0.513-1.104-1.135-1.534-1.799c-0.041-0.069-0.087-0.129-0.14-0.209C36.508,44.942,35.081,45.773,33.629,46.61z
	 M14.873,47.174c0.031,0.078,0.051,0.143,0.08,0.203c0.132,0.242,0.259,0.496,0.402,0.729c0.781,1.272,1.811,2.283,3.143,2.972
	c1.021,0.534,2.107,0.826,3.255,0.924c1.282,0.109,2.556,0.047,3.805-0.278c1.118-0.294,2.127-0.795,2.978-1.585
	c0.986-0.912,1.58-2.055,1.914-3.338c0.246-0.94,0.324-1.896,0.324-2.864c0-5.894,0-11.804,0-17.697c0-0.05,0.004-0.096,0-0.137
	c-0.002-0.064-0.017-0.12-0.021-0.174c-1.771,0-3.531,0-5.318,0c0,0.128,0,0.236,0,0.345c0,5.805,0,11.609-0.005,17.413
	c0,0.263,0.005,0.522-0.008,0.786c-0.026,0.503-0.11,1.001-0.308,1.473c-0.238,0.545-0.618,0.948-1.183,1.141
	c-0.687,0.23-1.39,0.264-2.097,0.111c-0.708-0.16-1.251-0.578-1.674-1.15c-0.299-0.404-0.549-0.84-0.823-1.266
	c-0.043-0.07-0.083-0.139-0.138-0.224C17.747,45.438,16.315,46.304,14.873,47.174z"/>
<g>
	<path fill="#6D6E71" d="M161.959,18.637c-2.539-2.854-5.651-4.968-9.044-6.672c-9.408-4.74-19.521-6.605-29.938-6.843
		c-4.586-0.105-9.211,0.214-13.779,0.673c-6.403,0.637-12.602,2.239-18.525,4.803c-4.613,2.004-8.88,4.515-12.224,8.36
		c-2.001,2.302-3.392,4.909-3.691,8.005c-0.387,4.049,1.118,7.444,3.698,10.427c3.424,3.942,7.818,6.517,12.564,8.511
		c9.354,3.93,19.192,5.301,30.287,5.445c1.494-0.088,4.012-0.197,6.521-0.387c7.206-0.539,14.216-1.994,20.939-4.688
		c4.867-1.953,9.391-4.471,13.002-8.368C167.351,31.89,167.419,24.77,161.959,18.637z M102.575,34.901
		c-2.184,0.078-4.363,0.055-6.54,0.02c-0.704-0.016-1.029-0.812-1.14-0.01c-0.302,2.155-0.728,5.586-1.119,5.586
		c-1.797,0-3.582,0-5.467,0c0.349,0,0.683-2.779,1.037-4.601c1.219-6.349,2.457-12.241,3.647-18.597
		c0.128-0.658,0.353-0.624,1.015-0.618c3.424,0.043,6.852,0.099,10.275,0.181c1.104,0.026,2.236,0.306,3.287,0.642
		c2.848,0.918,4.521,3.278,4.568,6.282c0.043,2.761-0.697,5.296-2.398,7.507C107.929,33.665,105.483,34.792,102.575,34.901z
		 M129.823,35.497c-1.771,0-3.533,0-5.426,0c0.295-2,0.568-3.271,0.855-4.718c0.443-2.256,0.921-4.656,1.346-6.919
		c0.358-1.912-0.361-2.941-2.312-3.035c-1.646-0.079-3.294-0.053-5.029-0.053c-0.377,1.853-0.756,3.656-1.112,5.478
		c-0.522,2.648-1.02,5.299-1.563,7.948c-0.055,0.277-0.395,0.696-0.609,0.701c-1.613,0.064-3.229,1.152-4.974,1.152
		c1.634-8.273,3.251-19.556,4.873-23.556c1.819,0,3.58,0,5.442,0c-0.422,0-0.828,3.237-1.274,5.56c0.472,0,0.854-0.587,1.239-0.563
		c2.354,0.129,4.722-0.133,7.061,0.141c0.932,0.109,1.885,0.513,2.663,1.082c1.429,1.049,1.571,2.599,1.279,4.17
		c-0.714,3.916-1.534,8.073-2.318,11.973C129.942,34.974,129.884,33.497,129.823,35.497z M152.001,31.739
		c-1.773,2.075-4.078,3.028-6.721,3.155c-2.208,0.099-4.422,0.056-6.631,0.024c-0.699-0.015-1.037-0.826-1.146-0.03
		c-0.299,2.159-0.727,5.606-1.122,5.606c-1.825,0-3.586,0-5.464,0c0.273,0,0.533-1.99,0.805-3.416
		c1.297-6.738,2.607-13.016,3.877-19.768c0.121-0.654,0.338-0.637,1.01-0.629c3.427,0.041,6.854,0.07,10.275,0.179
		c1.28,0.041,2.615,0.385,3.807,0.854c2.516,0.989,3.885,3.009,4.033,5.695C154.896,26.497,154.051,29.336,152.001,31.739z"/>
	<path fill="#6D6E71" d="M146.228,20.941c-1.187-0.201-2.412-0.183-3.621-0.202c-2.086-0.026-2.104-0.007-2.519,2.032
		c-0.55,2.733-1.073,5.48-1.627,8.329c1.79,0,3.448,0.105,5.082-0.027c3.113-0.262,4.521-1.59,5.188-4.662
		c0.136-0.606,0.207-1.227,0.254-1.843C149.129,22.457,148.295,21.284,146.228,20.941z"/>
	<path fill="#6D6E71" d="M103.608,20.952c-1.746-0.236-3.535-0.167-5.307-0.195c-0.17-0.005-0.466,0.229-0.496,0.392
		c-0.662,3.285-1.289,6.58-1.921,9.85c1.91,0,3.771,0.07,5.619-0.021c2.349-0.115,3.74-1.518,4.394-3.684
		c0.236-0.798,0.362-1.637,0.474-2.465C106.665,22.641,105.763,21.249,103.608,20.952z"/>
</g>
<g>
	<path fill="#6D6E71" d="M183.551,3.693c0.603-1.483,1.921-1.998,3.296-2.369c2.979-0.801,6.045-1.208,9.109-1.54
		c3.74-0.416,7.49-0.637,11.252-0.522c5.471,0.164,10.904,0.662,16.242,1.944c0.941,0.226,1.843,0.561,2.697,1.027
		c0.668,0.363,1.004,0.904,0.996,1.671c-0.004,4.006,0.008,8.007,0,12.007c0,0.798-0.476,1.351-1.045,1.817
		c-1.021,0.835-2.229,1.307-3.463,1.698c-2.845,0.902-5.771,1.337-8.723,1.626c-3.334,0.332-6.678,0.474-10.02,0.399
		c-4.558-0.104-9.09-0.401-13.551-1.41c-1.5-0.334-2.969-0.766-4.354-1.449c-1.065-0.529-2.01-1.19-2.439-2.379
		C183.551,12.042,183.551,7.867,183.551,3.693z M204.117,6.061c4.747,0.007,9.188-0.131,13.612-0.617
		c1.898-0.214,3.799-0.469,5.64-1.026c0.462-0.14,0.919-0.301,1.321-0.576c0.539-0.375,0.533-0.779-0.025-1.128
		c-0.243-0.161-0.516-0.286-0.788-0.389c-0.866-0.344-1.778-0.541-2.692-0.705c-4.394-0.776-8.832-0.987-13.277-1.095
		c-3.293-0.088-6.585,0-9.876,0.181c-2.86,0.154-5.707,0.399-8.526,0.926c-1.148,0.219-2.307,0.44-3.343,1.025
		c-0.677,0.38-0.681,0.842-0.021,1.236c0.291,0.169,0.613,0.301,0.941,0.419c1.204,0.432,2.463,0.642,3.721,0.834
		C195.313,5.83,199.858,5.981,204.117,6.061z M186.321,11.696c0.396,0.003,0.671-0.288,0.66-0.694
		c-0.006-0.427-0.271-0.616-0.653-0.652c-0.347-0.036-0.712,0.349-0.679,0.699C185.692,11.437,185.919,11.667,186.321,11.696z"/>
	<path fill="#6D6E71" d="M183.551,39.504c0.204-0.447,0.386-0.914,0.808-1.228c0.138-0.104,0.229-0.153,0.396-0.032
		c1.755,1.285,3.813,1.825,5.883,2.279c3.562,0.791,7.184,1.107,10.823,1.27c3.378,0.154,6.761,0.119,10.131-0.117
		c3.89-0.278,7.757-0.715,11.481-1.969c1.05-0.354,2.064-0.787,2.937-1.488c0.187-0.146,0.31-0.146,0.489,0
		c0.365,0.298,0.602,0.664,0.625,1.144c0.016,0.445,0.021,0.896,0.021,1.343c0.006,3.482-0.03,6.971,0.022,10.453
		c0.017,1.275-0.597,2.077-1.574,2.702c-1.671,1.062-3.55,1.567-5.459,1.99c-3.388,0.754-6.836,1.087-10.304,1.252
		c-3.205,0.149-6.412,0.168-9.615-0.028c-4.188-0.254-8.35-0.673-12.367-1.969c-1.072-0.344-2.095-0.79-3.016-1.449
		c-0.591-0.425-0.973-0.99-1.282-1.634C183.551,47.85,183.551,43.676,183.551,39.504z M186.929,46.292
		c-0.336,0.041-0.582,0.24-0.596,0.658c-0.014,0.389,0.299,0.717,0.678,0.684c0.387-0.039,0.639-0.254,0.664-0.664
		C187.698,46.603,187.362,46.284,186.929,46.292z"/>
	<path fill="#6D6E71" d="M183.551,21.286c0.151-0.114,0.117-0.313,0.188-0.467c0.354-0.779,0.554-0.835,1.236-0.366
		c1.621,1.121,3.488,1.625,5.368,2.057c3.232,0.754,6.519,1.082,9.829,1.272c2.96,0.17,5.924,0.207,8.887,0.077
		c4.467-0.204,8.909-0.567,13.223-1.843c1.425-0.425,2.822-0.928,3.962-1.942c0.163-0.138,0.25-0.09,0.384,0.024
		c0.301,0.269,0.459,0.605,0.491,0.997c0.024,0.308,0.024,0.615,0.024,0.929c0.008,3.672-0.012,7.344,0.015,11.018
		c0.01,0.959-0.367,1.654-1.077,2.223c-1.092,0.865-2.359,1.355-3.667,1.749c-3.164,0.965-6.425,1.388-9.708,1.661
		c-3.872,0.332-7.748,0.404-11.629,0.201c-4.426-0.228-8.825-0.629-13.09-1.961c-0.774-0.244-1.525-0.547-2.24-0.932
		c-0.977-0.523-1.824-1.17-2.196-2.273C183.551,29.57,183.551,25.427,183.551,21.286z M187.675,29.524
		c0.01-0.432-0.316-0.775-0.683-0.751c-0.396,0.028-0.636,0.245-0.659,0.653c-0.021,0.388,0.287,0.699,0.676,0.686
		C187.415,30.094,187.629,29.86,187.675,29.524z"/>
	<path fill="#6D6E71" d="M251.349,35.061c0-2.848,0-5.693,0-8.537c0-1.438,0.141-2.848,0.598-4.227
		c0.929-2.782,2.869-4.43,5.71-5.028c1.602-0.34,3.22-0.349,4.829-0.039c3.449,0.671,5.604,2.853,6.255,6.304
		c0.19,0.989,0.278,1.979,0.278,2.982c0,5.754,0.008,11.518-0.01,17.271c-0.01,2.057-0.326,4.055-1.326,5.892
		c-0.189,0.354-0.676,0.681-0.535,1.036c0.125,0.297,0.621,0.447,0.957,0.664c0.566,0.363,1.125,0.727,1.703,1.07
		c0.229,0.135,0.256,0.252,0.115,0.482c-0.689,1.193-1.372,2.391-2.035,3.594c-0.175,0.318-0.316,0.305-0.591,0.124
		c-1.649-1.099-3.312-2.177-4.966-3.272c-0.26-0.176-0.496-0.215-0.814-0.16c-2.926,0.52-5.601,0.019-7.785-2.137
		c-1.313-1.297-1.887-2.972-2.184-4.756c-0.148-0.92-0.204-1.849-0.199-2.775C251.351,40.717,251.349,37.887,251.349,35.061z
		 M258.45,35.122c0,2.83,0.003,5.656,0,8.479c-0.002,0.727,0.063,1.451,0.273,2.145c0.236,0.766,0.729,1.123,1.483,1.104
		c0.729-0.015,1.165-0.388,1.353-1.177c0.133-0.59,0.228-1.186,0.228-1.791c0.004-5.912,0.004-11.822,0-17.734
		c0-0.536-0.095-1.06-0.276-1.565c-0.24-0.646-0.636-0.952-1.313-0.972c-0.615-0.014-1.099,0.24-1.382,0.815
		c-0.293,0.608-0.364,1.251-0.364,1.907C258.453,29.262,258.45,32.2,258.45,35.122z"/>
	<path fill="#6D6E71" d="M245.62,27.604c-1.049,0-2.105-0.017-3.154,0.012c-0.396,0.009-0.494-0.115-0.486-0.493
		c0.016-0.688-0.02-1.376-0.045-2.066c-0.033-0.89-0.556-1.417-1.422-1.452c-0.939-0.041-1.605,0.486-1.697,1.368
		c-0.11,1.021,0.26,1.9,0.854,2.696c0.88,1.185,2.036,2.099,3.077,3.128c1.296,1.287,2.659,2.502,3.874,3.873
		c1.898,2.152,2.818,4.656,2.857,7.51c0.027,2.146-0.125,4.27-0.819,6.322c-0.935,2.754-2.787,4.402-5.708,4.793
		c-1.939,0.264-3.854,0.162-5.732-0.385c-2.712-0.791-4.173-2.717-4.813-5.373c-0.266-1.127-0.412-2.271-0.43-3.428
		c-0.014-1.313,0.008-2.619-0.019-3.934c-0.007-0.372,0.112-0.461,0.467-0.457c2.054,0.011,4.104,0.011,6.157,0
		c0.329,0,0.439,0.085,0.436,0.43c-0.02,1.434-0.008,2.867-0.006,4.296c0,0.538,0.076,1.062,0.317,1.562
		c0.321,0.65,0.88,0.92,1.671,0.834c0.714-0.086,1.137-0.418,1.259-1.158c0.384-2.346,0.08-4.57-1.604-6.371
		c-1.676-1.79-3.436-3.495-5.168-5.223c-1.803-1.797-3.146-3.855-3.438-6.437c-0.25-2.237-0.053-4.444,0.901-6.522
		c1.057-2.28,2.895-3.554,5.333-3.952c1.877-0.299,3.746-0.202,5.58,0.327c2.257,0.651,3.75,2.116,4.545,4.303
		c0.64,1.753,0.844,3.579,0.863,5.433c0.008,0.318-0.121,0.367-0.391,0.364c-1.084-0.01-2.174-0.008-3.263-0.008
		C245.62,27.601,245.62,27.601,245.62,27.604z"/>
	<path fill="#6D6E71" d="M272.421,35.188c0-5.742,0.007-11.485-0.016-17.231c-0.004-0.521,0.15-0.618,0.633-0.611
		c1.982,0.027,3.969,0.034,5.951,0c0.523-0.01,0.604,0.149,0.603,0.631c-0.014,9.436-0.014,18.871-0.01,28.303
		c0,0.889-0.087,0.74,0.733,0.747c2.035,0.007,4.068,0.011,6.103-0.003c0.386-0.007,0.542,0.068,0.533,0.496
		c-0.023,1.691-0.023,3.387,0,5.072c0.005,0.429-0.136,0.507-0.528,0.507c-4.482-0.017-8.964-0.017-13.451,0.005
		c-0.471,0.002-0.568-0.139-0.564-0.581c0.015-5.778,0.007-11.556,0.007-17.334C272.416,35.188,272.418,35.188,272.421,35.188z"/>
</g>
<g>
	<g>
		<g>
			<path fill="#6D6E71" d="M339.354-5.124c2.323,0,4.64,0,6.957,0c0.086,0.263,0.322,0.215,0.519,0.246
				c0.797,0.139,1.595,0.242,2.387,0.411c12.879,2.723,22.637,13.236,24.422,26.286c0.03,0.23-0.053,0.516,0.261,0.64
				c0,2.322,0,4.638,0,6.959c-0.265,0.084-0.217,0.317-0.25,0.516c-0.139,0.813-0.246,1.636-0.422,2.447
				c-2.82,12.947-13.235,22.584-26.333,24.369c-0.217,0.028-0.479-0.035-0.581,0.25c-2.318,0-4.635,0-6.957,0
				c-0.086-0.263-0.322-0.211-0.516-0.246c-0.813-0.141-1.636-0.25-2.447-0.426c-12.946-2.82-22.578-13.234-24.368-26.334
				c-0.027-0.213,0.036-0.471-0.256-0.576c0-2.321,0-4.637,0-6.959c0.265-0.086,0.222-0.321,0.25-0.515
				c0.137-0.796,0.244-1.6,0.409-2.388c2.727-12.878,13.232-22.638,26.285-24.423C338.945-4.896,339.235-4.816,339.354-5.124z
				 M361.438,5.272c-0.065-0.292-0.267-0.385-0.421-0.513c-4.747-4.031-10.218-6.358-16.445-6.66
				c-10.025-0.486-18.085,3.372-24.219,11.299c-0.255,0.332-0.768,0.725-0.593,1.068c0.178,0.348,0.793,0.158,1.224,0.158
				c2.504,0,5.009-0.169,7.506-0.332c0.929-0.064,1.403,0.311,1.448,1.051c0.038,0.748-0.381,1.172-1.289,1.27
				c-0.679,0.07-1.358,0.119-2.041,0.167c-0.831,0.058-0.861,0.099-0.604,0.873c3.191,9.502,6.385,18.995,9.576,28.486
				c0.074,0.207,0.088,0.453,0.306,0.591c0.227-0.104,0.232-0.333,0.294-0.521c1.886-5.631,3.761-11.268,5.646-16.899
				c0.124-0.377,0.12-0.713-0.015-1.082c-1.322-3.594-2.643-7.19-3.938-10.792c-0.153-0.438-0.393-0.621-0.846-0.651
				c-0.805-0.051-1.61-0.117-2.41-0.238c-0.634-0.094-0.98-0.58-0.928-1.186c0.053-0.638,0.488-1.056,1.14-1.075
				c0.313-0.009,0.625,0.021,0.933,0.041c2.994,0.192,5.99,0.421,8.998,0.228c1.61-0.099,3.222-0.196,4.836-0.269
				c0.786-0.035,1.248,0.354,1.313,1.017c0.063,0.692-0.338,1.179-1.128,1.282c-0.699,0.092-1.401,0.143-2.104,0.187
				c-0.949,0.063-0.979,0.095-0.686,0.976c3.171,9.419,6.34,18.836,9.506,28.252c0.063,0.188,0.071,0.41,0.308,0.56
				c0.054-0.112,0.12-0.214,0.154-0.324c1.374-4.577,2.764-9.153,4.105-13.746c0.593-2.021,0.8-4.086,0.437-6.195
				c-0.411-2.382-1.479-4.465-2.74-6.478c-0.662-1.054-1.299-2.121-1.71-3.302c-0.405-1.157-0.584-2.338-0.231-3.538
				C357.48,6.693,359.009,5.448,361.438,5.272z M343.343,28.506c-0.142,0.331-0.216,0.476-0.269,0.627
				c-2.633,7.648-5.265,15.298-7.913,22.943c-0.188,0.545-0.03,0.711,0.478,0.846c5.309,1.379,10.567,1.238,15.795-0.408
				c0.479-0.151,0.589-0.326,0.404-0.831c-2.646-7.206-5.272-14.421-7.904-21.628C343.762,29.592,343.587,29.138,343.343,28.506z
				 M317.396,14.801c-0.054,0.005-0.105,0.014-0.158,0.019c-0.09,0.207-0.186,0.411-0.273,0.618
				c-1.931,4.797-2.563,9.766-1.692,14.861c1.562,9.137,6.502,15.906,14.614,20.371c0.165,0.088,0.363,0.312,0.547,0.135
				c0.146-0.135-0.039-0.344-0.08-0.52c-0.019-0.076-0.056-0.152-0.08-0.231c-4.047-11.073-8.085-22.157-12.135-33.233
				C317.89,16.146,317.646,15.472,317.396,14.801z M367.646,13.091c-0.054,0.011-0.107,0.02-0.163,0.026
				c-0.015,0.041-0.039,0.081-0.039,0.118c0,0.124,0,0.249,0.007,0.372c0.331,3.596-0.34,7.042-1.51,10.421
				c-2.921,8.377-5.833,16.764-8.744,25.146c-0.067,0.201-0.217,0.402-0.064,0.746c6.033-3.727,10.226-8.877,12.331-15.623
				C371.742,26.991,371.035,19.907,367.646,13.091z"/>
		</g>
		<g>
			<g>
				<g>
					<path fill="#6D6E71" d="M430.451-5.691c3.625,0,7.256,0,11.056,0c-0.714,1.251-1.364,2.408-2.03,3.558
						c-8.169,14.114-16.335,28.227-24.505,42.346c-0.812,1.393-0.819,1.402-1.62,0.019c-8.711-15.052-17.417-30.105-26.119-45.16
						c-0.13-0.218-0.351-0.404-0.271-0.757c3.614,0,7.238,0,10.859,0c0.067,0.148,0.135,0.298,0.216,0.438
						c4.523,7.828,9.048,15.652,13.577,23.481c0.814,1.401,1.638,2.81,2.446,4.201c0.387-0.137,0.44-0.42,0.563-0.634
						c4.058-6.996,8.122-13.994,12.162-21.002C428.02-1.357,429.361-3.453,430.451-5.691z"/>
					<path fill="#6D6E71" d="M414.155,42.215c-0.758,0-1.107-0.598-1.633-1.506c-8.71-15.052-17.42-30.104-26.118-45.16
						c-0.202-0.29-0.524-0.749-0.385-1.434l0.158-0.758h12.23l0.455,0.921l15.291,26.419l1.481-2.554
						c3.439-5.939,6.89-11.878,10.314-17.826c0.357-0.618,0.722-1.236,1.087-1.852c0.88-1.484,1.792-3.021,2.553-4.579l0.264-0.539
						h13.303l-1.562,2.738c-0.44,0.772-0.858,1.518-1.291,2.26l-24.505,42.341C415.266,41.61,414.911,42.215,414.155,42.215z
						 M388.451-4.729c8.57,14.82,17.137,29.631,25.704,44.437l24.494-42.319c0.403-0.7,0.802-1.399,1.213-2.123h-8.818
						c-0.73,1.441-1.559,2.833-2.356,4.18c-0.361,0.609-0.721,1.217-1.073,1.833c-3.434,5.949-6.875,11.887-10.321,17.828
						l-1.841,3.178c-0.151,0.313-0.396,0.814-1.07,1.055l-0.751,0.268L397.229-4.729H388.451z"/>
				</g>
				<path fill="#6D6E71" d="M413.63,23.604L397.206-4.768c-0.069-0.122-0.127-0.238-0.185-0.358l-0.637-1.358l1.428-0.157
					l2.798-0.012c2.211-0.007,4.417-0.012,6.629-0.041c1.131,0,1.576,0.772,1.793,1.147l5.119,8.851
					c1.728-2.96,3.447-5.928,5.154-8.899c0.271-0.473,0.752-1.099,1.801-1.099c2.354,0.026,4.685,0.03,7.015,0.037l3.856,0.012
					l-0.668,1.372c-0.793,1.632-1.724,3.203-2.624,4.718c-0.36,0.609-0.725,1.217-1.072,1.833
					c-3.438,5.951-6.885,11.903-10.33,17.847l-1.832,3.158c-0.151,0.313-0.396,0.814-1.07,1.055L413.63,23.604z M399.438-4.733
					l14.719,25.432l1.469-2.536c3.448-5.944,6.897-11.888,10.328-17.843c0.357-0.618,0.722-1.236,1.087-1.852
					c0.62-1.044,1.254-2.119,1.845-3.207l-0.768-0.002c-2.334-0.007-4.671-0.011-7.006-0.038l-0.144,0.134
					c-1.794,3.127-3.6,6.244-5.42,9.354c-0.209,0.447-0.473,1.027-1.213,1.251l-0.729,0.225l-6.232-10.777
					c-0.027-0.046-0.11-0.189-0.147-0.229c-2.181,0.07-4.393,0.077-6.604,0.082L399.438-4.733z"/>
			</g>
			<g>
				<path fill="#6D6E71" d="M398.995,59.172c-0.498-0.004-0.882-0.303-1.029-0.838c-0.641-2.306-1.422-4.562-2.077-6.858
					c-0.437-1.535-0.972-3.042-1.402-4.577c-0.131-0.455-0.011-0.689,0.449-0.841c0.504-0.161,0.849-0.026,0.978,0.401
					c0.335,1.143,0.646,2.301,0.992,3.444c0.515,1.714,1.067,3.414,1.566,5.132c0.134,0.459,0.25,0.928,0.394,1.387
					c0.037,0.105,0.022,0.256,0.194,0.236c0.113-0.016,0.122-0.133,0.149-0.228c0.324-1.151,0.644-2.3,0.983-3.449
					c0.52-1.76,1.065-3.515,1.595-5.278c0.117-0.4,0.189-0.806,0.347-1.193c0.188-0.473,0.39-0.604,0.862-0.477
					c0.515,0.139,0.7,0.426,0.558,0.924c-0.184,0.637-0.4,1.265-0.597,1.898c-0.621,2.027-1.216,4.066-1.856,6.089
					c-0.365,1.136-0.722,2.267-1.053,3.414C399.892,58.893,399.506,59.178,398.995,59.172z"/>
				<path fill="#6D6E71" d="M417.003,55.226c-0.669,0-1.338,0.005-2.006-0.005c-0.278-0.006-0.375,0.095-0.384,0.377
					c-0.035,1.14,0.605,1.939,1.709,2.246c0.906,0.254,1.69,0.064,2.466-0.391c0.447-0.267,0.831-0.216,1.016,0.1
					c0.206,0.355,0.102,0.666-0.334,0.963c-1.711,1.167-4.466,0.807-5.702-0.768c-0.375-0.479-0.61-1.024-0.615-1.642
					c-0.01-0.858-0.029-1.709-0.002-2.562c0.033-1.086,0.617-1.885,1.49-2.455c1.642-1.076,4.008-0.7,4.99,1.005
					c0.464,0.8,0.72,1.649,0.287,2.56c-0.172,0.372-0.471,0.553-0.861,0.557c-0.685,0.015-1.372,0.004-2.054,0.004
					C417.003,55.215,417.003,55.221,417.003,55.226z M416.479,54.272v-0.004c0.453,0,0.9,0.009,1.35-0.003
					c0.848-0.027,1.029-0.274,0.825-1.103c-0.27-1.104-1.33-1.695-2.578-1.445c-0.944,0.188-1.64,1.262-1.489,2.281
					c0.042,0.262,0.195,0.272,0.389,0.272C415.475,54.272,415.978,54.272,416.479,54.272z"/>
				<path fill="#6D6E71" d="M411.38,53.64c0,0.717,0,1.438,0,2.159c-0.009,1.47-1.023,2.666-2.364,3.186
					c-1.648,0.643-3.587-0.216-4.399-1.768c-0.226-0.432-0.353-0.934-0.358-1.44c0-1.47,0-2.94,0-4.411
					c0-0.537,0.266-0.74,0.915-0.734c0.34,0.002,0.625,0.336,0.627,0.748c0.007,1.509-0.024,3.011,0.015,4.514
					c0.046,1.492,1.634,2.441,2.908,1.751c0.764-0.413,1.187-1.08,1.18-1.987c-0.01-1.404-0.002-2.806-0.002-4.209
					c0-0.72,0.478-1.051,1.149-0.781c0.268,0.109,0.336,0.348,0.331,0.617C411.371,52.069,411.38,52.855,411.38,53.64z"/>
				<path fill="#6D6E71" d="M430.983,59.178c-0.87-0.025-1.709-0.193-2.458-0.684c-0.229-0.156-0.414-0.332-0.414-0.637
					c0-0.246,0.056-0.441,0.292-0.59c0.229-0.154,0.391-0.03,0.538,0.082c0.741,0.554,1.565,0.752,2.482,0.65
					c0.852-0.102,1.33-0.635,1.197-1.383c-0.092-0.502-0.45-0.781-0.878-0.945c-0.646-0.25-1.313-0.452-1.964-0.686
					c-0.924-0.322-1.468-1.02-1.496-1.896c-0.03-1.071,0.442-1.864,1.376-2.266c1.264-0.541,2.5-0.41,3.72,0.152
					c0.412,0.191,0.384,0.521,0.251,0.839c-0.134,0.319-0.396,0.438-0.737,0.269c-0.593-0.299-1.218-0.449-1.882-0.399
					c-0.302,0.017-0.582,0.078-0.841,0.26c-0.407,0.292-0.606,0.65-0.523,1.149c0.07,0.466,0.428,0.66,0.802,0.797
					c0.667,0.248,1.347,0.449,2.02,0.682c1.654,0.568,1.921,2.6,1.083,3.645c-0.511,0.637-1.255,0.83-2.021,0.953
					C431.358,59.206,431.165,59.178,430.983,59.178z"/>
				<path fill="#6D6E71" d="M426.496,55.792c-0.046,1.488,0.104,3.268-0.131,5.027c-0.183,1.41-1.107,2.371-2.373,2.32
					c-0.397-0.014-0.735-0.119-0.779-0.592c-0.039-0.387,0.232-0.69,0.703-0.725c0.55-0.047,0.818-0.351,0.938-0.854
					c0.115-0.475,0.117-0.956,0.117-1.438c0.003-2.726,0.005-5.451-0.002-8.172c-0.003-0.398,0.078-0.689,0.533-0.725
					c0.698-0.055,0.887,0.059,0.962,0.619c0.039,0.283,0.03,0.564,0.03,0.854C426.499,53.243,426.496,54.381,426.496,55.792z"/>
				<path fill="#6D6E71" d="M423.218,58.217c-0.005,0.615-0.423,0.89-0.894,0.943c-0.411,0.045-0.949-0.502-0.966-0.916
					c-0.021-0.47,0.46-0.934,0.966-0.938C422.868,57.299,423.218,57.659,423.218,58.217z"/>
			</g>
		</g>
		<g>
			<path fill="#6D6E71" d="M471.124-5.639c1.26-0.067,1.836,0.338,2.272,1.078c4.18,7.177,8.385,14.338,12.563,21.515
				c1.107,1.899,1.072,1.909,3.178,1.397c4.839-1.188,9.684-2.386,14.537-3.531c0.896-0.214,0.939-0.451,0.407-1.15
				c-1.73-2.279-3.412-4.598-5.11-6.899c-0.819-1.113-0.727-1.39,0.604-1.624c2.665-0.479,5.342-0.919,8-1.423
				c0.754-0.143,1.306,0.096,1.753,0.625c2.298,2.71,4.606,5.426,6.868,8.168c0.669,0.813,0.521,1.179-0.516,1.457
				c-2.198,0.592-4.406,1.165-6.627,1.691c-0.867,0.204-0.965,0.444-0.405,1.167c2.11,2.724,4.173,5.488,6.232,8.246
				c0.968,1.292,0.873,1.583-0.625,2.127c-6.22,2.25-12.435,4.512-18.659,6.752c-2.04,0.731-2.417,0.619-3.479-1.226
				c-1.849-3.222-3.688-6.449-5.443-9.722c-0.552-1.027-1.101-1.318-2.266-0.989c-3.609,1.013-7.256,1.904-10.896,2.824
				c-1.699,0.431-2.266,0.176-2.955-1.362c-3.905-8.725-7.808-17.449-11.696-26.184c-0.767-1.715-0.66-1.886,1.198-2.042
				C463.88-5.061,467.698-5.359,471.124-5.639z M470.555-3.998c-2.781,0.248-5.438,0.522-8.097,0.702
				c-0.995,0.065-1.094,0.362-0.683,1.201c1.461,2.982,2.884,5.984,4.308,8.984c2.247,4.751,4.487,9.508,6.717,14.263
				c0.234,0.488,0.452,0.899,1.104,0.748c3.353-0.777,6.7-1.559,10.055-2.313c0.582-0.13,0.563-0.352,0.317-0.789
				c-4.156-7.365-8.31-14.734-12.439-22.111C471.494-3.923,471.085-4.159,470.555-3.998z M505.806,16.533
				c-0.155,0.024-0.233,0.024-0.311,0.049c-5.484,1.414-10.974,2.837-16.458,4.249c-0.586,0.147-0.601,0.397-0.313,0.886
				c1.764,2.953,3.504,5.921,5.239,8.893c0.284,0.489,0.578,0.594,1.128,0.404c5.51-1.895,11.021-3.771,16.548-5.607
				c0.815-0.272,0.725-0.537,0.294-1.104c-1.816-2.405-3.604-4.832-5.386-7.267C506.323,16.733,506.145,16.475,505.806,16.533z
				 M507.251,13.958c1.87-0.471,4.049-0.996,6.211-1.571c0.526-0.138,0.211-0.464,0.027-0.694c-1.554-1.878-3.115-3.738-4.65-5.631
				c-0.396-0.488-0.851-0.597-1.43-0.492c-1.899,0.332-3.8,0.657-5.702,0.977c-0.844,0.138-0.421,0.512-0.168,0.849
				c1.525,2.025,3.051,4.049,4.574,6.078C506.323,13.748,506.521,14.05,507.251,13.958z"/>
			<path fill="#6D6E71" d="M479.288,53c0,0.697-0.014,1.394,0,2.092c0.014,0.518-0.131,1.121,0.683,1.234
				c0.353,0.047,0.319,0.393,0.292,0.658c-0.031,0.322-0.256,0.465-0.554,0.489c-0.552,0.053-1.172,0.088-1.476-0.437
				c-0.416-0.732-0.783-0.438-1.272-0.139c-0.777,0.484-1.646,0.666-2.558,0.577c-1.252-0.124-2.206-1.007-2.391-2.172
				c-0.209-1.367,0.404-2.456,1.702-2.947c0.949-0.362,1.97-0.362,2.96-0.524c0.547-0.086,1.102-0.16,1.13-0.899
				c0.03-0.714-0.272-1.163-0.962-1.388c-1.28-0.424-2.204-0.121-2.882,1.094c-0.326,0.588-0.802,0.418-1.201,0.33
				c-0.523-0.11-0.248-0.559-0.18-0.861c0.161-0.684,0.584-1.165,1.225-1.454c1.418-0.655,2.851-0.614,4.278-0.032
				c0.805,0.332,1.175,0.98,1.19,1.83c0.022,0.85,0.009,1.699,0.009,2.549C479.283,53,479.283,53,479.288,53z M477.797,53.771
				c-0.28-0.181,0.37-0.948-0.359-0.884c-1.025,0.087-2.099,0.128-3.058,0.593c-0.68,0.333-0.912,0.933-0.783,1.653
				c0.11,0.644,0.56,1,1.18,1.127C476.313,56.573,477.753,55.433,477.797,53.771z"/>
			<path fill="#6D6E71" d="M494.095,53.006c0,0.701-0.007,1.396,0.004,2.096c0.011,0.518-0.135,1.119,0.684,1.225
				c0.354,0.049,0.294,0.402,0.28,0.664c-0.017,0.273-0.202,0.426-0.445,0.459c-0.545,0.084-1.195,0.166-1.498-0.347
				c-0.434-0.729-0.807-0.554-1.358-0.194c-0.736,0.461-1.576,0.643-2.443,0.578c-1.316-0.102-2.325-0.988-2.488-2.195
				c-0.193-1.402,0.401-2.437,1.716-2.938c0.949-0.363,1.97-0.363,2.957-0.52c0.557-0.088,1.092-0.176,1.131-0.908
				c0.039-0.729-0.301-1.159-0.98-1.385c-1.282-0.424-2.258-0.112-2.896,1.086c-0.326,0.606-0.798,0.42-1.188,0.342
				c-0.511-0.109-0.257-0.563-0.18-0.869c0.178-0.725,0.657-1.207,1.332-1.506c0.834-0.375,1.716-0.469,2.613-0.383
				c2.093,0.201,2.762,0.943,2.762,3.054C494.097,51.846,494.095,52.429,494.095,53.006z M492.619,53.752
				c-0.179-0.244,0.331-0.953-0.402-0.877c-0.984,0.104-2.001,0.156-2.938,0.543c-0.696,0.291-0.956,0.859-0.886,1.592
				c0.067,0.707,0.501,1.103,1.165,1.244C491.121,56.592,492.585,55.417,492.619,53.752z"/>
			<path fill="#6D6E71" d="M509.021,53.329c-0.771,0-1.545,0.019-2.316-0.004c-0.647-0.023-0.8,0.27-0.68,0.86
				c0.216,1.021,0.66,1.849,1.769,2.05c1.078,0.204,1.992-0.104,2.59-1.097c0.076-0.128,0.126-0.284,0.211-0.411
				c0.341-0.491,0.891-0.379,1.263-0.229c0.569,0.242,0.097,0.672-0.047,0.959c-0.941,1.858-3.382,2.607-5.301,1.646
				c-1.653-0.827-2.458-2.663-2.174-4.965c0.246-2.013,1.416-3.427,3.166-3.843c2.732-0.644,5.28,1.779,4.814,4.535
				c-0.093,0.521-0.395,0.492-0.74,0.492C510.723,53.329,509.875,53.329,509.021,53.329z M508.365,52.125
				c0.538,0,1.078-0.029,1.613,0.008c0.634,0.033,0.8-0.188,0.637-0.813c-0.278-1.085-0.859-1.792-2.017-1.907
				c-1.084-0.104-2.025,0.51-2.426,1.569c-0.29,0.771-0.21,1.271,0.81,1.151C507.438,52.083,507.901,52.125,508.365,52.125z"/>
			<path fill="#6D6E71" d="M499.664,55.109c0.625-1.856,1.252-3.709,1.887-5.563c0.098-0.289,0.16-0.621,0.342-0.854
				c0.368-0.483,0.964-0.349,1.382-0.188c0.486,0.186,0.051,0.607-0.051,0.879c-0.842,2.32-1.734,4.627-2.583,6.947
				c-0.212,0.594-0.43,0.969-1.191,0.957c-0.728-0.017-0.9-0.385-1.102-0.925c-0.814-2.291-1.675-4.563-2.475-6.858
				c-0.11-0.308-0.681-0.836,0.007-1.021c0.562-0.156,1.298-0.313,1.576,0.645c0.462,1.592,1.004,3.166,1.521,4.74
				c0.134,0.4,0.282,0.797,0.428,1.193C499.489,55.075,499.577,55.092,499.664,55.109z"/>
			<path fill="#6D6E71" d="M515.578,51.228c0,1.746-0.021,3.487,0.014,5.229c0.009,0.598-0.159,0.817-0.784,0.812
				c-0.605-0.005-0.795-0.2-0.79-0.808c0.025-3.487,0.023-6.971,0.004-10.459c-0.004-0.592,0.166-0.822,0.782-0.83
				c0.627-0.004,0.797,0.232,0.783,0.826C515.563,47.743,515.578,49.482,515.578,51.228z"/>
			<path fill="#6D6E71" d="M470.244,51.168c0,1.746-0.009,3.482,0.01,5.225c0.007,0.52-0.005,0.876-0.706,0.876
				c-0.673,0-0.843-0.229-0.838-0.871c0.027-3.446,0.025-6.89,0.002-10.331c-0.007-0.625,0.144-0.902,0.832-0.896
				c0.696,0.01,0.714,0.377,0.71,0.896C470.235,47.768,470.244,49.467,470.244,51.168z"/>
			<path fill="#6D6E71" d="M481.715,52.864c0-1.199-0.01-2.398,0.004-3.594c0.003-0.326-0.135-0.775,0.39-0.814
				c0.35-0.025,0.848-0.229,1.009,0.269c0.202,0.63,0.448,0.336,0.724,0.112c0.399-0.316,0.829-0.567,1.347-0.625
				c0.409-0.043,0.812-0.053,0.778,0.545c-0.021,0.4,0.11,0.795-0.563,0.904c-1.652,0.276-2.194,0.998-2.217,2.688
				c-0.011,1.116,0.076,2.247-0.033,3.356c-0.054,0.528,0.623,1.506-0.669,1.547c-1.32,0.041-0.691-0.957-0.741-1.494
				C481.646,54.803,481.715,53.829,481.715,52.864z"/>
		</g>
	</g>
	<g>
		<path fill="#6D6E71" d="M594.871,54.163c0.007-8.142,0-16.281,0.039-24.422c0.005-0.847-0.555-2.067,1.126-2.192
			c1.441-0.113,2.419,0.161,2.39,1.86c0,0.166,0.146,0.329,0.268,0.586c1.407-1.657,3.143-2.56,5.289-2.696
			c3.905-0.245,6.859,1.778,7.922,5.522c0.61,2.178,0.662,4.409,0.231,6.598c-1.048,5.355-5.687,8.414-11.539,7.519
			c-1.604-0.239-1.969,0.046-1.965,1.649c0,1.853,0.568,3.793-0.427,5.576C597.093,54.163,595.983,54.163,594.871,54.163z
			 M598.688,38.704c0,1.408,0.013,2.575-0.005,3.748c-0.007,0.598,0.081,1.039,0.757,1.289c3.764,1.389,7.91-0.734,8.727-4.516
			c0.357-1.65,0.341-3.318-0.022-4.961c-0.549-2.521-2.108-3.813-4.504-3.801c-2.397,0.019-4.188,1.486-4.747,3.861
			C598.536,35.856,598.764,37.401,598.688,38.704z"/>
		<path fill="#6D6E71" d="M628.218,54.163c0.009-2.029-0.061-4.068,0.056-6.101c0.072-1.272-0.404-1.444-1.484-1.224
			c-2.033,0.424-4.064,0.217-6.045-0.323c-3.407-0.929-5.549-3.513-5.896-7.021c-0.775-7.803,3.707-12.518,11.554-12.164
			c5.605,0.258,5.605,0.258,5.605,5.859c0,6.301,0,12.594,0,18.896c0,0.722,0.132,1.479-0.454,2.074
			C630.439,54.163,629.329,54.163,628.218,54.163z M628.245,37.042c0-1.785-0.005-3.565,0.002-5.354
			c0.002-0.583,0.002-1.148-0.785-1.189c-1.776-0.097-3.563-0.313-5.258,0.516c-2.823,1.371-4.26,5.279-3.271,8.982
			c0.762,2.863,3.113,4.274,6.61,3.955c0.427-0.039,0.854-0.146,1.282-0.148c1.08-0.008,1.498-0.473,1.441-1.596
			C628.181,40.489,628.247,38.765,628.245,37.042z"/>
		<path fill="#6D6E71" d="M556.706,21.93c0.956,0.959,1.892,1.938,2.877,2.861c0.807,0.764,0.766,1.407-0.012,2.182
			c-3.762,3.729-7.483,7.5-11.256,11.218c-1.112,1.095-9.061,0.795-10.212-0.28c-2.101-1.967-3.925-4.219-6.225-5.979
			c0-0.492,0-0.988,0-1.479c1.204-0.455,1.848-1.555,2.687-2.396c0.895-0.902,1.552-0.953,2.442-0.015
			c1.782,1.873,3.648,3.666,5.476,5.5c0.445,0.444,0.795,0.914,1.478,0.215c3.86-3.963,7.753-7.889,11.634-11.825
			C555.967,21.93,556.339,21.93,556.706,21.93z"/>
		<path fill="#6D6E71" d="M697.874,46.754c-1.592,0.06-3.159,0.488-4.779,0.187c-3.04-0.565-4.418-2.056-4.467-5.144
			c-0.051-3.084-0.065-6.166,0.012-9.246c0.032-1.256-0.122-2.02-1.646-1.772c-0.411,0.068-1.07,0.313-1.305-0.276
			c-0.22-0.561,0.374-0.858,0.688-1.198c1.856-2.026,3.738-4.027,5.969-6.431c0,1.585,0.057,2.665-0.018,3.733
			c-0.063,0.948,0.213,1.37,1.222,1.263c0.733-0.075,1.48,0.021,2.221-0.022c1.011-0.06,1.758-0.023,1.753,1.384
			c0,1.369-0.557,1.613-1.768,1.602c-3.41-0.035-3.414,0.017-3.41,3.459c0.005,2.156-0.05,4.316,0.037,6.473
			c0.117,2.842,1.089,3.669,3.852,3.219c0.759-0.124,1.225-0.029,1.639,0.553C697.874,45.272,697.874,46.012,697.874,46.754z"/>
		<path fill="#6D6E71" d="M668.383,39.198c0,1.904-0.032,3.823,0.02,5.729c0.019,0.82-0.215,1.265-1.06,1.402
			c-2.928,0.479-5.839,0.951-8.823,0.459c-3.205-0.521-5.058-2.256-5.379-5.174c-0.309-2.773,1.286-5.236,4.137-6.287
			c1.94-0.717,3.98-0.924,6.013-0.629c1.289,0.186,1.452-0.279,1.328-1.384c-0.195-1.653-1.112-2.567-2.677-2.853
			c-1.785-0.318-3.577-0.23-5.313,0.283c-1.155,0.342-1.564-0.187-1.743-1.197c-0.173-0.947-0.159-1.589,1.099-1.803
			c2.392-0.409,4.754-0.71,7.167-0.274c3.153,0.57,4.931,2.421,5.128,5.619c0.127,2.027,0.022,4.07,0.022,6.106
			C668.326,39.198,668.355,39.198,668.383,39.198z M664.67,40.788c0-3.4,0-3.422-3.416-3.275c-0.727,0.031-1.474,0.158-2.169,0.386
			c-1.563,0.498-2.22,1.663-2.128,3.267c0.097,1.686,1.041,2.551,3.056,2.838C663.827,44.542,664.67,43.954,664.67,40.788z"/>
		<path fill="#6D6E71" d="M574.378,37.23c-0.019-6.864,4.202-10.683,10.822-9.788c4.61,0.616,7.487,4.495,7.392,9.961
			c-0.122,6.891-4.88,10.77-11.521,9.387C576.818,45.907,574.394,42.444,574.378,37.23z M588.557,37.208
			c0.096-1.25-0.104-2.465-0.498-3.635c-0.746-2.201-2.266-3.261-4.594-3.27c-2.356-0.008-3.807,0.99-4.559,3.265
			c-0.792,2.41-0.792,4.853,0.005,7.257c0.754,2.274,2.24,3.311,4.545,3.309c2.266,0,3.828-1.104,4.589-3.299
			C588.449,39.668,588.646,38.454,588.557,37.208z"/>
		<path fill="#6D6E71" d="M650.785,36.89c0,2.526-0.063,5.06,0.024,7.583c0.039,1.115-0.281,1.665-1.403,1.869
			c-2.798,0.506-5.581,0.873-8.443,0.465c-3.468-0.494-5.588-2.403-6.124-5.898c-0.629-4.104-0.197-8.246-0.264-12.372
			c-0.027-1.576,1.317-0.895,2.091-0.993c0.854-0.108,1.739-0.135,1.709,1.24c-0.071,2.713-0.027,5.428-0.018,8.139
			c0.004,0.801,0.016,1.604,0.104,2.4c0.374,3.367,1.631,4.497,5.032,4.568c3.545,0.076,3.545,0.076,3.545-3.448
			c0-3.819,0.071-7.647-0.034-11.466c-0.042-1.581,0.87-1.478,1.882-1.46c0.973,0.018,1.994-0.197,1.925,1.419
			C650.707,31.586,650.785,34.239,650.785,36.89z"/>
		<path fill="#6D6E71" d="M675.402,47.088c-0.856-0.131-2.194-0.334-3.533-0.549c-0.93-0.15-1.705-0.345-1.17-1.641
			c0.382-0.914,0.396-1.921,1.909-1.396c1.695,0.59,3.489,0.797,5.279,0.291c1.323-0.375,2.452-1.012,2.534-2.557
			c0.076-1.498-0.994-2.146-2.203-2.624c-1.539-0.616-3.116-1.155-4.625-1.838c-1.811-0.815-2.744-2.278-2.643-4.278
			c0.101-1.998,1.021-3.547,2.904-4.379c2.988-1.32,6.032-0.939,9.063-0.158c1.16,0.296,0.528,1.202,0.409,1.833
			c-0.122,0.672-0.373,1.301-1.354,1.004c-1.656-0.504-3.337-0.877-5.094-0.424c-1,0.252-1.936,0.53-2.046,1.775
			c-0.105,1.245,0.594,1.975,1.655,2.383c1.317,0.51,2.665,0.949,3.997,1.428c2.15,0.771,3.576,2.129,3.711,4.553
			c0.143,2.584-1.022,4.375-3.273,5.516C679.351,46.829,677.639,47.028,675.402,47.088z"/>
		<path fill="#6D6E71" d="M557.152,39.971c-3.989,4.01-7.984,8.017-11.962,12.039c-0.686,0.697-1.273,0.826-2.016,0.076
			c-4.1-4.158-3.806-2.779-0.263-6.428c2.955-3.039,5.992-6.008,9.014-8.979c0.405-0.402,0.676-1.106,1.469-0.901
			C554.479,37.327,556.215,38.292,557.152,39.971z"/>
		<path fill="#6D6E71" d="M557.152,39.971c-0.938-1.68-2.676-2.645-3.758-4.193c2.521-0.027,5.041-0.046,7.561-0.102
			c0.627-0.016,1.021,0.263,1.427,0.672c1.861,1.884,3.713,3.771,5.625,5.602c0.859,0.827,0.866,1.498,0.019,2.316
			c-3.884,3.732-2.568,3.516-6.058,0.238C560.359,42.993,559.018,41.204,557.152,39.971z"/>
	</g>
	<text transform="matrix(1 0 0 1 570.2813 16.3345)" fill="#6D6E71" font-family="'MyriadPro-Regular'" font-size="18.4567">Certification</text>
</g>
</svg>
