<?xml version="1.0" encoding="utf-8"?>
<!-- Generator: Adobe Illustrator 16.0.3, SVG Export Plug-In . SVG Version: 6.00 Build 0)  -->
<!DOCTYPE svg PUBLIC "-//W3C//DTD SVG 1.1//EN" "http://www.w3.org/Graphics/SVG/1.1/DTD/svg11.dtd">
<svg version="1.1" id="Layer_1" xmlns="http://www.w3.org/2000/svg" xmlns:xlink="http://www.w3.org/1999/xlink" x="0px" y="0px"
	 width="62.129px" height="62.125px" viewBox="0 0 62.129 62.125" enable-background="new 0 0 62.129 62.125" xml:space="preserve">
<g>
	<path fill="#00FFFF" d="M27.586,0c2.323,0,4.639,0,6.957,0c0.085,0.263,0.322,0.215,0.518,0.246
		c0.797,0.139,1.596,0.242,2.388,0.411C50.326,3.38,60.084,13.893,61.869,26.943c0.029,0.23-0.053,0.516,0.26,0.64
		c0,2.322,0,4.638,0,6.959c-0.264,0.084-0.216,0.317-0.25,0.516c-0.138,0.813-0.246,1.636-0.421,2.447
		c-2.821,12.947-13.235,22.584-26.333,24.369c-0.217,0.028-0.479-0.035-0.582,0.25c-2.318,0-4.634,0-6.957,0
		c-0.085-0.263-0.322-0.211-0.515-0.246c-0.813-0.141-1.636-0.25-2.447-0.426C11.677,58.63,2.045,48.218,0.255,35.119
		C0.228,34.906,0.292,34.648,0,34.542c0-2.322,0-4.639,0-6.96c0.264-0.086,0.221-0.321,0.25-0.515
		c0.136-0.796,0.244-1.6,0.409-2.388C3.385,11.802,13.892,2.042,26.944,0.257C27.177,0.229,27.467,0.308,27.586,0z M49.669,10.396
		c-0.065-0.292-0.267-0.385-0.421-0.513c-4.747-4.031-10.219-6.358-16.446-6.66c-10.026-0.485-18.085,3.373-24.218,11.3
		c-0.255,0.332-0.768,0.725-0.593,1.068c0.177,0.348,0.793,0.158,1.223,0.158c2.504,0,5.009-0.169,7.506-0.332
		c0.929-0.064,1.404,0.311,1.448,1.051c0.039,0.748-0.38,1.172-1.289,1.27c-0.678,0.07-1.358,0.119-2.041,0.167
		c-0.831,0.058-0.861,0.099-0.604,0.873c3.191,9.502,6.385,18.995,9.576,28.486c0.074,0.207,0.088,0.452,0.306,0.591
		c0.226-0.105,0.232-0.333,0.294-0.52c1.885-5.631,3.76-11.269,5.646-16.9c0.124-0.377,0.12-0.713-0.014-1.082
		c-1.323-3.594-2.643-7.19-3.938-10.792c-0.153-0.438-0.393-0.621-0.846-0.651c-0.804-0.051-1.61-0.117-2.41-0.238
		c-0.634-0.094-0.98-0.58-0.928-1.186c0.053-0.638,0.489-1.056,1.14-1.075c0.314-0.009,0.625,0.021,0.933,0.041
		c2.994,0.192,5.99,0.421,8.998,0.228c1.61-0.099,3.221-0.196,4.836-0.269c0.786-0.035,1.248,0.354,1.313,1.017
		c0.063,0.692-0.339,1.179-1.129,1.282c-0.699,0.092-1.4,0.143-2.104,0.187c-0.949,0.063-0.979,0.095-0.686,0.976
		c3.17,9.419,6.34,18.837,9.506,28.253c0.063,0.187,0.07,0.408,0.308,0.559c0.053-0.113,0.12-0.214,0.153-0.324
		c1.375-4.576,2.765-9.154,4.105-13.746c0.594-2.021,0.801-4.086,0.438-6.195c-0.412-2.382-1.479-4.465-2.74-6.478
		c-0.662-1.054-1.299-2.121-1.71-3.302c-0.406-1.157-0.584-2.338-0.232-3.538C45.712,11.817,47.24,10.572,49.669,10.396z
		 M31.574,33.63c-0.142,0.33-0.216,0.476-0.269,0.627c-2.633,7.648-5.264,15.298-7.913,22.943c-0.188,0.545-0.03,0.711,0.478,0.846
		c5.308,1.379,10.567,1.238,15.795-0.408c0.479-0.151,0.588-0.326,0.403-0.831c-2.646-7.206-5.272-14.421-7.903-21.628
		C31.993,34.716,31.818,34.262,31.574,33.63z M5.627,19.925c-0.053,0.005-0.105,0.014-0.158,0.019
		c-0.09,0.207-0.185,0.411-0.273,0.618c-1.931,4.797-2.564,9.766-1.693,14.861c1.562,9.137,6.502,15.906,14.615,20.371
		c0.165,0.088,0.363,0.312,0.547,0.135c0.146-0.135-0.039-0.344-0.08-0.52c-0.019-0.076-0.056-0.152-0.081-0.232
		C14.458,44.105,10.419,33.021,6.37,21.945C6.121,21.27,5.877,20.596,5.627,19.925z M55.877,18.215
		c-0.053,0.011-0.107,0.02-0.163,0.026c-0.014,0.041-0.039,0.081-0.039,0.118c0,0.124,0,0.249,0.007,0.372
		c0.332,3.596-0.34,7.042-1.51,10.421c-2.92,8.377-5.833,16.764-8.744,25.146c-0.066,0.201-0.217,0.402-0.064,0.746
		c6.033-3.727,10.226-8.877,12.332-15.623C59.975,32.115,59.268,25.031,55.877,18.215z"/>
</g>
<g>
	<g>
		<g>
			<path fill="#6D6E71" d="M118.684-0.567c3.625,0,7.256,0,11.055,0c-0.713,1.251-1.363,2.408-2.029,3.558
				c-8.169,14.114-16.335,28.227-24.505,42.346c-0.812,1.393-0.82,1.402-1.62,0.019c-8.711-15.052-17.417-30.105-26.12-45.16
				c-0.129-0.218-0.351-0.404-0.271-0.757c3.613,0,7.238,0,10.858,0c0.068,0.148,0.136,0.298,0.216,0.438
				c4.524,7.828,9.049,15.652,13.578,23.481c0.814,1.401,1.637,2.81,2.446,4.201c0.386-0.137,0.44-0.42,0.563-0.634
				c4.058-6.996,8.121-13.994,12.162-21.002C116.251,3.767,117.593,1.671,118.684-0.567z"/>
			<path fill="#6D6E71" d="M102.387,47.339c-0.758,0-1.107-0.598-1.633-1.506C92.045,30.782,83.335,15.73,74.637,0.674
				c-0.203-0.29-0.525-0.749-0.385-1.434l0.158-0.758h12.23l0.455,0.921l15.291,26.419l1.481-2.554
				c3.438-5.939,6.889-11.878,10.313-17.826c0.358-0.618,0.723-1.236,1.088-1.852c0.879-1.484,1.791-3.021,2.553-4.579l0.264-0.539
				h13.303l-1.562,2.738c-0.44,0.772-0.859,1.518-1.291,2.26l-24.505,42.341C103.497,46.734,103.143,47.339,102.387,47.339z
				 M76.684,0.395c8.569,14.82,17.137,29.631,25.703,44.437l24.494-42.319c0.404-0.7,0.803-1.399,1.213-2.123h-8.818
				c-0.73,1.441-1.559,2.833-2.356,4.18c-0.36,0.609-0.72,1.217-1.073,1.833c-3.433,5.949-6.875,11.887-10.32,17.828l-1.842,3.178
				c-0.15,0.313-0.395,0.814-1.07,1.055l-0.75,0.268L85.46,0.395H76.684z"/>
		</g>
		<path fill="#6D6E71" d="M101.861,28.728L85.438,0.356c-0.068-0.122-0.127-0.238-0.185-0.358L84.617-1.36l1.427-0.157l2.798-0.012
			c2.211-0.007,4.417-0.012,6.629-0.041c1.131,0,1.576,0.772,1.793,1.147l5.119,8.851c1.729-2.96,3.448-5.928,5.155-8.899
			c0.271-0.473,0.752-1.099,1.8-1.099c2.354,0.026,4.686,0.03,7.016,0.037l3.856,0.012l-0.668,1.372
			c-0.793,1.632-1.724,3.203-2.624,4.718c-0.361,0.609-0.725,1.217-1.072,1.833c-3.438,5.951-6.885,11.903-10.33,17.847
			l-1.832,3.158c-0.151,0.313-0.396,0.814-1.07,1.055L101.861,28.728z M87.668,0.391l14.719,25.432l1.469-2.536
			c3.449-5.944,6.897-11.888,10.328-17.843c0.358-0.618,0.723-1.236,1.088-1.852c0.619-1.044,1.254-2.119,1.845-3.207l-0.769-0.002
			c-2.334-0.007-4.67-0.011-7.006-0.038l-0.143,0.134c-1.795,3.127-3.6,6.244-5.42,9.354c-0.209,0.447-0.473,1.027-1.213,1.251
			l-0.729,0.225L95.604,0.532c-0.026-0.046-0.109-0.189-0.146-0.229c-2.182,0.07-4.393,0.077-6.605,0.082L87.668,0.391z"/>
	</g>
	<g>
		<path fill="#6D6E71" d="M87.227,64.296c-0.498-0.004-0.881-0.303-1.028-0.838c-0.642-2.306-1.423-4.562-2.077-6.858
			c-0.438-1.535-0.973-3.042-1.403-4.577c-0.131-0.455-0.01-0.689,0.45-0.841c0.503-0.161,0.848-0.026,0.977,0.401
			c0.336,1.143,0.647,2.301,0.992,3.444c0.516,1.714,1.068,3.414,1.567,5.132c0.133,0.459,0.25,0.928,0.394,1.387
			c0.036,0.105,0.022,0.256,0.194,0.236c0.112-0.016,0.122-0.133,0.149-0.228c0.324-1.151,0.644-2.3,0.982-3.449
			c0.52-1.76,1.066-3.515,1.596-5.278c0.116-0.4,0.189-0.806,0.347-1.193c0.188-0.473,0.389-0.604,0.862-0.477
			c0.515,0.139,0.699,0.426,0.558,0.924c-0.185,0.637-0.401,1.265-0.597,1.898c-0.621,2.027-1.217,4.066-1.856,6.089
			c-0.366,1.136-0.722,2.267-1.054,3.414C88.123,64.017,87.736,64.302,87.227,64.296z"/>
		<path fill="#6D6E71" d="M105.234,60.35c-0.67,0-1.338,0.005-2.006-0.005c-0.278-0.006-0.375,0.095-0.385,0.377
			c-0.035,1.14,0.606,1.939,1.709,2.246c0.907,0.254,1.691,0.064,2.467-0.391c0.446-0.267,0.83-0.216,1.016,0.1
			c0.206,0.355,0.102,0.666-0.334,0.963c-1.711,1.167-4.467,0.807-5.702-0.768c-0.375-0.479-0.61-1.024-0.616-1.642
			c-0.009-0.858-0.029-1.709-0.002-2.562c0.034-1.086,0.618-1.885,1.491-2.455c1.642-1.076,4.007-0.7,4.989,1.004
			c0.465,0.801,0.721,1.65,0.287,2.561c-0.172,0.372-0.471,0.553-0.86,0.557c-0.685,0.015-1.372,0.004-2.054,0.004
			C105.234,60.339,105.234,60.345,105.234,60.35z M104.71,59.396v-0.004c0.453,0,0.899,0.009,1.349-0.003
			c0.849-0.027,1.029-0.274,0.825-1.103c-0.269-1.104-1.329-1.695-2.577-1.445c-0.945,0.188-1.64,1.262-1.49,2.281
			c0.043,0.262,0.195,0.272,0.39,0.272C103.706,59.396,104.209,59.396,104.71,59.396z"/>
		<path fill="#6D6E71" d="M99.611,58.764c0,0.717,0,1.438,0,2.159c-0.01,1.47-1.024,2.666-2.364,3.186
			c-1.649,0.643-3.587-0.216-4.399-1.768c-0.226-0.432-0.353-0.934-0.359-1.44c0-1.47,0-2.94,0-4.411
			c0-0.537,0.266-0.74,0.916-0.734c0.34,0.002,0.625,0.336,0.627,0.748c0.007,1.509-0.025,3.011,0.014,4.514
			c0.046,1.492,1.635,2.441,2.909,1.751c0.763-0.413,1.187-1.08,1.179-1.987c-0.009-1.404-0.002-2.806-0.002-4.21
			c0-0.719,0.479-1.05,1.15-0.78c0.267,0.109,0.336,0.348,0.33,0.617C99.604,57.193,99.611,57.979,99.611,58.764z"/>
		<path fill="#6D6E71" d="M119.215,64.302c-0.869-0.025-1.709-0.193-2.458-0.684c-0.228-0.156-0.414-0.332-0.414-0.637
			c0-0.246,0.056-0.441,0.292-0.59c0.23-0.154,0.391-0.03,0.538,0.082c0.742,0.554,1.565,0.752,2.483,0.65
			c0.851-0.102,1.33-0.635,1.197-1.383c-0.093-0.502-0.451-0.781-0.879-0.945c-0.646-0.25-1.312-0.453-1.963-0.686
			c-0.925-0.322-1.468-1.02-1.496-1.896c-0.031-1.071,0.442-1.864,1.375-2.266c1.264-0.541,2.5-0.41,3.721,0.152
			c0.412,0.191,0.384,0.521,0.25,0.839c-0.133,0.319-0.396,0.438-0.736,0.269c-0.593-0.299-1.218-0.449-1.882-0.399
			c-0.302,0.017-0.582,0.078-0.841,0.26c-0.407,0.292-0.607,0.649-0.524,1.149c0.071,0.466,0.429,0.66,0.802,0.797
			c0.668,0.248,1.348,0.449,2.021,0.681c1.653,0.569,1.921,2.601,1.083,3.646c-0.512,0.637-1.256,0.83-2.021,0.953
			C119.59,64.33,119.396,64.302,119.215,64.302z"/>
		<path fill="#6D6E71" d="M114.729,60.916c-0.047,1.488,0.104,3.268-0.131,5.027c-0.183,1.41-1.107,2.371-2.373,2.32
			c-0.397-0.014-0.736-0.119-0.779-0.592c-0.039-0.387,0.231-0.69,0.703-0.726c0.55-0.046,0.817-0.35,0.938-0.853
			c0.115-0.475,0.117-0.956,0.117-1.438c0.003-2.726,0.005-5.451-0.002-8.172c-0.003-0.398,0.078-0.689,0.533-0.725
			c0.697-0.055,0.887,0.059,0.961,0.619c0.039,0.283,0.031,0.564,0.031,0.854C114.73,58.367,114.729,59.505,114.729,60.916z"/>
		<path fill="#6D6E71" d="M111.449,63.341c-0.006,0.615-0.424,0.89-0.895,0.943c-0.41,0.045-0.949-0.502-0.966-0.916
			c-0.021-0.47,0.46-0.934,0.966-0.938C111.1,62.423,111.449,62.783,111.449,63.341z"/>
	</g>
</g>
<g>
	<path fill="#6D6E71" d="M159.355-0.515c1.26-0.067,1.836,0.338,2.271,1.078c4.18,7.177,8.385,14.338,12.564,21.515
		c1.106,1.899,1.072,1.909,3.178,1.397c4.839-1.188,9.683-2.386,14.537-3.531c0.896-0.214,0.939-0.451,0.406-1.15
		c-1.729-2.279-3.412-4.598-5.109-6.899c-0.82-1.113-0.727-1.39,0.604-1.624c2.666-0.479,5.342-0.919,8-1.423
		c0.754-0.143,1.307,0.096,1.754,0.625c2.297,2.71,4.606,5.426,6.867,8.168c0.67,0.813,0.521,1.179-0.515,1.457
		c-2.199,0.592-4.407,1.165-6.627,1.691c-0.868,0.204-0.966,0.444-0.406,1.167c2.111,2.724,4.173,5.488,6.233,8.246
		c0.968,1.292,0.873,1.583-0.625,2.127c-6.221,2.25-12.436,4.512-18.659,6.752c-2.04,0.731-2.417,0.619-3.479-1.226
		c-1.848-3.222-3.688-6.449-5.442-9.722c-0.552-1.027-1.101-1.318-2.267-0.989c-3.608,1.013-7.256,1.904-10.896,2.824
		c-1.7,0.431-2.267,0.176-2.955-1.362c-3.906-8.725-7.808-17.449-11.697-26.184c-0.766-1.715-0.659-1.886,1.199-2.042
		C152.111,0.063,155.93-0.235,159.355-0.515z M158.786,1.126c-2.782,0.248-5.438,0.522-8.097,0.702
		c-0.996,0.065-1.094,0.362-0.684,1.201c1.461,2.982,2.885,5.984,4.309,8.984c2.246,4.751,4.486,9.508,6.717,14.263
		c0.234,0.488,0.451,0.899,1.104,0.748c3.354-0.777,6.7-1.559,10.055-2.313c0.582-0.13,0.563-0.352,0.317-0.789
		c-4.155-7.365-8.309-14.734-12.438-22.111C159.727,1.201,159.316,0.965,158.786,1.126z M194.037,21.657
		c-0.156,0.024-0.234,0.024-0.311,0.049c-5.484,1.414-10.975,2.837-16.459,4.249c-0.586,0.147-0.6,0.397-0.313,0.886
		c1.763,2.953,3.504,5.921,5.238,8.893c0.285,0.489,0.578,0.594,1.129,0.404c5.51-1.895,11.021-3.771,16.548-5.607
		c0.815-0.272,0.724-0.537,0.294-1.104c-1.816-2.405-3.604-4.832-5.387-7.267C194.555,21.857,194.375,21.599,194.037,21.657z
		 M195.482,19.082c1.869-0.471,4.049-0.996,6.211-1.571c0.525-0.138,0.211-0.464,0.027-0.694c-1.555-1.878-3.115-3.738-4.65-5.631
		c-0.397-0.488-0.852-0.597-1.43-0.492c-1.899,0.332-3.801,0.657-5.703,0.977c-0.844,0.138-0.42,0.512-0.168,0.849
		c1.525,2.025,3.051,4.049,4.574,6.078C194.555,18.872,194.752,19.174,195.482,19.082z"/>
	<path fill="#6D6E71" d="M167.52,58.125c0,0.696-0.014,1.394,0,2.092c0.015,0.518-0.131,1.121,0.684,1.234
		c0.352,0.047,0.318,0.393,0.292,0.658c-0.032,0.322-0.256,0.465-0.554,0.489c-0.553,0.053-1.172,0.088-1.477-0.437
		c-0.416-0.732-0.783-0.438-1.271-0.139c-0.777,0.484-1.647,0.666-2.559,0.577c-1.252-0.124-2.205-1.007-2.39-2.173
		c-0.209-1.366,0.403-2.455,1.702-2.946c0.949-0.362,1.97-0.362,2.96-0.524c0.547-0.086,1.101-0.16,1.13-0.899
		c0.029-0.714-0.273-1.163-0.962-1.388c-1.28-0.424-2.204-0.121-2.882,1.094c-0.326,0.588-0.803,0.418-1.201,0.33
		c-0.524-0.11-0.248-0.559-0.18-0.861c0.16-0.684,0.584-1.165,1.225-1.454c1.418-0.655,2.85-0.614,4.277-0.032
		c0.806,0.332,1.176,0.98,1.19,1.83c0.022,0.85,0.009,1.699,0.009,2.549C167.516,58.125,167.516,58.125,167.52,58.125z
		 M166.027,58.895c-0.279-0.181,0.371-0.948-0.359-0.884c-1.025,0.087-2.098,0.128-3.057,0.593c-0.68,0.333-0.912,0.933-0.783,1.653
		c0.109,0.644,0.559,1,1.179,1.127C164.544,61.697,165.984,60.557,166.027,58.895z"/>
	<path fill="#6D6E71" d="M182.326,58.13c0,0.701-0.008,1.396,0.004,2.096c0.01,0.518-0.135,1.119,0.684,1.225
		c0.354,0.049,0.293,0.402,0.279,0.664c-0.016,0.273-0.202,0.426-0.445,0.459c-0.545,0.084-1.195,0.166-1.498-0.347
		c-0.433-0.729-0.807-0.554-1.357-0.194c-0.737,0.461-1.576,0.643-2.444,0.578c-1.315-0.102-2.325-0.988-2.487-2.195
		c-0.193-1.402,0.4-2.437,1.715-2.938c0.949-0.363,1.971-0.363,2.957-0.52c0.558-0.088,1.093-0.176,1.131-0.908
		c0.039-0.729-0.301-1.159-0.98-1.385c-1.281-0.424-2.258-0.113-2.895,1.086c-0.326,0.606-0.799,0.42-1.188,0.342
		c-0.51-0.109-0.257-0.563-0.179-0.869c0.177-0.725,0.656-1.207,1.332-1.506c0.834-0.375,1.715-0.469,2.613-0.383
		c2.093,0.201,2.762,0.943,2.762,3.054C182.328,56.97,182.326,57.552,182.326,58.13z M180.852,58.876
		c-0.18-0.244,0.33-0.953-0.402-0.877c-0.985,0.104-2.001,0.156-2.938,0.543c-0.697,0.291-0.957,0.859-0.886,1.592
		c0.067,0.707,0.501,1.103,1.165,1.244C179.354,61.716,180.816,60.541,180.852,58.876z"/>
	<path fill="#6D6E71" d="M197.252,58.453c-0.77,0-1.544,0.019-2.316-0.004c-0.646-0.023-0.799,0.27-0.68,0.86
		c0.217,1.021,0.661,1.849,1.77,2.05c1.078,0.204,1.992-0.104,2.59-1.097c0.076-0.128,0.126-0.284,0.211-0.411
		c0.341-0.491,0.89-0.379,1.262-0.229c0.57,0.242,0.098,0.672-0.046,0.959c-0.942,1.858-3.382,2.607-5.301,1.646
		c-1.654-0.827-2.458-2.663-2.175-4.965c0.246-2.013,1.416-3.427,3.166-3.843c2.732-0.644,5.281,1.779,4.814,4.535
		c-0.092,0.521-0.395,0.492-0.74,0.492C198.954,58.453,198.105,58.453,197.252,58.453z M196.598,57.25
		c0.537,0,1.077-0.029,1.612,0.008c0.634,0.033,0.8-0.188,0.638-0.813c-0.279-1.085-0.859-1.792-2.017-1.907
		c-1.084-0.104-2.026,0.51-2.427,1.569c-0.289,0.771-0.209,1.271,0.81,1.151C195.669,57.207,196.133,57.25,196.598,57.25z"/>
	<path fill="#6D6E71" d="M187.896,60.233c0.625-1.856,1.252-3.709,1.887-5.563c0.097-0.289,0.16-0.621,0.342-0.854
		c0.368-0.483,0.963-0.349,1.381-0.188c0.487,0.186,0.051,0.607-0.05,0.879c-0.843,2.32-1.735,4.627-2.583,6.947
		c-0.212,0.594-0.43,0.969-1.191,0.957c-0.728-0.017-0.9-0.385-1.102-0.925c-0.814-2.291-1.676-4.563-2.475-6.858
		c-0.11-0.308-0.682-0.836,0.006-1.021c0.562-0.156,1.299-0.313,1.576,0.645c0.463,1.592,1.004,3.166,1.521,4.74
		c0.133,0.4,0.282,0.797,0.427,1.193C187.721,60.199,187.809,60.216,187.896,60.233z"/>
	<path fill="#6D6E71" d="M203.811,56.352c0,1.746-0.021,3.487,0.014,5.229c0.009,0.598-0.159,0.817-0.784,0.812
		c-0.606-0.005-0.795-0.2-0.79-0.808c0.025-3.487,0.023-6.971,0.003-10.459c-0.003-0.592,0.167-0.822,0.783-0.83
		c0.627-0.004,0.797,0.232,0.782,0.826C203.793,52.867,203.811,54.606,203.811,56.352z"/>
	<path fill="#6D6E71" d="M158.477,56.292c0,1.746-0.01,3.482,0.01,5.225c0.007,0.52-0.006,0.876-0.707,0.876
		c-0.672,0-0.842-0.229-0.838-0.871c0.027-3.446,0.025-6.89,0.002-10.331c-0.006-0.625,0.144-0.902,0.832-0.896
		c0.697,0.01,0.715,0.377,0.711,0.896C158.467,52.892,158.477,54.591,158.477,56.292z"/>
	<path fill="#6D6E71" d="M169.945,57.988c0-1.199-0.01-2.398,0.005-3.594c0.003-0.326-0.136-0.775,0.389-0.814
		c0.351-0.025,0.849-0.229,1.009,0.269c0.202,0.63,0.448,0.336,0.725,0.112c0.398-0.316,0.828-0.567,1.347-0.625
		c0.409-0.043,0.812-0.053,0.778,0.545c-0.021,0.4,0.109,0.795-0.564,0.904c-1.652,0.276-2.193,0.998-2.216,2.688
		c-0.011,1.116,0.076,2.247-0.034,3.356c-0.053,0.528,0.623,1.506-0.669,1.547c-1.319,0.041-0.69-0.957-0.741-1.494
		C169.877,59.927,169.945,58.953,169.945,57.988z"/>
</g>
<g>
	<path fill="#6D6E71" d="M283.104,59.287c0.006-8.142,0-16.281,0.039-24.422c0.004-0.847-0.555-2.066,1.125-2.191
		c1.442-0.113,2.42,0.16,2.391,1.859c0,0.166,0.145,0.329,0.267,0.586c1.408-1.656,3.144-2.56,5.289-2.695
		c3.906-0.246,6.86,1.777,7.922,5.521c0.611,2.178,0.662,4.409,0.232,6.598c-1.048,5.355-5.687,8.414-11.539,7.519
		c-1.604-0.239-1.97,0.046-1.965,1.649c0,1.853,0.567,3.793-0.427,5.576C285.324,59.287,284.215,59.287,283.104,59.287z
		 M286.919,43.828c0,1.408,0.013,2.575-0.005,3.748c-0.007,0.598,0.081,1.039,0.756,1.289c3.764,1.389,7.911-0.734,8.727-4.516
		c0.358-1.65,0.342-3.318-0.021-4.961c-0.549-2.521-2.109-3.813-4.504-3.801c-2.398,0.019-4.188,1.486-4.747,3.861
		C286.768,40.98,286.995,42.525,286.919,43.828z"/>
	<path fill="#6D6E71" d="M316.449,59.287c0.009-2.029-0.062-4.068,0.055-6.101c0.073-1.272-0.404-1.444-1.484-1.224
		c-2.032,0.424-4.063,0.217-6.045-0.323c-3.406-0.929-5.549-3.513-5.896-7.021c-0.776-7.803,3.707-12.518,11.553-12.164
		c5.606,0.258,5.606,0.258,5.606,5.859c0,6.301,0,12.594,0,18.896c0,0.722,0.132,1.479-0.454,2.074
		C318.671,59.287,317.561,59.287,316.449,59.287z M316.477,42.167c0-1.787-0.005-3.566,0.002-5.354
		c0.003-0.583,0.003-1.147-0.784-1.188c-1.776-0.098-3.564-0.313-5.259,0.515c-2.822,1.37-4.26,5.278-3.271,8.983
		c0.761,2.862,3.113,4.273,6.61,3.953c0.427-0.039,0.854-0.145,1.281-0.148c1.08-0.008,1.498-0.471,1.442-1.594
		C316.412,45.613,316.479,43.889,316.477,42.167z"/>
	<path fill="#6D6E71" d="M244.938,27.054c0.957,0.959,1.893,1.938,2.877,2.861c0.808,0.764,0.767,1.407-0.012,2.182
		c-3.761,3.729-7.482,7.5-11.256,11.218c-1.111,1.095-9.061,0.795-10.211-0.28c-2.102-1.967-3.925-4.219-6.225-5.979
		c0-0.492,0-0.988,0-1.479c1.203-0.455,1.848-1.555,2.686-2.396c0.895-0.902,1.553-0.953,2.443-0.016
		c1.781,1.873,3.648,3.666,5.475,5.5c0.446,0.444,0.795,0.914,1.479,0.215c3.859-3.963,7.752-7.889,11.634-11.825
		C244.198,27.054,244.57,27.054,244.938,27.054z"/>
	<path fill="#6D6E71" d="M386.105,51.878c-1.593,0.06-3.159,0.488-4.779,0.187c-3.04-0.565-4.418-2.056-4.467-5.144
		c-0.052-3.084-0.066-6.166,0.012-9.246c0.032-1.256-0.122-2.021-1.646-1.772c-0.41,0.068-1.069,0.313-1.305-0.276
		c-0.219-0.561,0.374-0.858,0.689-1.199c1.855-2.025,3.737-4.026,5.969-6.43c0,1.585,0.056,2.665-0.019,3.733
		c-0.063,0.947,0.214,1.37,1.223,1.264c0.732-0.076,1.479,0.021,2.22-0.022c1.011-0.06,1.758-0.022,1.753,1.384
		c0,1.369-0.556,1.613-1.767,1.602c-3.41-0.035-3.414,0.017-3.41,3.459c0.005,2.156-0.05,4.316,0.037,6.473
		c0.117,2.842,1.089,3.669,3.851,3.219c0.759-0.124,1.226-0.029,1.64,0.553C386.105,50.396,386.105,51.136,386.105,51.878z"/>
	<path fill="#6D6E71" d="M356.614,44.321c0,1.905-0.032,3.824,0.019,5.729c0.02,0.82-0.214,1.265-1.059,1.402
		c-2.928,0.479-5.839,0.951-8.823,0.459c-3.206-0.521-5.058-2.256-5.379-5.174c-0.309-2.773,1.286-5.236,4.136-6.287
		c1.941-0.717,3.981-0.924,6.014-0.629c1.288,0.186,1.451-0.279,1.327-1.384c-0.194-1.653-1.111-2.567-2.677-2.853
		c-1.785-0.318-3.577-0.23-5.313,0.283c-1.155,0.342-1.564-0.187-1.743-1.197c-0.173-0.947-0.159-1.59,1.098-1.803
		c2.393-0.41,4.754-0.711,7.167-0.275c3.154,0.57,4.932,2.422,5.128,5.619c0.127,2.027,0.023,4.07,0.023,6.106
		C356.558,44.321,356.587,44.321,356.614,44.321z M352.901,45.912c0-3.4,0-3.422-3.416-3.275c-0.728,0.031-1.475,0.158-2.169,0.386
		c-1.563,0.498-2.221,1.663-2.128,3.267c0.097,1.686,1.04,2.551,3.056,2.838C352.059,49.666,352.901,49.078,352.901,45.912z"/>
	<path fill="#6D6E71" d="M262.609,42.354c-0.02-6.864,4.201-10.683,10.822-9.788c4.61,0.616,7.487,4.495,7.392,9.961
		c-0.122,6.891-4.88,10.77-11.521,9.387C265.05,51.031,262.625,47.568,262.609,42.354z M276.788,42.332
		c0.095-1.25-0.104-2.465-0.498-3.635c-0.747-2.201-2.267-3.261-4.595-3.27c-2.356-0.008-3.807,0.99-4.559,3.265
		c-0.791,2.41-0.791,4.853,0.006,7.257c0.754,2.274,2.239,3.311,4.545,3.309c2.266,0,3.828-1.104,4.588-3.299
		C276.682,44.792,276.878,43.578,276.788,42.332z"/>
	<path fill="#6D6E71" d="M339.017,42.014c0,2.526-0.062,5.06,0.025,7.583c0.039,1.115-0.282,1.665-1.404,1.869
		c-2.798,0.506-5.581,0.873-8.442,0.465c-3.469-0.494-5.588-2.403-6.124-5.898c-0.629-4.104-0.197-8.246-0.265-12.371
		c-0.026-1.576,1.318-0.896,2.092-0.994c0.853-0.107,1.738-0.135,1.709,1.24c-0.071,2.713-0.027,5.428-0.019,8.139
		c0.004,0.801,0.017,1.604,0.105,2.399c0.374,3.368,1.631,4.498,5.031,4.569c3.546,0.076,3.546,0.076,3.546-3.448
		c0-3.819,0.07-7.647-0.034-11.466c-0.042-1.581,0.87-1.479,1.882-1.46c0.972,0.019,1.994-0.197,1.925,1.419
		C338.938,36.71,339.017,39.363,339.017,42.014z"/>
	<path fill="#6D6E71" d="M363.634,52.212c-0.855-0.131-2.193-0.334-3.533-0.549c-0.929-0.15-1.704-0.345-1.17-1.641
		c0.382-0.914,0.397-1.921,1.909-1.396c1.696,0.59,3.49,0.797,5.28,0.291c1.323-0.375,2.452-1.012,2.534-2.557
		c0.076-1.498-0.994-2.146-2.203-2.624c-1.539-0.616-3.116-1.155-4.625-1.838c-1.812-0.815-2.744-2.278-2.644-4.278
		c0.102-1.998,1.021-3.547,2.904-4.379c2.989-1.32,6.033-0.939,9.064-0.158c1.159,0.295,0.527,1.201,0.408,1.832
		c-0.122,0.672-0.373,1.301-1.354,1.004c-1.657-0.504-3.337-0.877-5.094-0.424c-1,0.252-1.937,0.53-2.046,1.775
		c-0.105,1.245,0.594,1.975,1.654,2.383c1.318,0.51,2.665,0.949,3.997,1.428c2.151,0.771,3.576,2.129,3.711,4.553
		c0.144,2.584-1.021,4.375-3.272,5.516C367.582,51.953,365.87,52.152,363.634,52.212z"/>
	<path fill="#6D6E71" d="M245.384,45.095c-3.989,4.01-7.983,8.017-11.962,12.039c-0.686,0.697-1.273,0.826-2.015,0.076
		c-4.101-4.158-3.806-2.779-0.263-6.428c2.955-3.039,5.992-6.008,9.014-8.98c0.404-0.401,0.676-1.106,1.469-0.9
		C242.709,42.451,244.445,43.416,245.384,45.095z"/>
	<path fill="#6D6E71" d="M245.384,45.095c-0.938-1.68-2.675-2.645-3.757-4.193c2.521-0.027,5.041-0.046,7.561-0.102
		c0.627-0.016,1.021,0.263,1.427,0.672c1.86,1.884,3.713,3.771,5.625,5.602c0.858,0.827,0.866,1.498,0.018,2.316
		c-3.883,3.732-2.567,3.516-6.057,0.238C248.591,48.117,247.249,46.328,245.384,45.095z"/>
</g>
<text transform="matrix(1 0 0 1 258.5127 21.4585)" fill="#6D6E71" font-family="'MyriadPro-Regular'" font-size="18.4567">Certification</text>
</svg>
