<?xml version="1.0" encoding="utf-8"?>
<!-- Generator: Adobe Illustrator 16.0.3, SVG Export Plug-In . SVG Version: 6.00 Build 0)  -->
<!DOCTYPE svg PUBLIC "-//W3C//DTD SVG 1.1//EN" "http://www.w3.org/Graphics/SVG/1.1/DTD/svg11.dtd">
<svg version="1.1" id="Layer_1" xmlns="http://www.w3.org/2000/svg" xmlns:xlink="http://www.w3.org/1999/xlink" x="0px" y="0px"
	 width="62.129px" height="62.124px" viewBox="0 0 62.129 62.124" enable-background="new 0 0 62.129 62.124" xml:space="preserve">
<g>
	<path fill-rule="evenodd" clip-rule="evenodd" fill="#6D6E71" d="M27.586,0c2.323,0,4.639,0,6.957,0
		c0.085,0.263,0.322,0.215,0.518,0.246c0.797,0.139,1.595,0.242,2.387,0.411C50.326,3.38,60.084,13.893,61.869,26.943
		c0.03,0.23-0.053,0.516,0.26,0.64c0,2.322,0,4.638,0,6.96c-0.264,0.083-0.216,0.317-0.25,0.515
		c-0.138,0.813-0.246,1.636-0.421,2.447c-2.821,12.947-13.236,22.584-26.333,24.369c-0.217,0.029-0.479-0.035-0.582,0.25
		c-2.318,0-4.634,0-6.957,0c-0.085-0.262-0.322-0.211-0.515-0.246c-0.813-0.14-1.636-0.25-2.447-0.425
		C11.677,58.631,2.045,48.218,0.255,35.119C0.228,34.906,0.292,34.648,0,34.542c0-2.322,0-4.638,0-6.96
		c0.264-0.086,0.221-0.321,0.25-0.515c0.136-0.796,0.244-1.6,0.409-2.388C3.385,11.802,13.892,2.042,26.944,0.257
		C27.177,0.229,27.467,0.308,27.586,0z M49.669,10.396c-0.066-0.292-0.267-0.385-0.421-0.513c-4.747-4.031-10.218-6.358-16.446-6.66
		C22.776,2.738,14.717,6.596,8.584,14.523c-0.255,0.332-0.768,0.725-0.593,1.068c0.177,0.348,0.793,0.158,1.223,0.158
		c2.504,0,5.009-0.169,7.506-0.332c0.929-0.064,1.404,0.311,1.448,1.051c0.039,0.748-0.38,1.172-1.289,1.27
		c-0.678,0.07-1.358,0.119-2.041,0.167c-0.831,0.058-0.861,0.099-0.604,0.873c3.191,9.502,6.385,18.995,9.576,28.486
		c0.074,0.207,0.088,0.453,0.306,0.591c0.226-0.105,0.232-0.333,0.294-0.52c1.885-5.631,3.76-11.268,5.646-16.9
		c0.124-0.377,0.12-0.713-0.014-1.082c-1.323-3.594-2.643-7.19-3.938-10.792c-0.153-0.438-0.393-0.621-0.846-0.651
		c-0.804-0.051-1.61-0.117-2.41-0.238c-0.634-0.094-0.98-0.58-0.928-1.186c0.053-0.638,0.489-1.056,1.14-1.075
		c0.314-0.009,0.625,0.021,0.933,0.041c2.994,0.192,5.99,0.421,8.998,0.228c1.61-0.099,3.221-0.196,4.836-0.269
		c0.786-0.035,1.248,0.354,1.313,1.017c0.064,0.692-0.338,1.179-1.128,1.282c-0.699,0.092-1.401,0.143-2.104,0.187
		c-0.949,0.063-0.979,0.095-0.686,0.976c3.171,9.419,6.34,18.837,9.506,28.253c0.063,0.187,0.071,0.409,0.308,0.559
		c0.053-0.113,0.12-0.214,0.154-0.324c1.374-4.577,2.764-9.154,4.105-13.746c0.593-2.021,0.8-4.086,0.437-6.195
		c-0.411-2.382-1.479-4.465-2.74-6.478c-0.662-1.054-1.299-2.121-1.71-3.302c-0.406-1.157-0.584-2.338-0.232-3.538
		C45.712,11.817,47.24,10.572,49.669,10.396z M31.574,33.63c-0.142,0.331-0.216,0.476-0.269,0.627
		c-2.633,7.649-5.264,15.298-7.913,22.944c-0.188,0.545-0.03,0.71,0.478,0.846c5.308,1.379,10.567,1.238,15.795-0.409
		c0.479-0.151,0.588-0.326,0.404-0.831c-2.647-7.206-5.273-14.421-7.904-21.628C31.993,34.717,31.818,34.262,31.574,33.63z
		 M5.627,19.925c-0.053,0.005-0.105,0.014-0.158,0.019c-0.09,0.207-0.185,0.411-0.273,0.618c-1.931,4.797-2.564,9.766-1.693,14.862
		c1.562,9.136,6.502,15.905,14.615,20.371c0.165,0.088,0.363,0.311,0.547,0.134c0.146-0.134-0.039-0.343-0.08-0.52
		c-0.019-0.075-0.056-0.151-0.081-0.231c-4.046-11.073-8.085-22.157-12.134-33.233C6.121,21.27,5.877,20.596,5.627,19.925z
		 M55.877,18.215c-0.053,0.011-0.107,0.02-0.163,0.026c-0.014,0.041-0.039,0.081-0.039,0.118c0,0.124,0,0.249,0.007,0.372
		c0.331,3.596-0.34,7.042-1.51,10.421c-2.92,8.377-5.833,16.763-8.744,25.147c-0.067,0.2-0.217,0.402-0.064,0.746
		c6.033-3.727,10.225-8.878,12.331-15.624C59.974,32.115,59.267,25.031,55.877,18.215z"/>
</g>
<g>
	<g>
		<g>
			<path fill-rule="evenodd" clip-rule="evenodd" fill="#6D6E71" d="M118.683-0.567c3.625,0,7.256,0,11.056,0
				c-0.714,1.251-1.364,2.408-2.03,3.558c-8.169,14.114-16.335,28.227-24.505,42.346c-0.812,1.393-0.82,1.402-1.62,0.019
				c-8.711-15.052-17.417-30.105-26.12-45.16c-0.129-0.218-0.35-0.404-0.271-0.757c3.614,0,7.238,0,10.859,0
				c0.068,0.148,0.135,0.298,0.216,0.438c4.524,7.828,9.048,15.652,13.577,23.481c0.815,1.401,1.638,2.81,2.447,4.201
				c0.386-0.137,0.44-0.42,0.563-0.634c4.058-6.996,8.122-13.994,12.162-21.002C116.251,3.767,117.593,1.671,118.683-0.567z"/>
			<path fill="#6D6E71" d="M102.387,47.34c-0.758,0-1.107-0.598-1.633-1.507C92.045,30.782,83.335,15.73,74.636,0.674
				c-0.202-0.29-0.524-0.749-0.384-1.434l0.158-0.758h12.23l0.455,0.921l15.291,26.419l1.482-2.554
				c3.439-5.939,6.889-11.878,10.314-17.826c0.358-0.618,0.722-1.236,1.087-1.852c0.88-1.484,1.792-3.021,2.553-4.579l0.264-0.539
				h13.302l-1.561,2.738c-0.441,0.772-0.859,1.518-1.291,2.26l-24.505,42.341C103.497,46.734,103.143,47.34,102.387,47.34z
				 M76.683,0.395c8.57,14.82,17.137,29.631,25.704,44.437l24.494-42.32c0.404-0.7,0.802-1.399,1.213-2.123h-8.818
				c-0.731,1.441-1.559,2.833-2.357,4.18c-0.361,0.609-0.72,1.217-1.073,1.833c-3.433,5.949-6.875,11.887-10.321,17.828
				l-1.841,3.178c-0.151,0.313-0.395,0.814-1.07,1.055l-0.751,0.268L85.46,0.395H76.683z"/>
		</g>
		<path fill="#6D6E71" d="M101.861,28.728L85.438,0.356c-0.069-0.122-0.127-0.238-0.185-0.358L84.617-1.36l1.427-0.157l2.798-0.012
			c2.211-0.007,4.417-0.012,6.629-0.041c1.131,0,1.576,0.772,1.793,1.147l5.119,8.851c1.728-2.96,3.448-5.928,5.155-8.899
			c0.271-0.473,0.752-1.099,1.8-1.099c2.354,0.026,4.685,0.03,7.015,0.037l3.857,0.012l-0.668,1.372
			c-0.793,1.632-1.724,3.203-2.624,4.718c-0.361,0.609-0.725,1.217-1.073,1.833c-3.438,5.951-6.884,11.903-10.33,17.847
			l-1.832,3.158c-0.151,0.313-0.395,0.814-1.07,1.055L101.861,28.728z M87.668,0.391l14.719,25.432l1.469-2.536
			c3.448-5.944,6.897-11.888,10.328-17.843c0.358-0.618,0.722-1.236,1.087-1.852c0.62-1.044,1.254-2.119,1.845-3.207l-0.768-0.002
			c-2.334-0.007-4.671-0.011-7.006-0.038l-0.143,0.134c-1.794,3.127-3.6,6.244-5.42,9.354c-0.209,0.447-0.473,1.027-1.213,1.251
			l-0.729,0.225L95.604,0.532c-0.027-0.046-0.11-0.189-0.147-0.229c-2.181,0.07-4.393,0.077-6.605,0.082L87.668,0.391z"/>
	</g>
	<g>
		<path fill-rule="evenodd" clip-rule="evenodd" fill="#6D6E71" d="M87.227,64.297c-0.498-0.005-0.882-0.304-1.029-0.839
			c-0.641-2.305-1.422-4.561-2.077-6.858c-0.437-1.535-0.972-3.042-1.403-4.577c-0.131-0.455-0.01-0.689,0.45-0.841
			c0.503-0.161,0.848-0.027,0.977,0.402c0.335,1.142,0.647,2.3,0.992,3.444c0.515,1.714,1.068,3.414,1.567,5.131
			c0.133,0.459,0.25,0.928,0.393,1.388c0.037,0.105,0.023,0.255,0.195,0.236c0.113-0.016,0.122-0.133,0.149-0.228
			c0.324-1.151,0.644-2.3,0.983-3.449c0.52-1.76,1.066-3.515,1.595-5.279c0.117-0.4,0.19-0.805,0.347-1.192
			c0.188-0.474,0.389-0.604,0.862-0.477c0.515,0.139,0.7,0.426,0.558,0.924c-0.184,0.637-0.401,1.264-0.597,1.898
			c-0.621,2.028-1.216,4.066-1.856,6.089c-0.366,1.135-0.722,2.266-1.053,3.414C88.123,64.017,87.737,64.302,87.227,64.297z"/>
		<path fill-rule="evenodd" clip-rule="evenodd" fill="#6D6E71" d="M105.234,60.35c-0.669,0-1.338,0.005-2.006-0.005
			c-0.278-0.005-0.375,0.095-0.384,0.377c-0.035,1.14,0.606,1.939,1.709,2.247c0.907,0.253,1.691,0.064,2.466-0.391
			c0.447-0.267,0.831-0.216,1.016,0.099c0.206,0.356,0.101,0.667-0.334,0.963c-1.711,1.167-4.466,0.807-5.702-0.768
			c-0.375-0.478-0.611-1.024-0.616-1.641c-0.009-0.859-0.029-1.709-0.002-2.562c0.034-1.085,0.618-1.884,1.491-2.454
			c1.641-1.077,4.007-0.701,4.99,1.004c0.464,0.8,0.72,1.65,0.287,2.56c-0.172,0.372-0.471,0.552-0.861,0.557
			c-0.685,0.014-1.372,0.004-2.054,0.004C105.234,60.34,105.234,60.345,105.234,60.35z M104.71,59.396v-0.004
			c0.453,0,0.9,0.009,1.349-0.003c0.848-0.027,1.029-0.275,0.825-1.103c-0.269-1.103-1.33-1.695-2.578-1.445
			c-0.944,0.188-1.639,1.262-1.489,2.281c0.042,0.263,0.195,0.273,0.389,0.273C103.706,59.396,104.209,59.396,104.71,59.396z"/>
		<path fill-rule="evenodd" clip-rule="evenodd" fill="#6D6E71" d="M99.611,58.764c0,0.717,0,1.438,0,2.16
			c-0.009,1.469-1.024,2.665-2.364,3.185c-1.649,0.642-3.587-0.216-4.4-1.767c-0.225-0.433-0.352-0.934-0.358-1.441
			c0-1.47,0-2.94,0-4.411c0-0.538,0.265-0.74,0.915-0.735c0.34,0.002,0.625,0.336,0.627,0.749c0.007,1.508-0.025,3.01,0.014,4.513
			c0.046,1.493,1.634,2.442,2.909,1.751c0.763-0.413,1.186-1.08,1.179-1.987c-0.009-1.404-0.002-2.806-0.002-4.21
			c0-0.719,0.478-1.05,1.15-0.781c0.267,0.11,0.336,0.348,0.331,0.618C99.603,57.193,99.611,57.979,99.611,58.764z"/>
		<path fill-rule="evenodd" clip-rule="evenodd" fill="#6D6E71" d="M119.215,64.302c-0.87-0.025-1.709-0.193-2.458-0.683
			c-0.228-0.156-0.414-0.333-0.414-0.637c0-0.246,0.056-0.441,0.292-0.59c0.23-0.154,0.391-0.03,0.538,0.082
			c0.742,0.554,1.566,0.752,2.483,0.65c0.851-0.101,1.33-0.634,1.197-1.383c-0.092-0.501-0.45-0.781-0.878-0.944
			c-0.646-0.251-1.312-0.453-1.964-0.686c-0.924-0.323-1.467-1.02-1.496-1.896c-0.03-1.072,0.443-1.865,1.376-2.266
			c1.264-0.542,2.5-0.411,3.72,0.152c0.412,0.192,0.384,0.521,0.251,0.839c-0.134,0.319-0.397,0.438-0.737,0.269
			c-0.593-0.299-1.218-0.45-1.882-0.4c-0.302,0.017-0.582,0.078-0.841,0.26c-0.407,0.292-0.607,0.65-0.524,1.149
			c0.071,0.466,0.428,0.661,0.802,0.797c0.667,0.248,1.347,0.45,2.02,0.681c1.654,0.569,1.921,2.601,1.083,3.646
			c-0.511,0.636-1.255,0.829-2.021,0.953C119.59,64.33,119.396,64.302,119.215,64.302z"/>
		<path fill-rule="evenodd" clip-rule="evenodd" fill="#6D6E71" d="M114.728,60.916c-0.046,1.488,0.104,3.267-0.131,5.027
			c-0.182,1.41-1.107,2.371-2.373,2.32c-0.397-0.014-0.735-0.119-0.779-0.591c-0.039-0.388,0.232-0.691,0.703-0.726
			c0.55-0.046,0.818-0.35,0.938-0.853c0.115-0.474,0.117-0.956,0.117-1.438c0.003-2.725,0.005-5.45-0.002-8.171
			c-0.003-0.399,0.078-0.689,0.533-0.724c0.698-0.055,0.887,0.058,0.962,0.618c0.039,0.283,0.03,0.565,0.03,0.854
			C114.73,58.367,114.728,59.506,114.728,60.916z"/>
		<path fill-rule="evenodd" clip-rule="evenodd" fill="#6D6E71" d="M111.449,63.341c-0.005,0.616-0.423,0.89-0.894,0.944
			c-0.411,0.044-0.949-0.503-0.966-0.917c-0.021-0.469,0.46-0.933,0.966-0.937C111.1,62.424,111.449,62.783,111.449,63.341z"/>
	</g>
</g>
<g>
	<path fill-rule="evenodd" clip-rule="evenodd" fill="#6D6E71" d="M159.355-0.515c1.26-0.067,1.836,0.338,2.272,1.078
		c4.18,7.177,8.385,14.338,12.564,21.515c1.107,1.899,1.072,1.909,3.178,1.397c4.839-1.188,9.683-2.386,14.537-3.531
		c0.896-0.214,0.939-0.451,0.407-1.15c-1.73-2.279-3.412-4.598-5.11-6.899c-0.82-1.113-0.727-1.39,0.604-1.624
		c2.665-0.479,5.342-0.919,8-1.423c0.754-0.143,1.306,0.096,1.753,0.625c2.298,2.71,4.607,5.426,6.868,8.168
		c0.669,0.813,0.521,1.179-0.515,1.457c-2.199,0.592-4.407,1.165-6.627,1.691c-0.868,0.204-0.965,0.444-0.406,1.167
		c2.111,2.724,4.173,5.488,6.233,8.246c0.968,1.292,0.873,1.583-0.625,2.127c-6.22,2.25-12.435,4.512-18.659,6.752
		c-2.04,0.732-2.417,0.62-3.479-1.225c-1.848-3.222-3.688-6.449-5.443-9.722c-0.552-1.027-1.101-1.318-2.266-0.989
		c-3.609,1.013-7.256,1.904-10.896,2.824c-1.7,0.431-2.266,0.176-2.955-1.362c-3.906-8.725-7.808-17.449-11.697-26.184
		c-0.766-1.715-0.66-1.886,1.199-2.042C152.111,0.063,155.93-0.235,159.355-0.515z M158.786,1.126
		c-2.782,0.248-5.438,0.522-8.097,0.702c-0.995,0.065-1.094,0.362-0.683,1.201c1.461,2.982,2.884,5.984,4.308,8.984
		c2.247,4.751,4.487,9.508,6.717,14.263c0.234,0.488,0.452,0.899,1.104,0.748c3.353-0.777,6.7-1.559,10.055-2.313
		c0.582-0.13,0.563-0.352,0.317-0.789c-4.156-7.365-8.309-14.734-12.439-22.111C159.726,1.201,159.316,0.965,158.786,1.126z
		 M194.037,21.657c-0.156,0.024-0.234,0.024-0.311,0.049c-5.484,1.414-10.974,2.837-16.458,4.249
		c-0.586,0.147-0.6,0.397-0.313,0.886c1.763,2.953,3.504,5.921,5.239,8.893c0.284,0.489,0.578,0.593,1.128,0.404
		c5.51-1.894,11.021-3.771,16.548-5.607c0.815-0.272,0.724-0.537,0.294-1.104c-1.817-2.405-3.604-4.832-5.386-7.267
		C194.555,21.857,194.375,21.599,194.037,21.657z M195.482,19.082c1.87-0.471,4.049-0.996,6.211-1.571
		c0.526-0.138,0.211-0.464,0.027-0.694c-1.554-1.878-3.115-3.738-4.65-5.631c-0.397-0.488-0.851-0.597-1.43-0.492
		c-1.899,0.332-3.8,0.657-5.702,0.977c-0.844,0.138-0.421,0.512-0.168,0.849c1.525,2.025,3.051,4.049,4.574,6.078
		C194.555,18.872,194.752,19.174,195.482,19.082z"/>
	<path fill-rule="evenodd" clip-rule="evenodd" fill="#6D6E71" d="M167.52,58.125c0,0.696-0.014,1.393,0,2.091
		c0.014,0.518-0.131,1.122,0.683,1.234c0.352,0.048,0.319,0.393,0.292,0.659c-0.032,0.322-0.256,0.464-0.554,0.489
		c-0.552,0.053-1.172,0.088-1.476-0.437c-0.416-0.732-0.783-0.438-1.272-0.138c-0.777,0.484-1.647,0.666-2.558,0.577
		c-1.252-0.124-2.206-1.007-2.39-2.172c-0.209-1.367,0.404-2.456,1.702-2.947c0.949-0.363,1.97-0.363,2.96-0.524
		c0.547-0.087,1.101-0.161,1.13-0.9c0.03-0.713-0.273-1.163-0.962-1.388c-1.28-0.423-2.204-0.12-2.882,1.094
		c-0.326,0.588-0.802,0.418-1.201,0.33c-0.524-0.11-0.248-0.558-0.18-0.861c0.161-0.683,0.584-1.165,1.225-1.454
		c1.418-0.655,2.85-0.614,4.278-0.032c0.805,0.331,1.175,0.98,1.19,1.829c0.023,0.85,0.009,1.7,0.009,2.55
		C167.515,58.125,167.515,58.125,167.52,58.125z M166.028,58.895c-0.28-0.181,0.37-0.948-0.36-0.884
		c-1.025,0.087-2.098,0.128-3.057,0.593c-0.68,0.333-0.912,0.933-0.783,1.654c0.11,0.643,0.559,0.999,1.179,1.126
		C164.544,61.697,165.984,60.557,166.028,58.895z"/>
	<path fill-rule="evenodd" clip-rule="evenodd" fill="#6D6E71" d="M182.326,58.13c0,0.701-0.007,1.397,0.004,2.096
		c0.01,0.517-0.135,1.119,0.683,1.225c0.354,0.048,0.294,0.402,0.28,0.664c-0.016,0.273-0.202,0.425-0.445,0.459
		c-0.545,0.083-1.195,0.166-1.498-0.347c-0.433-0.729-0.807-0.554-1.358-0.195c-0.737,0.462-1.576,0.644-2.444,0.579
		c-1.316-0.102-2.325-0.988-2.488-2.196c-0.193-1.402,0.401-2.436,1.716-2.937c0.949-0.363,1.97-0.363,2.957-0.52
		c0.557-0.087,1.092-0.175,1.131-0.907c0.039-0.729-0.301-1.16-0.981-1.386c-1.282-0.423-2.258-0.112-2.895,1.087
		c-0.326,0.606-0.798,0.42-1.188,0.342c-0.51-0.11-0.257-0.564-0.179-0.87c0.177-0.724,0.657-1.207,1.332-1.505
		c0.834-0.375,1.715-0.469,2.613-0.384c2.093,0.202,2.762,0.944,2.762,3.054C182.328,56.97,182.326,57.553,182.326,58.13z
		 M180.851,58.877c-0.179-0.244,0.331-0.954-0.402-0.878c-0.985,0.104-2.001,0.156-2.938,0.544c-0.696,0.29-0.956,0.859-0.885,1.591
		c0.067,0.707,0.501,1.103,1.165,1.245C179.353,61.717,180.816,60.541,180.851,58.877z"/>
	<path fill-rule="evenodd" clip-rule="evenodd" fill="#6D6E71" d="M197.252,58.452c-0.77,0-1.544,0.019-2.316-0.004
		c-0.647-0.023-0.8,0.271-0.68,0.861c0.216,1.021,0.661,1.848,1.769,2.05c1.078,0.204,1.992-0.104,2.59-1.097
		c0.076-0.128,0.126-0.284,0.211-0.411c0.341-0.491,0.89-0.379,1.262-0.228c0.57,0.241,0.097,0.671-0.046,0.958
		c-0.942,1.859-3.382,2.608-5.301,1.646c-1.654-0.827-2.458-2.663-2.174-4.965c0.246-2.013,1.416-3.426,3.166-3.842
		c2.732-0.644,5.28,1.778,4.814,4.535c-0.092,0.52-0.394,0.492-0.74,0.492C198.954,58.452,198.106,58.452,197.252,58.452z
		 M196.597,57.25c0.538,0,1.078-0.03,1.613,0.007c0.634,0.034,0.8-0.187,0.637-0.813c-0.278-1.085-0.859-1.792-2.016-1.907
		c-1.084-0.105-2.026,0.51-2.426,1.569c-0.29,0.77-0.21,1.271,0.809,1.151C195.669,57.207,196.133,57.25,196.597,57.25z"/>
	<path fill-rule="evenodd" clip-rule="evenodd" fill="#6D6E71" d="M187.896,60.233c0.625-1.856,1.252-3.709,1.887-5.563
		c0.097-0.29,0.16-0.621,0.342-0.855c0.368-0.484,0.963-0.349,1.381-0.188c0.487,0.185,0.051,0.607-0.05,0.878
		c-0.842,2.321-1.735,4.628-2.583,6.948c-0.212,0.593-0.43,0.968-1.192,0.956c-0.727-0.016-0.9-0.384-1.101-0.924
		c-0.815-2.291-1.675-4.563-2.475-6.858c-0.11-0.308-0.681-0.837,0.007-1.022c0.561-0.156,1.298-0.313,1.576,0.644
		c0.462,1.592,1.004,3.166,1.521,4.74c0.133,0.401,0.282,0.797,0.427,1.194C187.721,60.199,187.809,60.216,187.896,60.233z"/>
	<path fill-rule="evenodd" clip-rule="evenodd" fill="#6D6E71" d="M203.81,56.352c0,1.746-0.021,3.488,0.014,5.229
		c0.009,0.598-0.159,0.818-0.784,0.812c-0.606-0.005-0.795-0.2-0.79-0.807c0.025-3.488,0.023-6.972,0.003-10.459
		c-0.003-0.593,0.167-0.823,0.783-0.83c0.627-0.005,0.797,0.232,0.783,0.825C203.793,52.867,203.81,54.606,203.81,56.352z"/>
	<path fill-rule="evenodd" clip-rule="evenodd" fill="#6D6E71" d="M158.476,56.292c0,1.746-0.009,3.483,0.01,5.225
		c0.007,0.52-0.005,0.876-0.706,0.876c-0.673,0-0.843-0.23-0.838-0.871c0.027-3.446,0.025-6.889,0.002-10.331
		c-0.007-0.625,0.143-0.902,0.832-0.896c0.696,0.009,0.714,0.377,0.71,0.896C158.467,52.892,158.476,54.592,158.476,56.292z"/>
	<path fill-rule="evenodd" clip-rule="evenodd" fill="#6D6E71" d="M169.946,57.988c0-1.199-0.01-2.398,0.004-3.594
		c0.003-0.326-0.135-0.776,0.389-0.815c0.35-0.025,0.848-0.228,1.009,0.269c0.202,0.63,0.448,0.336,0.724,0.113
		c0.399-0.317,0.829-0.568,1.347-0.625c0.409-0.044,0.811-0.054,0.778,0.544c-0.021,0.4,0.11,0.795-0.564,0.905
		c-1.652,0.276-2.194,0.997-2.216,2.688c-0.011,1.117,0.076,2.247-0.034,3.357c-0.053,0.528,0.623,1.505-0.669,1.546
		c-1.32,0.041-0.691-0.956-0.741-1.493C169.877,59.927,169.946,58.953,169.946,57.988z"/>
</g>
<g>
	<path fill-rule="evenodd" clip-rule="evenodd" fill="#6D6E71" d="M283.103,59.286c0.007-8.141,0-16.281,0.039-24.422
		c0.005-0.846-0.554-2.066,1.126-2.191c1.442-0.113,2.419,0.161,2.39,1.86c0,0.166,0.145,0.329,0.267,0.586
		c1.408-1.657,3.143-2.56,5.289-2.696c3.906-0.245,6.86,1.777,7.922,5.522c0.611,2.177,0.662,4.409,0.232,6.597
		c-1.048,5.356-5.687,8.414-11.539,7.519c-1.604-0.239-1.969,0.046-1.965,1.649c0,1.853,0.568,3.794-0.427,5.576
		C285.324,59.286,284.215,59.286,283.103,59.286z M286.919,43.828c0,1.408,0.012,2.575-0.005,3.747
		c-0.007,0.598,0.081,1.039,0.756,1.289c3.764,1.39,7.911-0.733,8.727-4.515c0.358-1.65,0.341-3.318-0.022-4.961
		c-0.549-2.521-2.109-3.812-4.504-3.801c-2.398,0.019-4.188,1.487-4.747,3.862C286.768,40.98,286.995,42.525,286.919,43.828z"/>
	<path fill-rule="evenodd" clip-rule="evenodd" fill="#6D6E71" d="M316.449,59.286c0.009-2.028-0.061-4.068,0.055-6.1
		c0.073-1.273-0.404-1.445-1.484-1.223c-2.033,0.423-4.064,0.216-6.045-0.324c-3.407-0.928-5.549-3.513-5.896-7.02
		c-0.776-7.803,3.707-12.518,11.553-12.164c5.606,0.258,5.606,0.258,5.606,5.859c0,6.301,0,12.594,0,18.896
		c0,0.722,0.132,1.479-0.454,2.074C318.671,59.286,317.561,59.286,316.449,59.286z M316.477,42.167c0-1.786-0.005-3.566,0.002-5.354
		c0.002-0.583,0.002-1.148-0.785-1.189c-1.776-0.097-3.564-0.313-5.258,0.515c-2.823,1.371-4.26,5.279-3.271,8.983
		c0.761,2.863,3.113,4.274,6.61,3.954c0.427-0.039,0.854-0.145,1.282-0.148c1.08-0.008,1.498-0.472,1.442-1.595
		C316.412,45.613,316.479,43.889,316.477,42.167z"/>
	<path fill-rule="evenodd" clip-rule="evenodd" fill="#6D6E71" d="M244.938,27.054c0.956,0.959,1.892,1.938,2.877,2.861
		c0.807,0.764,0.766,1.407-0.012,2.182c-3.761,3.728-7.483,7.5-11.256,11.218c-1.112,1.094-9.06,0.795-10.211-0.28
		c-2.101-1.967-3.925-4.219-6.225-5.979c0-0.492,0-0.988,0-1.479c1.204-0.455,1.848-1.554,2.686-2.396
		c0.895-0.902,1.552-0.953,2.443-0.015c1.782,1.873,3.648,3.665,5.475,5.499c0.446,0.445,0.795,0.914,1.478,0.216
		c3.86-3.964,7.753-7.89,11.634-11.826C244.198,27.054,244.57,27.054,244.938,27.054z"/>
	<path fill-rule="evenodd" clip-rule="evenodd" fill="#6D6E71" d="M386.105,51.878c-1.592,0.06-3.159,0.489-4.779,0.187
		c-3.04-0.565-4.418-2.055-4.467-5.143c-0.051-3.084-0.066-6.167,0.012-9.246c0.032-1.257-0.122-2.021-1.646-1.773
		c-0.411,0.068-1.07,0.314-1.305-0.276c-0.219-0.561,0.374-0.859,0.689-1.199c1.856-2.026,3.738-4.027,5.969-6.431
		c0,1.585,0.056,2.665-0.018,3.733c-0.063,0.948,0.213,1.37,1.222,1.263c0.733-0.075,1.48,0.021,2.22-0.022
		c1.011-0.06,1.758-0.023,1.753,1.384c0,1.369-0.556,1.613-1.767,1.602c-3.41-0.035-3.414,0.016-3.41,3.458
		c0.005,2.157-0.05,4.317,0.037,6.473c0.117,2.842,1.089,3.669,3.851,3.219c0.759-0.124,1.225-0.03,1.639,0.552
		C386.105,50.396,386.105,51.136,386.105,51.878z"/>
	<path fill-rule="evenodd" clip-rule="evenodd" fill="#6D6E71" d="M356.614,44.321c0,1.905-0.032,3.824,0.019,5.73
		c0.019,0.82-0.214,1.264-1.059,1.402c-2.928,0.479-5.839,0.951-8.823,0.459c-3.206-0.521-5.058-2.256-5.379-5.174
		c-0.309-2.773,1.286-5.236,4.136-6.287c1.941-0.717,3.981-0.924,6.013-0.629c1.289,0.186,1.452-0.28,1.328-1.384
		c-0.195-1.654-1.112-2.568-2.677-2.852c-1.785-0.319-3.577-0.231-5.313,0.283c-1.155,0.342-1.564-0.187-1.743-1.197
		c-0.173-0.948-0.159-1.59,1.098-1.804c2.392-0.409,4.754-0.71,7.167-0.274c3.154,0.57,4.931,2.421,5.128,5.619
		c0.127,2.026,0.023,4.069,0.023,6.106C356.558,44.321,356.587,44.321,356.614,44.321z M352.901,45.912c0-3.401,0-3.422-3.416-3.276
		c-0.727,0.031-1.474,0.158-2.169,0.386c-1.563,0.498-2.22,1.663-2.128,3.267c0.097,1.685,1.041,2.551,3.056,2.838
		C352.059,49.666,352.901,49.078,352.901,45.912z"/>
	<path fill-rule="evenodd" clip-rule="evenodd" fill="#6D6E71" d="M262.609,42.354c-0.019-6.865,4.202-10.683,10.822-9.788
		c4.611,0.616,7.488,4.495,7.392,9.961c-0.122,6.891-4.88,10.77-11.521,9.386C265.05,51.031,262.625,47.568,262.609,42.354z
		 M276.788,42.332c0.095-1.25-0.104-2.466-0.498-3.635c-0.747-2.201-2.266-3.261-4.594-3.27c-2.357-0.007-3.807,0.99-4.559,3.265
		c-0.792,2.41-0.792,4.853,0.005,7.256c0.754,2.275,2.24,3.312,4.545,3.309c2.266,0,3.828-1.104,4.589-3.299
		C276.681,44.792,276.878,43.577,276.788,42.332z"/>
	<path fill-rule="evenodd" clip-rule="evenodd" fill="#6D6E71" d="M339.017,42.014c0,2.527-0.062,5.06,0.025,7.583
		c0.039,1.116-0.282,1.665-1.404,1.87c-2.798,0.505-5.581,0.873-8.443,0.464c-3.468-0.494-5.588-2.403-6.124-5.898
		c-0.629-4.104-0.197-8.246-0.264-12.372c-0.027-1.576,1.318-0.895,2.091-0.993c0.853-0.108,1.739-0.135,1.709,1.24
		c-0.071,2.712-0.027,5.428-0.018,8.139c0.004,0.8,0.016,1.604,0.105,2.399c0.374,3.368,1.631,4.498,5.032,4.569
		c3.545,0.076,3.545,0.076,3.545-3.448c0-3.819,0.071-7.647-0.034-11.466c-0.042-1.581,0.87-1.478,1.882-1.46
		c0.972,0.018,1.994-0.197,1.925,1.419C338.938,36.711,339.017,39.363,339.017,42.014z"/>
	<path fill-rule="evenodd" clip-rule="evenodd" fill="#6D6E71" d="M363.634,52.213c-0.856-0.131-2.194-0.335-3.533-0.549
		c-0.929-0.151-1.705-0.345-1.17-1.641c0.382-0.914,0.397-1.921,1.909-1.396c1.696,0.59,3.49,0.797,5.28,0.291
		c1.323-0.376,2.452-1.013,2.534-2.557c0.076-1.498-0.994-2.146-2.203-2.624c-1.539-0.616-3.116-1.156-4.625-1.838
		c-1.811-0.816-2.744-2.279-2.643-4.278c0.101-1.999,1.021-3.548,2.904-4.38c2.989-1.32,6.033-0.939,9.064-0.158
		c1.16,0.296,0.528,1.201,0.409,1.833c-0.122,0.671-0.373,1.301-1.354,1.004c-1.657-0.505-3.337-0.877-5.094-0.425
		c-1,0.253-1.936,0.531-2.046,1.776c-0.105,1.245,0.594,1.974,1.655,2.383c1.318,0.51,2.665,0.949,3.997,1.427
		c2.151,0.772,3.576,2.13,3.711,4.554c0.143,2.583-1.022,4.375-3.273,5.515C367.582,51.952,365.87,52.152,363.634,52.213z"/>
	<path fill-rule="evenodd" clip-rule="evenodd" fill="#6D6E71" d="M245.384,45.095c-3.989,4.01-7.984,8.017-11.962,12.04
		c-0.685,0.696-1.273,0.825-2.015,0.076c-4.1-4.159-3.806-2.78-0.263-6.429c2.955-3.038,5.992-6.007,9.014-8.979
		c0.405-0.402,0.676-1.107,1.469-0.901C242.709,42.451,244.446,43.416,245.384,45.095z"/>
	<path fill-rule="evenodd" clip-rule="evenodd" fill="#6D6E71" d="M245.384,45.095c-0.938-1.68-2.675-2.645-3.757-4.193
		c2.521-0.027,5.041-0.046,7.56-0.101c0.627-0.017,1.022,0.262,1.427,0.671c1.861,1.884,3.713,3.772,5.625,5.602
		c0.859,0.827,0.866,1.498,0.018,2.316c-3.883,3.733-2.568,3.516-6.057,0.239C248.591,48.117,247.249,46.327,245.384,45.095z"/>
</g>
<text transform="matrix(1 0 0 1 258.5127 21.4585)" fill="#6D6E71" font-family="'MyriadPro-Regular'" font-size="18.4567">Certification</text>
</svg>
