<?xml version="1.0" encoding="utf-8"?>
<!-- Generator: Adobe Illustrator 16.0.3, SVG Export Plug-In . SVG Version: 6.00 Build 0)  -->
<!DOCTYPE svg PUBLIC "-//W3C//DTD SVG 1.1//EN" "http://www.w3.org/Graphics/SVG/1.1/DTD/svg11.dtd">
<svg version="1.1" id="Layer_1" xmlns="http://www.w3.org/2000/svg" xmlns:xlink="http://www.w3.org/1999/xlink" x="0px" y="0px"
	 width="91.309px" height="46.246px" viewBox="0 0 91.309 46.246" enable-background="new 0 0 91.309 46.246" xml:space="preserve">
<g>
	<path fill="#00FFFF" d="M87.263,13.535c-2.539-2.854-5.652-4.968-9.044-6.672C68.811,2.123,58.698,0.258,48.28,0.02
		c-4.586-0.105-9.211,0.214-13.778,0.673C28.098,1.33,21.899,2.932,15.976,5.496c-4.613,2.004-8.88,4.515-12.224,8.36
		c-2.001,2.302-3.392,4.909-3.691,8.005c-0.387,4.049,1.118,7.444,3.698,10.428c3.424,3.942,7.818,6.517,12.565,8.51
		c9.354,3.93,19.191,5.302,30.285,5.445c1.495-0.086,4.013-0.197,6.522-0.386c7.206-0.54,14.216-1.993,20.938-4.688
		c4.868-1.953,9.392-4.471,13.003-8.367C92.653,26.789,92.723,19.667,87.263,13.535z M27.879,29.798
		c-2.184,0.078-4.363,0.055-6.54,0.019c-0.704-0.015-1.029-0.812-1.14-0.009c-0.302,2.154-0.728,5.585-1.118,5.585
		c-1.797,0-3.582,0-5.468,0c0.349,0,0.683-2.778,1.036-4.601c1.221-6.348,2.458-12.241,3.648-18.597
		c0.128-0.658,0.352-0.624,1.015-0.618c3.424,0.043,6.853,0.099,10.275,0.181c1.103,0.026,2.237,0.306,3.288,0.642
		c2.847,0.918,4.521,3.278,4.566,6.282c0.044,2.761-0.695,5.297-2.397,7.508C33.232,28.562,30.788,29.688,27.879,29.798z
		 M55.127,30.393c-1.771,0-3.533,0-5.425,0c0.295-2,0.567-3.271,0.854-4.718c0.443-2.255,0.921-4.655,1.346-6.918
		c0.358-1.912-0.361-2.941-2.312-3.035c-1.646-0.079-3.294-0.053-5.029-0.053c-0.377,1.853-0.756,3.656-1.111,5.478
		c-0.523,2.647-1.021,5.299-1.563,7.946c-0.055,0.279-0.395,0.697-0.61,0.703c-1.612,0.063-3.229,1.152-4.973,1.152
		c1.634-8.274,3.251-19.557,4.873-23.557c1.82,0,3.58,0,5.443,0c-0.424,0-0.829,3.237-1.275,5.56c0.472,0,0.855-0.587,1.239-0.563
		c2.354,0.129,4.722-0.133,7.061,0.141c0.932,0.109,1.884,0.513,2.663,1.082c1.429,1.049,1.571,2.599,1.279,4.17
		c-0.714,3.916-1.534,8.073-2.318,11.973C55.247,29.873,55.188,28.393,55.127,30.393z M77.305,26.636
		c-1.772,2.074-4.078,3.027-6.721,3.154c-2.208,0.1-4.421,0.056-6.631,0.025c-0.699-0.016-1.036-0.826-1.146-0.031
		c-0.299,2.159-0.727,5.607-1.122,5.607c-1.826,0-3.586,0-5.464,0c0.273,0,0.533-1.991,0.805-3.416
		c1.296-6.739,2.607-13.016,3.876-19.768c0.122-0.654,0.339-0.637,1.012-0.629c3.426,0.041,6.854,0.07,10.274,0.179
		c1.28,0.041,2.615,0.385,3.807,0.854c2.516,0.989,3.885,3.009,4.033,5.695C80.2,21.394,79.354,24.235,77.305,26.636z"/>
	<path fill="#00FFFF" d="M71.53,15.838c-1.186-0.201-2.411-0.183-3.62-0.202c-2.086-0.026-2.104-0.007-2.519,2.032
		c-0.55,2.733-1.073,5.48-1.627,8.33c1.79,0,3.448,0.104,5.082-0.027c3.113-0.262,4.521-1.59,5.188-4.662
		c0.136-0.606,0.207-1.227,0.255-1.843C74.433,17.354,73.599,16.181,71.53,15.838z"/>
	<path fill="#00FFFF" d="M28.913,15.849c-1.746-0.236-3.536-0.167-5.308-0.195c-0.17-0.005-0.466,0.229-0.497,0.392
		c-0.662,3.285-1.289,6.58-1.92,9.849c1.91,0,3.771,0.071,5.619-0.021c2.348-0.115,3.74-1.518,4.394-3.685
		c0.236-0.798,0.362-1.637,0.474-2.465C31.969,17.539,31.066,16.146,28.913,15.849z"/>
</g>
<g>
	<path fill="#6D6E71" d="M108.854-1.409c0.603-1.483,1.921-1.998,3.295-2.369c2.979-0.801,6.045-1.208,9.11-1.54
		c3.74-0.416,7.49-0.637,11.252-0.522c5.471,0.164,10.904,0.662,16.242,1.944c0.94,0.226,1.843,0.561,2.697,1.027
		c0.669,0.363,1.004,0.904,0.996,1.671c-0.005,4.006,0.008,8.007,0,12.007c0,0.798-0.476,1.351-1.046,1.817
		c-1.02,0.835-2.229,1.307-3.462,1.698c-2.845,0.902-5.771,1.337-8.723,1.626c-3.334,0.332-6.677,0.474-10.021,0.399
		c-4.557-0.104-9.09-0.401-13.55-1.41c-1.5-0.334-2.969-0.766-4.354-1.449c-1.065-0.529-2.01-1.19-2.439-2.379
		C108.854,6.94,108.854,2.764,108.854-1.409z M129.421,0.958c4.747,0.007,9.188-0.131,13.613-0.617
		c1.897-0.214,3.799-0.469,5.639-1.026c0.462-0.14,0.919-0.301,1.321-0.576c0.54-0.375,0.532-0.779-0.025-1.128
		c-0.243-0.161-0.515-0.286-0.788-0.389c-0.866-0.344-1.778-0.541-2.691-0.705c-4.395-0.776-8.833-0.987-13.278-1.095
		c-3.293-0.088-6.585,0-9.876,0.181c-2.86,0.154-5.707,0.399-8.526,0.926c-1.148,0.219-2.307,0.44-3.343,1.025
		c-0.676,0.38-0.681,0.842-0.021,1.236c0.292,0.169,0.614,0.301,0.942,0.419c1.204,0.432,2.463,0.642,3.72,0.834
		C120.618,0.728,125.163,0.878,129.421,0.958z M111.625,6.593c0.396,0.003,0.671-0.288,0.66-0.694
		c-0.006-0.427-0.271-0.616-0.653-0.652c-0.347-0.036-0.712,0.349-0.678,0.699C110.996,6.334,111.223,6.565,111.625,6.593z"/>
	<path fill="#6D6E71" d="M108.854,34.403c0.204-0.448,0.387-0.915,0.808-1.228c0.138-0.105,0.229-0.153,0.396-0.032
		c1.755,1.284,3.813,1.825,5.882,2.278c3.563,0.791,7.186,1.107,10.824,1.27c3.378,0.154,6.76,0.12,10.131-0.117
		c3.891-0.277,7.757-0.715,11.481-1.969c1.05-0.354,2.064-0.786,2.937-1.486c0.187-0.148,0.311-0.148,0.489,0
		c0.365,0.297,0.602,0.664,0.625,1.143c0.016,0.445,0.021,0.896,0.021,1.342c0.007,3.482-0.03,6.971,0.022,10.454
		c0.016,1.274-0.596,2.077-1.574,2.702c-1.671,1.062-3.55,1.566-5.459,1.99c-3.388,0.754-6.836,1.086-10.304,1.252
		c-3.205,0.148-6.412,0.168-9.615-0.029c-4.187-0.254-8.35-0.672-12.368-1.969c-1.07-0.344-2.094-0.789-3.015-1.448
		c-0.591-0.425-0.973-0.99-1.282-1.634C108.854,42.748,108.854,38.576,108.854,34.403z M112.231,41.19
		c-0.335,0.041-0.581,0.239-0.595,0.657c-0.014,0.389,0.299,0.717,0.678,0.686c0.387-0.039,0.64-0.256,0.664-0.664
		C113.002,41.5,112.666,41.181,112.231,41.19z"/>
	<path fill="#6D6E71" d="M108.854,16.183c0.151-0.114,0.117-0.313,0.188-0.467c0.354-0.779,0.554-0.835,1.235-0.366
		c1.622,1.121,3.489,1.625,5.369,2.057c3.232,0.754,6.52,1.082,9.829,1.272c2.96,0.17,5.924,0.207,8.886,0.077
		c4.468-0.204,8.91-0.567,13.224-1.843c1.425-0.425,2.822-0.928,3.962-1.942c0.163-0.138,0.25-0.09,0.384,0.024
		c0.301,0.269,0.459,0.605,0.491,0.997c0.024,0.308,0.024,0.615,0.024,0.929c0.008,3.672-0.012,7.344,0.015,11.018
		c0.01,0.958-0.367,1.654-1.077,2.223c-1.092,0.865-2.36,1.355-3.667,1.748c-3.164,0.965-6.425,1.389-9.708,1.661
		c-3.872,0.333-7.748,0.404-11.629,0.202c-4.425-0.229-8.825-0.63-13.09-1.962c-0.774-0.244-1.525-0.547-2.24-0.931
		c-0.977-0.524-1.824-1.17-2.196-2.274C108.854,24.466,108.854,20.325,108.854,16.183z M112.979,24.421
		c0.009-0.432-0.316-0.776-0.683-0.752c-0.396,0.029-0.636,0.246-0.659,0.654c-0.021,0.387,0.287,0.699,0.676,0.686
		C112.719,24.992,112.933,24.757,112.979,24.421z"/>
	<path fill="#6D6E71" d="M176.652,29.958c0-2.848,0-5.693,0-8.538c0-1.438,0.141-2.848,0.598-4.227
		c0.929-2.782,2.87-4.43,5.71-5.028c1.602-0.34,3.22-0.349,4.83-0.039c3.448,0.671,5.604,2.853,6.254,6.304
		c0.19,0.989,0.277,1.979,0.277,2.982c0,5.754,0.01,11.517-0.009,17.271c-0.01,2.058-0.326,4.056-1.326,5.892
		c-0.189,0.354-0.676,0.682-0.534,1.036c0.124,0.298,0.619,0.448,0.956,0.664c0.566,0.363,1.126,0.728,1.703,1.071
		c0.229,0.135,0.257,0.252,0.115,0.482c-0.688,1.193-1.372,2.389-2.036,3.594c-0.174,0.318-0.315,0.305-0.59,0.123
		c-1.649-1.098-3.312-2.176-4.966-3.271c-0.26-0.177-0.496-0.216-0.815-0.16c-2.925,0.52-5.6,0.018-7.783-2.138
		c-1.313-1.296-1.888-2.972-2.185-4.756c-0.147-0.919-0.204-1.849-0.199-2.775C176.654,35.617,176.652,32.785,176.652,29.958z
		 M183.754,30.019c0,2.83,0.003,5.656,0,8.479c-0.002,0.727,0.063,1.451,0.272,2.145c0.237,0.766,0.729,1.123,1.484,1.104
		c0.729-0.014,1.165-0.388,1.352-1.176c0.134-0.591,0.229-1.186,0.229-1.792c0.004-5.911,0.004-11.821,0-17.734
		c0-0.536-0.095-1.06-0.276-1.565c-0.24-0.646-0.636-0.952-1.313-0.972c-0.615-0.014-1.099,0.24-1.381,0.815
		c-0.294,0.608-0.365,1.251-0.365,1.907C183.757,24.16,183.754,27.096,183.754,30.019z"/>
	<path fill="#6D6E71" d="M170.924,22.501c-1.048,0-2.106-0.017-3.154,0.012c-0.396,0.009-0.494-0.115-0.486-0.493
		c0.016-0.688-0.02-1.376-0.045-2.066c-0.033-0.89-0.556-1.417-1.422-1.452c-0.939-0.041-1.605,0.486-1.697,1.368
		c-0.11,1.021,0.26,1.9,0.854,2.696c0.88,1.186,2.036,2.1,3.077,3.128c1.296,1.287,2.66,2.503,3.874,3.874
		c1.898,2.15,2.819,4.655,2.858,7.51c0.026,2.146-0.125,4.27-0.82,6.322c-0.935,2.753-2.787,4.402-5.708,4.793
		c-1.939,0.264-3.854,0.161-5.732-0.386c-2.712-0.79-4.173-2.716-4.812-5.372c-0.268-1.128-0.413-2.271-0.431-3.428
		c-0.014-1.313,0.008-2.619-0.019-3.934c-0.007-0.373,0.112-0.461,0.467-0.457c2.055,0.01,4.104,0.01,6.157,0
		c0.329,0,0.439,0.084,0.435,0.43c-0.019,1.434-0.007,2.867-0.005,4.295c0,0.539,0.076,1.063,0.317,1.562
		c0.321,0.649,0.88,0.921,1.671,0.834c0.714-0.085,1.137-0.418,1.259-1.157c0.384-2.347,0.08-4.57-1.604-6.371
		c-1.676-1.791-3.437-3.496-5.168-5.224c-1.805-1.797-3.146-3.854-3.438-6.436c-0.25-2.237-0.053-4.444,0.901-6.522
		c1.057-2.28,2.895-3.554,5.333-3.952c1.877-0.299,3.747-0.202,5.581,0.327c2.256,0.651,3.749,2.116,4.544,4.303
		c0.64,1.753,0.844,3.579,0.864,5.433c0.007,0.318-0.122,0.367-0.392,0.364c-1.084-0.01-2.174-0.008-3.263-0.008
		C170.924,22.499,170.924,22.499,170.924,22.501z"/>
	<path fill="#6D6E71" d="M197.725,30.085c0-5.742,0.007-11.485-0.015-17.231c-0.004-0.521,0.148-0.618,0.632-0.611
		c1.983,0.027,3.969,0.034,5.951,0c0.523-0.01,0.604,0.149,0.603,0.631c-0.014,9.436-0.014,18.872-0.01,28.303
		c0,0.889-0.087,0.74,0.733,0.746c2.034,0.008,4.068,0.012,6.103-0.002c0.386-0.008,0.542,0.068,0.533,0.496
		c-0.023,1.69-0.023,3.387,0,5.072c0.005,0.428-0.136,0.506-0.528,0.506c-4.482-0.016-8.964-0.016-13.451,0.006
		c-0.471,0.002-0.568-0.139-0.564-0.582c0.015-5.778,0.007-11.555,0.007-17.334C197.72,30.085,197.722,30.085,197.725,30.085z"/>
</g>
<g>
	<g>
		<g>
			<path fill="#6D6E71" d="M264.658-10.227c2.322,0,4.639,0,6.957,0c0.085,0.263,0.321,0.215,0.518,0.246
				c0.797,0.139,1.595,0.242,2.387,0.411c12.879,2.723,22.638,13.236,24.423,26.286c0.029,0.23-0.054,0.516,0.26,0.64
				c0,2.322,0,4.638,0,6.96c-0.265,0.083-0.216,0.316-0.25,0.516c-0.138,0.813-0.246,1.635-0.421,2.446
				c-2.821,12.947-13.236,22.584-26.333,24.369c-0.218,0.028-0.479-0.035-0.582,0.25c-2.318,0-4.635,0-6.957,0
				c-0.085-0.263-0.322-0.211-0.516-0.246c-0.813-0.14-1.636-0.25-2.447-0.425c-12.946-2.82-22.578-13.234-24.368-26.334
				c-0.027-0.213,0.037-0.471-0.256-0.576c0-2.322,0-4.638,0-6.96c0.265-0.086,0.222-0.321,0.25-0.515
				c0.137-0.796,0.244-1.6,0.409-2.388c2.727-12.878,13.232-22.638,26.285-24.423C264.249-9.998,264.539-9.918,264.658-10.227z
				 M286.741,0.169c-0.066-0.292-0.268-0.385-0.422-0.513c-4.746-4.031-10.218-6.358-16.445-6.66
				c-10.025-0.486-18.085,3.372-24.218,11.299c-0.256,0.332-0.769,0.725-0.594,1.068c0.178,0.348,0.793,0.158,1.224,0.158
				c2.504,0,5.009-0.169,7.506-0.332c0.929-0.064,1.404,0.311,1.448,1.051c0.038,0.748-0.381,1.172-1.289,1.27
				c-0.679,0.07-1.358,0.119-2.041,0.167c-0.831,0.058-0.861,0.099-0.604,0.873c3.191,9.502,6.385,18.995,9.576,28.487
				c0.074,0.207,0.088,0.453,0.306,0.59c0.227-0.104,0.232-0.332,0.294-0.52c1.886-5.631,3.761-11.268,5.646-16.9
				c0.124-0.377,0.12-0.713-0.014-1.082c-1.323-3.594-2.644-7.19-3.938-10.792c-0.153-0.438-0.393-0.621-0.846-0.651
				c-0.805-0.051-1.61-0.117-2.41-0.238c-0.634-0.094-0.98-0.58-0.928-1.186c0.053-0.638,0.488-1.056,1.14-1.075
				c0.313-0.009,0.625,0.021,0.933,0.041c2.994,0.192,5.99,0.421,8.998,0.228c1.61-0.099,3.222-0.196,4.836-0.269
				c0.786-0.035,1.248,0.354,1.313,1.017c0.063,0.692-0.338,1.179-1.128,1.282c-0.699,0.092-1.401,0.143-2.104,0.187
				c-0.948,0.063-0.979,0.095-0.686,0.976c3.171,9.419,6.34,18.837,9.506,28.253c0.063,0.188,0.071,0.409,0.308,0.559
				c0.054-0.113,0.12-0.213,0.154-0.324c1.374-4.576,2.764-9.153,4.105-13.745c0.593-2.021,0.8-4.086,0.437-6.195
				c-0.411-2.382-1.479-4.465-2.74-6.478c-0.662-1.054-1.299-2.121-1.71-3.302c-0.405-1.157-0.584-2.338-0.231-3.538
				C282.784,1.59,284.313,0.345,286.741,0.169z M268.646,23.404c-0.142,0.331-0.216,0.477-0.269,0.627
				c-2.633,7.649-5.265,15.299-7.913,22.944c-0.188,0.545-0.03,0.71,0.478,0.846c5.309,1.38,10.567,1.238,15.795-0.409
				c0.479-0.15,0.589-0.326,0.404-0.83c-2.646-7.207-5.272-14.422-7.904-21.629C269.065,24.492,268.891,24.037,268.646,23.404z
				 M242.699,9.699c-0.054,0.005-0.105,0.014-0.158,0.019c-0.09,0.207-0.186,0.411-0.273,0.618
				c-1.931,4.797-2.563,9.766-1.692,14.863c1.562,9.135,6.502,15.904,14.614,20.37c0.165,0.089,0.363,0.312,0.547,0.134
				c0.146-0.134-0.038-0.343-0.079-0.52c-0.02-0.075-0.057-0.15-0.081-0.23c-4.046-11.074-8.085-22.158-12.135-33.234
				C243.193,11.043,242.949,10.37,242.699,9.699z M292.949,7.989c-0.054,0.011-0.107,0.02-0.163,0.026
				c-0.015,0.041-0.039,0.081-0.039,0.118c0,0.124,0,0.249,0.007,0.372c0.331,3.596-0.34,7.042-1.51,10.421
				c-2.92,8.376-5.833,16.763-8.744,25.148c-0.067,0.199-0.217,0.401-0.064,0.745c6.033-3.728,10.226-8.878,12.331-15.624
				C297.046,21.888,296.339,14.804,292.949,7.989z"/>
		</g>
		<g>
			<g>
				<g>
					<path fill="#6D6E71" d="M355.755-10.794c3.625,0,7.256,0,11.056,0c-0.714,1.251-1.363,2.408-2.029,3.558
						c-8.169,14.114-16.335,28.227-24.505,42.346c-0.813,1.394-0.82,1.402-1.62,0.019c-8.711-15.051-17.417-30.104-26.12-45.16
						c-0.129-0.218-0.351-0.404-0.271-0.757c3.614,0,7.238,0,10.859,0c0.068,0.148,0.135,0.298,0.216,0.438
						c4.524,7.828,9.048,15.652,13.577,23.481c0.815,1.401,1.638,2.81,2.447,4.201c0.386-0.137,0.439-0.42,0.563-0.634
						c4.059-6.996,8.122-13.994,12.162-21.002C353.323-6.459,354.665-8.555,355.755-10.794z"/>
					<path fill="#6D6E71" d="M339.459,37.115c-0.758,0-1.107-0.599-1.633-1.508c-8.709-15.052-17.419-30.104-26.118-45.159
						c-0.202-0.29-0.524-0.749-0.384-1.434l0.158-0.758h12.229l0.455,0.921l15.291,26.419l1.482-2.554
						c3.438-5.939,6.889-11.878,10.313-17.826c0.358-0.618,0.722-1.236,1.087-1.852c0.88-1.484,1.792-3.021,2.553-4.579l0.265-0.539
						h13.302l-1.56,2.738c-0.441,0.772-0.859,1.518-1.291,2.26l-24.506,42.341C340.57,36.507,340.215,37.115,339.459,37.115z
						 M313.755-9.832c8.57,14.82,17.137,29.631,25.704,44.437l24.494-42.32c0.404-0.7,0.802-1.399,1.213-2.123h-8.818
						c-0.73,1.441-1.559,2.833-2.356,4.18c-0.361,0.609-0.72,1.217-1.073,1.833c-3.433,5.949-6.875,11.887-10.321,17.828
						l-1.841,3.178c-0.15,0.313-0.395,0.814-1.07,1.055l-0.751,0.268L322.532-9.832H313.755z"/>
				</g>
				<path fill="#6D6E71" d="M338.934,18.501L322.51-9.871c-0.068-0.122-0.127-0.238-0.185-0.358l-0.636-1.358l1.427-0.157
					l2.798-0.012c2.211-0.007,4.417-0.012,6.629-0.041c1.131,0,1.576,0.772,1.793,1.147l5.119,8.851
					c1.728-2.96,3.448-5.928,5.155-8.899c0.271-0.473,0.752-1.099,1.8-1.099c2.354,0.026,4.685,0.03,7.015,0.037l3.857,0.012
					l-0.668,1.372c-0.793,1.632-1.725,3.203-2.624,4.718c-0.361,0.609-0.726,1.217-1.073,1.833
					c-3.438,5.951-6.884,11.903-10.33,17.847l-1.832,3.158c-0.15,0.313-0.395,0.814-1.07,1.055L338.934,18.501z M324.74-9.836
					l14.719,25.432l1.469-2.536c3.448-5.944,6.897-11.888,10.328-17.843c0.358-0.618,0.722-1.236,1.087-1.852
					c0.62-1.044,1.254-2.119,1.845-3.207l-0.768-0.002c-2.334-0.007-4.671-0.011-7.006-0.038l-0.144,0.134
					c-1.794,3.127-3.6,6.244-5.42,9.354c-0.209,0.447-0.473,1.027-1.213,1.251l-0.729,0.225l-6.233-10.777
					c-0.027-0.046-0.109-0.189-0.146-0.229c-2.182,0.07-4.394,0.077-6.605,0.082L324.74-9.836z"/>
			</g>
			<g>
				<path fill="#6D6E71" d="M324.299,54.071c-0.498-0.005-0.882-0.304-1.029-0.839c-0.641-2.305-1.422-4.561-2.076-6.857
					c-0.438-1.535-0.973-3.043-1.403-4.578c-0.131-0.455-0.01-0.688,0.45-0.84c0.503-0.162,0.848-0.027,0.977,0.401
					c0.335,1.142,0.647,2.3,0.992,3.444c0.515,1.714,1.068,3.414,1.567,5.131c0.133,0.459,0.25,0.928,0.393,1.388
					c0.037,0.104,0.023,0.255,0.195,0.236c0.112-0.017,0.122-0.134,0.148-0.228c0.324-1.152,0.645-2.301,0.983-3.449
					c0.52-1.76,1.066-3.516,1.595-5.279c0.117-0.4,0.19-0.805,0.347-1.191c0.188-0.475,0.39-0.604,0.862-0.478
					c0.516,0.139,0.7,0.426,0.559,0.924c-0.185,0.638-0.401,1.265-0.598,1.897c-0.621,2.029-1.216,4.066-1.855,6.09
					c-0.366,1.135-0.723,2.266-1.054,3.414C325.196,53.791,324.81,54.076,324.299,54.071z"/>
				<path fill="#6D6E71" d="M342.307,50.125c-0.669,0-1.338,0.004-2.006-0.006c-0.277-0.004-0.375,0.096-0.384,0.377
					c-0.035,1.141,0.606,1.939,1.709,2.248c0.907,0.252,1.691,0.063,2.466-0.392c0.447-0.267,0.831-0.216,1.017,0.099
					c0.206,0.356,0.101,0.668-0.334,0.963c-1.712,1.168-4.467,0.808-5.702-0.768c-0.375-0.479-0.611-1.023-0.616-1.641
					c-0.009-0.859-0.029-1.709-0.002-2.563c0.034-1.085,0.618-1.884,1.491-2.453c1.641-1.078,4.007-0.701,4.989,1.004
					c0.465,0.799,0.721,1.649,0.287,2.559c-0.172,0.373-0.471,0.553-0.86,0.558c-0.686,0.015-1.372,0.005-2.055,0.005
					C342.307,50.115,342.307,50.119,342.307,50.125z M341.782,49.169v-0.004c0.453,0,0.899,0.008,1.349-0.004
					c0.848-0.027,1.029-0.274,0.825-1.103c-0.269-1.103-1.33-1.694-2.578-1.444c-0.944,0.188-1.639,1.262-1.489,2.28
					c0.042,0.263,0.195,0.272,0.39,0.272C340.779,49.169,341.281,49.169,341.782,49.169z"/>
				<path fill="#6D6E71" d="M336.684,48.539c0,0.717,0,1.438,0,2.16c-0.009,1.469-1.023,2.664-2.363,3.184
					c-1.649,0.643-3.587-0.215-4.4-1.766c-0.225-0.434-0.352-0.935-0.358-1.441c0-1.471,0-2.94,0-4.411
					c0-0.538,0.266-0.74,0.915-0.735c0.341,0.002,0.625,0.336,0.627,0.749c0.008,1.509-0.024,3.011,0.015,4.513
					c0.046,1.494,1.634,2.442,2.909,1.752c0.763-0.414,1.186-1.08,1.179-1.987c-0.009-1.404-0.002-2.806-0.002-4.21
					c0-0.719,0.478-1.051,1.149-0.781c0.268,0.109,0.337,0.348,0.331,0.618C336.675,46.966,336.684,47.751,336.684,48.539z"/>
				<path fill="#6D6E71" d="M356.287,54.076c-0.87-0.025-1.709-0.193-2.458-0.683c-0.229-0.156-0.414-0.333-0.414-0.638
					c0-0.246,0.056-0.44,0.292-0.59c0.229-0.153,0.391-0.029,0.538,0.082c0.742,0.555,1.565,0.752,2.482,0.65
					c0.852-0.102,1.33-0.634,1.197-1.383c-0.092-0.501-0.45-0.781-0.878-0.944c-0.646-0.251-1.312-0.452-1.964-0.687
					c-0.924-0.322-1.467-1.02-1.496-1.895c-0.03-1.072,0.443-1.865,1.376-2.267c1.264-0.542,2.5-0.411,3.72,0.151
					c0.412,0.192,0.385,0.521,0.251,0.84s-0.396,0.438-0.736,0.269c-0.594-0.299-1.219-0.45-1.882-0.399
					c-0.303,0.017-0.582,0.078-0.842,0.26c-0.406,0.291-0.606,0.65-0.523,1.148c0.071,0.467,0.428,0.661,0.802,0.797
					c0.667,0.248,1.347,0.451,2.021,0.682c1.653,0.568,1.921,2.601,1.083,3.646c-0.512,0.635-1.256,0.828-2.021,0.952
					C356.662,54.103,356.469,54.076,356.287,54.076z"/>
				<path fill="#6D6E71" d="M351.8,50.689c-0.046,1.488,0.104,3.268-0.131,5.027c-0.182,1.41-1.107,2.371-2.373,2.32
					c-0.396-0.015-0.735-0.119-0.779-0.592c-0.039-0.388,0.232-0.691,0.703-0.727c0.55-0.045,0.818-0.35,0.938-0.852
					c0.115-0.475,0.117-0.957,0.117-1.439c0.003-2.725,0.005-5.449-0.002-8.17c-0.004-0.399,0.077-0.689,0.532-0.725
					c0.698-0.055,0.888,0.059,0.962,0.618c0.039,0.283,0.03,0.565,0.03,0.854C351.803,48.14,351.8,49.281,351.8,50.689z"/>
				<path fill="#6D6E71" d="M348.522,53.115c-0.006,0.616-0.424,0.891-0.895,0.944c-0.411,0.044-0.949-0.503-0.966-0.917
					c-0.021-0.469,0.46-0.934,0.966-0.938C348.172,52.199,348.522,52.556,348.522,53.115z"/>
			</g>
		</g>
		<g>
			<path fill="#6D6E71" d="M396.428-10.741c1.261-0.067,1.836,0.338,2.272,1.078c4.18,7.177,8.385,14.338,12.563,21.515
				c1.107,1.899,1.072,1.909,3.179,1.397c4.839-1.188,9.683-2.386,14.536-3.531c0.896-0.214,0.939-0.451,0.407-1.15
				c-1.729-2.279-3.412-4.598-5.109-6.899c-0.82-1.113-0.728-1.39,0.604-1.624c2.665-0.479,5.342-0.919,8-1.423
				c0.754-0.143,1.306,0.096,1.753,0.625c2.298,2.71,4.607,5.426,6.868,8.168c0.669,0.813,0.521,1.179-0.515,1.457
				c-2.199,0.592-4.407,1.165-6.627,1.691c-0.868,0.204-0.966,0.444-0.406,1.167c2.111,2.724,4.173,5.488,6.232,8.246
				c0.969,1.292,0.873,1.583-0.625,2.127c-6.22,2.25-12.435,4.512-18.658,6.752c-2.04,0.732-2.417,0.62-3.479-1.225
				c-1.848-3.223-3.688-6.449-5.442-9.722c-0.553-1.027-1.102-1.318-2.267-0.989c-3.608,1.013-7.256,1.904-10.896,2.824
				c-1.7,0.431-2.267,0.176-2.955-1.362c-3.906-8.725-7.809-17.449-11.697-26.184c-0.766-1.715-0.66-1.886,1.199-2.042
				C389.184-10.164,393.002-10.462,396.428-10.741z M395.859-9.101c-2.782,0.248-5.438,0.522-8.098,0.702
				c-0.995,0.065-1.094,0.362-0.683,1.201c1.461,2.982,2.884,5.984,4.308,8.984c2.247,4.751,4.487,9.508,6.717,14.263
				c0.234,0.488,0.452,0.899,1.104,0.748c3.353-0.777,6.7-1.559,10.055-2.313c0.582-0.13,0.563-0.352,0.317-0.789
				c-4.156-7.365-8.31-14.734-12.439-22.111C396.798-9.026,396.389-9.262,395.859-9.101z M431.11,11.43
				c-0.156,0.024-0.234,0.024-0.312,0.049c-5.483,1.414-10.974,2.837-16.458,4.249c-0.586,0.147-0.6,0.397-0.313,0.886
				c1.763,2.953,3.504,5.921,5.238,8.893c0.284,0.488,0.578,0.593,1.128,0.404c5.511-1.895,11.021-3.771,16.549-5.607
				c0.814-0.272,0.724-0.537,0.294-1.104c-1.817-2.405-3.604-4.832-5.387-7.267C431.627,11.63,431.448,11.373,431.11,11.43z
				 M432.555,8.855c1.87-0.471,4.049-0.996,6.211-1.571c0.526-0.138,0.211-0.464,0.027-0.694c-1.554-1.878-3.115-3.738-4.65-5.631
				c-0.396-0.488-0.851-0.597-1.43-0.492c-1.898,0.332-3.8,0.657-5.702,0.977c-0.844,0.138-0.421,0.512-0.168,0.849
				c1.525,2.025,3.051,4.049,4.574,6.078C431.627,8.645,431.824,8.948,432.555,8.855z"/>
			<path fill="#6D6E71" d="M404.592,47.899c0,0.696-0.014,1.394,0,2.091c0.015,0.518-0.131,1.122,0.684,1.234
				c0.352,0.048,0.318,0.393,0.292,0.658c-0.032,0.322-0.257,0.465-0.555,0.49c-0.552,0.053-1.172,0.088-1.476-0.438
				c-0.416-0.732-0.783-0.438-1.272-0.139c-0.776,0.484-1.646,0.666-2.558,0.578c-1.252-0.125-2.206-1.008-2.39-2.172
				c-0.209-1.367,0.403-2.457,1.701-2.947c0.949-0.363,1.971-0.363,2.96-0.524c0.548-0.087,1.102-0.161,1.131-0.899
				c0.029-0.713-0.273-1.164-0.963-1.389c-1.279-0.423-2.203-0.119-2.882,1.094c-0.325,0.588-0.802,0.418-1.2,0.33
				c-0.524-0.109-0.248-0.558-0.181-0.861c0.161-0.682,0.584-1.164,1.226-1.453c1.418-0.655,2.85-0.614,4.277-0.032
				c0.806,0.331,1.176,0.979,1.19,1.829c0.022,0.85,0.009,1.699,0.009,2.55C404.587,47.899,404.587,47.899,404.592,47.899z
				 M403.101,48.667c-0.279-0.181,0.37-0.947-0.359-0.883c-1.025,0.086-2.099,0.127-3.058,0.592
				c-0.68,0.334-0.911,0.934-0.782,1.654c0.109,0.643,0.559,1,1.179,1.127C401.616,51.47,403.057,50.332,403.101,48.667z"/>
			<path fill="#6D6E71" d="M419.399,47.904c0,0.701-0.008,1.396,0.004,2.096c0.01,0.518-0.136,1.119,0.683,1.226
				c0.354,0.048,0.294,0.401,0.28,0.664c-0.017,0.272-0.202,0.425-0.445,0.459c-0.545,0.083-1.195,0.166-1.498-0.347
				c-0.433-0.729-0.807-0.555-1.357-0.195c-0.737,0.462-1.576,0.645-2.444,0.578c-1.316-0.102-2.325-0.987-2.488-2.195
				c-0.192-1.402,0.401-2.436,1.716-2.938c0.949-0.362,1.971-0.362,2.957-0.52c0.558-0.087,1.093-0.175,1.131-0.906
				c0.039-0.729-0.301-1.16-0.98-1.387c-1.282-0.423-2.258-0.111-2.895,1.087c-0.326,0.606-0.799,0.42-1.188,0.343
				c-0.51-0.111-0.257-0.564-0.179-0.871c0.177-0.724,0.656-1.207,1.332-1.504c0.834-0.375,1.715-0.47,2.612-0.385
				c2.094,0.202,2.763,0.943,2.763,3.055C419.401,46.744,419.399,47.328,419.399,47.904z M417.923,48.651
				c-0.179-0.243,0.331-0.954-0.401-0.878c-0.985,0.104-2.002,0.156-2.938,0.544c-0.696,0.29-0.956,0.858-0.885,1.591
				c0.066,0.707,0.501,1.104,1.165,1.245C416.425,51.492,417.889,50.314,417.923,48.651z"/>
			<path fill="#6D6E71" d="M434.324,48.225c-0.771,0-1.544,0.019-2.316-0.004c-0.646-0.022-0.8,0.271-0.68,0.86
				c0.216,1.021,0.661,1.849,1.769,2.051c1.078,0.203,1.992-0.104,2.591-1.098c0.075-0.127,0.126-0.283,0.211-0.41
				c0.341-0.492,0.89-0.379,1.262-0.229c0.57,0.241,0.097,0.671-0.046,0.958c-0.942,1.858-3.382,2.608-5.301,1.646
				c-1.654-0.826-2.458-2.662-2.175-4.965c0.246-2.013,1.416-3.426,3.166-3.842c2.732-0.645,5.28,1.778,4.814,4.535
				c-0.092,0.52-0.395,0.492-0.74,0.492C436.027,48.225,435.179,48.225,434.324,48.225z M433.669,47.024
				c0.538,0,1.078-0.03,1.613,0.007c0.634,0.034,0.8-0.188,0.637-0.813c-0.278-1.086-0.859-1.793-2.016-1.907
				c-1.084-0.104-2.026,0.51-2.427,1.569c-0.289,0.77-0.21,1.271,0.81,1.15C432.741,46.98,433.205,47.024,433.669,47.024z"/>
			<path fill="#6D6E71" d="M424.968,50.005c0.625-1.855,1.252-3.709,1.888-5.563c0.097-0.29,0.159-0.621,0.342-0.855
				c0.368-0.483,0.963-0.348,1.381-0.188c0.487,0.186,0.051,0.607-0.05,0.878c-0.843,2.321-1.735,4.628-2.583,6.948
				c-0.212,0.593-0.431,0.968-1.192,0.956c-0.727-0.017-0.899-0.384-1.101-0.925c-0.815-2.291-1.676-4.563-2.476-6.857
				c-0.109-0.309-0.681-0.837,0.007-1.021c0.562-0.156,1.299-0.313,1.576,0.644c0.462,1.593,1.004,3.166,1.521,4.74
				c0.133,0.401,0.281,0.797,0.427,1.194C424.793,49.972,424.881,49.99,424.968,50.005z"/>
			<path fill="#6D6E71" d="M440.882,46.125c0,1.746-0.021,3.488,0.015,5.229c0.009,0.599-0.159,0.817-0.784,0.812
				c-0.606-0.004-0.795-0.199-0.79-0.807c0.024-3.488,0.022-6.972,0.003-10.459c-0.003-0.593,0.167-0.822,0.783-0.83
				c0.627-0.005,0.797,0.232,0.782,0.825C440.865,42.64,440.882,44.378,440.882,46.125z"/>
			<path fill="#6D6E71" d="M395.548,46.066c0,1.746-0.009,3.482,0.01,5.225c0.008,0.521-0.005,0.877-0.706,0.877
				c-0.673,0-0.843-0.23-0.838-0.871c0.027-3.446,0.025-6.889,0.002-10.332c-0.007-0.625,0.144-0.901,0.832-0.896
				c0.696,0.009,0.715,0.377,0.71,0.896C395.539,42.666,395.548,44.367,395.548,46.066z"/>
			<path fill="#6D6E71" d="M407.019,47.761c0-1.199-0.01-2.398,0.005-3.594c0.003-0.326-0.136-0.776,0.389-0.815
				c0.35-0.024,0.848-0.228,1.009,0.269c0.202,0.631,0.448,0.336,0.724,0.113c0.399-0.316,0.829-0.568,1.348-0.625
				c0.409-0.044,0.811-0.054,0.777,0.544c-0.021,0.399,0.11,0.796-0.563,0.905c-1.652,0.275-2.194,0.997-2.216,2.688
				c-0.011,1.117,0.076,2.248-0.034,3.357c-0.053,0.527,0.623,1.505-0.669,1.546c-1.32,0.041-0.691-0.956-0.741-1.493
				C406.949,49.701,407.019,48.726,407.019,47.761z"/>
		</g>
	</g>
	<g>
		<path fill="#6D6E71" d="M520.175,49.059c0.007-8.142,0-16.281,0.039-24.422c0.005-0.847-0.554-2.066,1.126-2.191
			c1.442-0.113,2.419,0.161,2.391,1.86c0,0.166,0.145,0.328,0.267,0.586c1.408-1.657,3.143-2.56,5.289-2.696
			c3.906-0.245,6.86,1.777,7.922,5.522c0.611,2.177,0.662,4.408,0.232,6.597c-1.049,5.356-5.688,8.414-11.539,7.519
			c-1.604-0.238-1.97,0.047-1.966,1.649c0,1.853,0.568,3.794-0.427,5.576C522.397,49.059,521.287,49.059,520.175,49.059z
			 M523.991,33.601c0,1.408,0.012,2.574-0.005,3.747c-0.008,0.598,0.081,1.039,0.756,1.289c3.764,1.39,7.911-0.733,8.727-4.515
			c0.358-1.65,0.341-3.318-0.021-4.961c-0.549-2.521-2.109-3.813-4.504-3.802c-2.398,0.019-4.188,1.487-4.747,3.862
			C523.84,30.753,524.068,32.298,523.991,33.601z"/>
		<path fill="#6D6E71" d="M553.522,49.059c0.009-2.028-0.062-4.067,0.055-6.101c0.073-1.272-0.404-1.444-1.484-1.223
			c-2.033,0.424-4.063,0.217-6.045-0.324c-3.407-0.928-5.549-3.513-5.896-7.02c-0.776-7.803,3.707-12.518,11.553-12.164
			c5.605,0.258,5.605,0.258,5.605,5.859c0,6.301,0,12.594,0,18.896c0,0.722,0.133,1.479-0.453,2.074
			C555.743,49.059,554.633,49.059,553.522,49.059z M553.549,31.94c0-1.786-0.005-3.565,0.002-5.354
			c0.002-0.582,0.002-1.147-0.785-1.188c-1.775-0.097-3.563-0.313-5.258,0.515c-2.822,1.371-4.26,5.279-3.271,8.983
			c0.761,2.862,3.112,4.274,6.609,3.954c0.428-0.039,0.854-0.145,1.282-0.148c1.08-0.008,1.498-0.472,1.442-1.595
			C553.485,35.386,553.551,33.664,553.549,31.94z"/>
		<path fill="#6D6E71" d="M482.01,16.828c0.956,0.959,1.893,1.938,2.877,2.861c0.808,0.764,0.767,1.407-0.012,2.182
			c-3.761,3.728-7.483,7.5-11.256,11.218c-1.112,1.094-9.061,0.795-10.211-0.28c-2.102-1.968-3.925-4.22-6.226-5.979
			c0-0.492,0-0.988,0-1.479c1.204-0.455,1.849-1.555,2.687-2.396c0.895-0.902,1.552-0.953,2.443-0.015
			c1.781,1.873,3.647,3.665,5.475,5.499c0.446,0.445,0.795,0.914,1.478,0.217c3.86-3.965,7.753-7.891,11.635-11.827
			C481.272,16.828,481.643,16.828,482.01,16.828z"/>
		<path fill="#6D6E71" d="M623.178,41.652c-1.592,0.061-3.159,0.489-4.778,0.188c-3.04-0.565-4.419-2.055-4.468-5.144
			c-0.051-3.084-0.065-6.167,0.013-9.245c0.031-1.258-0.122-2.021-1.646-1.773c-0.411,0.068-1.069,0.314-1.305-0.276
			c-0.219-0.562,0.374-0.858,0.688-1.198c1.856-2.027,3.738-4.028,5.97-6.432c0,1.585,0.056,2.665-0.019,3.733
			c-0.063,0.948,0.213,1.37,1.223,1.263c0.732-0.075,1.479,0.021,2.22-0.022c1.011-0.06,1.758-0.023,1.753,1.383
			c0,1.369-0.557,1.613-1.768,1.603c-3.409-0.035-3.414,0.017-3.409,3.458c0.005,2.157-0.051,4.316,0.036,6.473
			c0.117,2.842,1.09,3.67,3.852,3.219c0.759-0.123,1.225-0.029,1.639,0.553C623.178,40.169,623.178,40.91,623.178,41.652z"/>
		<path fill="#6D6E71" d="M593.688,34.093c0,1.906-0.032,3.824,0.019,5.73c0.019,0.82-0.214,1.264-1.06,1.402
			c-2.928,0.479-5.839,0.951-8.822,0.459c-3.206-0.521-5.059-2.256-5.379-5.174c-0.31-2.773,1.285-5.236,4.136-6.287
			c1.94-0.717,3.98-0.924,6.013-0.629c1.289,0.186,1.452-0.28,1.328-1.385c-0.195-1.653-1.112-2.567-2.677-2.852
			c-1.785-0.318-3.577-0.23-5.313,0.283c-1.154,0.342-1.563-0.188-1.742-1.197c-0.174-0.948-0.159-1.59,1.098-1.804
			c2.392-0.409,4.754-0.71,7.167-0.274c3.154,0.57,4.931,2.421,5.128,5.619c0.127,2.026,0.023,4.069,0.023,6.105
			C593.63,34.093,593.659,34.093,593.688,34.093z M589.974,35.685c0-3.4,0-3.422-3.416-3.275c-0.727,0.03-1.474,0.157-2.169,0.385
			c-1.563,0.498-2.22,1.664-2.128,3.268c0.098,1.686,1.041,2.551,3.057,2.838C589.131,39.439,589.974,38.851,589.974,35.685z"/>
		<path fill="#6D6E71" d="M499.682,32.126c-0.019-6.864,4.202-10.683,10.822-9.788c4.611,0.616,7.488,4.495,7.393,9.961
			c-0.122,6.891-4.881,10.77-11.521,9.386C502.122,40.804,499.698,37.341,499.682,32.126z M513.861,32.105
			c0.095-1.25-0.104-2.466-0.498-3.635c-0.747-2.201-2.267-3.262-4.595-3.27c-2.356-0.008-3.807,0.989-4.559,3.264
			c-0.792,2.41-0.792,4.854,0.005,7.257c0.754,2.274,2.24,3.312,4.545,3.31c2.267,0,3.828-1.105,4.589-3.3
			C513.753,34.566,513.95,33.35,513.861,32.105z"/>
		<path fill="#6D6E71" d="M576.089,31.789c0,2.526-0.062,5.06,0.025,7.582c0.039,1.116-0.282,1.666-1.404,1.871
			c-2.798,0.504-5.581,0.873-8.443,0.463c-3.468-0.494-5.588-2.402-6.124-5.897c-0.629-4.104-0.196-8.246-0.264-12.372
			c-0.027-1.576,1.318-0.895,2.091-0.993c0.854-0.108,1.739-0.135,1.709,1.24c-0.07,2.712-0.026,5.428-0.018,8.139
			c0.004,0.8,0.016,1.604,0.104,2.399c0.374,3.367,1.631,4.498,5.032,4.568c3.545,0.076,3.545,0.076,3.545-3.447
			c0-3.819,0.071-7.647-0.034-11.467c-0.042-1.581,0.87-1.478,1.883-1.459c0.972,0.018,1.993-0.197,1.925,1.418
			C576.011,26.485,576.089,29.136,576.089,31.789z"/>
		<path fill="#6D6E71" d="M600.706,41.987c-0.856-0.131-2.194-0.335-3.533-0.549c-0.929-0.151-1.705-0.345-1.17-1.642
			c0.382-0.914,0.397-1.92,1.909-1.396c1.696,0.591,3.49,0.798,5.28,0.291c1.322-0.376,2.452-1.013,2.533-2.558
			c0.076-1.497-0.993-2.145-2.202-2.623c-1.539-0.616-3.116-1.156-4.625-1.838c-1.812-0.816-2.744-2.279-2.644-4.278
			c0.102-1.999,1.021-3.548,2.904-4.38c2.989-1.32,6.033-0.939,9.063-0.158c1.16,0.296,0.528,1.201,0.409,1.833
			c-0.122,0.671-0.373,1.302-1.354,1.004c-1.657-0.505-3.337-0.877-5.095-0.425c-1,0.253-1.936,0.531-2.046,1.775
			c-0.104,1.246,0.595,1.975,1.655,2.383c1.318,0.511,2.665,0.949,3.997,1.428c2.151,0.771,3.576,2.13,3.711,4.555
			c0.144,2.582-1.021,4.375-3.272,5.514C604.655,41.725,602.943,41.925,600.706,41.987z"/>
		<path fill="#6D6E71" d="M482.456,34.869c-3.989,4.01-7.984,8.018-11.962,12.041c-0.686,0.695-1.273,0.824-2.016,0.075
			c-4.1-4.159-3.806-2.78-0.263-6.429c2.955-3.038,5.992-6.008,9.015-8.979c0.404-0.402,0.676-1.107,1.469-0.902
			C479.781,32.224,481.519,33.189,482.456,34.869z"/>
		<path fill="#6D6E71" d="M482.456,34.869c-0.938-1.68-2.675-2.645-3.757-4.193c2.521-0.026,5.041-0.045,7.56-0.1
			c0.627-0.018,1.022,0.262,1.427,0.67c1.861,1.885,3.714,3.772,5.625,5.603c0.859,0.827,0.866,1.498,0.019,2.315
			c-3.883,3.733-2.568,3.517-6.057,0.239C485.663,37.89,484.322,36.1,482.456,34.869z"/>
	</g>
	<text transform="matrix(1 0 0 1 495.5852 11.2314)" fill="#6D6E71" font-family="'MyriadPro-Regular'" font-size="18.4567">Certification</text>
</g>
</svg>
