<?xml version="1.0" encoding="utf-8"?>
<!-- Generator: Adobe Illustrator 16.0.3, SVG Export Plug-In . SVG Version: 6.00 Build 0)  -->
<!DOCTYPE svg PUBLIC "-//W3C//DTD SVG 1.1//EN" "http://www.w3.org/Graphics/SVG/1.1/DTD/svg11.dtd">
<svg version="1.1" id="Layer_1" xmlns="http://www.w3.org/2000/svg" xmlns:xlink="http://www.w3.org/1999/xlink" x="0px" y="0px"
	 width="51.971px" height="72.869px" viewBox="0 0 51.971 72.869" enable-background="new 0 0 51.971 72.869" xml:space="preserve">
<g>
	<path fill-rule="evenodd" clip-rule="evenodd" fill="#6D6E71" d="M25.997,14.389c8.312,0,16.626,0.013,24.941-0.02
		c0.871,0,1.1,0.217,1.017,1.086c-0.687,7.059-1.344,14.127-1.998,21.189c-0.594,6.384-1.163,12.769-1.744,19.152
		c-0.321,3.531-0.653,7.065-0.97,10.599c-0.048,0.574-0.209,0.929-0.858,1.094c-6.581,1.739-13.154,3.507-19.723,5.287
		c-0.474,0.127-0.894,0.122-1.361-0.005c-6.575-1.775-13.146-3.543-19.727-5.291c-0.572-0.149-0.787-0.425-0.84-1.002
		c-0.44-4.99-0.902-9.981-1.36-14.972c-0.532-5.763-1.069-11.53-1.605-17.29C1.31,29.199,0.85,24.176,0.384,19.156
		c-0.108-1.181-0.224-2.357-0.334-3.529c-0.119-1.236-0.115-1.239,1.093-1.239C9.428,14.389,17.711,14.389,25.997,14.389z
		 M26.305,31.412c0.009,0.051,0.023,0.102,0.036,0.154c-0.216,0.09-0.431,0.183-0.642,0.274c-4.584,1.932-9.161,3.877-13.753,5.783
		c-0.686,0.287-1.025,0.596-0.933,1.408c0.175,1.487,0.279,2.982,0.3,4.47c0.01,0.854,0.332,1.001,1.106,0.997
		c6.849-0.027,13.703-0.007,20.551-0.032c0.682-0.005,0.933,0.146,0.873,0.878c-0.178,2.261-0.31,4.53-0.429,6.799
		c-0.026,0.51-0.195,0.771-0.699,0.919c-2.033,0.59-4.051,1.211-6.073,1.826c-0.34,0.106-0.662,0.124-1.006,0.028
		c-2.065-0.575-4.131-1.154-6.205-1.701c-0.504-0.128-0.695-0.362-0.719-0.891c-0.046-1.182-0.173-2.362-0.245-3.539
		c-0.035-0.556-0.213-0.804-0.84-0.785c-1.588,0.05-3.18,0.073-4.764-0.008c-0.855-0.039-0.958,0.288-0.888,1.014
		c0.272,2.753,0.519,5.517,0.71,8.276c0.045,0.598,0.353,0.708,0.786,0.834c3.969,1.146,7.94,2.296,11.909,3.463
		c0.336,0.092,0.645,0.156,1,0.055c4.159-1.165,8.322-2.325,12.488-3.465c0.39-0.105,0.551-0.28,0.587-0.693
		c0.493-6.172,0.989-12.349,1.53-18.516c0.067-0.792-0.193-0.928-0.897-0.923c-4.297,0.027-8.592,0.014-12.888,0.004
		c-0.291,0-0.608,0.122-0.95-0.133c0.263-0.115,0.474-0.209,0.693-0.304c4.664-1.973,9.332-3.952,13.994-5.932
		c0.327-0.141,0.722-0.172,0.752-0.692c0.106-1.773,0.233-3.539,0.383-5.31c0.043-0.513-0.101-0.695-0.647-0.693
		c-10.429,0.036-20.863,0.053-31.294,0.06c-0.565,0.003-0.685,0.184-0.596,0.701c0.248,1.534,0.554,3.068,0.66,4.612
		c0.069,1.034,0.51,1.152,1.39,1.143c4.605-0.064,9.218-0.064,13.823-0.082C25.708,31.412,26.006,31.412,26.305,31.412z"/>
	<path fill-rule="evenodd" clip-rule="evenodd" fill="#6D6E71" d="M26.974,3.455c0.767,0.794,1.377,1.551,2.107,2.16
		c0.792,0.662,1.056,1.406,1.005,2.426c-0.085,1.7-0.024,1.703-1.726,1.703c-1.863,0-3.73-0.019-5.591,0.015
		c-0.563,0.012-0.743-0.143-0.757-0.728c-0.046-2.428-0.066-2.428,2.375-2.446c0.181,0,0.363,0,0.722-0.219
		c-0.717-0.654-1.395-1.352-2.148-1.953c-0.746-0.603-0.986-1.302-0.955-2.254c0.072-2.138,0.024-2.14,2.139-2.14
		c1.707,0,3.419,0.02,5.129-0.014c0.58-0.005,0.849,0.126,0.798,0.769c-0.066,0.833,0.253,1.896-0.151,2.447
		c-0.447,0.594-1.566,0.126-2.389,0.205C27.385,3.44,27.238,3.44,26.974,3.455z"/>
	<path fill-rule="evenodd" clip-rule="evenodd" fill="#6D6E71" d="M38.415,3.594c0.625,0.621,1.21,1.306,1.895,1.862
		c0.895,0.724,1.256,1.56,1.174,2.732c-0.115,1.551-0.031,1.556-1.607,1.556c-1.901,0-3.801-0.014-5.699,0.013
		c-0.539,0.009-0.758-0.104-0.772-0.708c-0.053-2.448-0.075-2.448,2.371-2.464c0.185,0,0.37,0,0.682,0
		c-0.645-0.883-1.373-1.539-2.104-2.166C33.63,3.794,33.366,3.115,33.4,2.156c0.071-2.136,0.023-2.138,2.147-2.138
		c1.715,0,3.427,0.026,5.137-0.018c0.627-0.009,0.83,0.191,0.774,0.801c-0.075,0.831,0.334,1.876-0.158,2.442
		c-0.467,0.542-1.527,0.117-2.321,0.19C38.807,3.445,38.604,3.337,38.415,3.594z"/>
	<path fill-rule="evenodd" clip-rule="evenodd" fill="#6D6E71" d="M10.522,4.874c0-1.366,0.019-2.738-0.013-4.104
		c-0.014-0.537,0.105-0.772,0.71-0.767c2.206,0.034,4.415,0.034,6.623,0c0.6-0.005,0.708,0.228,0.722,0.764
		c0.054,2.661,0.07,2.661-2.545,2.661c-2.026,0-1.964,0.005-2.053,2.035c-0.046,0.988,0.281,1.219,1.183,1.137
		c0.897-0.082,1.804,0.011,2.706-0.026c0.505-0.017,0.693,0.123,0.712,0.671c0.088,2.502,0.105,2.499-2.418,2.499
		c-1.645,0-3.295-0.016-4.94,0.013c-0.526,0.009-0.713-0.149-0.7-0.686C10.541,7.674,10.522,6.275,10.522,4.874z"/>
</g>
<path fill-rule="evenodd" clip-rule="evenodd" fill="#6D6E71" d="M63.374,64.668c0-18.822,0-37.645,0-56.458
	c18.822,0,37.638,0,56.459,0c0,18.813,0,37.635,0,56.458C101.012,64.668,82.196,64.668,63.374,64.668z M97.003,54.82
	c0.044,0.097,0.075,0.167,0.108,0.229c0.789,1.459,1.874,2.646,3.275,3.543c1.667,1.053,3.514,1.544,5.467,1.646
	c0.827,0.05,1.652,0.034,2.477-0.074c1.152-0.146,2.26-0.427,3.298-0.955c2.397-1.228,3.677-3.185,3.838-5.873
	c0.046-0.671,0-1.338-0.099-2.002c-0.132-0.856-0.398-1.661-0.839-2.414c-0.566-0.956-1.343-1.717-2.24-2.354
	c-0.998-0.717-2.094-1.272-3.211-1.775c-0.88-0.396-1.771-0.759-2.648-1.151c-0.55-0.248-1.087-0.524-1.57-0.883
	c-0.683-0.51-1.017-1.186-1.008-2.04c0.005-0.894,0.515-1.671,1.342-2.018c0.493-0.202,1.006-0.253,1.526-0.214
	c0.64,0.044,1.226,0.237,1.738,0.628c0.457,0.349,0.798,0.795,1.099,1.277c0.07,0.11,0.143,0.226,0.229,0.358
	c1.39-0.89,2.765-1.771,4.15-2.665c-0.271-0.469-0.55-0.892-0.862-1.301c-1.208-1.544-2.778-2.481-4.714-2.802
	c-1.064-0.181-2.137-0.216-3.215-0.091c-1.14,0.134-2.226,0.442-3.213,1.041c-2.167,1.304-3.261,3.239-3.337,5.76
	c-0.018,0.513,0.014,1.018,0.09,1.528c0.125,0.863,0.38,1.69,0.803,2.449c0.527,0.944,1.258,1.709,2.117,2.348
	c0.953,0.708,2.004,1.246,3.088,1.719c1.044,0.46,2.097,0.924,3.136,1.393c0.473,0.212,0.921,0.476,1.328,0.798
	c0.564,0.447,0.904,1.011,0.973,1.741c0.072,0.812-0.196,1.478-0.81,2.006c-0.438,0.377-0.95,0.603-1.508,0.724
	c-0.654,0.141-1.309,0.168-1.977,0.097c-1.061-0.115-2.006-0.489-2.829-1.172c-0.616-0.513-1.104-1.135-1.534-1.799
	c-0.042-0.069-0.087-0.129-0.14-0.209C99.882,53.152,98.455,53.983,97.003,54.82z M78.247,55.386
	c0.031,0.078,0.051,0.142,0.08,0.202c0.132,0.243,0.259,0.496,0.402,0.73c0.781,1.272,1.811,2.283,3.143,2.971
	c1.021,0.535,2.107,0.827,3.255,0.924c1.282,0.11,2.556,0.048,3.805-0.278c1.118-0.294,2.127-0.795,2.978-1.585
	c0.986-0.912,1.58-2.055,1.914-3.337c0.246-0.941,0.325-1.897,0.325-2.865c0-5.894,0-11.803,0-17.697c0-0.05,0.004-0.096,0-0.137
	c-0.003-0.064-0.017-0.12-0.022-0.174c-1.772,0-3.531,0-5.318,0c0,0.128,0,0.236,0,0.345c0,5.805,0,11.609-0.005,17.413
	c0,0.262,0.005,0.523-0.008,0.786c-0.026,0.503-0.11,1.001-0.308,1.473c-0.238,0.544-0.618,0.948-1.183,1.14
	c-0.687,0.231-1.39,0.264-2.097,0.112c-0.708-0.161-1.251-0.579-1.674-1.151c-0.299-0.404-0.549-0.839-0.823-1.266
	c-0.043-0.069-0.083-0.138-0.138-0.223C81.121,53.648,79.689,54.515,78.247,55.386z"/>
<g>
	<path fill-rule="evenodd" clip-rule="evenodd" fill="#6D6E71" d="M225.333,26.848c-2.539-2.854-5.652-4.968-9.044-6.672
		c-9.408-4.74-19.521-6.605-29.938-6.843c-4.586-0.105-9.211,0.214-13.779,0.673c-6.403,0.637-12.602,2.239-18.525,4.803
		c-4.613,2.004-8.88,4.515-12.224,8.36c-2.001,2.302-3.391,4.909-3.691,8.005c-0.387,4.049,1.118,7.444,3.698,10.427
		c3.424,3.943,7.818,6.517,12.565,8.511c9.354,3.929,19.192,5.301,30.286,5.445c1.495-0.087,4.012-0.197,6.522-0.386
		c7.206-0.54,14.216-1.994,20.939-4.688c4.868-1.953,9.391-4.471,13.002-8.368C230.724,40.101,230.793,32.98,225.333,26.848z
		 M165.949,43.111c-2.183,0.078-4.363,0.055-6.54,0.019c-0.704-0.015-1.029-0.811-1.14-0.009c-0.301,2.155-0.727,5.585-1.118,5.585
		c-1.797,0-3.582,0-5.467,0c0.348,0,0.682-2.779,1.036-4.6c1.22-6.348,2.458-12.241,3.648-18.597
		c0.128-0.658,0.352-0.624,1.015-0.618c3.424,0.043,6.852,0.099,10.275,0.181c1.103,0.026,2.237,0.306,3.288,0.642
		c2.847,0.918,4.521,3.278,4.567,6.282c0.044,2.761-0.696,5.297-2.398,7.508C171.303,41.875,168.858,43.001,165.949,43.111z
		 M193.197,43.706c-1.771,0-3.533,0-5.425,0c0.295-2,0.568-3.271,0.855-4.717c0.443-2.256,0.921-4.656,1.346-6.919
		c0.358-1.912-0.362-2.941-2.312-3.035c-1.645-0.079-3.294-0.053-5.029-0.053c-0.377,1.853-0.756,3.656-1.112,5.478
		c-0.523,2.648-1.02,5.299-1.563,7.947c-0.055,0.278-0.395,0.697-0.61,0.702c-1.613,0.064-3.229,1.152-4.973,1.152
		c1.634-8.273,3.251-19.556,4.873-23.556c1.82,0,3.58,0,5.443,0c-0.423,0-0.829,3.237-1.275,5.56c0.472,0,0.855-0.587,1.239-0.563
		c2.354,0.129,4.722-0.133,7.061,0.141c0.931,0.109,1.884,0.513,2.663,1.082c1.429,1.049,1.571,2.599,1.279,4.17
		c-0.714,3.916-1.534,8.073-2.318,11.973C193.317,43.185,193.258,41.706,193.197,43.706z M215.375,39.949
		c-1.773,2.075-4.078,3.028-6.721,3.155c-2.208,0.099-4.421,0.055-6.631,0.025c-0.699-0.015-1.036-0.826-1.146-0.031
		c-0.299,2.159-0.727,5.607-1.122,5.607c-1.826,0-3.586,0-5.464,0c0.273,0,0.533-1.991,0.805-3.416
		c1.296-6.739,2.607-13.016,3.876-19.768c0.122-0.654,0.338-0.637,1.011-0.629c3.426,0.041,6.854,0.07,10.275,0.179
		c1.28,0.041,2.615,0.385,3.806,0.854c2.516,0.989,3.885,3.009,4.034,5.695C218.271,34.707,217.425,37.548,215.375,39.949z"/>
	<path fill-rule="evenodd" clip-rule="evenodd" fill="#6D6E71" d="M209.601,29.151c-1.186-0.201-2.412-0.183-3.621-0.202
		c-2.086-0.026-2.104-0.007-2.518,2.032c-0.55,2.733-1.073,5.48-1.627,8.329c1.79,0,3.448,0.105,5.082-0.027
		c3.113-0.262,4.52-1.59,5.188-4.662c0.136-0.606,0.207-1.227,0.255-1.843C212.503,30.667,211.669,29.494,209.601,29.151z"/>
	<path fill-rule="evenodd" clip-rule="evenodd" fill="#6D6E71" d="M166.983,29.162c-1.746-0.236-3.536-0.167-5.307-0.195
		c-0.17-0.005-0.466,0.229-0.497,0.392c-0.662,3.285-1.289,6.58-1.92,9.849c1.91,0,3.77,0.071,5.619-0.021
		c2.348-0.115,3.74-1.517,4.393-3.684c0.237-0.798,0.363-1.637,0.474-2.465C170.039,30.852,169.137,29.459,166.983,29.162z"/>
</g>
<g>
	<path fill-rule="evenodd" clip-rule="evenodd" fill="#6D6E71" d="M246.925,11.904c0.602-1.483,1.921-1.998,3.295-2.369
		c2.979-0.801,6.045-1.208,9.11-1.54c3.74-0.416,7.49-0.637,11.252-0.522c5.471,0.164,10.904,0.662,16.242,1.944
		c0.941,0.226,1.843,0.561,2.697,1.027c0.669,0.363,1.004,0.904,0.997,1.671c-0.005,4.006,0.007,8.007,0,12.007
		c0,0.798-0.476,1.351-1.046,1.817c-1.02,0.835-2.229,1.307-3.462,1.698c-2.845,0.902-5.772,1.337-8.723,1.626
		c-3.334,0.332-6.677,0.474-10.02,0.399c-4.557-0.104-9.09-0.401-13.55-1.41c-1.5-0.334-2.969-0.766-4.354-1.449
		c-1.065-0.529-2.01-1.19-2.439-2.379C246.925,20.253,246.925,16.077,246.925,11.904z M267.491,14.271
		c4.747,0.007,9.188-0.131,13.613-0.617c1.898-0.214,3.799-0.469,5.639-1.026c0.462-0.14,0.919-0.301,1.321-0.576
		c0.54-0.375,0.533-0.779-0.025-1.128c-0.243-0.161-0.515-0.286-0.788-0.389c-0.866-0.344-1.778-0.541-2.692-0.705
		c-4.394-0.776-8.833-0.987-13.278-1.095c-3.293-0.088-6.585,0-9.876,0.181c-2.86,0.154-5.707,0.399-8.526,0.926
		c-1.149,0.219-2.307,0.44-3.343,1.025c-0.676,0.38-0.681,0.842-0.021,1.236c0.292,0.169,0.614,0.301,0.942,0.419
		c1.204,0.432,2.463,0.642,3.72,0.834C258.688,14.041,263.233,14.191,267.491,14.271z M249.695,19.906
		c0.396,0.003,0.671-0.288,0.66-0.694c-0.005-0.427-0.271-0.616-0.653-0.652c-0.347-0.036-0.712,0.349-0.678,0.699
		C249.066,19.647,249.293,19.878,249.695,19.906z"/>
	<path fill-rule="evenodd" clip-rule="evenodd" fill="#6D6E71" d="M246.925,47.716c0.204-0.448,0.386-0.915,0.807-1.228
		c0.138-0.105,0.229-0.153,0.397-0.032c1.755,1.285,3.813,1.825,5.882,2.279c3.562,0.791,7.185,1.107,10.824,1.269
		c3.378,0.154,6.76,0.12,10.131-0.117c3.89-0.278,7.757-0.715,11.481-1.969c1.05-0.354,2.065-0.786,2.937-1.487
		c0.186-0.148,0.31-0.148,0.489,0c0.365,0.297,0.602,0.664,0.625,1.143c0.016,0.445,0.021,0.896,0.021,1.342
		c0.007,3.483-0.03,6.971,0.023,10.454c0.016,1.275-0.596,2.077-1.574,2.702c-1.671,1.062-3.55,1.567-5.459,1.99
		c-3.388,0.754-6.836,1.087-10.304,1.252c-3.205,0.149-6.412,0.168-9.615-0.029c-4.187-0.253-8.35-0.672-12.368-1.968
		c-1.071-0.344-2.094-0.79-3.015-1.449c-0.591-0.425-0.973-0.99-1.282-1.634C246.925,56.061,246.925,51.888,246.925,47.716z
		 M250.302,54.503c-0.335,0.041-0.581,0.239-0.595,0.657c-0.014,0.389,0.299,0.717,0.678,0.685c0.386-0.039,0.639-0.255,0.664-0.664
		C251.072,54.813,250.736,54.494,250.302,54.503z"/>
	<path fill-rule="evenodd" clip-rule="evenodd" fill="#6D6E71" d="M246.925,29.496c0.151-0.114,0.117-0.313,0.188-0.467
		c0.354-0.779,0.554-0.835,1.236-0.366c1.622,1.121,3.489,1.625,5.369,2.057c3.232,0.754,6.519,1.082,9.829,1.272
		c2.96,0.17,5.924,0.207,8.886,0.077c4.467-0.204,8.91-0.567,13.223-1.843c1.425-0.425,2.822-0.928,3.962-1.942
		c0.163-0.138,0.25-0.09,0.384,0.024c0.301,0.269,0.459,0.605,0.491,0.997c0.025,0.308,0.025,0.615,0.025,0.929
		c0.007,3.672-0.012,7.344,0.014,11.018c0.01,0.958-0.367,1.654-1.077,2.222c-1.092,0.866-2.36,1.356-3.667,1.749
		c-3.164,0.965-6.425,1.388-9.708,1.661c-3.872,0.333-7.748,0.404-11.629,0.202c-4.425-0.228-8.825-0.63-13.09-1.962
		c-0.774-0.244-1.525-0.547-2.24-0.931c-0.977-0.524-1.824-1.17-2.196-2.274C246.925,37.78,246.925,33.638,246.925,29.496z
		 M251.049,37.734c0.009-0.432-0.317-0.776-0.683-0.751c-0.395,0.029-0.636,0.245-0.659,0.654c-0.021,0.387,0.287,0.699,0.676,0.685
		C250.789,38.305,251.003,38.07,251.049,37.734z"/>
	<path fill-rule="evenodd" clip-rule="evenodd" fill="#6D6E71" d="M314.723,43.271c0-2.847,0-5.693,0-8.537
		c0-1.438,0.14-2.848,0.597-4.227c0.929-2.782,2.87-4.43,5.71-5.028c1.602-0.34,3.22-0.349,4.83-0.039
		c3.449,0.671,5.604,2.853,6.254,6.304c0.191,0.989,0.278,1.979,0.278,2.982c0,5.754,0.009,11.517-0.009,17.271
		c-0.01,2.057-0.326,4.056-1.326,5.892c-0.19,0.354-0.676,0.681-0.535,1.036c0.124,0.297,0.62,0.448,0.956,0.664
		c0.567,0.363,1.126,0.727,1.704,1.071c0.228,0.135,0.256,0.252,0.115,0.482c-0.689,1.194-1.372,2.39-2.036,3.594
		c-0.174,0.319-0.316,0.305-0.59,0.124c-1.65-1.099-3.312-2.177-4.966-3.272c-0.26-0.177-0.496-0.216-0.815-0.161
		c-2.925,0.52-5.6,0.019-7.784-2.137c-1.313-1.296-1.887-2.971-2.184-4.756c-0.148-0.919-0.204-1.848-0.199-2.775
		C314.725,48.929,314.723,46.098,314.723,43.271z M321.824,43.332c0,2.83,0.003,5.656,0,8.478c-0.002,0.727,0.063,1.452,0.273,2.145
		c0.237,0.765,0.729,1.123,1.484,1.104c0.729-0.014,1.165-0.388,1.352-1.176c0.133-0.591,0.228-1.186,0.228-1.792
		c0.004-5.912,0.004-11.822,0-17.734c0-0.536-0.095-1.06-0.276-1.565c-0.241-0.646-0.636-0.952-1.314-0.972
		c-0.615-0.014-1.098,0.24-1.381,0.815c-0.294,0.608-0.365,1.251-0.365,1.907C321.827,37.473,321.824,40.409,321.824,43.332z"/>
	<path fill-rule="evenodd" clip-rule="evenodd" fill="#6D6E71" d="M308.994,35.814c-1.048,0-2.106-0.017-3.154,0.012
		c-0.396,0.009-0.494-0.115-0.487-0.493c0.016-0.688-0.019-1.376-0.044-2.066c-0.034-0.89-0.556-1.417-1.422-1.452
		c-0.94-0.041-1.606,0.486-1.698,1.368c-0.11,1.021,0.26,1.9,0.854,2.696c0.88,1.185,2.036,2.099,3.077,3.128
		c1.296,1.287,2.66,2.503,3.874,3.874c1.899,2.151,2.819,4.655,2.858,7.509c0.027,2.146-0.125,4.27-0.82,6.323
		c-0.934,2.753-2.787,4.402-5.708,4.793c-1.939,0.263-3.854,0.161-5.732-0.386c-2.712-0.79-4.173-2.716-4.812-5.372
		c-0.267-1.128-0.413-2.272-0.43-3.428c-0.014-1.313,0.007-2.619-0.019-3.934c-0.007-0.372,0.112-0.46,0.467-0.457
		c2.054,0.011,4.104,0.011,6.157,0c0.329,0,0.439,0.085,0.435,0.43c-0.019,1.434-0.007,2.867-0.005,4.296
		c0,0.538,0.076,1.062,0.317,1.561c0.321,0.65,0.88,0.921,1.671,0.834c0.714-0.085,1.137-0.418,1.259-1.158
		c0.384-2.346,0.08-4.57-1.604-6.371c-1.676-1.79-3.436-3.495-5.168-5.223c-1.804-1.797-3.146-3.855-3.438-6.436
		c-0.25-2.237-0.053-4.444,0.901-6.522c1.057-2.28,2.895-3.554,5.333-3.952c1.877-0.299,3.747-0.202,5.581,0.327
		c2.256,0.651,3.749,2.116,4.544,4.303c0.64,1.753,0.844,3.579,0.864,5.433c0.007,0.318-0.122,0.367-0.391,0.364
		c-1.084-0.01-2.174-0.008-3.263-0.008C308.994,35.812,308.994,35.812,308.994,35.814z"/>
	<path fill-rule="evenodd" clip-rule="evenodd" fill="#6D6E71" d="M335.795,43.398c0-5.742,0.007-11.485-0.015-17.231
		c-0.004-0.521,0.149-0.618,0.632-0.611c1.983,0.027,3.969,0.034,5.951,0c0.524-0.01,0.604,0.149,0.603,0.631
		c-0.014,9.436-0.014,18.871-0.01,28.303c0,0.889-0.087,0.74,0.733,0.747c2.035,0.007,4.069,0.011,6.103-0.003
		c0.386-0.007,0.542,0.069,0.533,0.496c-0.023,1.691-0.023,3.387,0,5.073c0.005,0.428-0.136,0.506-0.528,0.506
		c-4.483-0.016-8.964-0.016-13.451,0.005c-0.471,0.002-0.569-0.138-0.565-0.581c0.015-5.779,0.007-11.556,0.007-17.334
		C335.79,43.398,335.792,43.398,335.795,43.398z"/>
</g>
<g>
	<g>
		<g>
			<path fill-rule="evenodd" clip-rule="evenodd" fill="#6D6E71" d="M402.729,3.086c2.323,0,4.639,0,6.957,0
				c0.085,0.263,0.322,0.215,0.518,0.246c0.797,0.139,1.595,0.242,2.387,0.411c12.879,2.723,22.637,13.236,24.422,26.286
				c0.03,0.23-0.053,0.516,0.26,0.64c0,2.322,0,4.638,0,6.96c-0.264,0.083-0.216,0.317-0.25,0.515
				c-0.138,0.813-0.246,1.636-0.421,2.447c-2.821,12.947-13.236,22.584-26.333,24.369c-0.217,0.029-0.479-0.035-0.582,0.25
				c-2.318,0-4.634,0-6.957,0c-0.085-0.262-0.322-0.211-0.515-0.246c-0.813-0.14-1.636-0.25-2.447-0.425
				c-12.947-2.821-22.579-13.234-24.369-26.334c-0.027-0.213,0.037-0.471-0.255-0.576c0-2.322,0-4.638,0-6.96
				c0.264-0.086,0.221-0.321,0.25-0.515c0.136-0.796,0.244-1.6,0.409-2.388c2.726-12.878,13.232-22.638,26.285-24.423
				C402.319,3.315,402.609,3.395,402.729,3.086z M424.812,13.482c-0.066-0.292-0.267-0.385-0.421-0.513
				c-4.747-4.031-10.218-6.358-16.446-6.66c-10.025-0.486-18.085,3.372-24.218,11.299c-0.255,0.332-0.768,0.725-0.593,1.068
				c0.177,0.348,0.793,0.158,1.223,0.158c2.504,0,5.009-0.169,7.506-0.332c0.929-0.064,1.404,0.311,1.448,1.051
				c0.039,0.748-0.38,1.172-1.289,1.27c-0.678,0.07-1.358,0.119-2.041,0.167c-0.831,0.058-0.861,0.099-0.604,0.873
				c3.191,9.502,6.385,18.995,9.576,28.486c0.074,0.207,0.088,0.453,0.306,0.591c0.226-0.105,0.232-0.333,0.294-0.52
				c1.885-5.631,3.76-11.268,5.646-16.9c0.124-0.377,0.12-0.713-0.014-1.082c-1.323-3.594-2.643-7.19-3.938-10.792
				c-0.153-0.438-0.393-0.621-0.846-0.651c-0.804-0.051-1.61-0.117-2.41-0.238c-0.634-0.094-0.98-0.58-0.928-1.186
				c0.053-0.638,0.489-1.056,1.14-1.075c0.314-0.009,0.625,0.021,0.933,0.041c2.994,0.192,5.99,0.421,8.998,0.228
				c1.61-0.099,3.221-0.196,4.836-0.269c0.786-0.035,1.248,0.354,1.313,1.017c0.064,0.692-0.338,1.179-1.128,1.282
				c-0.699,0.092-1.401,0.143-2.104,0.187c-0.949,0.063-0.979,0.095-0.686,0.976c3.171,9.419,6.34,18.837,9.506,28.253
				c0.063,0.187,0.071,0.409,0.308,0.559c0.053-0.113,0.12-0.214,0.154-0.324c1.374-4.577,2.764-9.154,4.105-13.746
				c0.593-2.021,0.8-4.086,0.437-6.195c-0.411-2.382-1.479-4.465-2.74-6.478c-0.662-1.054-1.299-2.121-1.71-3.302
				c-0.406-1.157-0.584-2.338-0.232-3.538C420.854,14.903,422.383,13.658,424.812,13.482z M406.717,36.717
				c-0.142,0.331-0.216,0.476-0.269,0.627c-2.633,7.649-5.264,15.298-7.913,22.944c-0.188,0.545-0.03,0.71,0.478,0.846
				c5.308,1.379,10.567,1.238,15.795-0.409c0.479-0.151,0.588-0.326,0.404-0.831c-2.647-7.206-5.273-14.421-7.904-21.628
				C407.136,37.804,406.961,37.349,406.717,36.717z M380.77,23.012c-0.053,0.005-0.105,0.014-0.158,0.019
				c-0.09,0.207-0.185,0.411-0.273,0.618c-1.931,4.797-2.564,9.766-1.693,14.862c1.562,9.136,6.502,15.905,14.615,20.371
				c0.165,0.088,0.363,0.311,0.547,0.134c0.146-0.134-0.039-0.343-0.08-0.52c-0.019-0.075-0.056-0.151-0.081-0.231
				c-4.046-11.073-8.085-22.157-12.134-33.233C381.264,24.356,381.02,23.683,380.77,23.012z M431.02,21.302
				c-0.053,0.011-0.107,0.02-0.163,0.026c-0.014,0.041-0.039,0.081-0.039,0.118c0,0.124,0,0.249,0.007,0.372
				c0.331,3.596-0.34,7.042-1.51,10.421c-2.92,8.377-5.833,16.763-8.744,25.147c-0.067,0.2-0.217,0.402-0.064,0.746
				c6.033-3.727,10.225-8.878,12.331-15.624C435.116,35.201,434.409,28.117,431.02,21.302z"/>
		</g>
		<g>
			<g>
				<g>
					<path fill-rule="evenodd" clip-rule="evenodd" fill="#6D6E71" d="M493.825,2.519c3.625,0,7.256,0,11.056,0
						c-0.714,1.251-1.364,2.408-2.03,3.558c-8.169,14.114-16.335,28.227-24.505,42.346c-0.812,1.393-0.82,1.402-1.62,0.019
						c-8.711-15.052-17.417-30.105-26.12-45.16c-0.129-0.218-0.35-0.404-0.271-0.757c3.614,0,7.238,0,10.859,0
						c0.068,0.148,0.135,0.298,0.216,0.438c4.524,7.828,9.048,15.652,13.577,23.481c0.815,1.401,1.638,2.81,2.447,4.201
						c0.386-0.137,0.44-0.42,0.563-0.634c4.058-6.996,8.122-13.994,12.162-21.002C491.394,6.854,492.735,4.758,493.825,2.519z"/>
					<path fill="#6D6E71" d="M477.529,50.427c-0.758,0-1.107-0.598-1.633-1.507c-8.709-15.052-17.419-30.104-26.118-45.159
						c-0.202-0.29-0.524-0.749-0.384-1.434l0.158-0.758h12.23l0.455,0.921l15.291,26.419l1.482-2.554
						c3.439-5.939,6.889-11.878,10.314-17.826c0.358-0.618,0.722-1.236,1.087-1.852c0.88-1.484,1.792-3.021,2.553-4.579l0.264-0.539
						h13.302l-1.561,2.738c-0.441,0.772-0.859,1.518-1.291,2.26l-24.505,42.341C478.64,49.82,478.285,50.427,477.529,50.427z
						 M451.825,3.481c8.57,14.82,17.137,29.631,25.704,44.437l24.494-42.32c0.404-0.7,0.802-1.399,1.213-2.123h-8.818
						c-0.731,1.441-1.559,2.833-2.357,4.18c-0.361,0.609-0.72,1.217-1.073,1.833c-3.433,5.949-6.875,11.887-10.321,17.828
						l-1.841,3.178c-0.151,0.313-0.395,0.814-1.07,1.055l-0.751,0.268L460.603,3.481H451.825z"/>
				</g>
				<path fill="#6D6E71" d="M477.004,31.814L460.58,3.442c-0.069-0.122-0.127-0.238-0.185-0.358l-0.636-1.358l1.427-0.157
					l2.798-0.012c2.211-0.007,4.417-0.012,6.629-0.041c1.131,0,1.576,0.772,1.793,1.147l5.119,8.851
					c1.728-2.96,3.448-5.928,5.155-8.899c0.271-0.473,0.752-1.099,1.8-1.099c2.354,0.026,4.685,0.03,7.015,0.037l3.857,0.012
					l-0.668,1.372c-0.793,1.632-1.724,3.203-2.624,4.718c-0.361,0.609-0.725,1.217-1.073,1.833
					c-3.438,5.951-6.884,11.903-10.33,17.847l-1.832,3.158c-0.151,0.313-0.395,0.814-1.07,1.055L477.004,31.814z M462.811,3.477
					l14.719,25.432l1.469-2.536c3.448-5.944,6.897-11.888,10.328-17.843c0.358-0.618,0.722-1.236,1.087-1.852
					c0.62-1.044,1.254-2.119,1.845-3.207l-0.768-0.002c-2.334-0.007-4.671-0.011-7.006-0.038l-0.143,0.134
					c-1.794,3.127-3.6,6.244-5.42,9.354c-0.209,0.447-0.473,1.027-1.213,1.251l-0.729,0.225l-6.233-10.777
					c-0.027-0.046-0.11-0.189-0.147-0.229c-2.181,0.07-4.393,0.077-6.605,0.082L462.811,3.477z"/>
			</g>
			<g>
				<path fill-rule="evenodd" clip-rule="evenodd" fill="#6D6E71" d="M462.369,67.384c-0.498-0.005-0.882-0.304-1.029-0.839
					c-0.641-2.305-1.422-4.561-2.077-6.858c-0.437-1.535-0.972-3.042-1.403-4.577c-0.131-0.455-0.01-0.689,0.45-0.841
					c0.503-0.161,0.848-0.027,0.977,0.402c0.335,1.142,0.647,2.3,0.992,3.444c0.515,1.714,1.068,3.414,1.567,5.131
					c0.133,0.459,0.25,0.928,0.393,1.388c0.037,0.105,0.023,0.255,0.195,0.236c0.113-0.016,0.122-0.133,0.149-0.228
					c0.324-1.151,0.644-2.3,0.983-3.449c0.52-1.76,1.066-3.515,1.595-5.279c0.117-0.4,0.19-0.805,0.347-1.192
					c0.188-0.474,0.389-0.604,0.862-0.477c0.515,0.139,0.7,0.426,0.558,0.924c-0.184,0.637-0.401,1.264-0.597,1.898
					c-0.621,2.028-1.216,4.066-1.856,6.089c-0.366,1.135-0.722,2.266-1.053,3.414C463.266,67.104,462.88,67.389,462.369,67.384z"/>
				<path fill-rule="evenodd" clip-rule="evenodd" fill="#6D6E71" d="M480.377,63.437c-0.669,0-1.338,0.005-2.006-0.005
					c-0.278-0.005-0.375,0.095-0.384,0.377c-0.035,1.14,0.606,1.939,1.709,2.247c0.907,0.253,1.691,0.064,2.466-0.391
					c0.447-0.267,0.831-0.216,1.016,0.099c0.206,0.356,0.101,0.667-0.334,0.963c-1.711,1.167-4.466,0.807-5.702-0.768
					c-0.375-0.478-0.611-1.024-0.616-1.641c-0.009-0.859-0.029-1.709-0.002-2.562c0.034-1.085,0.618-1.884,1.491-2.454
					c1.641-1.077,4.007-0.701,4.99,1.004c0.464,0.8,0.72,1.65,0.287,2.56c-0.172,0.372-0.471,0.552-0.861,0.557
					c-0.685,0.014-1.372,0.004-2.054,0.004C480.377,63.427,480.377,63.432,480.377,63.437z M479.853,62.482v-0.004
					c0.453,0,0.9,0.009,1.349-0.003c0.848-0.027,1.029-0.275,0.825-1.103c-0.269-1.103-1.33-1.695-2.578-1.445
					c-0.944,0.188-1.639,1.262-1.489,2.281c0.042,0.263,0.195,0.273,0.389,0.273C478.849,62.482,479.352,62.482,479.853,62.482z"/>
				<path fill-rule="evenodd" clip-rule="evenodd" fill="#6D6E71" d="M474.754,61.851c0,0.717,0,1.438,0,2.16
					c-0.009,1.469-1.024,2.665-2.364,3.185c-1.649,0.642-3.587-0.216-4.4-1.767c-0.225-0.433-0.352-0.934-0.358-1.441
					c0-1.47,0-2.94,0-4.411c0-0.538,0.265-0.74,0.915-0.735c0.34,0.002,0.625,0.336,0.627,0.749c0.007,1.508-0.025,3.01,0.014,4.513
					c0.046,1.493,1.634,2.442,2.909,1.751c0.763-0.413,1.186-1.08,1.179-1.987c-0.009-1.404-0.002-2.806-0.002-4.21
					c0-0.719,0.478-1.05,1.15-0.781c0.267,0.11,0.336,0.348,0.331,0.618C474.745,60.279,474.754,61.065,474.754,61.851z"/>
				<path fill-rule="evenodd" clip-rule="evenodd" fill="#6D6E71" d="M494.357,67.389c-0.87-0.025-1.709-0.193-2.458-0.683
					c-0.228-0.156-0.414-0.333-0.414-0.637c0-0.246,0.056-0.441,0.292-0.59c0.23-0.154,0.391-0.03,0.538,0.082
					c0.742,0.554,1.566,0.752,2.483,0.65c0.851-0.101,1.33-0.634,1.197-1.383c-0.092-0.501-0.45-0.781-0.878-0.944
					c-0.646-0.251-1.312-0.453-1.964-0.686c-0.924-0.323-1.467-1.02-1.496-1.896c-0.03-1.072,0.443-1.865,1.376-2.266
					c1.264-0.542,2.5-0.411,3.72,0.152c0.412,0.192,0.384,0.521,0.251,0.839c-0.134,0.319-0.397,0.438-0.737,0.269
					c-0.593-0.299-1.218-0.45-1.882-0.4c-0.302,0.017-0.582,0.078-0.841,0.26c-0.407,0.292-0.607,0.65-0.524,1.149
					c0.071,0.466,0.428,0.661,0.802,0.797c0.667,0.248,1.347,0.45,2.02,0.681c1.654,0.569,1.921,2.601,1.083,3.646
					c-0.511,0.636-1.255,0.829-2.021,0.953C494.732,67.416,494.539,67.389,494.357,67.389z"/>
				<path fill-rule="evenodd" clip-rule="evenodd" fill="#6D6E71" d="M489.87,64.002c-0.046,1.488,0.104,3.267-0.131,5.027
					c-0.182,1.41-1.107,2.371-2.373,2.32c-0.397-0.014-0.735-0.119-0.779-0.591c-0.039-0.388,0.232-0.691,0.703-0.726
					c0.55-0.046,0.818-0.35,0.938-0.853c0.115-0.474,0.117-0.956,0.117-1.438c0.003-2.725,0.005-5.45-0.002-8.171
					c-0.003-0.399,0.078-0.689,0.533-0.724c0.698-0.055,0.887,0.058,0.962,0.618c0.039,0.283,0.03,0.565,0.03,0.854
					C489.873,61.453,489.87,62.593,489.87,64.002z"/>
				<path fill-rule="evenodd" clip-rule="evenodd" fill="#6D6E71" d="M486.592,66.428c-0.005,0.616-0.423,0.89-0.894,0.944
					c-0.411,0.044-0.949-0.503-0.966-0.917c-0.021-0.469,0.46-0.933,0.966-0.937C486.242,65.511,486.592,65.869,486.592,66.428z"/>
			</g>
		</g>
		<g>
			<path fill-rule="evenodd" clip-rule="evenodd" fill="#6D6E71" d="M534.498,2.572c1.26-0.067,1.836,0.338,2.272,1.078
				c4.18,7.177,8.385,14.338,12.564,21.515c1.107,1.899,1.072,1.909,3.178,1.397c4.839-1.188,9.683-2.386,14.537-3.531
				c0.896-0.214,0.939-0.451,0.407-1.15c-1.73-2.279-3.412-4.598-5.11-6.899c-0.82-1.113-0.727-1.39,0.604-1.624
				c2.665-0.479,5.342-0.919,8-1.423c0.754-0.143,1.306,0.096,1.753,0.625c2.298,2.71,4.607,5.426,6.868,8.168
				c0.669,0.813,0.521,1.179-0.515,1.457c-2.199,0.592-4.407,1.165-6.627,1.691c-0.868,0.204-0.965,0.444-0.406,1.167
				c2.111,2.724,4.173,5.488,6.233,8.246c0.968,1.292,0.873,1.583-0.625,2.127c-6.22,2.25-12.435,4.512-18.659,6.752
				c-2.04,0.732-2.417,0.62-3.479-1.225c-1.848-3.222-3.688-6.449-5.443-9.722c-0.552-1.027-1.101-1.318-2.266-0.989
				c-3.609,1.013-7.256,1.904-10.896,2.824c-1.7,0.431-2.266,0.176-2.955-1.362c-3.906-8.725-7.808-17.449-11.697-26.184
				c-0.766-1.715-0.66-1.886,1.199-2.042C527.254,3.149,531.072,2.851,534.498,2.572z M533.929,4.212
				c-2.782,0.248-5.438,0.522-8.097,0.702c-0.995,0.065-1.094,0.362-0.683,1.201c1.461,2.982,2.884,5.984,4.308,8.984
				c2.247,4.751,4.487,9.508,6.717,14.263c0.234,0.488,0.452,0.899,1.104,0.748c3.353-0.777,6.7-1.559,10.055-2.313
				c0.582-0.13,0.563-0.352,0.317-0.789c-4.156-7.365-8.309-14.734-12.439-22.111C534.868,4.287,534.459,4.051,533.929,4.212z
				 M569.18,24.743c-0.156,0.024-0.234,0.024-0.311,0.049c-5.484,1.414-10.974,2.837-16.458,4.249
				c-0.586,0.147-0.6,0.397-0.313,0.886c1.763,2.953,3.504,5.921,5.239,8.893c0.284,0.489,0.578,0.593,1.128,0.404
				c5.51-1.894,11.021-3.771,16.548-5.607c0.815-0.272,0.724-0.537,0.294-1.104c-1.817-2.405-3.604-4.832-5.386-7.267
				C569.697,24.943,569.518,24.686,569.18,24.743z M570.625,22.168c1.87-0.471,4.049-0.996,6.211-1.571
				c0.526-0.138,0.211-0.464,0.027-0.694c-1.554-1.878-3.115-3.738-4.65-5.631c-0.397-0.488-0.851-0.597-1.43-0.492
				c-1.899,0.332-3.8,0.657-5.702,0.977c-0.844,0.138-0.421,0.512-0.168,0.849c1.525,2.025,3.051,4.049,4.574,6.078
				C569.697,21.958,569.895,22.261,570.625,22.168z"/>
			<path fill-rule="evenodd" clip-rule="evenodd" fill="#6D6E71" d="M542.662,61.212c0,0.696-0.014,1.393,0,2.091
				c0.014,0.518-0.131,1.122,0.683,1.234c0.352,0.048,0.319,0.393,0.292,0.659c-0.032,0.322-0.256,0.464-0.554,0.489
				c-0.552,0.053-1.172,0.088-1.476-0.437c-0.416-0.732-0.783-0.438-1.272-0.138c-0.777,0.484-1.647,0.666-2.558,0.577
				c-1.252-0.124-2.206-1.007-2.39-2.172c-0.209-1.367,0.404-2.456,1.702-2.947c0.949-0.363,1.97-0.363,2.96-0.524
				c0.547-0.087,1.101-0.161,1.13-0.9c0.03-0.713-0.273-1.163-0.962-1.388c-1.28-0.423-2.204-0.12-2.882,1.094
				c-0.326,0.588-0.802,0.418-1.201,0.33c-0.524-0.11-0.248-0.558-0.18-0.861c0.161-0.683,0.584-1.165,1.225-1.454
				c1.418-0.655,2.85-0.614,4.278-0.032c0.805,0.331,1.175,0.98,1.19,1.829c0.023,0.85,0.009,1.7,0.009,2.55
				C542.657,61.212,542.657,61.212,542.662,61.212z M541.171,61.981c-0.28-0.181,0.37-0.948-0.36-0.884
				c-1.025,0.087-2.098,0.128-3.057,0.593c-0.68,0.333-0.912,0.933-0.783,1.654c0.11,0.643,0.559,0.999,1.179,1.126
				C539.687,64.783,541.127,63.644,541.171,61.981z"/>
			<path fill-rule="evenodd" clip-rule="evenodd" fill="#6D6E71" d="M557.469,61.217c0,0.701-0.007,1.397,0.004,2.096
				c0.01,0.517-0.135,1.119,0.683,1.225c0.354,0.048,0.294,0.402,0.28,0.664c-0.016,0.273-0.202,0.425-0.445,0.459
				c-0.545,0.083-1.195,0.166-1.498-0.347c-0.433-0.729-0.807-0.554-1.358-0.195c-0.737,0.462-1.576,0.644-2.444,0.579
				c-1.316-0.102-2.325-0.988-2.488-2.196c-0.193-1.402,0.401-2.436,1.716-2.937c0.949-0.363,1.97-0.363,2.957-0.52
				c0.557-0.087,1.092-0.175,1.131-0.907c0.039-0.729-0.301-1.16-0.981-1.386c-1.282-0.423-2.258-0.112-2.895,1.087
				c-0.326,0.606-0.798,0.42-1.188,0.342c-0.51-0.11-0.257-0.564-0.179-0.87c0.177-0.724,0.657-1.207,1.332-1.505
				c0.834-0.375,1.715-0.469,2.613-0.384c2.093,0.202,2.762,0.944,2.762,3.054C557.471,60.057,557.469,60.64,557.469,61.217z
				 M555.993,61.964c-0.179-0.244,0.331-0.954-0.402-0.878c-0.985,0.104-2.001,0.156-2.938,0.544
				c-0.696,0.29-0.956,0.859-0.885,1.591c0.067,0.707,0.501,1.103,1.165,1.245C554.495,64.804,555.959,63.627,555.993,61.964z"/>
			<path fill-rule="evenodd" clip-rule="evenodd" fill="#6D6E71" d="M572.395,61.538c-0.77,0-1.544,0.019-2.316-0.004
				c-0.647-0.023-0.8,0.271-0.68,0.861c0.216,1.021,0.661,1.848,1.769,2.05c1.078,0.204,1.992-0.104,2.59-1.097
				c0.076-0.128,0.126-0.284,0.211-0.411c0.341-0.491,0.89-0.379,1.262-0.228c0.57,0.241,0.097,0.671-0.046,0.958
				c-0.942,1.859-3.382,2.608-5.301,1.646c-1.654-0.827-2.458-2.663-2.174-4.965c0.246-2.013,1.416-3.426,3.166-3.842
				c2.732-0.644,5.28,1.778,4.814,4.535c-0.092,0.52-0.394,0.492-0.74,0.492C574.097,61.538,573.249,61.538,572.395,61.538z
				 M571.739,60.337c0.538,0,1.078-0.03,1.613,0.007c0.634,0.034,0.8-0.187,0.637-0.813c-0.278-1.085-0.859-1.792-2.016-1.907
				c-1.084-0.105-2.026,0.51-2.426,1.569c-0.29,0.77-0.21,1.271,0.809,1.151C570.812,60.293,571.275,60.337,571.739,60.337z"/>
			<path fill-rule="evenodd" clip-rule="evenodd" fill="#6D6E71" d="M563.038,63.319c0.625-1.856,1.252-3.709,1.887-5.563
				c0.097-0.29,0.16-0.621,0.342-0.855c0.368-0.484,0.963-0.349,1.381-0.188c0.487,0.185,0.051,0.607-0.05,0.878
				c-0.842,2.321-1.735,4.628-2.583,6.948c-0.212,0.593-0.43,0.968-1.192,0.956c-0.727-0.016-0.9-0.384-1.101-0.924
				c-0.815-2.291-1.675-4.563-2.475-6.858c-0.11-0.308-0.681-0.837,0.007-1.022c0.561-0.156,1.298-0.313,1.576,0.644
				c0.462,1.592,1.004,3.166,1.521,4.74c0.133,0.401,0.282,0.797,0.427,1.194C562.863,63.285,562.951,63.303,563.038,63.319z"/>
			<path fill-rule="evenodd" clip-rule="evenodd" fill="#6D6E71" d="M578.952,59.438c0,1.746-0.021,3.488,0.014,5.229
				c0.009,0.598-0.159,0.818-0.784,0.812c-0.606-0.005-0.795-0.2-0.79-0.807c0.025-3.488,0.023-6.972,0.003-10.459
				c-0.003-0.593,0.167-0.823,0.783-0.83c0.627-0.005,0.797,0.232,0.783,0.825C578.936,55.953,578.952,57.692,578.952,59.438z"/>
			<path fill-rule="evenodd" clip-rule="evenodd" fill="#6D6E71" d="M533.618,59.379c0,1.746-0.009,3.483,0.01,5.225
				c0.007,0.52-0.005,0.876-0.706,0.876c-0.673,0-0.843-0.23-0.838-0.871c0.027-3.446,0.025-6.889,0.002-10.331
				c-0.007-0.625,0.143-0.902,0.832-0.896c0.696,0.009,0.714,0.377,0.71,0.896C533.609,55.979,533.618,57.679,533.618,59.379z"/>
			<path fill-rule="evenodd" clip-rule="evenodd" fill="#6D6E71" d="M545.089,61.074c0-1.199-0.01-2.398,0.004-3.594
				c0.003-0.326-0.135-0.776,0.389-0.815c0.35-0.025,0.848-0.228,1.009,0.269c0.202,0.63,0.448,0.336,0.724,0.113
				c0.399-0.317,0.829-0.568,1.347-0.625c0.409-0.044,0.811-0.054,0.778,0.544c-0.021,0.4,0.11,0.795-0.564,0.905
				c-1.652,0.276-2.194,0.997-2.216,2.688c-0.011,1.117,0.076,2.247-0.034,3.357c-0.053,0.528,0.623,1.505-0.669,1.546
				c-1.32,0.041-0.691-0.956-0.741-1.493C545.02,63.014,545.089,62.039,545.089,61.074z"/>
		</g>
	</g>
	<g>
		<path fill-rule="evenodd" clip-rule="evenodd" fill="#6D6E71" d="M658.245,62.372c0.007-8.141,0-16.281,0.039-24.422
			c0.005-0.846-0.554-2.066,1.126-2.191c1.442-0.113,2.419,0.161,2.39,1.86c0,0.166,0.145,0.329,0.267,0.586
			c1.408-1.657,3.143-2.56,5.289-2.696c3.906-0.245,6.86,1.777,7.922,5.522c0.611,2.177,0.662,4.409,0.232,6.597
			c-1.048,5.356-5.687,8.414-11.539,7.519c-1.604-0.239-1.969,0.046-1.965,1.649c0,1.853,0.568,3.794-0.427,5.576
			C660.467,62.372,659.357,62.372,658.245,62.372z M662.062,46.914c0,1.408,0.012,2.575-0.005,3.747
			c-0.007,0.598,0.081,1.039,0.756,1.289c3.764,1.39,7.911-0.733,8.727-4.515c0.358-1.65,0.341-3.318-0.022-4.961
			c-0.549-2.521-2.109-3.812-4.504-3.801c-2.398,0.019-4.188,1.487-4.747,3.862C661.91,44.066,662.138,45.611,662.062,46.914z"/>
		<path fill-rule="evenodd" clip-rule="evenodd" fill="#6D6E71" d="M691.592,62.372c0.009-2.028-0.061-4.068,0.055-6.1
			c0.073-1.273-0.404-1.445-1.484-1.223c-2.033,0.423-4.064,0.216-6.045-0.324c-3.407-0.928-5.549-3.513-5.896-7.02
			c-0.776-7.803,3.707-12.518,11.553-12.164c5.606,0.258,5.606,0.258,5.606,5.859c0,6.301,0,12.594,0,18.896
			c0,0.722,0.132,1.479-0.454,2.074C693.813,62.372,692.703,62.372,691.592,62.372z M691.619,45.253
			c0-1.786-0.005-3.566,0.002-5.354c0.002-0.583,0.002-1.148-0.785-1.189c-1.776-0.097-3.564-0.313-5.258,0.515
			c-2.823,1.371-4.26,5.279-3.271,8.983c0.761,2.863,3.113,4.274,6.61,3.954c0.427-0.039,0.854-0.145,1.282-0.148
			c1.08-0.008,1.498-0.472,1.442-1.595C691.555,48.699,691.621,46.976,691.619,45.253z"/>
		<path fill-rule="evenodd" clip-rule="evenodd" fill="#6D6E71" d="M620.08,30.141c0.956,0.959,1.892,1.938,2.877,2.861
			c0.807,0.764,0.766,1.407-0.012,2.182c-3.761,3.728-7.483,7.5-11.256,11.218c-1.112,1.094-9.06,0.795-10.211-0.28
			c-2.101-1.967-3.925-4.219-6.225-5.979c0-0.492,0-0.988,0-1.479c1.204-0.455,1.848-1.554,2.686-2.396
			c0.895-0.902,1.552-0.953,2.443-0.015c1.782,1.873,3.648,3.665,5.475,5.499c0.446,0.445,0.795,0.914,1.478,0.216
			c3.86-3.964,7.753-7.89,11.634-11.826C619.341,30.141,619.713,30.141,620.08,30.141z"/>
		<path fill-rule="evenodd" clip-rule="evenodd" fill="#6D6E71" d="M761.248,54.965c-1.592,0.06-3.159,0.489-4.779,0.187
			c-3.04-0.565-4.418-2.055-4.467-5.143c-0.051-3.084-0.066-6.167,0.012-9.246c0.032-1.257-0.122-2.021-1.646-1.773
			c-0.411,0.068-1.07,0.314-1.305-0.276c-0.219-0.561,0.374-0.859,0.689-1.199c1.856-2.026,3.738-4.027,5.969-6.431
			c0,1.585,0.056,2.665-0.018,3.733c-0.063,0.948,0.213,1.37,1.222,1.263c0.733-0.075,1.48,0.021,2.22-0.022
			c1.011-0.06,1.758-0.023,1.753,1.384c0,1.369-0.556,1.613-1.767,1.602c-3.41-0.035-3.414,0.016-3.41,3.458
			c0.005,2.157-0.05,4.317,0.037,6.473c0.117,2.842,1.089,3.669,3.851,3.219c0.759-0.124,1.225-0.03,1.639,0.552
			C761.248,53.482,761.248,54.223,761.248,54.965z"/>
		<path fill-rule="evenodd" clip-rule="evenodd" fill="#6D6E71" d="M731.757,47.407c0,1.905-0.032,3.824,0.019,5.73
			c0.019,0.82-0.214,1.264-1.059,1.402c-2.928,0.479-5.839,0.951-8.823,0.459c-3.206-0.521-5.058-2.256-5.379-5.174
			c-0.309-2.773,1.286-5.236,4.136-6.287c1.941-0.717,3.981-0.924,6.013-0.629c1.289,0.186,1.452-0.28,1.328-1.384
			c-0.195-1.654-1.112-2.568-2.677-2.852c-1.785-0.319-3.577-0.231-5.313,0.283c-1.155,0.342-1.564-0.187-1.743-1.197
			c-0.173-0.948-0.159-1.59,1.098-1.804c2.392-0.409,4.754-0.71,7.167-0.274c3.154,0.57,4.931,2.421,5.128,5.619
			c0.127,2.026,0.023,4.069,0.023,6.106C731.7,47.407,731.729,47.407,731.757,47.407z M728.044,48.998c0-3.401,0-3.422-3.416-3.276
			c-0.727,0.031-1.474,0.158-2.169,0.386c-1.563,0.498-2.22,1.663-2.128,3.267c0.097,1.685,1.041,2.551,3.056,2.838
			C727.201,52.752,728.044,52.164,728.044,48.998z"/>
		<path fill-rule="evenodd" clip-rule="evenodd" fill="#6D6E71" d="M637.752,45.44c-0.019-6.865,4.202-10.683,10.822-9.788
			c4.611,0.616,7.488,4.495,7.392,9.961c-0.122,6.891-4.88,10.77-11.521,9.386C640.192,54.117,637.768,50.654,637.752,45.44z
			 M651.931,45.418c0.095-1.25-0.104-2.466-0.498-3.635c-0.747-2.201-2.266-3.261-4.594-3.27c-2.357-0.007-3.807,0.99-4.559,3.265
			c-0.792,2.41-0.792,4.853,0.005,7.256c0.754,2.275,2.24,3.312,4.545,3.309c2.266,0,3.828-1.104,4.589-3.299
			C651.823,47.879,652.021,46.663,651.931,45.418z"/>
		<path fill-rule="evenodd" clip-rule="evenodd" fill="#6D6E71" d="M714.159,45.101c0,2.527-0.062,5.06,0.025,7.583
			c0.039,1.116-0.282,1.665-1.404,1.87c-2.798,0.505-5.581,0.873-8.443,0.464c-3.468-0.494-5.588-2.403-6.124-5.898
			c-0.629-4.104-0.197-8.246-0.264-12.372c-0.027-1.576,1.318-0.895,2.091-0.993c0.853-0.108,1.739-0.135,1.709,1.24
			c-0.071,2.712-0.027,5.428-0.018,8.139c0.004,0.8,0.016,1.604,0.105,2.399c0.374,3.368,1.631,4.498,5.032,4.569
			c3.545,0.076,3.545,0.076,3.545-3.448c0-3.819,0.071-7.647-0.034-11.466c-0.042-1.581,0.87-1.478,1.882-1.46
			c0.972,0.018,1.994-0.197,1.925,1.419C714.081,39.798,714.159,42.449,714.159,45.101z"/>
		<path fill-rule="evenodd" clip-rule="evenodd" fill="#6D6E71" d="M738.776,55.3c-0.856-0.131-2.194-0.335-3.533-0.549
			c-0.929-0.151-1.705-0.345-1.17-1.641c0.382-0.914,0.397-1.921,1.909-1.396c1.696,0.59,3.49,0.797,5.28,0.291
			c1.323-0.376,2.452-1.013,2.534-2.557c0.076-1.498-0.994-2.146-2.203-2.624c-1.539-0.616-3.116-1.156-4.625-1.838
			c-1.811-0.816-2.744-2.279-2.643-4.278c0.101-1.999,1.021-3.548,2.904-4.38c2.989-1.32,6.033-0.939,9.064-0.158
			c1.16,0.296,0.528,1.201,0.409,1.833c-0.122,0.671-0.373,1.301-1.354,1.004c-1.657-0.505-3.337-0.877-5.094-0.425
			c-1,0.253-1.936,0.531-2.046,1.776c-0.105,1.245,0.594,1.974,1.655,2.383c1.318,0.51,2.665,0.949,3.997,1.427
			c2.151,0.772,3.576,2.13,3.711,4.554c0.143,2.583-1.022,4.375-3.273,5.515C742.725,55.038,741.013,55.238,738.776,55.3z"/>
		<path fill-rule="evenodd" clip-rule="evenodd" fill="#6D6E71" d="M620.526,48.182c-3.989,4.01-7.984,8.017-11.962,12.04
			c-0.685,0.696-1.273,0.825-2.015,0.076c-4.1-4.159-3.806-2.78-0.263-6.429c2.955-3.038,5.992-6.007,9.014-8.979
			c0.405-0.402,0.676-1.107,1.469-0.901C617.852,45.537,619.589,46.502,620.526,48.182z"/>
		<path fill-rule="evenodd" clip-rule="evenodd" fill="#6D6E71" d="M620.526,48.182c-0.938-1.68-2.675-2.645-3.757-4.193
			c2.521-0.027,5.041-0.046,7.56-0.101c0.627-0.017,1.022,0.262,1.427,0.671c1.861,1.884,3.713,3.772,5.625,5.602
			c0.859,0.827,0.866,1.498,0.018,2.316c-3.883,3.733-2.568,3.516-6.057,0.239C623.733,51.203,622.392,49.413,620.526,48.182z"/>
	</g>
	<text transform="matrix(1 0 0 1 633.6553 24.5449)" fill="#6D6E71" font-family="'MyriadPro-Regular'" font-size="18.4567">Certification</text>
</g>
</svg>
