<?xml version="1.0" encoding="utf-8"?>
<!-- Generator: Adobe Illustrator 16.0.3, SVG Export Plug-In . SVG Version: 6.00 Build 0)  -->
<!DOCTYPE svg PUBLIC "-//W3C//DTD SVG 1.1//EN" "http://www.w3.org/Graphics/SVG/1.1/DTD/svg11.dtd">
<svg version="1.1" id="Layer_1" xmlns="http://www.w3.org/2000/svg" xmlns:xlink="http://www.w3.org/1999/xlink" x="0px" y="0px"
	 width="51.971px" height="72.869px" viewBox="0 0 51.971 72.869" enable-background="new 0 0 51.971 72.869" xml:space="preserve">
<g>
	<path fill="#00FFFF" d="M25.997,14.389c8.312,0,16.626,0.013,24.94-0.02c0.871,0,1.101,0.217,1.018,1.086
		c-0.688,7.059-1.345,14.127-1.998,21.189c-0.595,6.384-1.163,12.769-1.744,19.152c-0.321,3.531-0.653,7.064-0.97,10.6
		c-0.049,0.573-0.209,0.929-0.858,1.094c-6.581,1.738-13.154,3.507-19.723,5.287c-0.475,0.127-0.895,0.121-1.361-0.006
		c-6.575-1.774-13.146-3.543-19.727-5.291c-0.572-0.148-0.787-0.424-0.841-1.002c-0.439-4.989-0.901-9.98-1.359-14.972
		c-0.532-5.763-1.069-11.53-1.605-17.29c-0.459-5.017-0.919-10.04-1.385-15.06c-0.108-1.181-0.224-2.357-0.334-3.529
		c-0.119-1.236-0.115-1.239,1.093-1.239C9.428,14.389,17.711,14.389,25.997,14.389z M26.305,31.412
		c0.009,0.051,0.023,0.102,0.036,0.154c-0.216,0.09-0.431,0.183-0.642,0.274c-4.584,1.932-9.161,3.877-13.754,5.783
		c-0.686,0.287-1.024,0.596-0.933,1.408c0.175,1.487,0.279,2.981,0.3,4.47c0.011,0.854,0.332,1.001,1.106,0.997
		c6.849-0.026,13.703-0.007,20.551-0.032c0.682-0.005,0.933,0.146,0.873,0.878c-0.178,2.261-0.31,4.53-0.429,6.8
		c-0.026,0.51-0.195,0.771-0.699,0.918c-2.033,0.59-4.051,1.211-6.073,1.826c-0.34,0.106-0.662,0.125-1.006,0.028
		c-2.065-0.575-4.131-1.153-6.205-1.701c-0.504-0.128-0.695-0.362-0.719-0.891c-0.046-1.183-0.173-2.362-0.245-3.539
		c-0.035-0.556-0.213-0.804-0.84-0.785c-1.588,0.05-3.181,0.073-4.765-0.008c-0.854-0.039-0.958,0.288-0.888,1.014
		c0.272,2.753,0.52,5.517,0.71,8.276c0.045,0.598,0.354,0.708,0.786,0.834c3.969,1.146,7.94,2.296,11.909,3.463
		c0.336,0.092,0.645,0.156,1,0.055c4.159-1.165,8.322-2.324,12.488-3.465c0.39-0.105,0.551-0.279,0.587-0.693
		c0.493-6.172,0.988-12.349,1.529-18.516c0.067-0.792-0.192-0.928-0.896-0.923c-4.297,0.026-8.592,0.014-12.888,0.004
		c-0.291,0-0.608,0.122-0.95-0.133c0.263-0.115,0.474-0.209,0.692-0.304c4.664-1.974,9.332-3.953,13.994-5.933
		c0.327-0.141,0.723-0.172,0.752-0.692c0.106-1.773,0.233-3.539,0.383-5.31c0.044-0.513-0.101-0.695-0.646-0.693
		c-10.429,0.036-20.863,0.053-31.294,0.06c-0.565,0.003-0.686,0.184-0.596,0.701c0.248,1.534,0.554,3.068,0.659,4.612
		c0.069,1.034,0.511,1.152,1.391,1.143c4.604-0.064,9.218-0.064,13.823-0.082C25.708,31.412,26.006,31.412,26.305,31.412z"/>
	<path fill="#00FFFF" d="M26.974,3.455c0.768,0.794,1.377,1.551,2.107,2.16c0.792,0.662,1.056,1.406,1.005,2.426
		c-0.085,1.7-0.024,1.703-1.727,1.703c-1.862,0-3.729-0.019-5.591,0.015c-0.563,0.012-0.743-0.143-0.757-0.728
		c-0.046-2.428-0.066-2.428,2.375-2.446c0.181,0,0.363,0,0.722-0.219c-0.717-0.654-1.395-1.352-2.147-1.953
		c-0.746-0.603-0.986-1.302-0.955-2.254c0.072-2.138,0.023-2.14,2.139-2.14c1.707,0,3.419,0.02,5.129-0.014
		c0.58-0.005,0.85,0.126,0.798,0.769c-0.065,0.833,0.254,1.896-0.15,2.447c-0.447,0.594-1.566,0.126-2.389,0.205
		C27.385,3.44,27.238,3.44,26.974,3.455z"/>
	<path fill="#00FFFF" d="M38.415,3.594c0.625,0.621,1.21,1.306,1.895,1.862c0.896,0.724,1.256,1.56,1.174,2.732
		c-0.114,1.551-0.03,1.556-1.606,1.556c-1.901,0-3.801-0.014-5.699,0.013c-0.539,0.009-0.758-0.104-0.772-0.708
		c-0.053-2.448-0.074-2.448,2.371-2.464c0.186,0,0.37,0,0.683,0c-0.646-0.883-1.373-1.539-2.104-2.166
		C33.63,3.794,33.366,3.115,33.4,2.156c0.071-2.136,0.023-2.138,2.147-2.138c1.715,0,3.427,0.026,5.137-0.018
		c0.627-0.009,0.83,0.191,0.774,0.801c-0.075,0.831,0.334,1.876-0.158,2.442c-0.467,0.542-1.527,0.117-2.321,0.19
		C38.807,3.445,38.604,3.337,38.415,3.594z"/>
	<path fill="#00FFFF" d="M10.522,4.874c0-1.366,0.02-2.738-0.013-4.104c-0.014-0.537,0.104-0.772,0.71-0.767
		c2.206,0.034,4.415,0.034,6.623,0c0.6-0.005,0.708,0.228,0.722,0.764c0.055,2.661,0.07,2.661-2.545,2.661
		c-2.025,0-1.964,0.005-2.053,2.035C13.92,6.451,14.247,6.682,15.149,6.6c0.897-0.082,1.805,0.011,2.706-0.026
		c0.505-0.017,0.693,0.123,0.712,0.671c0.088,2.502,0.105,2.499-2.418,2.499c-1.645,0-3.295-0.016-4.939,0.013
		c-0.526,0.009-0.713-0.149-0.7-0.686C10.541,7.674,10.522,6.275,10.522,4.874z"/>
</g>
<path fill="#6D6E71" d="M63.374,64.668c0-18.821,0-37.645,0-56.458c18.821,0,37.638,0,56.459,0c0,18.813,0,37.635,0,56.458
	C101.012,64.668,82.196,64.668,63.374,64.668z M97.003,54.819c0.044,0.098,0.075,0.168,0.107,0.229
	c0.789,1.459,1.874,2.646,3.275,3.543c1.667,1.054,3.514,1.544,5.467,1.646c0.827,0.051,1.652,0.035,2.478-0.073
	c1.151-0.146,2.26-0.427,3.298-0.955c2.396-1.228,3.677-3.185,3.838-5.873c0.046-0.671,0-1.338-0.099-2.002
	c-0.133-0.856-0.398-1.661-0.84-2.414c-0.565-0.956-1.343-1.717-2.239-2.354c-0.998-0.717-2.095-1.271-3.211-1.774
	c-0.881-0.396-1.771-0.759-2.648-1.151c-0.55-0.248-1.087-0.523-1.57-0.883c-0.683-0.51-1.017-1.186-1.008-2.04
	c0.005-0.894,0.516-1.671,1.342-2.018c0.493-0.202,1.007-0.253,1.526-0.214c0.64,0.043,1.226,0.236,1.738,0.627
	c0.457,0.35,0.798,0.796,1.099,1.277c0.07,0.11,0.144,0.227,0.229,0.358c1.39-0.89,2.765-1.771,4.149-2.665
	c-0.271-0.469-0.55-0.893-0.861-1.301c-1.208-1.544-2.778-2.481-4.715-2.802c-1.063-0.181-2.137-0.216-3.215-0.091
	c-1.14,0.134-2.226,0.442-3.213,1.041c-2.167,1.304-3.261,3.239-3.337,5.76c-0.018,0.513,0.014,1.018,0.09,1.527
	c0.125,0.863,0.38,1.69,0.803,2.449c0.527,0.943,1.259,1.709,2.117,2.348c0.953,0.709,2.004,1.246,3.088,1.719
	c1.044,0.461,2.098,0.925,3.137,1.394c0.473,0.212,0.921,0.476,1.328,0.798c0.563,0.447,0.903,1.012,0.973,1.741
	c0.072,0.812-0.196,1.478-0.811,2.006c-0.438,0.377-0.949,0.603-1.508,0.724c-0.653,0.142-1.309,0.168-1.977,0.098
	c-1.062-0.115-2.006-0.489-2.829-1.172c-0.616-0.514-1.104-1.135-1.534-1.799c-0.042-0.069-0.087-0.129-0.14-0.209
	C99.882,53.151,98.455,53.983,97.003,54.819z M78.247,55.386c0.03,0.078,0.051,0.143,0.08,0.202
	c0.132,0.243,0.259,0.496,0.401,0.729c0.781,1.272,1.812,2.283,3.144,2.972c1.021,0.535,2.106,0.827,3.255,0.924
	c1.282,0.11,2.556,0.048,3.805-0.278c1.118-0.293,2.127-0.795,2.979-1.584c0.985-0.912,1.58-2.056,1.914-3.338
	c0.245-0.94,0.324-1.896,0.324-2.865c0-5.894,0-11.803,0-17.696c0-0.05,0.004-0.096,0-0.137c-0.003-0.064-0.017-0.12-0.021-0.174
	c-1.772,0-3.531,0-5.318,0c0,0.128,0,0.236,0,0.345c0,5.805,0,11.609-0.005,17.413c0,0.263,0.005,0.523-0.008,0.787
	c-0.026,0.502-0.11,1-0.309,1.473c-0.237,0.544-0.617,0.947-1.183,1.14c-0.687,0.231-1.39,0.265-2.097,0.112
	c-0.708-0.161-1.251-0.579-1.674-1.151c-0.3-0.403-0.55-0.839-0.823-1.266c-0.043-0.069-0.083-0.138-0.139-0.224
	C81.121,53.647,79.689,54.515,78.247,55.386z"/>
<g>
	<path fill="#6D6E71" d="M225.333,26.848c-2.539-2.854-5.652-4.968-9.044-6.672c-9.408-4.74-19.521-6.605-29.938-6.843
		c-4.586-0.105-9.211,0.214-13.779,0.673c-6.402,0.637-12.602,2.239-18.524,4.803c-4.613,2.004-8.88,4.515-12.225,8.36
		c-2.001,2.302-3.391,4.909-3.69,8.005c-0.387,4.05,1.118,7.444,3.698,10.427c3.424,3.943,7.817,6.518,12.564,8.512
		c9.354,3.929,19.192,5.301,30.286,5.445c1.495-0.088,4.012-0.197,6.522-0.387c7.206-0.54,14.216-1.994,20.938-4.688
		c4.868-1.953,9.392-4.471,13.002-8.368C230.724,40.101,230.793,32.98,225.333,26.848z M165.949,43.11
		c-2.184,0.078-4.363,0.056-6.54,0.02c-0.704-0.015-1.029-0.811-1.141-0.009c-0.301,2.155-0.727,5.585-1.118,5.585
		c-1.797,0-3.582,0-5.467,0c0.349,0,0.683-2.779,1.036-4.6c1.22-6.349,2.458-12.241,3.648-18.598
		c0.128-0.658,0.352-0.624,1.015-0.618c3.424,0.043,6.852,0.099,10.275,0.181c1.103,0.026,2.236,0.306,3.287,0.642
		c2.848,0.918,4.521,3.278,4.567,6.282c0.044,2.761-0.696,5.297-2.397,7.508C171.303,41.875,168.858,43.001,165.949,43.11z
		 M193.197,43.706c-1.771,0-3.532,0-5.425,0c0.295-2,0.568-3.271,0.855-4.717c0.442-2.256,0.921-4.656,1.346-6.919
		c0.358-1.912-0.362-2.941-2.312-3.035c-1.646-0.079-3.294-0.053-5.029-0.053c-0.377,1.853-0.756,3.656-1.112,5.478
		c-0.522,2.648-1.02,5.299-1.563,7.947c-0.056,0.277-0.396,0.697-0.61,0.701c-1.613,0.064-3.229,1.152-4.973,1.152
		c1.634-8.273,3.251-19.556,4.873-23.556c1.819,0,3.58,0,5.442,0c-0.423,0-0.829,3.237-1.274,5.56c0.472,0,0.854-0.587,1.238-0.563
		c2.354,0.129,4.723-0.133,7.062,0.141c0.931,0.109,1.884,0.513,2.663,1.082c1.429,1.049,1.571,2.599,1.279,4.17
		c-0.715,3.916-1.534,8.073-2.318,11.972C193.317,43.185,193.258,41.706,193.197,43.706z M215.375,39.949
		c-1.773,2.075-4.078,3.028-6.722,3.155c-2.208,0.099-4.421,0.055-6.631,0.024c-0.698-0.015-1.036-0.826-1.146-0.03
		c-0.299,2.158-0.728,5.606-1.122,5.606c-1.826,0-3.586,0-5.464,0c0.272,0,0.533-1.991,0.805-3.416
		c1.296-6.739,2.607-13.016,3.876-19.768c0.122-0.654,0.338-0.637,1.011-0.629c3.427,0.041,6.854,0.07,10.275,0.179
		c1.28,0.041,2.615,0.385,3.806,0.854c2.517,0.989,3.886,3.009,4.034,5.695C218.271,34.707,217.425,37.548,215.375,39.949z"/>
	<path fill="#6D6E71" d="M209.601,29.151c-1.186-0.201-2.412-0.183-3.621-0.202c-2.086-0.026-2.104-0.007-2.518,2.032
		c-0.55,2.733-1.073,5.48-1.627,8.329c1.79,0,3.448,0.105,5.082-0.026c3.112-0.263,4.52-1.591,5.188-4.662
		c0.137-0.606,0.207-1.227,0.255-1.843C212.503,30.667,211.669,29.494,209.601,29.151z"/>
	<path fill="#6D6E71" d="M166.983,29.162c-1.746-0.236-3.536-0.167-5.307-0.195c-0.17-0.005-0.466,0.229-0.497,0.392
		c-0.662,3.285-1.289,6.58-1.92,9.849c1.91,0,3.77,0.07,5.619-0.021c2.348-0.114,3.74-1.517,4.393-3.684
		c0.237-0.798,0.363-1.637,0.475-2.465C170.039,30.852,169.137,29.459,166.983,29.162z"/>
</g>
<g>
	<path fill="#6D6E71" d="M246.925,11.904c0.602-1.483,1.921-1.998,3.295-2.369c2.979-0.801,6.045-1.208,9.11-1.54
		c3.739-0.416,7.489-0.637,11.252-0.522c5.471,0.164,10.903,0.662,16.242,1.944c0.94,0.226,1.843,0.561,2.696,1.027
		c0.669,0.363,1.004,0.904,0.997,1.671c-0.005,4.006,0.007,8.007,0,12.007c0,0.798-0.476,1.351-1.046,1.817
		c-1.02,0.835-2.229,1.307-3.462,1.698c-2.845,0.902-5.772,1.337-8.723,1.626c-3.334,0.332-6.678,0.474-10.021,0.399
		c-4.557-0.104-9.09-0.401-13.55-1.41c-1.5-0.334-2.969-0.766-4.354-1.449c-1.065-0.529-2.011-1.19-2.439-2.379
		C246.925,20.253,246.925,16.077,246.925,11.904z M267.491,14.271c4.746,0.007,9.188-0.131,13.612-0.617
		c1.898-0.214,3.799-0.469,5.64-1.026c0.462-0.14,0.919-0.301,1.32-0.576c0.54-0.375,0.533-0.779-0.024-1.128
		c-0.243-0.161-0.516-0.286-0.788-0.389c-0.866-0.344-1.778-0.541-2.692-0.705c-4.394-0.776-8.833-0.987-13.277-1.095
		c-3.293-0.088-6.585,0-9.876,0.181c-2.86,0.154-5.707,0.399-8.526,0.926c-1.149,0.219-2.307,0.44-3.343,1.025
		c-0.677,0.38-0.682,0.842-0.021,1.236c0.292,0.169,0.614,0.301,0.942,0.419c1.204,0.432,2.463,0.642,3.72,0.834
		C258.688,14.041,263.233,14.191,267.491,14.271z M249.695,19.906c0.396,0.003,0.672-0.288,0.66-0.694
		c-0.005-0.427-0.271-0.616-0.652-0.652c-0.348-0.036-0.712,0.349-0.679,0.699C249.066,19.647,249.293,19.878,249.695,19.906z"/>
	<path fill="#6D6E71" d="M246.925,47.716c0.204-0.447,0.386-0.915,0.807-1.229c0.139-0.104,0.229-0.152,0.397-0.031
		c1.755,1.285,3.813,1.825,5.882,2.279c3.563,0.791,7.185,1.106,10.824,1.269c3.378,0.154,6.76,0.12,10.131-0.116
		c3.89-0.279,7.757-0.716,11.481-1.97c1.05-0.354,2.064-0.786,2.937-1.487c0.186-0.147,0.31-0.147,0.489,0
		c0.365,0.297,0.602,0.664,0.625,1.144c0.016,0.444,0.021,0.896,0.021,1.342c0.007,3.483-0.029,6.972,0.023,10.454
		c0.016,1.275-0.596,2.077-1.574,2.702c-1.671,1.062-3.55,1.567-5.459,1.989c-3.388,0.754-6.836,1.088-10.304,1.252
		c-3.205,0.149-6.412,0.168-9.615-0.028c-4.188-0.253-8.35-0.673-12.368-1.968c-1.071-0.344-2.094-0.791-3.015-1.449
		c-0.591-0.426-0.974-0.99-1.282-1.635C246.925,56.062,246.925,51.888,246.925,47.716z M250.302,54.503
		c-0.335,0.041-0.581,0.239-0.595,0.657c-0.015,0.389,0.299,0.717,0.678,0.685c0.386-0.039,0.639-0.255,0.664-0.664
		C251.073,54.813,250.736,54.494,250.302,54.503z"/>
	<path fill="#6D6E71" d="M246.925,29.496c0.151-0.114,0.117-0.313,0.188-0.467c0.354-0.779,0.555-0.835,1.236-0.366
		c1.622,1.121,3.489,1.625,5.369,2.057c3.232,0.754,6.519,1.082,9.829,1.272c2.96,0.17,5.924,0.207,8.886,0.077
		c4.467-0.204,8.91-0.567,13.223-1.843c1.426-0.425,2.822-0.928,3.963-1.942c0.162-0.138,0.25-0.09,0.384,0.024
		c0.301,0.269,0.459,0.605,0.491,0.997c0.024,0.308,0.024,0.615,0.024,0.929c0.007,3.672-0.012,7.344,0.015,11.018
		c0.01,0.958-0.367,1.654-1.077,2.222c-1.093,0.866-2.36,1.356-3.667,1.75c-3.164,0.965-6.426,1.387-9.708,1.66
		c-3.872,0.333-7.748,0.404-11.629,0.202c-4.426-0.228-8.825-0.63-13.091-1.962c-0.773-0.244-1.524-0.547-2.239-0.932
		c-0.978-0.523-1.824-1.17-2.196-2.273C246.925,37.78,246.925,33.638,246.925,29.496z M251.049,37.733
		c0.009-0.432-0.317-0.775-0.683-0.75c-0.396,0.029-0.637,0.244-0.659,0.654c-0.021,0.387,0.287,0.698,0.676,0.685
		C250.789,38.306,251.003,38.069,251.049,37.733z"/>
	<path fill="#6D6E71" d="M314.723,43.271c0-2.847,0-5.692,0-8.537c0-1.438,0.141-2.848,0.598-4.227
		c0.929-2.782,2.87-4.43,5.71-5.028c1.602-0.34,3.22-0.349,4.83-0.039c3.448,0.671,5.604,2.853,6.254,6.304
		c0.19,0.989,0.277,1.979,0.277,2.982c0,5.753,0.01,11.517-0.009,17.271c-0.01,2.057-0.326,4.056-1.326,5.893
		c-0.189,0.354-0.676,0.68-0.535,1.035c0.124,0.297,0.62,0.448,0.956,0.664c0.567,0.363,1.126,0.727,1.704,1.071
		c0.229,0.135,0.256,0.252,0.115,0.481c-0.688,1.194-1.372,2.391-2.036,3.594c-0.174,0.32-0.315,0.306-0.59,0.125
		c-1.65-1.1-3.312-2.178-4.966-3.272c-0.26-0.177-0.496-0.216-0.815-0.161c-2.925,0.521-5.6,0.02-7.784-2.137
		c-1.313-1.296-1.887-2.971-2.184-4.756c-0.147-0.919-0.204-1.848-0.199-2.775C314.725,48.929,314.723,46.099,314.723,43.271z
		 M321.824,43.332c0,2.83,0.003,5.655,0,8.478c-0.002,0.728,0.063,1.453,0.272,2.146c0.237,0.765,0.729,1.123,1.484,1.104
		c0.729-0.015,1.165-0.389,1.352-1.177c0.134-0.591,0.229-1.186,0.229-1.792c0.004-5.912,0.004-11.822,0-17.734
		c0-0.536-0.095-1.06-0.276-1.565c-0.241-0.646-0.636-0.952-1.313-0.972c-0.615-0.014-1.099,0.24-1.381,0.815
		c-0.294,0.608-0.365,1.251-0.365,1.907C321.827,37.474,321.824,40.409,321.824,43.332z"/>
	<path fill="#6D6E71" d="M308.994,35.814c-1.048,0-2.106-0.017-3.154,0.012c-0.396,0.009-0.494-0.115-0.487-0.493
		c0.017-0.688-0.019-1.376-0.044-2.066c-0.033-0.89-0.556-1.417-1.422-1.452c-0.939-0.041-1.605,0.486-1.697,1.368
		c-0.11,1.021,0.26,1.9,0.854,2.696c0.88,1.185,2.036,2.099,3.077,3.128c1.296,1.287,2.66,2.503,3.874,3.874
		c1.898,2.151,2.818,4.655,2.857,7.509c0.027,2.146-0.125,4.271-0.819,6.323c-0.935,2.753-2.787,4.402-5.708,4.793
		c-1.939,0.263-3.854,0.161-5.732-0.386c-2.712-0.79-4.173-2.717-4.813-5.372c-0.267-1.128-0.412-2.272-0.43-3.429
		c-0.014-1.313,0.007-2.618-0.019-3.934c-0.007-0.371,0.111-0.46,0.467-0.457c2.054,0.012,4.104,0.012,6.157,0
		c0.329,0,0.438,0.086,0.435,0.43c-0.019,1.435-0.007,2.867-0.005,4.297c0,0.537,0.076,1.062,0.317,1.561
		c0.321,0.65,0.88,0.922,1.671,0.834c0.714-0.085,1.137-0.418,1.259-1.158c0.384-2.346,0.08-4.569-1.604-6.371
		c-1.677-1.789-3.437-3.494-5.168-5.223c-1.805-1.797-3.146-3.855-3.438-6.436c-0.25-2.237-0.053-4.444,0.9-6.522
		c1.058-2.28,2.896-3.554,5.334-3.952c1.877-0.299,3.747-0.202,5.581,0.327c2.256,0.651,3.749,2.116,4.544,4.303
		c0.64,1.753,0.844,3.579,0.863,5.433c0.008,0.318-0.121,0.367-0.391,0.364c-1.084-0.01-2.174-0.008-3.263-0.008
		C308.994,35.812,308.994,35.812,308.994,35.814z"/>
	<path fill="#6D6E71" d="M335.795,43.397c0-5.741,0.007-11.484-0.015-17.23c-0.004-0.521,0.148-0.618,0.632-0.611
		c1.982,0.027,3.969,0.034,5.951,0c0.523-0.01,0.604,0.149,0.603,0.631c-0.014,9.436-0.014,18.871-0.01,28.303
		c0,0.889-0.087,0.739,0.733,0.747c2.034,0.007,4.068,0.011,6.103-0.004c0.386-0.006,0.542,0.069,0.533,0.496
		c-0.023,1.691-0.023,3.388,0,5.073c0.005,0.429-0.136,0.507-0.528,0.507c-4.483-0.017-8.964-0.017-13.451,0.004
		c-0.471,0.002-0.568-0.138-0.564-0.58c0.015-5.779,0.007-11.557,0.007-17.334C335.79,43.397,335.792,43.397,335.795,43.397z"/>
</g>
<g>
	<g>
		<g>
			<path fill="#6D6E71" d="M402.729,3.086c2.323,0,4.64,0,6.957,0c0.086,0.263,0.322,0.215,0.519,0.246
				c0.797,0.139,1.595,0.242,2.387,0.411c12.879,2.723,22.637,13.236,24.422,26.286c0.03,0.23-0.053,0.516,0.261,0.64
				c0,2.322,0,4.638,0,6.96c-0.265,0.083-0.217,0.317-0.25,0.515c-0.139,0.813-0.246,1.637-0.422,2.447
				c-2.82,12.947-13.235,22.584-26.333,24.369c-0.217,0.029-0.479-0.035-0.581,0.25c-2.318,0-4.635,0-6.957,0
				c-0.086-0.262-0.322-0.211-0.516-0.246c-0.813-0.14-1.636-0.25-2.447-0.425c-12.946-2.821-22.578-13.233-24.368-26.334
				c-0.027-0.213,0.036-0.472-0.256-0.576c0-2.322,0-4.638,0-6.96c0.265-0.086,0.222-0.321,0.25-0.515
				c0.137-0.796,0.244-1.6,0.409-2.388c2.727-12.878,13.232-22.638,26.285-24.423C402.32,3.315,402.61,3.395,402.729,3.086z
				 M424.813,13.482c-0.066-0.292-0.268-0.385-0.422-0.513c-4.747-4.031-10.218-6.358-16.445-6.66
				c-10.025-0.486-18.085,3.372-24.219,11.299c-0.255,0.332-0.768,0.725-0.593,1.068c0.177,0.348,0.793,0.158,1.224,0.158
				c2.504,0,5.009-0.169,7.506-0.332c0.929-0.064,1.403,0.311,1.447,1.051c0.039,0.748-0.38,1.172-1.288,1.271
				c-0.679,0.07-1.358,0.119-2.041,0.167c-0.831,0.058-0.861,0.099-0.604,0.873c3.191,9.502,6.385,18.996,9.576,28.486
				c0.074,0.207,0.088,0.453,0.306,0.592c0.227-0.105,0.232-0.334,0.294-0.521c1.886-5.631,3.761-11.269,5.646-16.9
				c0.124-0.377,0.12-0.713-0.015-1.082c-1.322-3.594-2.643-7.19-3.938-10.792c-0.153-0.438-0.393-0.621-0.846-0.651
				c-0.805-0.051-1.61-0.117-2.41-0.238c-0.634-0.094-0.98-0.58-0.928-1.186c0.053-0.638,0.488-1.056,1.14-1.075
				c0.313-0.009,0.625,0.021,0.933,0.041c2.994,0.192,5.99,0.421,8.998,0.228c1.61-0.099,3.222-0.196,4.836-0.269
				c0.786-0.035,1.248,0.354,1.313,1.017c0.063,0.692-0.338,1.179-1.128,1.282c-0.699,0.092-1.401,0.143-2.104,0.187
				c-0.949,0.063-0.979,0.095-0.686,0.976c3.171,9.419,6.34,18.837,9.506,28.253c0.063,0.187,0.071,0.409,0.308,0.56
				c0.054-0.113,0.12-0.215,0.154-0.324c1.374-4.577,2.764-9.154,4.105-13.746c0.593-2.021,0.8-4.086,0.437-6.195
				c-0.411-2.382-1.479-4.465-2.74-6.478c-0.662-1.054-1.299-2.121-1.71-3.302c-0.405-1.157-0.584-2.338-0.231-3.538
				C420.854,14.903,422.383,13.658,424.813,13.482z M406.717,36.717c-0.142,0.331-0.216,0.476-0.269,0.627
				c-2.633,7.649-5.265,15.298-7.913,22.944c-0.188,0.545-0.03,0.71,0.478,0.846c5.309,1.379,10.567,1.238,15.795-0.408
				c0.479-0.151,0.589-0.326,0.404-0.832c-2.646-7.205-5.272-14.42-7.904-21.627C407.136,37.804,406.961,37.349,406.717,36.717z
				 M380.77,23.012c-0.053,0.005-0.104,0.014-0.157,0.019c-0.09,0.207-0.186,0.411-0.273,0.618
				c-1.931,4.797-2.563,9.766-1.692,14.862c1.562,9.137,6.502,15.905,14.614,20.371c0.165,0.088,0.363,0.311,0.547,0.135
				c0.146-0.135-0.039-0.344-0.08-0.521c-0.019-0.075-0.056-0.151-0.08-0.231c-4.047-11.072-8.085-22.157-12.135-33.232
				C381.264,24.356,381.02,23.683,380.77,23.012z M431.02,21.302c-0.053,0.011-0.106,0.021-0.162,0.026
				c-0.015,0.041-0.039,0.081-0.039,0.118c0,0.124,0,0.249,0.007,0.372c0.331,3.596-0.34,7.042-1.51,10.421
				c-2.921,8.377-5.833,16.763-8.744,25.146c-0.067,0.2-0.218,0.402-0.064,0.746c6.033-3.727,10.226-8.878,12.331-15.624
				C435.116,35.201,434.409,28.117,431.02,21.302z"/>
		</g>
		<g>
			<g>
				<g>
					<path fill="#6D6E71" d="M493.825,2.519c3.625,0,7.256,0,11.056,0c-0.714,1.251-1.364,2.408-2.03,3.558
						c-8.169,14.114-16.335,28.227-24.505,42.346c-0.812,1.393-0.819,1.402-1.62,0.02c-8.711-15.052-17.417-30.105-26.119-45.16
						c-0.13-0.218-0.351-0.404-0.271-0.757c3.614,0,7.238,0,10.859,0c0.067,0.148,0.135,0.298,0.216,0.438
						c4.523,7.828,9.048,15.652,13.577,23.481c0.814,1.401,1.638,2.81,2.446,4.201c0.387-0.137,0.44-0.42,0.563-0.634
						c4.058-6.996,8.122-13.994,12.162-21.002C491.394,6.854,492.736,4.758,493.825,2.519z"/>
					<path fill="#6D6E71" d="M477.53,50.427c-0.758,0-1.107-0.598-1.633-1.507c-8.709-15.052-17.42-30.104-26.118-45.159
						c-0.202-0.29-0.524-0.749-0.385-1.434l0.158-0.758h12.23l0.455,0.921l15.291,26.419l1.481-2.554
						c3.439-5.939,6.89-11.878,10.314-17.826c0.357-0.618,0.722-1.236,1.087-1.852c0.88-1.484,1.792-3.021,2.553-4.579l0.264-0.539
						h13.303l-1.562,2.738c-0.44,0.772-0.858,1.518-1.291,2.26l-24.505,42.34C478.64,49.819,478.285,50.427,477.53,50.427z
						 M451.825,3.481c8.569,14.82,17.137,29.631,25.704,44.437l24.494-42.32c0.403-0.7,0.802-1.399,1.213-2.123h-8.818
						c-0.73,1.441-1.559,2.833-2.357,4.18c-0.36,0.609-0.72,1.217-1.072,1.833c-3.434,5.949-6.875,11.887-10.321,17.828
						l-1.841,3.178c-0.151,0.313-0.396,0.814-1.07,1.055l-0.751,0.268L460.603,3.481H451.825z"/>
				</g>
				<path fill="#6D6E71" d="M477.004,31.814L460.58,3.442c-0.069-0.122-0.127-0.238-0.186-0.358l-0.636-1.358l1.427-0.157
					l2.799-0.012c2.211-0.007,4.417-0.012,6.629-0.041c1.131,0,1.576,0.772,1.793,1.147l5.119,8.851
					c1.728-2.96,3.447-5.928,5.154-8.899c0.271-0.473,0.752-1.099,1.801-1.099c2.354,0.026,4.685,0.03,7.015,0.037l3.856,0.012
					l-0.668,1.372c-0.793,1.632-1.724,3.203-2.624,4.718c-0.36,0.609-0.725,1.217-1.072,1.833
					c-3.438,5.951-6.885,11.903-10.33,17.847l-1.832,3.158c-0.151,0.313-0.396,0.814-1.07,1.055L477.004,31.814z M462.811,3.477
					l14.72,25.432l1.469-2.536c3.448-5.944,6.897-11.888,10.328-17.843c0.357-0.618,0.722-1.236,1.087-1.853
					c0.62-1.044,1.254-2.119,1.845-3.207l-0.768-0.002c-2.334-0.007-4.671-0.011-7.006-0.038l-0.144,0.134
					c-1.794,3.127-3.6,6.244-5.42,9.354c-0.209,0.447-0.473,1.027-1.213,1.251l-0.729,0.225l-6.232-10.777
					c-0.027-0.046-0.11-0.189-0.147-0.229c-2.181,0.07-4.393,0.077-6.604,0.082L462.811,3.477z"/>
			</g>
			<g>
				<path fill="#6D6E71" d="M462.369,67.384c-0.498-0.005-0.882-0.304-1.029-0.839c-0.641-2.305-1.422-4.562-2.077-6.858
					c-0.437-1.535-0.972-3.041-1.402-4.576c-0.132-0.455-0.011-0.689,0.449-0.842c0.503-0.16,0.849-0.026,0.978,0.402
					c0.335,1.143,0.646,2.301,0.992,3.444c0.515,1.714,1.067,3.413,1.566,5.131c0.133,0.459,0.25,0.928,0.394,1.388
					c0.037,0.105,0.022,0.256,0.194,0.236c0.113-0.016,0.122-0.133,0.149-0.229c0.324-1.15,0.644-2.3,0.983-3.449
					c0.52-1.76,1.065-3.515,1.595-5.278c0.117-0.399,0.189-0.806,0.347-1.192c0.188-0.474,0.389-0.604,0.862-0.477
					c0.515,0.139,0.7,0.426,0.558,0.924c-0.184,0.637-0.4,1.264-0.597,1.898c-0.621,2.027-1.216,4.065-1.856,6.089
					c-0.365,1.135-0.722,2.266-1.053,3.413C463.266,67.104,462.88,67.39,462.369,67.384z"/>
				<path fill="#6D6E71" d="M480.377,63.437c-0.669,0-1.338,0.006-2.006-0.004c-0.278-0.006-0.375,0.094-0.384,0.377
					c-0.035,1.14,0.605,1.938,1.709,2.246c0.907,0.254,1.69,0.064,2.466-0.391c0.447-0.268,0.831-0.216,1.016,0.1
					c0.206,0.355,0.102,0.666-0.334,0.963c-1.711,1.166-4.466,0.807-5.702-0.769c-0.375-0.478-0.61-1.024-0.615-1.642
					c-0.01-0.858-0.029-1.709-0.002-2.562c0.033-1.085,0.617-1.884,1.49-2.454c1.642-1.076,4.007-0.701,4.99,1.004
					c0.464,0.801,0.72,1.65,0.287,2.561c-0.172,0.372-0.471,0.552-0.861,0.557c-0.685,0.014-1.372,0.004-2.054,0.004
					C480.377,63.427,480.377,63.433,480.377,63.437z M479.853,62.481v-0.004c0.453,0,0.9,0.01,1.35-0.002
					c0.848-0.027,1.029-0.275,0.825-1.104c-0.27-1.104-1.33-1.695-2.578-1.445c-0.944,0.188-1.64,1.262-1.489,2.281
					c0.042,0.264,0.195,0.273,0.389,0.273C478.849,62.481,479.352,62.481,479.853,62.481z"/>
				<path fill="#6D6E71" d="M474.754,61.851c0,0.717,0,1.438,0,2.16c-0.009,1.469-1.023,2.665-2.364,3.186
					c-1.648,0.642-3.587-0.217-4.399-1.768c-0.226-0.433-0.353-0.934-0.358-1.441c0-1.469,0-2.939,0-4.41
					c0-0.538,0.266-0.74,0.915-0.735c0.34,0.002,0.625,0.336,0.627,0.749c0.007,1.508-0.024,3.01,0.015,4.514
					c0.046,1.492,1.634,2.441,2.908,1.75c0.764-0.412,1.187-1.08,1.18-1.986c-0.01-1.404-0.002-2.807-0.002-4.21
					c0-0.72,0.478-1.05,1.149-0.781c0.268,0.11,0.336,0.349,0.331,0.618C474.745,60.278,474.754,61.065,474.754,61.851z"/>
				<path fill="#6D6E71" d="M494.358,67.39c-0.87-0.025-1.709-0.193-2.458-0.684c-0.229-0.156-0.414-0.333-0.414-0.637
					c0-0.246,0.056-0.441,0.292-0.59c0.229-0.154,0.391-0.03,0.538,0.082c0.741,0.554,1.565,0.752,2.482,0.649
					c0.852-0.101,1.33-0.634,1.197-1.383c-0.092-0.501-0.45-0.781-0.878-0.944c-0.646-0.251-1.313-0.453-1.964-0.686
					c-0.925-0.323-1.468-1.021-1.496-1.896c-0.03-1.072,0.442-1.865,1.376-2.266c1.264-0.542,2.5-0.411,3.72,0.152
					c0.412,0.191,0.384,0.521,0.251,0.838c-0.134,0.32-0.396,0.438-0.737,0.27c-0.593-0.299-1.218-0.449-1.882-0.4
					c-0.302,0.018-0.582,0.078-0.841,0.261c-0.407,0.292-0.606,0.649-0.524,1.149c0.071,0.465,0.429,0.66,0.803,0.797
					c0.667,0.248,1.347,0.449,2.02,0.681c1.654,0.569,1.921,2.601,1.083,3.646c-0.511,0.637-1.255,0.829-2.021,0.953
					C494.733,67.416,494.539,67.39,494.358,67.39z"/>
				<path fill="#6D6E71" d="M489.87,64.002c-0.046,1.488,0.104,3.267-0.131,5.026c-0.183,1.41-1.107,2.371-2.373,2.32
					c-0.397-0.014-0.735-0.119-0.779-0.591c-0.039-0.388,0.232-0.69,0.703-0.726c0.55-0.047,0.818-0.35,0.938-0.854
					c0.115-0.474,0.117-0.955,0.117-1.438c0.003-2.725,0.005-5.45-0.002-8.172c-0.003-0.398,0.078-0.688,0.533-0.723
					c0.698-0.056,0.887,0.057,0.962,0.617c0.039,0.283,0.03,0.564,0.03,0.854C489.873,61.453,489.87,62.593,489.87,64.002z"/>
				<path fill="#6D6E71" d="M486.592,66.428c-0.005,0.616-0.423,0.89-0.894,0.944c-0.411,0.044-0.949-0.503-0.966-0.917
					c-0.021-0.47,0.46-0.933,0.966-0.937C486.242,65.511,486.592,65.869,486.592,66.428z"/>
			</g>
		</g>
		<g>
			<path fill="#6D6E71" d="M534.498,2.572c1.26-0.067,1.836,0.338,2.271,1.078c4.181,7.177,8.386,14.338,12.564,21.515
				c1.107,1.899,1.072,1.909,3.178,1.397c4.839-1.188,9.684-2.386,14.537-3.531c0.896-0.214,0.939-0.451,0.407-1.15
				c-1.73-2.279-3.412-4.598-5.11-6.899c-0.819-1.113-0.727-1.39,0.604-1.624c2.665-0.479,5.342-0.919,8-1.423
				c0.754-0.143,1.306,0.096,1.753,0.625c2.298,2.71,4.606,5.426,6.868,8.168c0.669,0.813,0.521,1.179-0.516,1.457
				c-2.198,0.592-4.407,1.165-6.627,1.691c-0.868,0.204-0.965,0.444-0.406,1.167c2.111,2.724,4.174,5.488,6.233,8.246
				c0.968,1.292,0.873,1.583-0.625,2.127c-6.22,2.25-12.435,4.512-18.659,6.752c-2.04,0.731-2.417,0.62-3.479-1.226
				c-1.849-3.221-3.688-6.448-5.443-9.721c-0.552-1.027-1.101-1.318-2.266-0.989c-3.609,1.013-7.256,1.904-10.896,2.824
				c-1.7,0.431-2.266,0.176-2.955-1.362c-3.905-8.725-7.808-17.449-11.696-26.184c-0.767-1.715-0.66-1.886,1.198-2.042
				C527.254,3.149,531.073,2.851,534.498,2.572z M533.929,4.212c-2.781,0.248-5.438,0.522-8.097,0.702
				c-0.995,0.065-1.094,0.362-0.683,1.201c1.461,2.982,2.884,5.984,4.308,8.984c2.247,4.751,4.487,9.508,6.717,14.263
				c0.234,0.488,0.452,0.899,1.104,0.748c3.353-0.777,6.7-1.559,10.055-2.313c0.582-0.13,0.563-0.352,0.317-0.789
				c-4.156-7.365-8.31-14.734-12.439-22.111C534.868,4.287,534.459,4.051,533.929,4.212z M569.18,24.743
				c-0.155,0.024-0.233,0.024-0.311,0.049c-5.484,1.414-10.975,2.837-16.458,4.249c-0.586,0.147-0.601,0.397-0.313,0.886
				c1.764,2.953,3.504,5.921,5.239,8.893c0.284,0.49,0.578,0.594,1.128,0.404c5.51-1.894,11.021-3.771,16.548-5.606
				c0.815-0.272,0.725-0.537,0.294-1.104c-1.816-2.405-3.604-4.832-5.386-7.267C569.698,24.943,569.518,24.686,569.18,24.743z
				 M570.625,22.168c1.87-0.471,4.049-0.996,6.211-1.571c0.526-0.138,0.211-0.464,0.027-0.694c-1.555-1.878-3.115-3.738-4.65-5.631
				c-0.396-0.488-0.851-0.597-1.43-0.492c-1.899,0.332-3.8,0.657-5.702,0.977c-0.844,0.138-0.421,0.512-0.168,0.849
				c1.524,2.025,3.051,4.049,4.574,6.078C569.698,21.958,569.895,22.261,570.625,22.168z"/>
			<path fill="#6D6E71" d="M542.662,61.212c0,0.696-0.014,1.393,0,2.091c0.014,0.519-0.131,1.122,0.683,1.234
				c0.353,0.048,0.319,0.394,0.292,0.659c-0.031,0.322-0.256,0.464-0.554,0.488c-0.552,0.053-1.172,0.088-1.476-0.437
				c-0.416-0.731-0.783-0.438-1.272-0.138c-0.777,0.483-1.647,0.666-2.558,0.576c-1.252-0.123-2.206-1.006-2.391-2.172
				c-0.209-1.367,0.404-2.455,1.702-2.947c0.949-0.362,1.97-0.362,2.96-0.523c0.547-0.087,1.102-0.161,1.13-0.9
				c0.03-0.713-0.272-1.162-0.962-1.388c-1.279-0.423-2.204-0.12-2.882,1.095c-0.326,0.588-0.802,0.418-1.201,0.33
				c-0.523-0.111-0.248-0.559-0.18-0.861c0.161-0.684,0.584-1.166,1.225-1.454c1.418-0.655,2.851-0.614,4.278-0.032
				c0.805,0.331,1.175,0.98,1.19,1.829c0.022,0.851,0.009,1.7,0.009,2.55C542.657,61.212,542.657,61.212,542.662,61.212z
				 M541.171,61.981c-0.28-0.182,0.37-0.948-0.36-0.885c-1.024,0.088-2.098,0.129-3.057,0.594c-0.68,0.332-0.912,0.933-0.783,1.653
				c0.11,0.644,0.56,0.999,1.18,1.126C539.688,64.783,541.127,63.644,541.171,61.981z"/>
			<path fill="#6D6E71" d="M557.469,61.217c0,0.701-0.007,1.397,0.004,2.097c0.011,0.517-0.135,1.119,0.684,1.225
				c0.354,0.048,0.294,0.402,0.279,0.664c-0.016,0.273-0.201,0.425-0.444,0.459c-0.545,0.083-1.195,0.166-1.498-0.348
				c-0.433-0.729-0.808-0.554-1.358-0.194c-0.736,0.462-1.576,0.644-2.443,0.579c-1.316-0.102-2.325-0.988-2.488-2.196
				c-0.193-1.401,0.401-2.437,1.716-2.937c0.949-0.363,1.97-0.363,2.957-0.521c0.558-0.087,1.092-0.175,1.131-0.907
				c0.039-0.729-0.301-1.16-0.98-1.386c-1.282-0.423-2.259-0.112-2.896,1.087c-0.326,0.605-0.798,0.42-1.188,0.342
				c-0.511-0.109-0.258-0.563-0.18-0.869c0.178-0.725,0.657-1.207,1.332-1.506c0.834-0.375,1.715-0.469,2.613-0.384
				c2.093,0.202,2.762,0.944,2.762,3.054C557.471,60.058,557.469,60.64,557.469,61.217z M555.993,61.964
				c-0.179-0.244,0.331-0.954-0.402-0.878c-0.984,0.104-2.001,0.156-2.938,0.544c-0.696,0.29-0.956,0.859-0.886,1.592
				c0.067,0.706,0.501,1.103,1.165,1.244C554.495,64.804,555.959,63.627,555.993,61.964z"/>
			<path fill="#6D6E71" d="M572.395,61.538c-0.77,0-1.544,0.02-2.315-0.004c-0.647-0.023-0.8,0.271-0.68,0.861
				c0.216,1.021,0.661,1.848,1.769,2.049c1.078,0.205,1.992-0.104,2.59-1.096c0.076-0.129,0.126-0.285,0.211-0.412
				c0.342-0.49,0.891-0.379,1.263-0.228c0.569,0.241,0.097,0.671-0.046,0.958c-0.942,1.859-3.383,2.607-5.302,1.646
				c-1.653-0.828-2.458-2.664-2.174-4.965c0.246-2.014,1.416-3.427,3.166-3.843c2.732-0.644,5.28,1.778,4.814,4.535
				c-0.093,0.521-0.395,0.492-0.74,0.492C574.097,61.538,573.249,61.538,572.395,61.538z M571.74,60.337
				c0.538,0,1.078-0.029,1.612,0.007c0.635,0.034,0.801-0.187,0.638-0.813c-0.278-1.085-0.859-1.792-2.017-1.907
				c-1.084-0.105-2.025,0.51-2.426,1.568c-0.29,0.771-0.21,1.271,0.81,1.151C570.813,60.293,571.276,60.337,571.74,60.337z"/>
			<path fill="#6D6E71" d="M563.038,63.319c0.625-1.856,1.252-3.709,1.887-5.563c0.098-0.29,0.16-0.621,0.342-0.854
				c0.368-0.484,0.964-0.35,1.382-0.188c0.486,0.185,0.051,0.606-0.051,0.878c-0.842,2.321-1.734,4.628-2.583,6.948
				c-0.212,0.593-0.43,0.968-1.191,0.956c-0.728-0.016-0.9-0.385-1.102-0.924c-0.814-2.291-1.675-4.563-2.475-6.858
				c-0.11-0.308-0.681-0.837,0.007-1.022c0.562-0.155,1.298-0.313,1.576,0.645c0.462,1.592,1.004,3.166,1.521,4.74
				c0.134,0.4,0.282,0.797,0.428,1.193C562.864,63.285,562.951,63.303,563.038,63.319z"/>
			<path fill="#6D6E71" d="M578.952,59.438c0,1.746-0.021,3.487,0.014,5.229c0.009,0.598-0.159,0.818-0.784,0.813
				c-0.605-0.006-0.795-0.201-0.79-0.808c0.025-3.487,0.023-6.972,0.003-10.459c-0.003-0.593,0.168-0.823,0.783-0.83
				c0.627-0.005,0.797,0.232,0.783,0.825C578.936,55.953,578.952,57.692,578.952,59.438z"/>
			<path fill="#6D6E71" d="M533.618,59.379c0,1.746-0.009,3.483,0.01,5.226c0.007,0.52-0.005,0.875-0.706,0.875
				c-0.673,0-0.843-0.229-0.838-0.871c0.027-3.445,0.025-6.889,0.002-10.33c-0.007-0.625,0.143-0.902,0.832-0.896
				c0.696,0.01,0.714,0.377,0.71,0.896C533.61,55.979,533.618,57.679,533.618,59.379z"/>
			<path fill="#6D6E71" d="M545.089,61.074c0-1.199-0.01-2.398,0.004-3.595c0.003-0.326-0.135-0.775,0.39-0.814
				c0.35-0.025,0.848-0.229,1.009,0.27c0.202,0.629,0.448,0.336,0.724,0.112c0.399-0.317,0.829-0.567,1.347-0.625
				c0.409-0.044,0.812-0.054,0.778,0.544c-0.021,0.4,0.11,0.795-0.563,0.905c-1.652,0.276-2.194,0.997-2.217,2.688
				c-0.011,1.116,0.076,2.246-0.033,3.356c-0.054,0.528,0.622,1.505-0.669,1.546c-1.32,0.041-0.691-0.956-0.741-1.493
				C545.02,63.015,545.089,62.039,545.089,61.074z"/>
		</g>
	</g>
	<g>
		<path fill="#6D6E71" d="M658.245,62.372c0.007-8.141,0-16.281,0.039-24.422c0.005-0.846-0.554-2.066,1.126-2.191
			c1.441-0.113,2.419,0.161,2.39,1.86c0,0.166,0.146,0.329,0.268,0.586c1.407-1.657,3.143-2.56,5.289-2.696
			c3.905-0.245,6.859,1.777,7.922,5.522c0.61,2.177,0.662,4.409,0.231,6.597c-1.048,5.355-5.687,8.414-11.539,7.52
			c-1.604-0.239-1.969,0.045-1.965,1.648c0,1.854,0.568,3.794-0.427,5.576C660.467,62.372,659.358,62.372,658.245,62.372z
			 M662.063,46.914c0,1.408,0.012,2.575-0.006,3.747c-0.007,0.598,0.081,1.039,0.756,1.289c3.765,1.39,7.911-0.733,8.728-4.516
			c0.358-1.649,0.341-3.317-0.022-4.961c-0.549-2.521-2.108-3.812-4.504-3.801c-2.397,0.02-4.188,1.487-4.747,3.862
			C661.91,44.065,662.138,45.61,662.063,46.914z"/>
		<path fill="#6D6E71" d="M691.592,62.372c0.009-2.028-0.061-4.068,0.055-6.1c0.073-1.273-0.403-1.445-1.483-1.224
			c-2.033,0.423-4.064,0.216-6.045-0.323c-3.407-0.929-5.549-3.514-5.896-7.021c-0.775-7.804,3.707-12.518,11.554-12.164
			c5.605,0.258,5.605,0.258,5.605,5.858c0,6.302,0,12.595,0,18.896c0,0.723,0.132,1.479-0.454,2.074
			C693.813,62.372,692.703,62.372,691.592,62.372z M691.619,45.253c0-1.786-0.005-3.566,0.002-5.354
			c0.002-0.584,0.002-1.148-0.785-1.189c-1.775-0.098-3.563-0.313-5.258,0.516c-2.823,1.371-4.26,5.278-3.271,8.982
			c0.762,2.863,3.113,4.273,6.61,3.954c0.427-0.039,0.854-0.146,1.282-0.147c1.08-0.009,1.498-0.473,1.441-1.596
			C691.555,48.699,691.621,46.976,691.619,45.253z"/>
		<path fill="#6D6E71" d="M620.08,30.141c0.956,0.959,1.892,1.938,2.877,2.861c0.807,0.764,0.766,1.407-0.012,2.182
			c-3.762,3.728-7.483,7.5-11.256,11.217c-1.112,1.095-9.061,0.796-10.211-0.279c-2.102-1.967-3.926-4.219-6.226-5.979
			c0-0.492,0-0.988,0-1.479c1.204-0.455,1.849-1.554,2.687-2.396c0.895-0.902,1.552-0.953,2.442-0.015
			c1.782,1.873,3.648,3.665,5.476,5.499c0.445,0.445,0.795,0.914,1.478,0.216c3.86-3.964,7.753-7.89,11.634-11.826
			C619.341,30.141,619.713,30.141,620.08,30.141z"/>
		<path fill="#6D6E71" d="M761.248,54.965c-1.592,0.06-3.159,0.489-4.779,0.187c-3.04-0.564-4.418-2.055-4.467-5.143
			c-0.051-3.084-0.066-6.167,0.012-9.246c0.032-1.257-0.122-2.021-1.646-1.772c-0.411,0.067-1.07,0.313-1.305-0.276
			c-0.22-0.561,0.374-0.859,0.688-1.199c1.856-2.025,3.738-4.027,5.969-6.431c0,1.585,0.057,2.665-0.018,3.733
			c-0.063,0.948,0.213,1.37,1.222,1.263c0.733-0.075,1.48,0.021,2.22-0.022c1.012-0.06,1.759-0.023,1.754,1.384
			c0,1.369-0.557,1.613-1.768,1.602c-3.41-0.035-3.414,0.016-3.41,3.458c0.005,2.157-0.05,4.317,0.037,6.474
			c0.117,2.842,1.089,3.668,3.852,3.219c0.759-0.125,1.225-0.03,1.639,0.552C761.248,53.481,761.248,54.224,761.248,54.965z"/>
		<path fill="#6D6E71" d="M731.757,47.407c0,1.904-0.032,3.824,0.02,5.73c0.019,0.819-0.214,1.264-1.06,1.401
			c-2.928,0.479-5.839,0.951-8.823,0.459c-3.206-0.521-5.058-2.256-5.379-5.174c-0.309-2.773,1.286-5.236,4.137-6.287
			c1.94-0.718,3.98-0.925,6.013-0.629c1.289,0.186,1.452-0.28,1.328-1.384c-0.195-1.654-1.112-2.568-2.678-2.853
			c-1.784-0.319-3.576-0.231-5.313,0.283c-1.155,0.342-1.564-0.187-1.743-1.197c-0.173-0.948-0.159-1.59,1.099-1.804
			c2.392-0.409,4.754-0.71,7.167-0.274c3.153,0.57,4.931,2.42,5.128,5.619c0.127,2.026,0.022,4.069,0.022,6.106
			C731.7,47.407,731.729,47.407,731.757,47.407z M728.044,48.998c0-3.401,0-3.422-3.416-3.276c-0.727,0.031-1.474,0.158-2.169,0.387
			c-1.563,0.498-2.22,1.662-2.128,3.267c0.097,1.685,1.041,2.551,3.056,2.838C727.201,52.752,728.044,52.164,728.044,48.998z"/>
		<path fill="#6D6E71" d="M637.752,45.44c-0.019-6.865,4.202-10.684,10.822-9.789c4.611,0.616,7.488,4.496,7.392,9.96
			c-0.122,6.892-4.88,10.771-11.521,9.387C640.193,54.117,637.768,50.653,637.752,45.44z M651.931,45.418
			c0.096-1.25-0.104-2.466-0.498-3.635c-0.747-2.201-2.266-3.261-4.594-3.271c-2.356-0.007-3.807,0.99-4.559,3.266
			c-0.792,2.41-0.792,4.853,0.005,7.256c0.754,2.275,2.24,3.313,4.545,3.309c2.266,0,3.828-1.104,4.589-3.299
			C651.823,47.879,652.022,46.663,651.931,45.418z"/>
		<path fill="#6D6E71" d="M714.159,45.101c0,2.527-0.063,5.061,0.024,7.584c0.039,1.115-0.281,1.664-1.403,1.869
			c-2.798,0.506-5.581,0.873-8.443,0.465c-3.468-0.494-5.588-2.403-6.124-5.898c-0.629-4.104-0.197-8.246-0.264-12.372
			c-0.027-1.576,1.317-0.895,2.091-0.993c0.853-0.108,1.739-0.135,1.709,1.24c-0.071,2.712-0.027,5.428-0.018,8.139
			c0.004,0.801,0.016,1.604,0.104,2.399c0.374,3.368,1.631,4.498,5.032,4.569c3.545,0.075,3.545,0.075,3.545-3.449
			c0-3.818,0.071-7.646-0.034-11.465c-0.042-1.582,0.87-1.479,1.882-1.46c0.973,0.018,1.994-0.197,1.925,1.419
			C714.081,39.798,714.159,42.449,714.159,45.101z"/>
		<path fill="#6D6E71" d="M738.777,55.3c-0.856-0.131-2.194-0.335-3.533-0.549c-0.929-0.15-1.705-0.345-1.17-1.641
			c0.382-0.914,0.396-1.922,1.909-1.396c1.695,0.59,3.489,0.797,5.279,0.291c1.323-0.376,2.452-1.013,2.534-2.557
			c0.076-1.498-0.994-2.146-2.203-2.624c-1.539-0.616-3.116-1.156-4.625-1.839c-1.811-0.815-2.744-2.278-2.643-4.277
			c0.101-1.999,1.021-3.548,2.903-4.38c2.989-1.32,6.033-0.939,9.064-0.158c1.16,0.296,0.528,1.201,0.409,1.833
			c-0.122,0.671-0.373,1.301-1.354,1.004c-1.656-0.505-3.337-0.877-5.094-0.425c-1,0.253-1.936,0.53-2.046,1.776
			c-0.104,1.244,0.594,1.974,1.655,2.383c1.317,0.51,2.665,0.949,3.997,1.427c2.15,0.772,3.575,2.13,3.711,4.554
			c0.143,2.584-1.022,4.375-3.273,5.516C742.725,55.038,741.013,55.237,738.777,55.3z"/>
		<path fill="#6D6E71" d="M620.527,48.183c-3.989,4.01-7.984,8.017-11.962,12.039c-0.686,0.696-1.273,0.825-2.016,0.076
			c-4.1-4.158-3.806-2.779-0.263-6.429c2.955-3.038,5.992-6.007,9.014-8.979c0.405-0.402,0.676-1.106,1.469-0.9
			C617.852,45.537,619.589,46.502,620.527,48.183z"/>
		<path fill="#6D6E71" d="M620.527,48.183c-0.938-1.681-2.676-2.646-3.758-4.193c2.521-0.027,5.041-0.047,7.561-0.102
			c0.627-0.017,1.021,0.262,1.427,0.672c1.861,1.883,3.713,3.771,5.625,5.602c0.859,0.826,0.866,1.498,0.019,2.316
			c-3.884,3.732-2.568,3.516-6.058,0.238C623.734,51.203,622.392,49.413,620.527,48.183z"/>
	</g>
	<text transform="matrix(1 0 0 1 633.6555 24.5449)" fill="#6D6E71" font-family="'MyriadPro-Regular'" font-size="18.4567">Certification</text>
</g>
</svg>
