<?xml version="1.0" encoding="utf-8"?>
<!-- Generator: Adobe Illustrator 16.0.3, SVG Export Plug-In . SVG Version: 6.00 Build 0)  -->
<!DOCTYPE svg PUBLIC "-//W3C//DTD SVG 1.1//EN" "http://www.w3.org/Graphics/SVG/1.1/DTD/svg11.dtd">
<svg version="1.1" id="Layer_1" xmlns="http://www.w3.org/2000/svg" xmlns:xlink="http://www.w3.org/1999/xlink" x="0px" y="0px"
	 width="91.309px" height="46.246px" viewBox="0 0 91.309 46.246" enable-background="new 0 0 91.309 46.246" xml:space="preserve">
<g>
	<path fill="#C1C1C1" d="M87.263,13.535c-2.539-2.854-5.652-4.968-9.044-6.672C68.811,2.123,58.698,0.258,48.28,0.02
		c-4.586-0.105-9.211,0.214-13.777,0.673C28.098,1.33,21.899,2.932,15.976,5.496c-4.613,2.004-8.88,4.515-12.224,8.36
		c-2.001,2.302-3.393,4.909-3.691,8.005c-0.387,4.049,1.118,7.444,3.698,10.428c3.424,3.941,7.818,6.518,12.565,8.51
		c9.354,3.93,19.19,5.303,30.284,5.445c1.495-0.086,4.014-0.197,6.522-0.387c7.206-0.539,14.216-1.992,20.938-4.688
		c4.868-1.953,9.393-4.471,13.003-8.367C92.653,26.789,92.723,19.667,87.263,13.535z M27.879,29.798
		c-2.185,0.078-4.363,0.056-6.54,0.019c-0.704-0.015-1.029-0.812-1.14-0.008c-0.303,2.153-0.729,5.584-1.118,5.584
		c-1.797,0-3.582,0-5.469,0c0.35,0,0.684-2.777,1.036-4.601c1.222-6.349,2.458-12.241,3.648-18.597
		c0.128-0.658,0.352-0.624,1.015-0.618c3.424,0.043,6.854,0.099,10.275,0.181c1.103,0.026,2.237,0.306,3.288,0.642
		c2.847,0.918,4.521,3.278,4.565,6.282c0.044,2.761-0.694,5.296-2.396,7.507C33.232,28.563,30.788,29.688,27.879,29.798z
		 M55.127,30.393c-1.771,0-3.533,0-5.425,0c0.295-2,0.566-3.271,0.854-4.718c0.443-2.255,0.921-4.655,1.346-6.918
		c0.358-1.912-0.36-2.941-2.312-3.035c-1.646-0.079-3.294-0.053-5.029-0.053c-0.377,1.853-0.756,3.656-1.11,5.478
		c-0.523,2.647-1.021,5.298-1.563,7.946c-0.055,0.279-0.395,0.697-0.61,0.703c-1.611,0.063-3.229,1.152-4.973,1.152
		c1.634-8.274,3.251-19.557,4.873-23.557c1.82,0,3.58,0,5.443,0c-0.425,0-0.829,3.237-1.275,5.56c0.472,0,0.855-0.587,1.239-0.563
		c2.354,0.129,4.722-0.133,7.061,0.141c0.933,0.109,1.884,0.513,2.663,1.082c1.429,1.049,1.571,2.599,1.279,4.17
		c-0.714,3.916-1.534,8.072-2.318,11.973C55.247,29.873,55.188,28.393,55.127,30.393z M77.305,26.636
		c-1.771,2.074-4.078,3.027-6.721,3.154c-2.208,0.101-4.421,0.056-6.631,0.024c-0.699-0.016-1.036-0.825-1.146-0.03
		c-0.299,2.159-0.727,5.606-1.122,5.606c-1.826,0-3.586,0-5.464,0c0.273,0,0.533-1.99,0.805-3.416
		c1.296-6.738,2.607-13.016,3.876-19.768c0.122-0.654,0.34-0.637,1.013-0.629c3.426,0.041,6.854,0.07,10.273,0.179
		c1.28,0.041,2.615,0.385,3.808,0.854c2.516,0.989,3.885,3.009,4.032,5.695C80.2,21.394,79.354,24.234,77.305,26.636z"/>
	<path fill="#C1C1C1" d="M71.53,15.838c-1.186-0.201-2.41-0.183-3.619-0.202c-2.086-0.026-2.104-0.007-2.52,2.032
		c-0.55,2.733-1.073,5.48-1.627,8.33c1.79,0,3.448,0.104,5.082-0.027c3.113-0.262,4.521-1.59,5.188-4.662
		c0.136-0.606,0.207-1.227,0.255-1.843C74.433,17.354,73.599,16.181,71.53,15.838z"/>
	<path fill="#C1C1C1" d="M28.913,15.849c-1.746-0.236-3.536-0.167-5.309-0.195c-0.17-0.005-0.466,0.229-0.497,0.392
		c-0.662,3.285-1.289,6.58-1.92,9.849c1.91,0,3.771,0.071,5.619-0.021c2.348-0.115,3.74-1.519,4.395-3.685
		c0.235-0.798,0.361-1.637,0.474-2.465C31.969,17.539,31.066,16.146,28.913,15.849z"/>
</g>
<g>
	<path fill="#6D6E71" d="M108.854-1.409c0.604-1.483,1.921-1.998,3.295-2.369c2.979-0.801,6.045-1.208,9.11-1.54
		c3.74-0.416,7.49-0.637,11.252-0.522c5.471,0.164,10.904,0.662,16.242,1.944c0.939,0.226,1.843,0.561,2.697,1.027
		c0.669,0.363,1.004,0.904,0.995,1.671c-0.005,4.006,0.009,8.007,0,12.007c0,0.798-0.476,1.351-1.046,1.817
		c-1.02,0.835-2.229,1.307-3.462,1.698c-2.845,0.902-5.771,1.337-8.723,1.626c-3.334,0.332-6.677,0.474-10.021,0.399
		c-4.557-0.104-9.09-0.401-13.55-1.41c-1.5-0.334-2.969-0.766-4.354-1.449c-1.065-0.529-2.011-1.19-2.439-2.379
		C108.854,6.94,108.854,2.764,108.854-1.409z M129.421,0.958c4.747,0.007,9.188-0.131,13.613-0.617
		c1.896-0.214,3.799-0.469,5.639-1.026c0.462-0.14,0.919-0.301,1.321-0.576c0.54-0.375,0.531-0.779-0.025-1.128
		c-0.243-0.161-0.515-0.286-0.788-0.389c-0.866-0.344-1.778-0.541-2.69-0.705c-4.396-0.776-8.833-0.987-13.278-1.095
		c-3.293-0.088-6.585,0-9.876,0.181c-2.86,0.154-5.707,0.399-8.526,0.926c-1.147,0.219-2.307,0.44-3.343,1.025
		c-0.676,0.38-0.681,0.842-0.021,1.236c0.292,0.169,0.614,0.301,0.942,0.419c1.204,0.432,2.463,0.642,3.72,0.834
		C120.618,0.728,125.163,0.878,129.421,0.958z M111.625,6.593c0.396,0.003,0.671-0.288,0.66-0.694
		c-0.007-0.427-0.271-0.616-0.653-0.652c-0.347-0.036-0.712,0.349-0.678,0.699C110.996,6.334,111.223,6.565,111.625,6.593z"/>
	<path fill="#6D6E71" d="M108.854,34.402c0.204-0.447,0.388-0.914,0.809-1.228c0.138-0.104,0.229-0.153,0.396-0.032
		c1.755,1.284,3.813,1.825,5.882,2.278c3.563,0.791,7.187,1.106,10.824,1.271c3.378,0.153,6.76,0.119,10.131-0.117
		c3.892-0.277,7.757-0.715,11.481-1.969c1.05-0.354,2.063-0.787,2.937-1.486c0.188-0.148,0.312-0.148,0.489,0
		c0.365,0.297,0.602,0.664,0.625,1.143c0.016,0.445,0.021,0.896,0.021,1.342c0.007,3.482-0.03,6.972,0.021,10.455
		c0.016,1.273-0.596,2.076-1.574,2.701c-1.671,1.063-3.55,1.566-5.459,1.99c-3.388,0.754-6.836,1.086-10.304,1.252
		c-3.205,0.148-6.412,0.168-9.615-0.029c-4.187-0.254-8.35-0.672-12.368-1.969c-1.069-0.344-2.094-0.789-3.015-1.447
		c-0.591-0.426-0.973-0.99-1.282-1.635C108.854,42.748,108.854,38.576,108.854,34.402z M112.231,41.189
		c-0.335,0.041-0.581,0.24-0.595,0.658c-0.014,0.389,0.299,0.717,0.678,0.686c0.388-0.039,0.641-0.256,0.664-0.664
		C113.002,41.5,112.666,41.182,112.231,41.189z"/>
	<path fill="#6D6E71" d="M108.854,16.183c0.151-0.114,0.117-0.313,0.188-0.467c0.354-0.779,0.554-0.835,1.234-0.366
		c1.622,1.121,3.489,1.625,5.369,2.057c3.232,0.754,6.521,1.082,9.829,1.272c2.96,0.17,5.924,0.207,8.886,0.077
		c4.469-0.204,8.91-0.567,13.225-1.843c1.425-0.425,2.822-0.928,3.962-1.942c0.163-0.138,0.25-0.09,0.384,0.024
		c0.301,0.269,0.459,0.605,0.491,0.997c0.023,0.308,0.023,0.615,0.023,0.929c0.009,3.672-0.012,7.345,0.016,11.019
		c0.01,0.957-0.367,1.653-1.077,2.223c-1.092,0.865-2.36,1.355-3.667,1.748c-3.164,0.965-6.425,1.389-9.708,1.66
		c-3.872,0.334-7.748,0.404-11.629,0.203c-4.425-0.229-8.825-0.631-13.09-1.963c-0.774-0.244-1.525-0.547-2.24-0.931
		c-0.977-0.524-1.824-1.17-2.196-2.274C108.854,24.466,108.854,20.325,108.854,16.183z M112.979,24.421
		c0.009-0.432-0.315-0.776-0.683-0.752c-0.396,0.029-0.636,0.246-0.659,0.654c-0.021,0.387,0.287,0.698,0.676,0.686
		C112.719,24.992,112.933,24.757,112.979,24.421z"/>
	<path fill="#6D6E71" d="M176.652,29.958c0-2.849,0-5.692,0-8.538c0-1.438,0.142-2.848,0.599-4.227
		c0.929-2.782,2.87-4.43,5.71-5.028c1.602-0.34,3.22-0.349,4.83-0.039c3.447,0.671,5.604,2.853,6.254,6.304
		c0.189,0.989,0.276,1.979,0.276,2.982c0,5.754,0.011,11.518-0.009,17.271c-0.01,2.058-0.326,4.056-1.326,5.892
		c-0.188,0.354-0.676,0.682-0.533,1.036c0.124,0.298,0.618,0.447,0.956,0.664c0.565,0.363,1.126,0.728,1.702,1.07
		c0.229,0.135,0.258,0.252,0.115,0.482c-0.688,1.193-1.372,2.389-2.036,3.594c-0.174,0.318-0.314,0.305-0.59,0.123
		c-1.648-1.098-3.312-2.176-4.966-3.271c-0.26-0.176-0.496-0.215-0.815-0.159c-2.925,0.52-5.6,0.018-7.782-2.138
		c-1.313-1.297-1.889-2.973-2.186-4.757c-0.146-0.919-0.204-1.849-0.199-2.774C176.654,35.617,176.652,32.785,176.652,29.958z
		 M183.754,30.02c0,2.83,0.003,5.655,0,8.479c-0.002,0.727,0.063,1.451,0.271,2.145c0.237,0.767,0.729,1.123,1.484,1.104
		c0.729-0.015,1.165-0.388,1.352-1.177c0.135-0.59,0.229-1.186,0.229-1.791c0.004-5.911,0.004-11.821,0-17.734
		c0-0.536-0.095-1.06-0.276-1.565c-0.239-0.646-0.636-0.952-1.313-0.972c-0.615-0.014-1.1,0.24-1.381,0.815
		c-0.294,0.608-0.365,1.251-0.365,1.907C183.757,24.16,183.754,27.096,183.754,30.02z"/>
	<path fill="#6D6E71" d="M170.924,22.501c-1.048,0-2.106-0.017-3.154,0.012c-0.396,0.009-0.494-0.115-0.485-0.493
		c0.016-0.688-0.021-1.376-0.046-2.066c-0.032-0.89-0.556-1.417-1.422-1.452c-0.938-0.041-1.604,0.486-1.696,1.368
		c-0.11,1.021,0.26,1.9,0.854,2.696c0.88,1.186,2.036,2.1,3.077,3.127c1.296,1.287,2.66,2.504,3.874,3.875
		c1.897,2.149,2.819,4.654,2.858,7.51c0.025,2.146-0.125,4.27-0.82,6.322c-0.936,2.752-2.787,4.401-5.708,4.793
		c-1.939,0.264-3.854,0.16-5.732-0.387c-2.712-0.789-4.173-2.716-4.812-5.371c-0.269-1.129-0.413-2.271-0.432-3.429
		c-0.014-1.313,0.009-2.618-0.019-3.934c-0.007-0.373,0.112-0.462,0.467-0.457c2.056,0.01,4.104,0.01,6.157,0
		c0.329,0,0.439,0.084,0.435,0.43c-0.019,1.435-0.007,2.867-0.005,4.295c0,0.539,0.076,1.063,0.317,1.562
		c0.321,0.649,0.88,0.922,1.671,0.834c0.714-0.084,1.137-0.418,1.259-1.156c0.384-2.348,0.08-4.57-1.604-6.371
		c-1.676-1.791-3.438-3.496-5.168-5.225c-1.806-1.797-3.146-3.854-3.438-6.436c-0.25-2.237-0.053-4.444,0.901-6.522
		c1.057-2.28,2.895-3.554,5.333-3.952c1.877-0.299,3.747-0.202,5.581,0.327c2.256,0.651,3.749,2.116,4.544,4.303
		c0.64,1.753,0.844,3.579,0.864,5.433c0.007,0.318-0.122,0.367-0.393,0.364c-1.084-0.01-2.174-0.008-3.263-0.008
		C170.924,22.499,170.924,22.499,170.924,22.501z"/>
	<path fill="#6D6E71" d="M197.725,30.085c0-5.742,0.007-11.485-0.015-17.231c-0.004-0.521,0.147-0.618,0.632-0.611
		c1.983,0.027,3.969,0.034,5.951,0c0.522-0.01,0.604,0.149,0.603,0.631c-0.014,9.436-0.014,18.872-0.01,28.303
		c0,0.89-0.087,0.74,0.733,0.746c2.033,0.009,4.067,0.013,6.103-0.002c0.386-0.008,0.542,0.068,0.533,0.496
		c-0.023,1.69-0.023,3.388,0,5.072c0.005,0.428-0.136,0.506-0.528,0.506c-4.481-0.017-8.964-0.017-13.451,0.006
		c-0.471,0.002-0.567-0.14-0.563-0.582c0.015-5.778,0.007-11.555,0.007-17.334C197.72,30.085,197.722,30.085,197.725,30.085z"/>
</g>
<g>
	<g>
		<g>
			<path fill="#6D6E71" d="M264.658-10.227c2.321,0,4.639,0,6.957,0c0.085,0.263,0.32,0.215,0.518,0.246
				c0.797,0.139,1.595,0.242,2.387,0.411c12.879,2.723,22.639,13.236,24.424,26.286c0.028,0.23-0.055,0.516,0.26,0.64
				c0,2.322,0,4.638,0,6.96c-0.266,0.082-0.216,0.315-0.25,0.516c-0.138,0.813-0.246,1.635-0.421,2.445
				c-2.821,12.947-13.236,22.584-26.333,24.369c-0.219,0.028-0.479-0.035-0.582,0.25c-2.318,0-4.636,0-6.957,0
				c-0.085-0.263-0.322-0.211-0.517-0.246c-0.813-0.14-1.636-0.25-2.446-0.424c-12.946-2.82-22.578-13.234-24.368-26.334
				c-0.027-0.213,0.037-0.472-0.256-0.576c0-2.322,0-4.639,0-6.96c0.265-0.086,0.222-0.321,0.25-0.515
				c0.137-0.796,0.243-1.6,0.408-2.388c2.728-12.878,13.232-22.638,26.285-24.423C264.249-9.998,264.539-9.918,264.658-10.227z
				 M286.741,0.169c-0.066-0.292-0.269-0.385-0.423-0.513c-4.745-4.031-10.218-6.358-16.444-6.66
				c-10.025-0.486-18.085,3.372-24.219,11.299c-0.256,0.332-0.769,0.725-0.594,1.068c0.179,0.348,0.793,0.158,1.225,0.158
				c2.504,0,5.009-0.169,7.506-0.332c0.929-0.064,1.403,0.311,1.448,1.051c0.037,0.748-0.382,1.172-1.289,1.27
				c-0.68,0.07-1.358,0.119-2.041,0.167c-0.831,0.058-0.861,0.099-0.604,0.873c3.191,9.502,6.385,18.995,9.576,28.487
				c0.074,0.207,0.088,0.453,0.306,0.59c0.228-0.104,0.232-0.332,0.294-0.52c1.887-5.631,3.762-11.269,5.646-16.9
				c0.124-0.377,0.12-0.713-0.015-1.082c-1.322-3.594-2.644-7.19-3.938-10.792c-0.153-0.438-0.393-0.621-0.846-0.651
				c-0.806-0.051-1.61-0.117-2.41-0.238c-0.634-0.094-0.98-0.58-0.928-1.186c0.053-0.638,0.487-1.056,1.14-1.075
				c0.313-0.009,0.625,0.021,0.933,0.041c2.994,0.192,5.99,0.421,8.998,0.228c1.61-0.099,3.223-0.196,4.836-0.269
				c0.786-0.035,1.248,0.354,1.313,1.017c0.063,0.692-0.338,1.179-1.128,1.282c-0.699,0.092-1.401,0.143-2.104,0.187
				c-0.947,0.063-0.979,0.095-0.686,0.976c3.171,9.419,6.34,18.837,9.506,28.253c0.063,0.188,0.071,0.408,0.308,0.559
				c0.055-0.113,0.12-0.213,0.154-0.324c1.374-4.576,2.764-9.152,4.105-13.745c0.593-2.021,0.8-4.086,0.437-6.195
				c-0.411-2.382-1.479-4.465-2.74-6.478c-0.662-1.054-1.299-2.121-1.71-3.302c-0.404-1.157-0.584-2.338-0.23-3.538
				C282.784,1.59,284.313,0.345,286.741,0.169z M268.646,23.404c-0.142,0.331-0.216,0.477-0.269,0.627
				c-2.633,7.648-5.266,15.299-7.913,22.943c-0.188,0.545-0.03,0.711,0.478,0.846c5.31,1.381,10.567,1.238,15.795-0.408
				c0.479-0.15,0.59-0.326,0.404-0.83c-2.646-7.207-5.271-14.422-7.904-21.629C269.065,24.492,268.891,24.037,268.646,23.404z
				 M242.699,9.699c-0.055,0.005-0.105,0.014-0.158,0.019c-0.09,0.207-0.187,0.411-0.273,0.618
				c-1.931,4.797-2.563,9.766-1.691,14.863c1.562,9.135,6.502,15.904,14.613,20.369c0.165,0.09,0.363,0.313,0.547,0.135
				c0.146-0.135-0.037-0.344-0.078-0.52c-0.021-0.076-0.058-0.15-0.081-0.23c-4.046-11.074-8.085-22.158-12.136-33.234
				C243.193,11.043,242.949,10.37,242.699,9.699z M292.949,7.989c-0.055,0.011-0.107,0.02-0.163,0.026
				c-0.016,0.041-0.039,0.081-0.039,0.118c0,0.124,0,0.249,0.007,0.372c0.331,3.596-0.34,7.042-1.51,10.421
				c-2.92,8.376-5.833,16.764-8.744,25.148c-0.067,0.199-0.217,0.4-0.064,0.744c6.033-3.728,10.227-8.877,12.331-15.623
				C297.046,21.888,296.339,14.804,292.949,7.989z"/>
		</g>
		<g>
			<g>
				<g>
					<path fill="#6D6E71" d="M355.755-10.794c3.625,0,7.256,0,11.056,0c-0.714,1.251-1.362,2.408-2.028,3.558
						c-8.169,14.114-16.335,28.227-24.505,42.345c-0.813,1.395-0.82,1.402-1.62,0.02c-8.711-15.051-17.417-30.104-26.12-45.16
						c-0.129-0.218-0.352-0.404-0.271-0.757c3.614,0,7.238,0,10.859,0c0.068,0.148,0.135,0.298,0.216,0.438
						c4.524,7.828,9.048,15.652,13.577,23.481c0.815,1.401,1.638,2.81,2.447,4.201c0.386-0.137,0.438-0.42,0.563-0.634
						c4.06-6.996,8.122-13.994,12.162-21.002C353.323-6.459,354.665-8.555,355.755-10.794z"/>
					<path fill="#6D6E71" d="M339.459,37.115c-0.758,0-1.107-0.6-1.633-1.508c-8.709-15.052-17.419-30.104-26.118-45.159
						c-0.202-0.29-0.524-0.749-0.384-1.434l0.158-0.758h12.229l0.455,0.921l15.291,26.419l1.482-2.554
						c3.438-5.939,6.889-11.878,10.313-17.826c0.358-0.618,0.722-1.236,1.087-1.852c0.88-1.484,1.792-3.021,2.553-4.579l0.266-0.539
						h13.302l-1.56,2.738c-0.441,0.772-0.859,1.518-1.291,2.26l-24.507,42.341C340.571,36.507,340.215,37.115,339.459,37.115z
						 M313.755-9.832c8.57,14.82,17.137,29.631,25.704,44.438l24.494-42.32c0.404-0.7,0.802-1.399,1.213-2.123h-8.818
						c-0.729,1.441-1.559,2.833-2.355,4.18c-0.361,0.609-0.72,1.217-1.073,1.833c-3.433,5.949-6.875,11.887-10.321,17.828
						l-1.841,3.178c-0.149,0.313-0.395,0.814-1.069,1.055l-0.752,0.268L322.532-9.832H313.755z"/>
				</g>
				<path fill="#6D6E71" d="M338.934,18.501L322.51-9.871c-0.067-0.122-0.127-0.238-0.185-0.358l-0.636-1.358l1.427-0.157
					l2.798-0.012c2.211-0.007,4.417-0.012,6.629-0.041c1.131,0,1.576,0.772,1.793,1.147l5.119,8.851
					c1.728-2.96,3.448-5.928,5.155-8.899c0.271-0.473,0.752-1.099,1.8-1.099c2.354,0.026,4.685,0.03,7.015,0.037l3.857,0.012
					l-0.668,1.372c-0.793,1.632-1.726,3.203-2.624,4.718c-0.361,0.609-0.727,1.217-1.073,1.833
					c-3.438,5.951-6.884,11.903-10.33,17.847l-1.832,3.158c-0.149,0.313-0.395,0.814-1.07,1.055L338.934,18.501z M324.74-9.836
					l14.719,25.432l1.469-2.536c3.448-5.944,6.897-11.888,10.328-17.843c0.358-0.618,0.722-1.236,1.087-1.852
					c0.62-1.044,1.254-2.119,1.845-3.207l-0.768-0.002c-2.334-0.007-4.671-0.011-7.006-0.038l-0.145,0.134
					c-1.794,3.127-3.6,6.244-5.42,9.354c-0.209,0.447-0.473,1.027-1.213,1.251l-0.729,0.225l-6.233-10.777
					c-0.027-0.046-0.108-0.189-0.146-0.229c-2.183,0.07-4.395,0.077-6.605,0.082L324.74-9.836z"/>
			</g>
			<g>
				<path fill="#6D6E71" d="M324.299,54.07c-0.498-0.004-0.882-0.303-1.029-0.838c-0.641-2.306-1.422-4.562-2.075-6.857
					c-0.438-1.535-0.974-3.043-1.403-4.578c-0.131-0.455-0.01-0.688,0.45-0.84c0.503-0.162,0.848-0.027,0.977,0.4
					c0.335,1.143,0.647,2.301,0.992,3.444c0.515,1.714,1.068,3.414,1.567,5.132c0.133,0.459,0.25,0.928,0.393,1.387
					c0.037,0.104,0.023,0.256,0.195,0.236c0.111-0.017,0.122-0.134,0.147-0.228c0.324-1.152,0.646-2.302,0.983-3.449
					c0.52-1.76,1.066-3.516,1.595-5.278c0.117-0.4,0.19-0.806,0.348-1.191c0.188-0.475,0.39-0.604,0.861-0.479
					c0.517,0.139,0.7,0.426,0.56,0.924c-0.186,0.639-0.401,1.266-0.599,1.897c-0.621,2.029-1.216,4.065-1.854,6.09
					c-0.366,1.136-0.724,2.267-1.055,3.414C325.197,53.791,324.81,54.076,324.299,54.07z"/>
				<path fill="#6D6E71" d="M342.307,50.125c-0.669,0-1.338,0.004-2.006-0.006c-0.276-0.004-0.375,0.096-0.384,0.377
					c-0.035,1.141,0.606,1.939,1.709,2.248c0.907,0.252,1.691,0.063,2.466-0.393c0.447-0.267,0.831-0.216,1.018,0.1
					c0.206,0.355,0.101,0.668-0.334,0.963c-1.713,1.168-4.468,0.809-5.702-0.768c-0.375-0.479-0.611-1.023-0.616-1.642
					c-0.009-0.858-0.029-1.709-0.002-2.563c0.034-1.084,0.618-1.883,1.491-2.452c1.641-1.078,4.007-0.701,4.988,1.004
					c0.466,0.799,0.722,1.649,0.287,2.559c-0.172,0.373-0.471,0.554-0.859,0.558c-0.687,0.016-1.372,0.006-2.056,0.006
					C342.307,50.115,342.307,50.119,342.307,50.125z M341.782,49.169v-0.004c0.453,0,0.898,0.008,1.349-0.004
					c0.848-0.027,1.029-0.274,0.825-1.103c-0.269-1.104-1.33-1.694-2.578-1.444c-0.944,0.188-1.639,1.262-1.489,2.28
					c0.042,0.263,0.195,0.271,0.391,0.271C340.78,49.169,341.281,49.169,341.782,49.169z"/>
				<path fill="#6D6E71" d="M336.684,48.539c0,0.717,0,1.438,0,2.16c-0.009,1.469-1.022,2.664-2.362,3.184
					c-1.649,0.643-3.587-0.215-4.4-1.766c-0.225-0.434-0.352-0.936-0.358-1.441c0-1.471,0-2.939,0-4.41
					c0-0.539,0.267-0.74,0.915-0.735c0.342,0.002,0.625,0.336,0.628,0.749c0.008,1.509-0.024,3.011,0.015,4.513
					c0.046,1.494,1.634,2.442,2.909,1.752c0.763-0.414,1.186-1.08,1.179-1.987c-0.009-1.404-0.002-2.806-0.002-4.209
					c0-0.72,0.478-1.052,1.149-0.781c0.268,0.108,0.337,0.348,0.33,0.617C336.675,46.966,336.684,47.751,336.684,48.539z"/>
				<path fill="#6D6E71" d="M356.287,54.076c-0.87-0.025-1.709-0.193-2.458-0.684c-0.229-0.156-0.414-0.332-0.414-0.638
					c0-0.246,0.056-0.44,0.292-0.59c0.229-0.153,0.391-0.029,0.538,0.082c0.742,0.555,1.564,0.752,2.481,0.649
					c0.853-0.102,1.33-0.633,1.197-1.383c-0.092-0.5-0.45-0.781-0.878-0.943c-0.646-0.252-1.312-0.452-1.964-0.688
					c-0.924-0.322-1.467-1.02-1.496-1.895c-0.03-1.072,0.443-1.865,1.376-2.268c1.264-0.541,2.5-0.41,3.72,0.151
					c0.412,0.192,0.386,0.521,0.251,0.84c-0.134,0.319-0.396,0.438-0.735,0.269c-0.595-0.299-1.22-0.449-1.882-0.398
					c-0.304,0.018-0.582,0.078-0.843,0.26c-0.405,0.291-0.605,0.65-0.522,1.148c0.071,0.467,0.428,0.66,0.802,0.797
					c0.667,0.248,1.347,0.451,2.021,0.682c1.652,0.568,1.921,2.602,1.083,3.646c-0.513,0.635-1.257,0.828-2.021,0.951
					C356.662,54.104,356.469,54.076,356.287,54.076z"/>
				<path fill="#6D6E71" d="M351.8,50.689c-0.046,1.487,0.104,3.268-0.131,5.026c-0.182,1.41-1.107,2.371-2.373,2.32
					c-0.396-0.015-0.735-0.119-0.779-0.593c-0.039-0.387,0.232-0.69,0.703-0.727c0.55-0.045,0.818-0.35,0.938-0.852
					c0.115-0.475,0.117-0.957,0.117-1.439c0.003-2.725,0.005-5.449-0.002-8.17c-0.005-0.398,0.076-0.689,0.531-0.725
					c0.698-0.055,0.889,0.059,0.962,0.617c0.039,0.283,0.03,0.565,0.03,0.854C351.803,48.141,351.8,49.281,351.8,50.689z"/>
				<path fill="#6D6E71" d="M348.523,53.115c-0.007,0.615-0.425,0.891-0.896,0.943c-0.411,0.045-0.949-0.502-0.966-0.916
					c-0.021-0.47,0.46-0.935,0.966-0.938C348.172,52.199,348.523,52.557,348.523,53.115z"/>
			</g>
		</g>
		<g>
			<path fill="#6D6E71" d="M396.428-10.741c1.262-0.067,1.836,0.338,2.272,1.078c4.18,7.177,8.385,14.338,12.563,21.515
				c1.107,1.899,1.072,1.909,3.18,1.397c4.839-1.188,9.683-2.386,14.535-3.531c0.896-0.214,0.939-0.451,0.407-1.15
				c-1.729-2.279-3.412-4.598-5.108-6.899c-0.82-1.113-0.729-1.39,0.604-1.624c2.665-0.479,5.342-0.919,8-1.423
				c0.754-0.143,1.306,0.096,1.753,0.625c2.298,2.71,4.607,5.426,6.868,8.168c0.669,0.813,0.521,1.179-0.515,1.457
				c-2.199,0.592-4.407,1.165-6.627,1.691c-0.868,0.204-0.967,0.444-0.406,1.167c2.111,2.724,4.173,5.488,6.231,8.246
				c0.97,1.292,0.873,1.583-0.625,2.127c-6.22,2.25-12.435,4.512-18.657,6.752c-2.04,0.731-2.417,0.619-3.479-1.226
				c-1.848-3.223-3.688-6.449-5.441-9.722c-0.554-1.027-1.103-1.318-2.268-0.989c-3.607,1.013-7.256,1.904-10.896,2.824
				c-1.7,0.431-2.268,0.176-2.955-1.362c-3.906-8.725-7.81-17.449-11.697-26.184c-0.766-1.715-0.66-1.886,1.199-2.042
				C389.184-10.164,393.002-10.462,396.428-10.741z M395.86-9.101c-2.782,0.248-5.438,0.522-8.099,0.702
				c-0.995,0.065-1.094,0.362-0.683,1.201c1.461,2.982,2.884,5.984,4.308,8.984c2.247,4.751,4.487,9.508,6.718,14.263
				c0.233,0.488,0.451,0.899,1.104,0.748c3.353-0.777,6.7-1.559,10.055-2.313c0.582-0.13,0.563-0.352,0.317-0.789
				c-4.156-7.365-8.311-14.734-12.439-22.111C396.798-9.026,396.389-9.262,395.86-9.101z M431.111,11.43
				c-0.156,0.024-0.234,0.024-0.313,0.049c-5.482,1.414-10.974,2.837-16.458,4.249c-0.586,0.147-0.6,0.397-0.313,0.886
				c1.763,2.953,3.504,5.921,5.237,8.893c0.284,0.488,0.578,0.593,1.128,0.404c5.512-1.896,11.021-3.771,16.55-5.607
				c0.813-0.272,0.724-0.537,0.294-1.104c-1.817-2.405-3.604-4.832-5.388-7.267C431.627,11.63,431.448,11.373,431.111,11.43z
				 M432.555,8.855c1.87-0.471,4.049-0.996,6.211-1.571c0.526-0.138,0.211-0.464,0.027-0.694c-1.554-1.878-3.115-3.738-4.65-5.631
				c-0.396-0.488-0.851-0.597-1.43-0.492c-1.897,0.332-3.8,0.657-5.702,0.977c-0.844,0.138-0.421,0.512-0.168,0.849
				c1.525,2.025,3.051,4.049,4.574,6.078C431.627,8.645,431.824,8.948,432.555,8.855z"/>
			<path fill="#6D6E71" d="M404.592,47.898c0,0.696-0.014,1.395,0,2.092c0.016,0.518-0.131,1.121,0.685,1.234
				c0.352,0.047,0.317,0.393,0.292,0.657c-0.032,0.322-0.258,0.466-0.556,0.49c-0.552,0.053-1.172,0.088-1.476-0.438
				c-0.416-0.731-0.783-0.438-1.272-0.139c-0.775,0.484-1.646,0.666-2.558,0.578c-1.252-0.125-2.206-1.008-2.39-2.172
				c-0.209-1.367,0.402-2.457,1.7-2.947c0.949-0.363,1.972-0.363,2.96-0.523c0.549-0.088,1.103-0.162,1.132-0.899
				c0.028-0.713-0.273-1.164-0.964-1.39c-1.278-0.422-2.202-0.118-2.882,1.095c-0.325,0.588-0.802,0.418-1.2,0.33
				c-0.523-0.109-0.247-0.558-0.181-0.861c0.161-0.682,0.584-1.164,1.227-1.453c1.418-0.655,2.85-0.614,4.276-0.032
				c0.807,0.332,1.176,0.979,1.19,1.83c0.021,0.85,0.009,1.698,0.009,2.549C404.587,47.898,404.587,47.898,404.592,47.898z
				 M403.101,48.667c-0.278-0.181,0.37-0.947-0.358-0.883c-1.025,0.086-2.1,0.127-3.059,0.592c-0.68,0.334-0.91,0.935-0.781,1.654
				c0.108,0.643,0.559,1,1.179,1.127C401.616,51.47,403.057,50.332,403.101,48.667z"/>
			<path fill="#6D6E71" d="M419.4,47.904c0,0.701-0.009,1.396,0.004,2.096c0.01,0.518-0.137,1.119,0.683,1.227
				c0.354,0.047,0.294,0.4,0.28,0.664c-0.018,0.271-0.202,0.424-0.445,0.459c-0.545,0.082-1.195,0.166-1.498-0.348
				c-0.433-0.729-0.807-0.555-1.356-0.195c-0.737,0.463-1.576,0.646-2.444,0.578c-1.316-0.102-2.325-0.986-2.488-2.195
				c-0.191-1.401,0.401-2.436,1.716-2.938c0.949-0.361,1.972-0.361,2.957-0.52c0.559-0.088,1.094-0.176,1.132-0.906
				c0.038-0.729-0.302-1.16-0.98-1.387c-1.282-0.424-2.258-0.111-2.895,1.086c-0.326,0.606-0.8,0.42-1.188,0.344
				c-0.51-0.111-0.257-0.564-0.179-0.871c0.177-0.725,0.655-1.207,1.332-1.504c0.834-0.375,1.715-0.471,2.611-0.385
				c2.095,0.201,2.764,0.942,2.764,3.055C419.402,46.744,419.4,47.328,419.4,47.904z M417.923,48.65
				c-0.179-0.242,0.331-0.953-0.4-0.877c-0.985,0.104-2.003,0.156-2.938,0.543c-0.696,0.291-0.956,0.858-0.885,1.592
				c0.065,0.707,0.501,1.104,1.165,1.244C416.425,51.492,417.889,50.314,417.923,48.65z"/>
			<path fill="#6D6E71" d="M434.324,48.225c-0.771,0-1.544,0.02-2.316-0.004c-0.646-0.021-0.8,0.271-0.68,0.86
				c0.216,1.021,0.661,1.849,1.769,2.051c1.078,0.203,1.992-0.104,2.592-1.098c0.074-0.127,0.126-0.283,0.211-0.41
				c0.341-0.492,0.89-0.379,1.262-0.229c0.57,0.241,0.097,0.672-0.046,0.959c-0.942,1.857-3.382,2.607-5.301,1.646
				c-1.654-0.826-2.458-2.662-2.176-4.965c0.246-2.013,1.416-3.427,3.166-3.843c2.732-0.645,5.28,1.778,4.814,4.535
				c-0.092,0.521-0.396,0.492-0.74,0.492C436.028,48.225,435.179,48.225,434.324,48.225z M433.669,47.023
				c0.538,0,1.078-0.029,1.613,0.008c0.634,0.033,0.8-0.188,0.637-0.813c-0.278-1.086-0.859-1.793-2.016-1.907
				c-1.084-0.104-2.026,0.51-2.428,1.569c-0.288,0.771-0.21,1.271,0.811,1.15C432.741,46.98,433.205,47.023,433.669,47.023z"/>
			<path fill="#6D6E71" d="M424.968,50.005c0.625-1.854,1.252-3.709,1.889-5.563c0.097-0.289,0.158-0.621,0.342-0.854
				c0.368-0.483,0.963-0.348,1.381-0.188c0.487,0.187,0.051,0.607-0.05,0.879c-0.844,2.32-1.735,4.628-2.583,6.947
				c-0.212,0.594-0.432,0.969-1.192,0.957c-0.727-0.018-0.898-0.385-1.101-0.926c-0.815-2.291-1.677-4.563-2.477-6.857
				c-0.108-0.309-0.681-0.836,0.007-1.021c0.563-0.155,1.3-0.313,1.576,0.644c0.462,1.594,1.004,3.166,1.521,4.74
				c0.133,0.401,0.28,0.797,0.427,1.194C424.793,49.973,424.881,49.99,424.968,50.005z"/>
			<path fill="#6D6E71" d="M440.882,46.125c0,1.746-0.021,3.488,0.016,5.229c0.009,0.6-0.159,0.817-0.784,0.813
				c-0.606-0.004-0.795-0.199-0.79-0.807c0.023-3.488,0.021-6.973,0.003-10.459c-0.003-0.594,0.167-0.822,0.783-0.83
				c0.627-0.006,0.797,0.231,0.781,0.824C440.865,42.641,440.882,44.378,440.882,46.125z"/>
			<path fill="#6D6E71" d="M395.548,46.066c0,1.746-0.009,3.481,0.01,5.225c0.009,0.521-0.005,0.877-0.706,0.877
				c-0.673,0-0.843-0.23-0.838-0.871c0.027-3.445,0.025-6.889,0.002-10.332c-0.007-0.625,0.145-0.9,0.832-0.896
				c0.696,0.01,0.716,0.377,0.71,0.896C395.539,42.666,395.548,44.367,395.548,46.066z"/>
			<path fill="#6D6E71" d="M407.019,47.761c0-1.198-0.01-2.397,0.006-3.594c0.003-0.326-0.137-0.776,0.389-0.815
				c0.35-0.023,0.848-0.228,1.009,0.27c0.202,0.631,0.448,0.336,0.725,0.113c0.398-0.316,0.828-0.568,1.348-0.625
				c0.409-0.045,0.811-0.055,0.777,0.543c-0.021,0.399,0.109,0.797-0.563,0.906c-1.652,0.274-2.194,0.996-2.216,2.688
				c-0.011,1.117,0.076,2.248-0.034,3.357c-0.053,0.526,0.623,1.504-0.669,1.545c-1.32,0.041-0.691-0.955-0.741-1.492
				C406.949,49.701,407.019,48.727,407.019,47.761z"/>
		</g>
	</g>
	<g>
		<path fill="#6D6E71" d="M520.175,49.059c0.007-8.142,0-16.281,0.039-24.422c0.005-0.847-0.554-2.066,1.126-2.191
			c1.442-0.113,2.419,0.161,2.391,1.861c0,0.166,0.146,0.327,0.268,0.586c1.408-1.658,3.143-2.561,5.289-2.697
			c3.906-0.245,6.859,1.777,7.922,5.522c0.611,2.177,0.662,4.408,0.232,6.597c-1.05,5.356-5.688,8.414-11.539,7.52
			c-1.604-0.238-1.971,0.047-1.967,1.648c0,1.854,0.568,3.795-0.427,5.576C522.397,49.059,521.287,49.059,520.175,49.059z
			 M523.991,33.602c0,1.407,0.012,2.573-0.005,3.746c-0.008,0.598,0.081,1.039,0.756,1.289c3.764,1.391,7.911-0.732,8.727-4.515
			c0.358-1.649,0.341-3.317-0.021-4.961c-0.549-2.521-2.109-3.813-4.504-3.802c-2.398,0.019-4.188,1.486-4.747,3.861
			C523.84,30.753,524.069,32.298,523.991,33.602z"/>
		<path fill="#6D6E71" d="M553.522,49.059c0.01-2.027-0.062-4.066,0.056-6.101c0.073-1.272-0.404-1.444-1.484-1.224
			c-2.033,0.425-4.063,0.218-6.045-0.323c-3.407-0.929-5.549-3.513-5.896-7.021c-0.776-7.803,3.707-12.518,11.553-12.164
			c5.604,0.258,5.604,0.258,5.604,5.859c0,6.301,0,12.594,0,18.896c0,0.722,0.134,1.479-0.452,2.074
			C555.743,49.059,554.633,49.059,553.522,49.059z M553.549,31.939c0-1.785-0.005-3.564,0.002-5.354
			c0.002-0.582,0.002-1.146-0.785-1.188c-1.774-0.098-3.563-0.313-5.258,0.515c-2.822,1.371-4.26,5.278-3.271,8.983
			c0.761,2.861,3.111,4.273,6.608,3.953c0.429-0.039,0.854-0.145,1.282-0.147c1.08-0.009,1.498-0.472,1.442-1.595
			C553.486,35.386,553.551,33.664,553.549,31.939z"/>
		<path fill="#6D6E71" d="M482.01,16.828c0.956,0.959,1.894,1.938,2.877,2.861c0.809,0.764,0.768,1.407-0.012,2.182
			c-3.761,3.729-7.483,7.5-11.256,11.218c-1.112,1.095-9.062,0.795-10.211-0.28c-2.103-1.968-3.925-4.22-6.227-5.979
			c0-0.492,0-0.988,0-1.479c1.204-0.455,1.85-1.556,2.688-2.396c0.895-0.902,1.552-0.953,2.443-0.015
			c1.78,1.873,3.646,3.666,5.475,5.5c0.446,0.444,0.795,0.914,1.478,0.217c3.86-3.965,7.753-7.891,11.636-11.827
			C481.273,16.828,481.643,16.828,482.01,16.828z"/>
		<path fill="#6D6E71" d="M623.178,41.652c-1.592,0.061-3.159,0.488-4.777,0.188c-3.04-0.564-4.42-2.055-4.469-5.145
			c-0.051-3.084-0.064-6.166,0.014-9.244c0.03-1.258-0.122-2.021-1.646-1.773c-0.411,0.068-1.068,0.314-1.305-0.275
			c-0.219-0.563,0.374-0.858,0.688-1.198c1.856-2.027,3.738-4.028,5.971-6.432c0,1.585,0.056,2.665-0.02,3.733
			c-0.063,0.948,0.213,1.37,1.223,1.263c0.732-0.075,1.479,0.021,2.221-0.022c1.011-0.06,1.758-0.023,1.753,1.383
			c0,1.369-0.558,1.613-1.769,1.604c-3.408-0.035-3.414,0.017-3.408,3.457c0.005,2.158-0.052,4.316,0.035,6.474
			c0.117,2.842,1.091,3.67,3.853,3.219c0.759-0.123,1.225-0.028,1.639,0.554C623.178,40.169,623.178,40.91,623.178,41.652z"/>
		<path fill="#6D6E71" d="M593.688,34.093c0,1.906-0.031,3.824,0.02,5.73c0.019,0.819-0.214,1.264-1.061,1.401
			c-2.928,0.479-5.839,0.951-8.821,0.459c-3.206-0.521-5.06-2.256-5.379-5.174c-0.311-2.773,1.284-5.236,4.136-6.287
			c1.939-0.717,3.979-0.924,6.013-0.629c1.289,0.187,1.452-0.279,1.328-1.385c-0.195-1.652-1.112-2.566-2.677-2.852
			c-1.785-0.318-3.577-0.23-5.313,0.283c-1.153,0.342-1.563-0.188-1.741-1.197c-0.175-0.948-0.159-1.59,1.098-1.804
			c2.392-0.409,4.754-0.71,7.167-0.274c3.154,0.57,4.931,2.421,5.128,5.619c0.127,2.025,0.023,4.068,0.023,6.104
			C593.63,34.093,593.659,34.093,593.688,34.093z M589.974,35.686c0-3.4,0-3.422-3.416-3.275c-0.727,0.029-1.474,0.156-2.169,0.385
			c-1.563,0.498-2.22,1.664-2.128,3.268c0.099,1.687,1.041,2.552,3.058,2.838C589.131,39.439,589.974,38.852,589.974,35.686z"/>
		<path fill="#6D6E71" d="M499.682,32.126c-0.019-6.864,4.202-10.683,10.822-9.788c4.611,0.616,7.488,4.495,7.393,9.961
			c-0.121,6.891-4.881,10.77-11.521,9.387C502.122,40.805,499.698,37.341,499.682,32.126z M513.862,32.105
			c0.095-1.25-0.104-2.467-0.498-3.636c-0.747-2.2-2.268-3.262-4.596-3.27c-2.355-0.009-3.807,0.989-4.559,3.264
			c-0.792,2.41-0.792,4.854,0.005,7.257c0.754,2.274,2.24,3.313,4.545,3.311c2.268,0,3.828-1.105,4.589-3.301
			C513.753,34.566,513.95,33.35,513.862,32.105z"/>
		<path fill="#6D6E71" d="M576.089,31.789c0,2.525-0.062,5.061,0.025,7.582c0.039,1.115-0.282,1.666-1.404,1.871
			c-2.798,0.504-5.581,0.873-8.443,0.463c-3.468-0.494-5.588-2.402-6.124-5.896c-0.629-4.104-0.195-8.246-0.264-12.373
			c-0.027-1.576,1.318-0.895,2.091-0.993c0.854-0.108,1.739-0.135,1.709,1.241c-0.069,2.711-0.025,5.428-0.018,8.139
			c0.004,0.8,0.016,1.604,0.104,2.398c0.374,3.367,1.632,4.498,5.032,4.568c3.545,0.076,3.545,0.076,3.545-3.447
			c0-3.818,0.071-7.646-0.034-11.467c-0.042-1.581,0.87-1.478,1.884-1.459c0.972,0.018,1.992-0.197,1.925,1.418
			C576.011,26.484,576.089,29.136,576.089,31.789z"/>
		<path fill="#6D6E71" d="M600.706,41.986c-0.856-0.131-2.194-0.334-3.533-0.549c-0.929-0.15-1.705-0.345-1.17-1.642
			c0.382-0.914,0.397-1.92,1.909-1.396c1.696,0.591,3.49,0.798,5.28,0.291c1.321-0.377,2.452-1.014,2.532-2.559
			c0.076-1.497-0.992-2.145-2.201-2.623c-1.539-0.615-3.116-1.156-4.625-1.838c-1.813-0.816-2.744-2.279-2.645-4.277
			c0.103-2,1.021-3.549,2.904-4.38c2.989-1.32,6.033-0.939,9.063-0.158c1.16,0.296,0.528,1.201,0.409,1.833
			c-0.122,0.67-0.373,1.302-1.354,1.004c-1.657-0.506-3.337-0.877-5.096-0.426c-1,0.254-1.936,0.531-2.046,1.775
			c-0.104,1.246,0.596,1.975,1.655,2.383c1.318,0.512,2.665,0.949,3.997,1.428c2.151,0.771,3.576,2.131,3.711,4.556
			c0.144,2.582-1.021,4.375-3.271,5.514C604.656,41.725,602.944,41.925,600.706,41.986z"/>
		<path fill="#6D6E71" d="M482.456,34.869c-3.989,4.01-7.984,8.018-11.962,12.041c-0.687,0.695-1.273,0.824-2.017,0.074
			c-4.1-4.158-3.806-2.779-0.263-6.428c2.955-3.039,5.992-6.009,9.016-8.979c0.403-0.402,0.676-1.107,1.469-0.902
			C479.781,32.225,481.519,33.189,482.456,34.869z"/>
		<path fill="#6D6E71" d="M482.456,34.869c-0.938-1.68-2.675-2.645-3.757-4.193c2.521-0.025,5.041-0.045,7.56-0.1
			c0.627-0.018,1.022,0.262,1.427,0.67c1.861,1.885,3.715,3.771,5.625,5.604c0.859,0.826,0.866,1.498,0.02,2.314
			c-3.883,3.732-2.568,3.518-6.057,0.238C485.663,37.891,484.323,36.1,482.456,34.869z"/>
	</g>
	<text transform="matrix(1 0 0 1 495.5852 11.2314)" fill="#6D6E71" font-family="'MyriadPro-Regular'" font-size="18.4567">Certification</text>
</g>
<path fill="#C1C1C1" d="M-197.626,51.668c0-18.821,0-37.645,0-56.458c18.82,0,37.638,0,56.459,0c0,18.813,0,37.635,0,56.458
	C-159.988,51.668-178.804,51.668-197.626,51.668z M-163.997,41.819c0.044,0.098,0.075,0.168,0.106,0.229
	c0.789,1.459,1.874,2.646,3.275,3.543c1.667,1.055,3.514,1.544,5.467,1.646c0.827,0.051,1.652,0.035,2.479-0.073
	c1.15-0.146,2.26-0.427,3.298-0.955c2.396-1.228,3.677-3.185,3.838-5.873c0.046-0.671,0-1.338-0.099-2.002
	c-0.134-0.856-0.398-1.661-0.841-2.414c-0.564-0.956-1.343-1.717-2.238-2.354c-0.998-0.717-2.096-1.271-3.211-1.773
	c-0.882-0.396-1.771-0.759-2.648-1.15c-0.55-0.248-1.087-0.523-1.57-0.884c-0.683-0.51-1.017-1.186-1.008-2.04
	c0.005-0.894,0.517-1.671,1.342-2.018c0.493-0.202,1.008-0.253,1.526-0.215c0.64,0.043,1.226,0.236,1.738,0.627
	c0.457,0.351,0.798,0.797,1.099,1.277c0.07,0.11,0.145,0.228,0.229,0.358c1.39-0.89,2.765-1.771,4.148-2.665
	c-0.271-0.469-0.55-0.893-0.86-1.301c-1.208-1.544-2.778-2.481-4.716-2.802c-1.063-0.181-2.137-0.216-3.215-0.091
	c-1.14,0.134-2.226,0.442-3.213,1.041c-2.167,1.304-3.261,3.239-3.337,5.76c-0.018,0.513,0.014,1.018,0.09,1.526
	c0.125,0.863,0.38,1.69,0.803,2.449c0.527,0.942,1.26,1.709,2.117,2.349c0.953,0.709,2.004,1.245,3.088,1.719
	c1.044,0.461,2.099,0.925,3.138,1.394c0.473,0.212,0.921,0.476,1.328,0.798c0.563,0.447,0.902,1.012,0.973,1.741
	c0.072,0.812-0.196,1.478-0.812,2.006c-0.438,0.377-0.948,0.603-1.508,0.724c-0.652,0.143-1.309,0.168-1.977,0.099
	c-1.063-0.115-2.006-0.489-2.829-1.172c-0.616-0.515-1.104-1.136-1.534-1.8c-0.042-0.068-0.087-0.129-0.14-0.209
	C-161.118,40.151-162.545,40.983-163.997,41.819z M-182.753,42.386c0.029,0.078,0.051,0.143,0.08,0.202
	c0.132,0.243,0.259,0.496,0.4,0.729c0.781,1.271,1.813,2.283,3.145,2.972c1.021,0.535,2.105,0.827,3.255,0.924
	c1.282,0.11,2.556,0.048,3.805-0.278c1.118-0.293,2.127-0.795,2.979-1.584c0.984-0.912,1.58-2.056,1.914-3.338
	c0.244-0.939,0.323-1.896,0.323-2.865c0-5.894,0-11.803,0-17.695c0-0.05,0.004-0.096,0-0.137c-0.003-0.064-0.017-0.12-0.021-0.174
	c-1.772,0-3.531,0-5.318,0c0,0.128,0,0.236,0,0.345c0,5.805,0,11.609-0.005,17.414c0,0.263,0.005,0.522-0.008,0.787
	c-0.026,0.502-0.11,1-0.31,1.473c-0.236,0.544-0.616,0.947-1.183,1.14c-0.687,0.231-1.39,0.265-2.097,0.112
	c-0.708-0.161-1.251-0.579-1.674-1.151c-0.301-0.403-0.551-0.839-0.823-1.266c-0.043-0.069-0.083-0.138-0.14-0.224
	C-179.879,40.647-181.311,41.515-182.753,42.386z"/>
</svg>
