<?xml version="1.0" encoding="utf-8"?>
<!-- Generator: Adobe Illustrator 16.0.3, SVG Export Plug-In . SVG Version: 6.00 Build 0)  -->
<!DOCTYPE svg PUBLIC "-//W3C//DTD SVG 1.1//EN" "http://www.w3.org/Graphics/SVG/1.1/DTD/svg11.dtd">
<svg version="1.1" id="Layer_1" xmlns="http://www.w3.org/2000/svg" xmlns:xlink="http://www.w3.org/1999/xlink" x="0px" y="0px"
	 width="165.994px" height="51.14px" viewBox="0 0 165.994 51.14" enable-background="new 0 0 165.994 51.14" xml:space="preserve">
<g>
	<g>
		<path fill-rule="evenodd" clip-rule="evenodd" fill="#6D6E71" d="M62.991,51.14c0.007-8.141,0-16.281,0.039-24.422
			c0.005-0.846-0.554-2.066,1.126-2.191c1.442-0.113,2.419,0.161,2.39,1.86c0,0.166,0.145,0.329,0.267,0.586
			c1.408-1.657,3.143-2.56,5.289-2.696c3.906-0.245,6.86,1.777,7.922,5.522c0.611,2.177,0.662,4.409,0.232,6.597
			c-1.048,5.356-5.687,8.414-11.539,7.519c-1.604-0.239-1.969,0.046-1.965,1.649c0,1.853,0.568,3.794-0.427,5.576
			C65.213,51.14,64.104,51.14,62.991,51.14z M66.808,35.682c0,1.408,0.012,2.575-0.005,3.747c-0.007,0.598,0.081,1.039,0.756,1.289
			c3.764,1.39,7.911-0.733,8.727-4.515c0.358-1.65,0.341-3.318-0.022-4.961c-0.549-2.521-2.109-3.812-4.504-3.801
			c-2.398,0.019-4.188,1.487-4.747,3.862C66.656,32.834,66.884,34.379,66.808,35.682z"/>
		<path fill-rule="evenodd" clip-rule="evenodd" fill="#6D6E71" d="M96.338,51.14c0.009-2.028-0.061-4.068,0.055-6.1
			c0.073-1.273-0.404-1.445-1.484-1.223c-2.033,0.423-4.064,0.216-6.045-0.324c-3.407-0.928-5.549-3.513-5.896-7.02
			C82.19,28.671,86.674,23.956,94.52,24.31c5.606,0.258,5.606,0.258,5.606,5.859c0,6.301,0,12.594,0,18.896
			c0,0.722,0.132,1.479-0.454,2.074C98.56,51.14,97.449,51.14,96.338,51.14z M96.365,34.021c0-1.786-0.005-3.566,0.002-5.354
			c0.002-0.583,0.002-1.148-0.785-1.189c-1.776-0.097-3.564-0.313-5.258,0.515c-2.823,1.371-4.26,5.279-3.271,8.983
			c0.761,2.863,3.113,4.274,6.61,3.954c0.427-0.039,0.854-0.145,1.282-0.148c1.08-0.008,1.498-0.472,1.442-1.595
			C96.301,37.467,96.367,35.743,96.365,34.021z"/>
		<path fill-rule="evenodd" clip-rule="evenodd" fill="#6D6E71" d="M24.826,18.908c0.956,0.959,1.892,1.938,2.877,2.861
			c0.807,0.764,0.766,1.407-0.012,2.182c-3.761,3.728-7.483,7.5-11.256,11.218c-1.112,1.094-9.06,0.795-10.211-0.28
			C4.124,32.922,2.3,30.67,0,28.91c0-0.492,0-0.988,0-1.479c1.204-0.455,1.848-1.554,2.686-2.396
			c0.895-0.902,1.552-0.953,2.443-0.015c1.782,1.873,3.648,3.665,5.475,5.499c0.446,0.445,0.795,0.914,1.478,0.216
			c3.86-3.964,7.753-7.89,11.634-11.826C24.087,18.908,24.459,18.908,24.826,18.908z"/>
		<path fill-rule="evenodd" clip-rule="evenodd" fill="#6D6E71" d="M165.994,43.732c-1.592,0.06-3.159,0.489-4.779,0.187
			c-3.04-0.565-4.418-2.055-4.467-5.143c-0.051-3.084-0.066-6.167,0.012-9.246c0.032-1.257-0.122-2.021-1.646-1.773
			c-0.411,0.068-1.07,0.314-1.305-0.276c-0.219-0.561,0.374-0.859,0.689-1.199c1.856-2.026,3.738-4.027,5.969-6.431
			c0,1.585,0.056,2.665-0.018,3.733c-0.063,0.948,0.213,1.37,1.222,1.263c0.733-0.075,1.48,0.021,2.22-0.022
			c1.011-0.06,1.758-0.023,1.753,1.384c0,1.369-0.556,1.613-1.767,1.602c-3.41-0.035-3.414,0.016-3.41,3.458
			c0.005,2.157-0.05,4.317,0.037,6.473c0.117,2.842,1.089,3.669,3.851,3.219c0.759-0.124,1.225-0.03,1.639,0.552
			C165.994,42.25,165.994,42.99,165.994,43.732z"/>
		<path fill-rule="evenodd" clip-rule="evenodd" fill="#6D6E71" d="M136.503,36.175c0,1.905-0.032,3.824,0.019,5.73
			c0.019,0.82-0.214,1.264-1.059,1.402c-2.928,0.479-5.839,0.951-8.823,0.459c-3.206-0.521-5.058-2.256-5.379-5.174
			c-0.309-2.773,1.286-5.236,4.136-6.287c1.941-0.717,3.981-0.924,6.013-0.629c1.289,0.186,1.452-0.28,1.328-1.384
			c-0.195-1.654-1.112-2.568-2.677-2.852c-1.785-0.319-3.577-0.231-5.313,0.283c-1.155,0.342-1.564-0.187-1.743-1.197
			c-0.173-0.948-0.159-1.59,1.098-1.804c2.392-0.409,4.754-0.71,7.167-0.274c3.154,0.57,4.931,2.421,5.128,5.619
			c0.127,2.026,0.023,4.069,0.023,6.106C136.446,36.175,136.476,36.175,136.503,36.175z M132.79,37.766c0-3.401,0-3.422-3.416-3.276
			c-0.727,0.031-1.474,0.158-2.169,0.386c-1.563,0.498-2.22,1.663-2.128,3.267c0.097,1.685,1.041,2.551,3.056,2.838
			C131.947,41.52,132.79,40.932,132.79,37.766z"/>
		<path fill-rule="evenodd" clip-rule="evenodd" fill="#6D6E71" d="M42.498,34.208C42.479,27.343,46.7,23.525,53.32,24.42
			c4.611,0.616,7.488,4.495,7.392,9.961c-0.122,6.891-4.88,10.77-11.521,9.386C44.938,42.885,42.514,39.422,42.498,34.208z
			 M56.677,34.186c0.095-1.25-0.104-2.466-0.498-3.635c-0.747-2.201-2.266-3.261-4.594-3.27c-2.357-0.007-3.807,0.99-4.559,3.265
			c-0.792,2.41-0.792,4.853,0.005,7.256c0.754,2.275,2.24,3.312,4.545,3.309c2.266,0,3.828-1.104,4.589-3.299
			C56.569,36.646,56.767,35.431,56.677,34.186z"/>
		<path fill-rule="evenodd" clip-rule="evenodd" fill="#6D6E71" d="M118.905,33.868c0,2.527-0.062,5.06,0.025,7.583
			c0.039,1.116-0.282,1.665-1.404,1.87c-2.798,0.505-5.581,0.873-8.443,0.464c-3.468-0.494-5.588-2.403-6.124-5.898
			c-0.629-4.104-0.197-8.246-0.264-12.372c-0.027-1.576,1.318-0.895,2.091-0.993c0.853-0.108,1.739-0.135,1.709,1.24
			c-0.071,2.712-0.027,5.428-0.018,8.139c0.004,0.8,0.016,1.604,0.105,2.399c0.374,3.368,1.631,4.498,5.032,4.569
			c3.545,0.076,3.545,0.076,3.545-3.448c0-3.819,0.071-7.647-0.034-11.466c-0.042-1.581,0.87-1.478,1.882-1.46
			c0.972,0.018,1.994-0.197,1.925,1.419C118.827,28.565,118.905,31.217,118.905,33.868z"/>
		<path fill-rule="evenodd" clip-rule="evenodd" fill="#6D6E71" d="M143.522,44.067c-0.856-0.131-2.194-0.335-3.533-0.549
			c-0.929-0.151-1.705-0.345-1.17-1.641c0.382-0.914,0.397-1.921,1.909-1.396c1.696,0.59,3.49,0.797,5.28,0.291
			c1.323-0.376,2.452-1.013,2.534-2.557c0.076-1.498-0.994-2.146-2.203-2.624c-1.539-0.616-3.116-1.156-4.625-1.838
			c-1.811-0.816-2.744-2.279-2.643-4.278c0.101-1.999,1.021-3.548,2.904-4.38c2.989-1.32,6.033-0.939,9.064-0.158
			c1.16,0.296,0.528,1.201,0.409,1.833c-0.122,0.671-0.373,1.301-1.354,1.004c-1.657-0.505-3.337-0.877-5.094-0.425
			c-1,0.253-1.936,0.531-2.046,1.776c-0.105,1.245,0.594,1.974,1.655,2.383c1.318,0.51,2.665,0.949,3.997,1.427
			c2.151,0.772,3.576,2.13,3.711,4.554c0.143,2.583-1.022,4.375-3.273,5.515C147.471,43.806,145.759,44.006,143.522,44.067z"/>
		<path fill-rule="evenodd" clip-rule="evenodd" fill="#6D6E71" d="M25.272,36.949c-3.989,4.01-7.984,8.017-11.962,12.04
			c-0.685,0.696-1.273,0.825-2.015,0.076c-4.1-4.159-3.806-2.78-0.263-6.429c2.955-3.038,5.992-6.007,9.014-8.979
			c0.405-0.402,0.676-1.107,1.469-0.901C22.598,34.305,24.335,35.27,25.272,36.949z"/>
		<path fill-rule="evenodd" clip-rule="evenodd" fill="#6D6E71" d="M25.272,36.949c-0.938-1.68-2.675-2.645-3.757-4.193
			c2.521-0.027,5.041-0.046,7.56-0.101c0.627-0.017,1.022,0.262,1.427,0.671c1.861,1.884,3.713,3.772,5.625,5.602
			c0.859,0.827,0.866,1.498,0.018,2.316c-3.883,3.733-2.568,3.516-6.057,0.239C28.479,39.971,27.138,38.181,25.272,36.949z"/>
	</g>
	<g>
		<path fill="#6D6E71" d="M48.501,12.906c-0.591,0.296-1.772,0.609-3.287,0.609c-3.508,0-6.147-2.234-6.147-6.314
			c0-3.896,2.64-6.537,6.499-6.537c1.551,0,2.529,0.333,2.954,0.554L48.132,2.53c-0.609-0.296-1.478-0.517-2.512-0.517
			c-2.917,0-4.855,1.865-4.855,5.133c0,3.047,1.754,5.004,4.782,5.004c0.979,0,1.976-0.203,2.621-0.517L48.501,12.906z"/>
		<path fill="#6D6E71" d="M51.156,9.14c0.036,2.197,1.439,3.102,3.064,3.102c1.163,0,1.865-0.203,2.474-0.461l0.277,1.163
			c-0.572,0.259-1.551,0.572-2.973,0.572c-2.751,0-4.395-1.828-4.395-4.523s1.588-4.819,4.191-4.819c2.917,0,3.692,2.566,3.692,4.21
			c0,0.332-0.036,0.591-0.055,0.757H51.156z M55.919,7.977c0.019-1.034-0.424-2.64-2.252-2.64c-1.644,0-2.363,1.514-2.493,2.64
			H55.919z"/>
		<path fill="#6D6E71" d="M59.497,7.164c0-1.052-0.019-1.957-0.073-2.788h1.421L60.9,6.13h0.074
			c0.406-1.199,1.385-1.957,2.474-1.957c0.185,0,0.313,0.019,0.462,0.055v1.533c-0.166-0.036-0.333-0.055-0.554-0.055
			c-1.146,0-1.958,0.867-2.179,2.086c-0.037,0.222-0.074,0.48-0.074,0.757v4.764h-1.606V7.164z"/>
		<path fill="#6D6E71" d="M67.933,2.234v2.142h2.326v1.237h-2.326v4.819c0,1.107,0.314,1.735,1.219,1.735
			c0.443,0,0.701-0.037,0.941-0.111l0.074,1.219c-0.314,0.13-0.813,0.24-1.44,0.24c-0.757,0-1.366-0.259-1.754-0.701
			c-0.462-0.48-0.628-1.274-0.628-2.327V5.613H64.96V4.376h1.385V2.732L67.933,2.234z"/>
		<path fill="#6D6E71" d="M73.895,1.865c0.019,0.554-0.388,0.997-1.034,0.997c-0.572,0-0.979-0.443-0.979-0.997
			c0-0.572,0.425-1.015,1.016-1.015C73.507,0.85,73.895,1.292,73.895,1.865z M72.085,13.313V4.376h1.625v8.937H72.085z"/>
		<path fill="#6D6E71" d="M76.569,13.313V5.613h-1.255V4.376h1.255v-0.48C76.569,1.533,77.954,0,80.466,0
			c0.83,0,1.809,0.259,2.271,0.591l-0.462,1.237c-0.388-0.277-1.089-0.517-1.883-0.517c-1.717,0-2.216,1.2-2.216,2.622v0.443h5.188
			v8.937h-1.606V5.613h-3.582v7.699H76.569z"/>
		<path fill="#6D6E71" d="M92.426,12.98c-0.425,0.222-1.366,0.535-2.566,0.535c-2.695,0-4.45-1.847-4.45-4.579
			c0-2.751,1.884-4.745,4.801-4.745c0.96,0,1.81,0.24,2.253,0.462l-0.369,1.256c-0.389-0.222-0.997-0.425-1.884-0.425
			c-2.05,0-3.157,1.514-3.157,3.379c0,2.067,1.329,3.342,3.102,3.342c0.924,0,1.533-0.24,1.994-0.443L92.426,12.98z"/>
		<path fill="#6D6E71" d="M100.602,11.171c0,0.775,0.037,1.532,0.148,2.142h-1.478l-0.129-1.126h-0.056
			c-0.498,0.701-1.459,1.329-2.732,1.329c-1.81,0-2.732-1.274-2.732-2.566c0-2.16,1.92-3.342,5.372-3.323V7.441
			c0-0.738-0.203-2.068-2.03-2.068c-0.831,0-1.699,0.259-2.326,0.665l-0.37-1.071c0.739-0.479,1.81-0.794,2.937-0.794
			c2.732,0,3.396,1.865,3.396,3.656V11.171z M99.032,8.752c-1.772-0.037-3.785,0.277-3.785,2.013c0,1.053,0.702,1.551,1.533,1.551
			c1.163,0,1.901-0.738,2.16-1.495c0.055-0.167,0.092-0.352,0.092-0.518V8.752z"/>
		<path fill="#6D6E71" d="M105.104,2.234v2.142h2.326v1.237h-2.326v4.819c0,1.107,0.314,1.735,1.219,1.735
			c0.443,0,0.701-0.037,0.941-0.111l0.074,1.219c-0.314,0.13-0.813,0.24-1.44,0.24c-0.757,0-1.366-0.259-1.754-0.701
			c-0.462-0.48-0.628-1.274-0.628-2.327V5.613h-1.385V4.376h1.385V2.732L105.104,2.234z"/>
		<path fill="#6D6E71" d="M111.065,1.865c0.019,0.554-0.388,0.997-1.034,0.997c-0.572,0-0.979-0.443-0.979-0.997
			c0-0.572,0.425-1.015,1.016-1.015C110.678,0.85,111.065,1.292,111.065,1.865z M109.256,13.313V4.376h1.625v8.937H109.256z"/>
		<path fill="#6D6E71" d="M121.661,8.771c0,3.305-2.289,4.745-4.449,4.745c-2.419,0-4.284-1.772-4.284-4.598
			c0-2.991,1.957-4.745,4.432-4.745C119.926,4.173,121.661,6.038,121.661,8.771z M114.571,8.863c0,1.957,1.126,3.434,2.714,3.434
			c1.551,0,2.715-1.458,2.715-3.471c0-1.515-0.758-3.435-2.678-3.435S114.571,7.164,114.571,8.863z"/>
		<path fill="#6D6E71" d="M123.707,6.795c0-0.923-0.019-1.68-0.073-2.419h1.439l0.093,1.478h0.037
			c0.442-0.85,1.477-1.681,2.954-1.681c1.236,0,3.157,0.739,3.157,3.804v5.336h-1.625V8.161c0-1.44-0.535-2.64-2.068-2.64
			c-1.07,0-1.901,0.757-2.179,1.661c-0.073,0.203-0.11,0.48-0.11,0.757v5.373h-1.625V6.795z"/>
	</g>
</g>
</svg>
