<?xml version="1.0" encoding="utf-8"?>
<!-- Generator: Adobe Illustrator 16.0.3, SVG Export Plug-In . SVG Version: 6.00 Build 0)  -->
<!DOCTYPE svg PUBLIC "-//W3C//DTD SVG 1.1//EN" "http://www.w3.org/Graphics/SVG/1.1/DTD/svg11.dtd">
<svg version="1.1" id="Layer_1" xmlns="http://www.w3.org/2000/svg" xmlns:xlink="http://www.w3.org/1999/xlink" x="0px" y="0px"
	 width="103.4px" height="57.984px" viewBox="0 0 103.4 57.984" enable-background="new 0 0 103.4 57.984" xml:space="preserve">
<g>
	<path fill="#00FFFF" d="M0,4.46c0.603-1.483,1.921-1.998,3.295-2.369c2.979-0.801,6.045-1.208,9.11-1.54
		c3.74-0.416,7.49-0.637,11.252-0.522c5.471,0.164,10.904,0.662,16.242,1.944C40.84,2.199,41.742,2.534,42.596,3
		c0.669,0.362,1.004,0.903,0.996,1.671c-0.005,4.006,0.008,8.007,0,12.007c0,0.798-0.476,1.351-1.046,1.817
		c-1.02,0.835-2.229,1.307-3.462,1.697c-2.845,0.902-5.771,1.338-8.723,1.626c-3.334,0.332-6.677,0.475-10.021,0.399
		c-4.557-0.104-9.09-0.401-13.55-1.41c-1.5-0.334-2.969-0.766-4.354-1.449C1.374,18.832,0.43,18.171,0,16.982
		C0,12.81,0,8.634,0,4.46z M20.566,6.828c4.747,0.007,9.188-0.131,13.613-0.617c1.897-0.214,3.799-0.469,5.639-1.026
		c0.462-0.14,0.919-0.301,1.321-0.576c0.54-0.375,0.532-0.778-0.025-1.128c-0.243-0.161-0.515-0.286-0.788-0.389
		c-0.866-0.344-1.778-0.541-2.692-0.705C33.24,1.611,28.801,1.4,24.356,1.292c-3.293-0.088-6.585,0-9.876,0.181
		c-2.86,0.154-5.707,0.399-8.526,0.926C4.804,2.619,3.646,2.839,2.61,3.424C1.935,3.805,1.93,4.266,2.589,4.66
		c0.292,0.169,0.614,0.301,0.942,0.42c1.204,0.432,2.463,0.642,3.72,0.834C11.764,6.597,16.309,6.748,20.566,6.828z M2.771,12.463
		c0.396,0.003,0.671-0.288,0.66-0.694c-0.006-0.427-0.271-0.616-0.653-0.651C2.431,11.08,2.065,11.465,2.1,11.815
		C2.142,12.204,2.368,12.435,2.771,12.463z"/>
	<path fill="#00FFFF" d="M0,40.272c0.204-0.447,0.387-0.915,0.808-1.228c0.138-0.105,0.229-0.153,0.396-0.032
		c1.755,1.285,3.813,1.825,5.882,2.279c3.563,0.791,7.186,1.106,10.824,1.269c3.378,0.154,6.76,0.12,10.131-0.117
		c3.891-0.277,7.757-0.715,11.481-1.969c1.05-0.354,2.064-0.786,2.937-1.487c0.187-0.147,0.311-0.147,0.489,0
		c0.365,0.298,0.602,0.664,0.625,1.144c0.016,0.445,0.021,0.896,0.021,1.342c0.007,3.483-0.03,6.971,0.022,10.454
		c0.016,1.275-0.596,2.077-1.574,2.702c-1.671,1.062-3.55,1.566-5.459,1.99c-3.388,0.754-6.836,1.087-10.304,1.252
		c-3.205,0.148-6.412,0.168-9.615-0.029c-4.187-0.253-8.35-0.672-12.368-1.968c-1.07-0.345-2.094-0.79-3.015-1.449
		C0.691,53.999,0.31,53.434,0,52.79C0,48.617,0,44.444,0,40.272z M3.377,47.06c-0.335,0.041-0.581,0.239-0.595,0.657
		c-0.014,0.389,0.299,0.717,0.678,0.685c0.387-0.039,0.64-0.255,0.664-0.664C4.147,47.37,3.812,47.051,3.377,47.06z"/>
	<path fill="#00FFFF" d="M0,22.053c0.151-0.114,0.117-0.313,0.188-0.467c0.354-0.779,0.554-0.835,1.235-0.366
		c1.622,1.121,3.489,1.625,5.369,2.057c3.232,0.755,6.52,1.082,9.829,1.272c2.96,0.17,5.924,0.207,8.886,0.077
		c4.468-0.204,8.91-0.567,13.224-1.843c1.425-0.426,2.822-0.929,3.962-1.942c0.163-0.138,0.25-0.09,0.384,0.024
		c0.301,0.269,0.459,0.604,0.491,0.996c0.024,0.309,0.024,0.615,0.024,0.93c0.008,3.672-0.012,7.344,0.015,11.018
		c0.01,0.958-0.367,1.654-1.077,2.223c-1.092,0.865-2.36,1.355-3.667,1.749c-3.164,0.965-6.425,1.388-9.708,1.66
		c-3.872,0.333-7.748,0.404-11.629,0.202c-4.425-0.228-8.825-0.63-13.09-1.962c-0.774-0.244-1.525-0.547-2.24-0.931
		C1.22,36.226,0.372,35.58,0,34.476C0,30.337,0,26.194,0,22.053z M4.124,30.291c0.009-0.433-0.316-0.776-0.683-0.751
		c-0.396,0.028-0.636,0.245-0.659,0.653c-0.021,0.388,0.287,0.699,0.676,0.686C3.864,30.861,4.078,30.627,4.124,30.291z"/>
	<path fill="#00FFFF" d="M67.798,35.828c0-2.848,0-5.693,0-8.537c0-1.438,0.141-2.849,0.598-4.228c0.929-2.781,2.87-4.43,5.71-5.027
		c1.602-0.341,3.22-0.35,4.83-0.039c3.448,0.671,5.604,2.853,6.254,6.304c0.19,0.989,0.277,1.979,0.277,2.982
		c0,5.754,0.01,11.517-0.009,17.271c-0.01,2.057-0.326,4.056-1.326,5.892c-0.189,0.354-0.676,0.682-0.534,1.036
		c0.124,0.297,0.619,0.448,0.956,0.664c0.566,0.363,1.126,0.728,1.703,1.071c0.229,0.135,0.257,0.252,0.115,0.482
		c-0.688,1.193-1.372,2.39-2.036,3.594c-0.174,0.318-0.315,0.305-0.59,0.124c-1.649-1.1-3.312-2.177-4.966-3.272
		c-0.26-0.177-0.496-0.216-0.815-0.161c-2.925,0.521-5.6,0.02-7.783-2.137c-1.313-1.296-1.888-2.971-2.185-4.756
		c-0.147-0.919-0.204-1.848-0.199-2.775C67.8,41.485,67.798,38.654,67.798,35.828z M74.899,35.889c0,2.83,0.003,5.656,0,8.479
		c-0.002,0.727,0.063,1.451,0.272,2.145c0.237,0.765,0.729,1.123,1.484,1.104c0.729-0.015,1.165-0.389,1.352-1.177
		c0.134-0.591,0.229-1.186,0.229-1.792c0.004-5.912,0.004-11.821,0-17.733c0-0.536-0.095-1.061-0.276-1.565
		c-0.24-0.646-0.636-0.952-1.313-0.972c-0.615-0.015-1.099,0.24-1.381,0.814C74.971,25.8,74.9,26.443,74.9,27.099
		C74.902,30.029,74.899,32.966,74.899,35.889z"/>
	<path fill="#00FFFF" d="M62.069,28.371c-1.048,0-2.106-0.018-3.154,0.012c-0.396,0.009-0.494-0.115-0.486-0.493
		c0.016-0.688-0.02-1.376-0.045-2.065c-0.033-0.891-0.556-1.417-1.422-1.452c-0.939-0.041-1.605,0.485-1.697,1.368
		c-0.11,1.021,0.26,1.899,0.854,2.695c0.88,1.186,2.036,2.1,3.077,3.128c1.296,1.287,2.66,2.503,3.874,3.874
		c1.898,2.151,2.819,4.655,2.857,7.51c0.027,2.146-0.125,4.27-0.819,6.322c-0.935,2.753-2.787,4.402-5.708,4.793
		c-1.939,0.264-3.854,0.161-5.732-0.386c-2.712-0.79-4.173-2.716-4.812-5.372c-0.268-1.128-0.413-2.271-0.431-3.428
		c-0.014-1.313,0.008-2.619-0.019-3.935c-0.007-0.372,0.112-0.46,0.467-0.457c2.054,0.012,4.104,0.012,6.157,0
		c0.329,0,0.439,0.085,0.435,0.431c-0.019,1.434-0.007,2.867-0.005,4.296c0,0.538,0.076,1.062,0.317,1.561
		c0.321,0.65,0.88,0.921,1.671,0.834c0.714-0.085,1.137-0.418,1.259-1.157c0.384-2.347,0.08-4.57-1.604-6.371
		c-1.676-1.79-3.437-3.495-5.168-5.224c-1.805-1.797-3.146-3.854-3.438-6.436c-0.25-2.237-0.053-4.444,0.901-6.522
		c1.057-2.279,2.895-3.554,5.333-3.952c1.877-0.299,3.747-0.201,5.581,0.327c2.256,0.651,3.749,2.116,4.544,4.304
		c0.64,1.753,0.844,3.578,0.864,5.433c0.007,0.318-0.122,0.367-0.392,0.364c-1.084-0.011-2.174-0.008-3.263-0.008
		C62.069,28.368,62.069,28.368,62.069,28.371z"/>
	<path fill="#00FFFF" d="M88.87,35.955c0-5.742,0.007-11.485-0.015-17.231c-0.004-0.521,0.148-0.618,0.632-0.611
		c1.983,0.027,3.969,0.034,5.951,0c0.523-0.01,0.604,0.149,0.603,0.632c-0.014,9.436-0.014,18.871-0.01,28.303
		c0,0.889-0.087,0.74,0.733,0.747c2.034,0.007,4.068,0.011,6.103-0.003c0.386-0.007,0.542,0.068,0.533,0.496
		c-0.023,1.69-0.023,3.387,0,5.072c0.005,0.429-0.136,0.507-0.528,0.507c-4.482-0.017-8.964-0.017-13.451,0.005
		c-0.471,0.002-0.568-0.139-0.564-0.581c0.015-5.779,0.007-11.557,0.007-17.334C88.865,35.955,88.867,35.955,88.87,35.955z"/>
</g>
<g>
	<g>
		<g>
			<path fill="#6D6E71" d="M155.804-4.357c2.322,0,4.639,0,6.957,0c0.085,0.264,0.321,0.215,0.518,0.246
				c0.797,0.139,1.595,0.242,2.387,0.411c12.879,2.723,22.638,13.236,24.422,26.286c0.03,0.229-0.053,0.516,0.261,0.64
				c0,2.322,0,4.639,0,6.96c-0.265,0.083-0.217,0.317-0.25,0.516c-0.139,0.813-0.246,1.636-0.422,2.446
				c-2.82,12.947-13.235,22.584-26.333,24.369c-0.217,0.029-0.479-0.035-0.581,0.25c-2.318,0-4.635,0-6.957,0
				c-0.085-0.262-0.322-0.211-0.516-0.246c-0.813-0.14-1.636-0.25-2.447-0.425c-12.946-2.821-22.578-13.234-24.368-26.334
				c-0.027-0.213,0.036-0.471-0.256-0.576c0-2.321,0-4.638,0-6.96c0.265-0.086,0.222-0.32,0.25-0.515
				c0.137-0.796,0.244-1.601,0.409-2.388C131.603,7.445,142.109-2.314,155.162-4.1C155.395-4.128,155.685-4.049,155.804-4.357z
				 M177.887,6.039c-0.066-0.292-0.268-0.386-0.422-0.514c-4.747-4.03-10.218-6.357-16.445-6.659
				c-10.025-0.486-18.085,3.371-24.219,11.299c-0.255,0.332-0.768,0.725-0.593,1.067c0.177,0.349,0.793,0.158,1.224,0.158
				c2.504,0,5.009-0.169,7.506-0.332c0.929-0.063,1.403,0.312,1.447,1.051c0.039,0.748-0.38,1.173-1.288,1.271
				c-0.679,0.07-1.358,0.119-2.041,0.167c-0.831,0.058-0.861,0.099-0.604,0.873c3.191,9.502,6.385,18.995,9.576,28.486
				c0.074,0.206,0.088,0.452,0.306,0.591c0.227-0.105,0.232-0.333,0.294-0.521c1.886-5.631,3.761-11.268,5.646-16.899
				c0.124-0.377,0.12-0.713-0.015-1.082c-1.322-3.595-2.643-7.19-3.938-10.792c-0.153-0.438-0.393-0.621-0.846-0.651
				c-0.805-0.051-1.61-0.117-2.41-0.238c-0.634-0.094-0.98-0.58-0.928-1.186c0.053-0.638,0.488-1.056,1.14-1.075
				c0.313-0.009,0.625,0.021,0.933,0.041c2.994,0.192,5.99,0.421,8.998,0.229c1.61-0.1,3.222-0.196,4.836-0.27
				c0.786-0.035,1.248,0.354,1.313,1.017c0.063,0.692-0.338,1.18-1.128,1.282c-0.699,0.092-1.401,0.144-2.104,0.188
				c-0.949,0.063-0.979,0.095-0.686,0.976c3.171,9.419,6.34,18.837,9.506,28.253c0.063,0.188,0.071,0.409,0.308,0.56
				c0.054-0.113,0.12-0.215,0.154-0.324c1.374-4.577,2.764-9.154,4.105-13.746c0.593-2.021,0.8-4.086,0.437-6.195
				c-0.411-2.382-1.479-4.465-2.74-6.478c-0.662-1.055-1.299-2.121-1.71-3.302c-0.406-1.157-0.584-2.339-0.231-3.538
				C173.93,7.46,175.458,6.215,177.887,6.039z M159.792,29.273c-0.142,0.331-0.216,0.477-0.269,0.627
				c-2.633,7.649-5.265,15.299-7.913,22.944c-0.188,0.545-0.03,0.71,0.478,0.846c5.309,1.379,10.567,1.238,15.795-0.408
				c0.479-0.151,0.589-0.326,0.404-0.831c-2.646-7.206-5.272-14.422-7.904-21.628C160.211,30.36,160.036,29.906,159.792,29.273z
				 M133.845,15.568c-0.054,0.006-0.105,0.015-0.158,0.02c-0.09,0.207-0.186,0.411-0.273,0.618
				c-1.931,4.797-2.563,9.766-1.692,14.861c1.562,9.137,6.502,15.905,14.614,20.371c0.165,0.088,0.363,0.312,0.547,0.135
				c0.146-0.135-0.038-0.344-0.079-0.521c-0.02-0.075-0.057-0.151-0.081-0.231c-4.047-11.072-8.085-22.156-12.135-33.232
				C134.339,16.913,134.095,16.24,133.845,15.568z M184.095,13.858c-0.054,0.012-0.107,0.021-0.163,0.026
				c-0.015,0.041-0.039,0.081-0.039,0.118c0,0.124,0,0.249,0.007,0.372c0.331,3.596-0.34,7.042-1.51,10.421
				c-2.92,8.377-5.833,16.763-8.744,25.146c-0.067,0.2-0.217,0.402-0.064,0.746c6.033-3.727,10.226-8.878,12.331-15.624
				C188.191,27.758,187.484,20.674,184.095,13.858z"/>
		</g>
		<g>
			<g>
				<g>
					<path fill="#6D6E71" d="M246.9-4.924c3.625,0,7.256,0,11.056,0c-0.714,1.251-1.364,2.407-2.03,3.558
						c-8.169,14.114-16.335,28.227-24.505,42.346c-0.812,1.394-0.819,1.402-1.62,0.02c-8.711-15.052-17.417-30.105-26.119-45.16
						c-0.13-0.218-0.351-0.404-0.271-0.757c3.614,0,7.238,0,10.859,0c0.067,0.147,0.135,0.298,0.216,0.438
						c4.523,7.828,9.048,15.652,13.577,23.481c0.814,1.4,1.638,2.81,2.446,4.201c0.387-0.138,0.44-0.42,0.563-0.635
						c4.058-6.995,8.122-13.993,12.162-21.002C244.469-0.59,245.811-2.686,246.9-4.924z"/>
					<path fill="#6D6E71" d="M230.604,42.983c-0.758,0-1.107-0.598-1.633-1.507c-8.709-15.052-17.42-30.104-26.118-45.159
						c-0.202-0.29-0.524-0.749-0.384-1.434l0.157-0.758h12.23l0.455,0.921l15.291,26.419l1.481-2.554
						c3.439-5.939,6.89-11.878,10.314-17.826c0.357-0.618,0.722-1.236,1.087-1.853c0.88-1.483,1.792-3.021,2.553-4.579l0.265-0.538
						h13.302l-1.562,2.737c-0.44,0.772-0.858,1.519-1.291,2.26L232.25,41.455C231.715,42.377,231.36,42.983,230.604,42.983z
						 M204.9-3.962c8.57,14.819,17.137,29.631,25.704,44.437l24.494-42.319c0.403-0.7,0.802-1.399,1.213-2.123h-8.818
						c-0.73,1.44-1.559,2.833-2.356,4.18c-0.361,0.608-0.721,1.217-1.073,1.833c-3.434,5.949-6.875,11.887-10.321,17.828
						l-1.841,3.178c-0.151,0.313-0.396,0.814-1.07,1.055l-0.751,0.269L213.678-3.962H204.9z"/>
				</g>
				<path fill="#6D6E71" d="M230.079,24.371L213.655-4.001c-0.069-0.122-0.127-0.238-0.185-0.358l-0.637-1.357l1.428-0.157
					l2.798-0.012c2.211-0.008,4.417-0.013,6.629-0.041c1.131,0,1.576,0.771,1.793,1.146l5.119,8.851
					c1.728-2.96,3.447-5.928,5.154-8.898c0.271-0.473,0.752-1.099,1.801-1.099c2.354,0.025,4.685,0.029,7.015,0.036l3.856,0.013
					l-0.668,1.372c-0.793,1.632-1.724,3.203-2.624,4.718c-0.36,0.608-0.725,1.217-1.072,1.833
					c-3.438,5.951-6.884,11.903-10.33,17.847L231.9,23.05c-0.151,0.313-0.396,0.814-1.07,1.055L230.079,24.371z M215.886-3.966
					l14.719,25.432l1.469-2.536c3.448-5.944,6.897-11.888,10.328-17.843c0.357-0.618,0.722-1.236,1.087-1.853
					c0.62-1.044,1.254-2.118,1.845-3.207l-0.768-0.002c-2.334-0.007-4.671-0.011-7.006-0.038l-0.144,0.135
					c-1.794,3.127-3.6,6.244-5.42,9.354c-0.209,0.447-0.473,1.027-1.213,1.251l-0.729,0.226l-6.233-10.777
					c-0.027-0.046-0.11-0.189-0.147-0.229c-2.181,0.07-4.393,0.077-6.604,0.082L215.886-3.966z"/>
			</g>
			<g>
				<path fill="#6D6E71" d="M215.444,59.94c-0.498-0.005-0.882-0.304-1.029-0.839c-0.641-2.305-1.422-4.561-2.077-6.857
					c-0.437-1.535-0.972-3.042-1.402-4.577c-0.131-0.455-0.011-0.689,0.449-0.841c0.504-0.161,0.849-0.027,0.978,0.401
					c0.335,1.143,0.646,2.3,0.992,3.444c0.515,1.714,1.067,3.414,1.566,5.131c0.134,0.459,0.25,0.928,0.394,1.388
					c0.037,0.105,0.022,0.255,0.194,0.236c0.113-0.016,0.122-0.133,0.149-0.228c0.324-1.151,0.645-2.301,0.983-3.449
					c0.52-1.76,1.065-3.516,1.595-5.279c0.117-0.4,0.189-0.805,0.347-1.192c0.188-0.474,0.39-0.604,0.862-0.477
					c0.515,0.139,0.7,0.426,0.558,0.924c-0.184,0.637-0.4,1.265-0.597,1.898c-0.621,2.027-1.216,4.065-1.856,6.089
					c-0.365,1.135-0.722,2.266-1.053,3.414C216.341,59.66,215.955,59.945,215.444,59.94z"/>
				<path fill="#6D6E71" d="M233.452,55.993c-0.669,0-1.338,0.005-2.006-0.006c-0.278-0.005-0.375,0.096-0.384,0.378
					c-0.035,1.14,0.605,1.938,1.709,2.246c0.907,0.254,1.69,0.064,2.466-0.391c0.447-0.267,0.831-0.216,1.016,0.099
					c0.206,0.356,0.102,0.667-0.334,0.964c-1.711,1.167-4.466,0.807-5.702-0.769c-0.375-0.478-0.61-1.023-0.615-1.641
					c-0.01-0.859-0.029-1.709-0.002-2.563c0.033-1.085,0.617-1.884,1.49-2.454c1.642-1.076,4.008-0.7,4.99,1.004
					c0.464,0.801,0.72,1.65,0.287,2.561c-0.172,0.372-0.471,0.552-0.861,0.557c-0.685,0.015-1.372,0.004-2.054,0.004
					C233.452,55.983,233.452,55.988,233.452,55.993z M232.928,55.039v-0.004c0.452,0,0.899,0.009,1.349-0.003
					c0.848-0.027,1.029-0.275,0.825-1.104c-0.27-1.103-1.33-1.695-2.578-1.445c-0.944,0.188-1.64,1.263-1.489,2.281
					c0.042,0.263,0.195,0.273,0.389,0.273C231.924,55.039,232.427,55.039,232.928,55.039z"/>
				<path fill="#6D6E71" d="M227.829,54.407c0,0.717,0,1.438,0,2.159c-0.009,1.47-1.023,2.665-2.364,3.186
					c-1.648,0.642-3.587-0.216-4.399-1.768c-0.226-0.433-0.353-0.934-0.358-1.44c0-1.47,0-2.94,0-4.411
					c0-0.538,0.266-0.74,0.915-0.735c0.34,0.002,0.625,0.336,0.627,0.749c0.007,1.509-0.024,3.011,0.015,4.514
					c0.046,1.492,1.634,2.441,2.908,1.751c0.764-0.413,1.187-1.08,1.18-1.987c-0.01-1.404-0.002-2.806-0.002-4.21
					c0-0.719,0.478-1.05,1.149-0.781c0.268,0.11,0.336,0.349,0.331,0.618C227.82,52.836,227.829,53.622,227.829,54.407z"/>
				<path fill="#6D6E71" d="M247.433,59.945c-0.87-0.024-1.709-0.192-2.458-0.683c-0.229-0.156-0.414-0.333-0.414-0.637
					c0-0.246,0.056-0.441,0.292-0.59c0.229-0.154,0.391-0.03,0.538,0.082c0.741,0.554,1.565,0.752,2.482,0.649
					c0.852-0.101,1.33-0.634,1.197-1.383c-0.092-0.501-0.45-0.781-0.878-0.944c-0.646-0.251-1.313-0.453-1.964-0.686
					c-0.924-0.323-1.467-1.021-1.496-1.896c-0.03-1.071,0.442-1.864,1.376-2.266c1.264-0.542,2.5-0.411,3.72,0.152
					c0.412,0.191,0.384,0.521,0.251,0.839c-0.134,0.318-0.396,0.438-0.737,0.269c-0.593-0.299-1.218-0.45-1.882-0.399
					c-0.302,0.017-0.582,0.078-0.841,0.26c-0.407,0.292-0.606,0.649-0.523,1.148c0.07,0.467,0.428,0.661,0.802,0.798
					c0.667,0.248,1.347,0.449,2.02,0.681c1.654,0.569,1.921,2.601,1.083,3.646c-0.511,0.637-1.255,0.829-2.021,0.953
					C247.808,59.973,247.614,59.945,247.433,59.945z"/>
				<path fill="#6D6E71" d="M242.945,56.559c-0.046,1.488,0.104,3.268-0.131,5.027c-0.183,1.41-1.107,2.371-2.373,2.32
					c-0.397-0.015-0.735-0.119-0.779-0.592c-0.039-0.388,0.232-0.69,0.703-0.726c0.55-0.046,0.818-0.35,0.938-0.854
					c0.114-0.474,0.116-0.956,0.116-1.438c0.003-2.725,0.005-5.45-0.002-8.171c-0.003-0.399,0.078-0.689,0.533-0.725
					c0.698-0.055,0.887,0.059,0.962,0.618c0.039,0.283,0.03,0.565,0.03,0.854C242.948,54.01,242.945,55.149,242.945,56.559z"/>
				<path fill="#6D6E71" d="M239.667,58.984c-0.005,0.616-0.423,0.891-0.894,0.944c-0.411,0.044-0.949-0.503-0.966-0.917
					c-0.021-0.469,0.46-0.933,0.966-0.937C239.317,58.067,239.667,58.426,239.667,58.984z"/>
			</g>
		</g>
		<g>
			<path fill="#6D6E71" d="M287.573-4.872c1.26-0.067,1.836,0.338,2.272,1.078c4.18,7.177,8.385,14.338,12.563,21.515
				c1.106,1.899,1.072,1.909,3.178,1.397c4.839-1.188,9.683-2.387,14.537-3.531c0.896-0.214,0.938-0.451,0.407-1.15
				c-1.73-2.278-3.412-4.598-5.11-6.898c-0.82-1.113-0.727-1.391,0.604-1.624c2.665-0.479,5.342-0.919,8-1.423
				c0.754-0.144,1.306,0.096,1.753,0.625c2.298,2.71,4.606,5.426,6.868,8.168c0.669,0.813,0.521,1.179-0.516,1.457
				c-2.199,0.592-4.407,1.165-6.627,1.69c-0.868,0.204-0.965,0.444-0.406,1.167c2.111,2.725,4.174,5.488,6.233,8.246
				c0.968,1.292,0.873,1.583-0.625,2.127c-6.22,2.25-12.435,4.512-18.659,6.752c-2.04,0.732-2.417,0.62-3.479-1.225
				c-1.849-3.223-3.688-6.449-5.443-9.723c-0.552-1.026-1.101-1.317-2.266-0.988c-3.609,1.013-7.256,1.903-10.896,2.823
				c-1.699,0.432-2.266,0.177-2.955-1.361c-3.905-8.726-7.808-17.449-11.696-26.185c-0.767-1.715-0.66-1.886,1.199-2.042
				C280.329-4.294,284.147-4.592,287.573-4.872z M287.004-3.231c-2.781,0.248-5.438,0.522-8.097,0.702
				c-0.995,0.065-1.094,0.362-0.683,1.201c1.461,2.981,2.884,5.984,4.308,8.984c2.247,4.751,4.487,9.508,6.717,14.263
				c0.234,0.488,0.452,0.898,1.104,0.748c3.353-0.777,6.7-1.56,10.055-2.313c0.582-0.13,0.563-0.352,0.316-0.789
				c-4.155-7.364-8.309-14.733-12.438-22.11C287.943-3.156,287.534-3.392,287.004-3.231z M322.255,17.3
				c-0.156,0.024-0.233,0.024-0.311,0.049c-5.484,1.414-10.975,2.837-16.458,4.249c-0.586,0.147-0.601,0.397-0.313,0.886
				c1.763,2.953,3.504,5.922,5.239,8.894c0.284,0.489,0.578,0.593,1.128,0.404c5.51-1.895,11.021-3.771,16.548-5.607
				c0.815-0.272,0.725-0.537,0.294-1.104c-1.816-2.404-3.604-4.832-5.386-7.267C322.772,17.5,322.593,17.242,322.255,17.3z
				 M323.7,14.725c1.87-0.471,4.049-0.996,6.211-1.571c0.526-0.138,0.211-0.464,0.027-0.693c-1.555-1.878-3.115-3.738-4.65-5.631
				c-0.397-0.488-0.851-0.598-1.43-0.492c-1.899,0.332-3.801,0.657-5.702,0.977c-0.844,0.139-0.421,0.513-0.168,0.85
				c1.524,2.024,3.051,4.049,4.574,6.078C322.772,14.515,322.969,14.817,323.7,14.725z"/>
			<path fill="#6D6E71" d="M295.737,53.769c0,0.696-0.014,1.394,0,2.091c0.014,0.519-0.131,1.122,0.683,1.234
				c0.353,0.048,0.319,0.393,0.292,0.659c-0.031,0.322-0.256,0.464-0.554,0.489c-0.552,0.053-1.172,0.088-1.476-0.438
				c-0.416-0.731-0.783-0.438-1.272-0.138c-0.777,0.483-1.646,0.666-2.558,0.577c-1.252-0.124-2.206-1.008-2.391-2.172
				c-0.209-1.367,0.404-2.456,1.702-2.947c0.949-0.363,1.97-0.363,2.96-0.524c0.547-0.087,1.102-0.161,1.13-0.899
				c0.03-0.714-0.272-1.163-0.962-1.389c-1.28-0.423-2.204-0.12-2.882,1.095c-0.326,0.588-0.802,0.418-1.201,0.329
				c-0.523-0.109-0.248-0.558-0.18-0.86c0.161-0.684,0.584-1.165,1.225-1.454c1.418-0.655,2.851-0.614,4.278-0.032
				c0.805,0.331,1.175,0.98,1.19,1.829c0.022,0.85,0.009,1.7,0.009,2.55C295.732,53.769,295.732,53.769,295.737,53.769z
				 M294.246,54.538c-0.28-0.182,0.37-0.948-0.359-0.885c-1.025,0.088-2.099,0.129-3.058,0.594c-0.68,0.333-0.912,0.933-0.783,1.653
				c0.11,0.644,0.56,0.999,1.18,1.126C292.762,57.34,294.202,56.2,294.246,54.538z"/>
			<path fill="#6D6E71" d="M310.544,53.773c0,0.701-0.007,1.397,0.004,2.097c0.01,0.517-0.135,1.118,0.684,1.225
				c0.354,0.048,0.294,0.402,0.279,0.664c-0.016,0.273-0.202,0.425-0.444,0.459c-0.545,0.083-1.195,0.166-1.498-0.347
				c-0.434-0.729-0.808-0.555-1.358-0.195c-0.737,0.462-1.576,0.644-2.444,0.579c-1.315-0.103-2.324-0.988-2.487-2.196
				c-0.193-1.401,0.4-2.436,1.716-2.937c0.949-0.363,1.97-0.363,2.957-0.521c0.557-0.087,1.092-0.175,1.131-0.907
				c0.039-0.729-0.301-1.159-0.981-1.386c-1.281-0.423-2.258-0.112-2.895,1.087c-0.326,0.606-0.798,0.42-1.188,0.342
				c-0.51-0.109-0.257-0.563-0.179-0.869c0.177-0.725,0.657-1.207,1.332-1.506c0.834-0.375,1.715-0.469,2.613-0.384
				c2.093,0.202,2.762,0.944,2.762,3.055C310.546,52.613,310.544,53.196,310.544,53.773z M309.068,54.521
				c-0.18-0.244,0.331-0.954-0.402-0.878c-0.985,0.104-2.001,0.156-2.938,0.544c-0.695,0.29-0.955,0.859-0.885,1.591
				c0.067,0.707,0.501,1.104,1.165,1.245C307.57,57.36,309.034,56.184,309.068,54.521z"/>
			<path fill="#6D6E71" d="M325.469,54.095c-0.77,0-1.544,0.02-2.315-0.004c-0.647-0.023-0.801,0.271-0.681,0.861
				c0.217,1.021,0.661,1.848,1.77,2.05c1.078,0.204,1.992-0.104,2.59-1.097c0.076-0.129,0.126-0.284,0.211-0.411
				c0.341-0.491,0.89-0.379,1.262-0.229c0.57,0.241,0.098,0.671-0.046,0.958c-0.941,1.859-3.382,2.608-5.301,1.646
				c-1.654-0.827-2.458-2.663-2.174-4.965c0.246-2.014,1.416-3.427,3.166-3.843c2.731-0.644,5.28,1.778,4.813,4.535
				c-0.092,0.521-0.394,0.492-0.739,0.492C327.172,54.095,326.324,54.095,325.469,54.095z M324.814,52.894
				c0.537,0,1.077-0.029,1.612,0.007c0.634,0.034,0.8-0.187,0.638-0.813c-0.278-1.085-0.859-1.792-2.017-1.907
				c-1.084-0.104-2.025,0.51-2.426,1.569c-0.29,0.77-0.21,1.271,0.809,1.15C323.886,52.85,324.35,52.894,324.814,52.894z"/>
			<path fill="#6D6E71" d="M316.113,55.876c0.625-1.856,1.252-3.709,1.887-5.563c0.097-0.29,0.16-0.621,0.342-0.854
				c0.368-0.484,0.963-0.35,1.381-0.188c0.487,0.186,0.052,0.607-0.05,0.878c-0.842,2.321-1.734,4.628-2.583,6.948
				c-0.212,0.593-0.43,0.968-1.191,0.956c-0.728-0.016-0.9-0.384-1.102-0.924c-0.814-2.291-1.675-4.563-2.475-6.858
				c-0.11-0.308-0.682-0.837,0.007-1.021c0.561-0.156,1.298-0.313,1.576,0.644c0.462,1.592,1.004,3.166,1.521,4.74
				c0.133,0.401,0.282,0.797,0.427,1.194C315.937,55.842,316.026,55.859,316.113,55.876z"/>
			<path fill="#6D6E71" d="M332.027,51.995c0,1.746-0.021,3.487,0.014,5.229c0.009,0.599-0.159,0.818-0.784,0.813
				c-0.605-0.005-0.795-0.2-0.79-0.808c0.025-3.487,0.023-6.972,0.003-10.459c-0.003-0.593,0.167-0.822,0.783-0.83
				c0.627-0.005,0.797,0.232,0.783,0.825C332.01,48.51,332.027,50.249,332.027,51.995z"/>
			<path fill="#6D6E71" d="M286.693,51.936c0,1.746-0.009,3.483,0.01,5.226c0.007,0.52-0.005,0.876-0.706,0.876
				c-0.673,0-0.843-0.23-0.838-0.871c0.027-3.446,0.025-6.89,0.002-10.331c-0.007-0.625,0.144-0.902,0.832-0.896
				c0.696,0.01,0.714,0.377,0.71,0.896C286.685,48.535,286.693,50.235,286.693,51.936z"/>
			<path fill="#6D6E71" d="M298.164,53.631c0-1.199-0.01-2.398,0.004-3.594c0.003-0.326-0.135-0.776,0.389-0.815
				c0.351-0.024,0.849-0.228,1.01,0.27c0.201,0.63,0.447,0.336,0.724,0.112c0.399-0.316,0.829-0.567,1.347-0.625
				c0.409-0.044,0.812-0.054,0.778,0.544c-0.021,0.4,0.11,0.795-0.564,0.905c-1.651,0.276-2.193,0.997-2.216,2.688
				c-0.011,1.116,0.076,2.246-0.034,3.356c-0.053,0.528,0.623,1.505-0.669,1.546c-1.319,0.041-0.69-0.956-0.74-1.493
				C298.094,55.57,298.164,54.596,298.164,53.631z"/>
		</g>
	</g>
	<g>
		<path fill="#6D6E71" d="M411.32,54.929c0.007-8.141,0-16.281,0.039-24.422c0.005-0.846-0.555-2.066,1.126-2.191
			c1.441-0.112,2.419,0.161,2.39,1.86c0,0.166,0.145,0.329,0.267,0.586c1.408-1.657,3.144-2.56,5.289-2.696
			c3.906-0.245,6.86,1.777,7.923,5.522c0.61,2.177,0.661,4.409,0.231,6.597c-1.048,5.356-5.687,8.414-11.539,7.52
			c-1.604-0.239-1.969,0.046-1.965,1.648c0,1.854,0.568,3.794-0.427,5.576C413.542,54.929,412.432,54.929,411.32,54.929z
			 M415.136,39.471c0,1.408,0.013,2.575-0.005,3.747c-0.007,0.598,0.081,1.039,0.756,1.289c3.765,1.39,7.911-0.733,8.728-4.515
			c0.357-1.65,0.341-3.318-0.022-4.961c-0.549-2.521-2.108-3.813-4.504-3.802c-2.397,0.02-4.188,1.487-4.747,3.862
			C414.985,36.623,415.213,38.168,415.136,39.471z"/>
		<path fill="#6D6E71" d="M444.667,54.929c0.009-2.028-0.061-4.068,0.055-6.1c0.073-1.273-0.403-1.445-1.483-1.224
			c-2.033,0.423-4.064,0.217-6.045-0.323c-3.407-0.929-5.55-3.514-5.896-7.021c-0.776-7.803,3.707-12.518,11.553-12.164
			c5.606,0.258,5.606,0.258,5.606,5.859c0,6.301,0,12.594,0,18.896c0,0.723,0.132,1.479-0.454,2.074
			C446.888,54.929,445.778,54.929,444.667,54.929z M444.694,37.81c0-1.786-0.005-3.565,0.002-5.354
			c0.002-0.583,0.002-1.148-0.785-1.189c-1.776-0.097-3.564-0.313-5.258,0.516c-2.823,1.37-4.261,5.278-3.271,8.982
			c0.761,2.863,3.113,4.274,6.61,3.954c0.427-0.039,0.854-0.145,1.282-0.148c1.079-0.008,1.498-0.472,1.441-1.595
			C444.63,41.256,444.696,39.532,444.694,37.81z"/>
		<path fill="#6D6E71" d="M373.155,22.698c0.956,0.959,1.892,1.938,2.877,2.86c0.807,0.765,0.766,1.407-0.013,2.183
			c-3.761,3.728-7.482,7.5-11.256,11.218c-1.111,1.094-9.06,0.795-10.211-0.28c-2.101-1.967-3.925-4.219-6.225-5.979
			c0-0.492,0-0.988,0-1.479c1.204-0.455,1.848-1.554,2.686-2.396c0.896-0.902,1.553-0.953,2.443-0.016
			c1.782,1.873,3.648,3.665,5.475,5.499c0.446,0.445,0.795,0.914,1.479,0.216c3.859-3.964,7.753-7.89,11.634-11.825
			C372.416,22.698,372.788,22.698,373.155,22.698z"/>
		<path fill="#6D6E71" d="M514.323,47.521c-1.592,0.061-3.159,0.489-4.779,0.188c-3.04-0.565-4.418-2.056-4.467-5.144
			c-0.051-3.084-0.066-6.167,0.012-9.246c0.032-1.257-0.122-2.021-1.646-1.772c-0.411,0.068-1.07,0.313-1.306-0.276
			c-0.219-0.561,0.374-0.858,0.689-1.199c1.855-2.025,3.738-4.026,5.969-6.431c0,1.585,0.056,2.665-0.018,3.733
			c-0.063,0.947,0.213,1.37,1.222,1.263c0.733-0.075,1.48,0.021,2.22-0.021c1.011-0.061,1.758-0.023,1.753,1.384
			c0,1.369-0.556,1.612-1.767,1.602c-3.41-0.035-3.414,0.017-3.41,3.458c0.005,2.157-0.05,4.317,0.037,6.474
			c0.117,2.842,1.089,3.669,3.851,3.219c0.76-0.124,1.226-0.03,1.64,0.552C514.323,46.039,514.323,46.779,514.323,47.521z"/>
		<path fill="#6D6E71" d="M484.832,39.964c0,1.905-0.032,3.824,0.019,5.729c0.02,0.82-0.214,1.265-1.059,1.402
			c-2.928,0.479-5.839,0.951-8.823,0.459c-3.206-0.521-5.058-2.256-5.379-5.174c-0.309-2.773,1.286-5.236,4.136-6.287
			c1.941-0.717,3.981-0.924,6.014-0.629c1.289,0.186,1.452-0.28,1.328-1.384c-0.195-1.654-1.112-2.568-2.678-2.853
			c-1.784-0.318-3.576-0.23-5.313,0.283c-1.155,0.342-1.564-0.187-1.743-1.197c-0.173-0.947-0.159-1.59,1.098-1.804
			c2.393-0.409,4.754-0.71,7.167-0.274c3.154,0.57,4.932,2.422,5.128,5.619c0.127,2.026,0.023,4.069,0.023,6.106
			C484.775,39.964,484.804,39.964,484.832,39.964z M481.119,41.555c0-3.401,0-3.422-3.416-3.276
			c-0.728,0.031-1.475,0.158-2.169,0.387c-1.563,0.498-2.22,1.663-2.128,3.267c0.097,1.686,1.041,2.551,3.056,2.838
			C480.276,45.309,481.119,44.721,481.119,41.555z"/>
		<path fill="#6D6E71" d="M390.827,37.997c-0.02-6.865,4.202-10.684,10.822-9.788c4.61,0.616,7.487,4.495,7.392,9.961
			c-0.122,6.891-4.88,10.77-11.521,9.386C393.267,46.674,390.843,43.211,390.827,37.997z M405.006,37.975
			c0.095-1.25-0.104-2.466-0.498-3.635c-0.747-2.201-2.266-3.261-4.594-3.271c-2.357-0.007-3.807,0.99-4.559,3.266
			c-0.792,2.41-0.792,4.853,0.005,7.256c0.754,2.275,2.239,3.312,4.545,3.309c2.266,0,3.828-1.104,4.589-3.299
			C404.898,40.436,405.095,39.22,405.006,37.975z"/>
		<path fill="#6D6E71" d="M467.234,37.657c0,2.526-0.063,5.06,0.024,7.583c0.039,1.115-0.282,1.665-1.403,1.869
			c-2.799,0.506-5.581,0.873-8.443,0.465c-3.468-0.494-5.588-2.403-6.124-5.898c-0.629-4.104-0.197-8.246-0.264-12.372
			c-0.027-1.576,1.317-0.895,2.091-0.993c0.853-0.107,1.739-0.135,1.709,1.24c-0.071,2.712-0.027,5.428-0.019,8.139
			c0.004,0.801,0.017,1.604,0.105,2.399c0.374,3.368,1.631,4.498,5.032,4.569c3.545,0.075,3.545,0.075,3.545-3.448
			c0-3.819,0.07-7.647-0.034-11.466c-0.042-1.581,0.87-1.479,1.882-1.46c0.972,0.018,1.994-0.197,1.925,1.419
			C467.156,32.354,467.234,35.006,467.234,37.657z"/>
		<path fill="#6D6E71" d="M491.851,47.856c-0.855-0.131-2.193-0.335-3.532-0.549c-0.93-0.15-1.705-0.345-1.17-1.641
			c0.382-0.914,0.396-1.921,1.908-1.396c1.696,0.59,3.49,0.797,5.28,0.291c1.323-0.376,2.452-1.013,2.534-2.557
			c0.076-1.498-0.994-2.146-2.203-2.624c-1.539-0.616-3.116-1.156-4.625-1.838c-1.811-0.816-2.744-2.279-2.643-4.278
			c0.101-1.999,1.021-3.548,2.903-4.38c2.989-1.32,6.033-0.939,9.064-0.158c1.16,0.296,0.527,1.201,0.409,1.833
			c-0.122,0.671-0.373,1.301-1.354,1.004c-1.657-0.505-3.337-0.877-5.094-0.425c-1,0.253-1.937,0.531-2.046,1.776
			c-0.105,1.245,0.594,1.974,1.655,2.383c1.317,0.51,2.664,0.949,3.996,1.427c2.151,0.772,3.576,2.13,3.711,4.554
			c0.144,2.583-1.021,4.375-3.272,5.516C495.8,47.595,494.088,47.795,491.851,47.856z"/>
		<path fill="#6D6E71" d="M373.601,40.738c-3.988,4.011-7.983,8.018-11.962,12.04c-0.685,0.696-1.272,0.825-2.015,0.076
			c-4.1-4.159-3.806-2.779-0.263-6.429c2.955-3.038,5.991-6.007,9.014-8.979c0.405-0.401,0.676-1.106,1.469-0.9
			C370.927,38.094,372.664,39.059,373.601,40.738z"/>
		<path fill="#6D6E71" d="M373.601,40.738c-0.938-1.68-2.675-2.645-3.757-4.192c2.521-0.027,5.041-0.046,7.561-0.102
			c0.627-0.017,1.021,0.263,1.427,0.672c1.861,1.884,3.713,3.771,5.625,5.602c0.859,0.827,0.866,1.498,0.018,2.316
			c-3.883,3.732-2.567,3.516-6.057,0.238C376.808,43.76,375.467,41.97,373.601,40.738z"/>
	</g>
	<text transform="matrix(1 0 0 1 386.7302 17.1018)" fill="#6D6E71" font-family="'MyriadPro-Regular'" font-size="18.4567">Certification</text>
</g>
</svg>
